<svg width="60" height="70" viewBox="0 0 60 70" fill="none" xmlns="http://www.w3.org/2000/svg">
<g clip-path="url(#clip0_2_2593)">
<path d="M59.5333 27.9324C59.2 27.5942 58.8 27.3913 58.2667 27.3913H58.0667L48 17.1787V17.1111L48.0667 3.24638V1.69082C48.0667 1.62319 48.0667 1.55556 48.0667 1.48792C48 0.676328 47.2667 0 46.3333 0H13.8C12.8667 0 12.0667 0.811594 12.0667 1.75845L12 16.9758L10.7333 18.2609L2.86667 26.2415L1.66667 27.3913C1.2 27.3913 0.733333 27.5942 0.466667 27.9324C0.2 28.2029 0 28.6763 0 29.1498V68.2415C0 69.1884 0.8 70 1.73333 70H58.2667C59.2 70 60 69.1884 60 68.2415V29.1498C60 28.6763 59.8 28.2705 59.5333 27.9324ZM48 30.4348L48.0667 27.3913H48V21.3043L48.0667 21.372V21.3043L54.9333 28.2705L48.0667 35.2367V35.1691L48 35.2367V30.4348ZM15.0667 3.04348H45.0667V4.59903L45 14.1353V18.1932V18.2609V38.2802L36.8667 46.5314L34.7333 48.6957L29.8667 53.6329L15 38.4831L15.0667 3.04348ZM6 27.3913L9.53333 23.8068L9.86667 23.4686L12 21.3043V35.4396L5 28.4058L6 27.3913ZM3 30.4348L21 48.6957L3 66.9565V30.4348ZM7.13333 66.9565L21 52.8889L23.0667 50.7923L28.6667 56.4734C29.4 57.2174 30.6 57.2174 31.3333 56.4734L36.8667 50.8599L52.8 66.9565H7.13333ZM57 30.4348V66.9565L48.0667 57.8937L39.0667 48.6957H39L57 30.4348Z" fill="#322016"/>
<path d="M21.8001 25.0242L21.7334 24.9565C21.7334 24.9565 21.7334 24.9565 21.8001 25.0242Z" fill="#322016"/>
<path d="M38.4681 24.8889C38.3993 24.9575 38.4681 24.9575 38.4681 24.8889V24.8889Z" fill="#322016"/>
<path d="M39.7335 21.1691C39.7335 22.5894 39.2668 23.8744 38.4668 24.8889L38.4001 24.9566L30.0668 33.4107L22.6668 25.9034L21.8001 25.0242C21.8001 25.0242 21.8001 25.0242 21.8001 24.9566L21.7335 24.8889C20.9335 23.8744 20.4668 22.5894 20.4668 21.1691C20.4668 17.8551 23.1335 15.0822 26.4001 15.0822C27.8001 15.0822 29.0668 15.5556 30.0668 16.3672C31.0668 15.5556 32.3335 15.0822 33.7335 15.0822C37.0668 15.1498 39.7335 17.8551 39.7335 21.1691Z" fill="#E1603B"/>
<path d="M22.5998 25.8358C22.2665 25.5652 21.9998 25.2947 21.7998 25.0242L22.5998 25.8358Z" fill="#322016"/>
<path d="M38.4001 24.9565C38.1335 25.2947 37.8001 25.6329 37.4668 25.9034L38.4001 24.9565Z" fill="#322016"/>
</g>
<defs>
<clipPath id="clip0_2_2593">
<rect width="60" height="70" fill="white"/>
</clipPath>
</defs>
</svg>
