<svg width="67" height="67" viewBox="0 0 67 67" fill="none" xmlns="http://www.w3.org/2000/svg">
<g clip-path="url(#clip0_2_2582)">
<path d="M67 33.5C67 32.9586 67 32.4848 67 31.9434C66.797 28.0182 65.9849 24.2283 64.5636 20.7768C63.0748 17.1222 60.9091 13.7384 58.2697 10.8283C58.1343 10.6929 58.0667 10.5576 57.9313 10.4899C57.5253 10.0162 57.0515 9.6101 56.6455 9.13636C56.5101 9.00101 56.3747 8.86566 56.2394 8.7303C53.397 6.09091 50.0131 3.92525 46.3586 2.43636C45.0727 2.0303 43.8545 1.62424 42.6364 1.28586C40.2 0.609091 37.6283 0.20303 34.9889 0.0676768C34.5152 0 34.0414 0 33.5677 0L33.5 0.0676768L33.4323 0C32.9586 0 32.4172 0 31.9434 0.0676768C29.3717 0.135354 26.8 0.609091 24.3636 1.28586C19.2879 2.70707 14.6859 5.34646 10.896 8.79798C10.7606 8.93333 10.6253 9.06869 10.4899 9.20404C10.0162 9.6101 9.6101 10.0838 9.13636 10.5576C9.00101 10.6929 8.93333 10.8283 8.79798 10.896C3.65455 16.5131 0.406061 23.8899 0.0676768 32.0111C0 32.4848 0 33.0263 0 33.5V33.5677C0 34.0414 0 34.5828 0.0676768 35.0566C0.270707 39.0495 1.08283 42.8394 2.57172 46.2909L5.14343 43.7192C4.39899 41.6212 3.85758 39.3879 3.58687 37.0869C3.51919 36.4101 3.45152 35.7333 3.38384 35.0566C3.38384 34.5151 3.31616 34.0414 3.31616 33.5C3.31616 32.9586 3.31616 32.4848 3.38384 31.9434C3.38384 31.3343 3.45152 30.6576 3.51919 30.0485C4.06061 24.702 6.09091 19.7616 9.13636 15.6333C9.74545 14.7535 10.4222 13.9414 11.099 13.197C11.7758 12.4525 12.4525 11.7758 13.197 11.099C13.9414 10.4222 14.7535 9.74545 15.5657 9.20404C18.2051 7.24141 21.1828 5.68485 24.3636 4.73737C26.1909 4.12828 28.0859 3.72222 30.0485 3.51919C30.7253 3.38384 31.3343 3.38384 32.0111 3.31616C32.5525 3.31616 33.0263 3.24848 33.5677 3.24848C34.1091 3.24848 34.5828 3.24848 35.1242 3.31616C35.801 3.31616 36.4101 3.38384 37.0192 3.45151C38.9818 3.65455 40.8768 4.06061 42.704 4.6697C43.0424 4.80505 43.4485 4.9404 43.7869 5.00808C46.5616 6.02323 49.201 7.37677 51.502 9.13636C52.3141 9.74545 53.1263 10.3545 53.8707 11.0313C54.6152 11.7081 55.2919 12.3848 55.9687 13.1293C56.6455 13.8737 57.3222 14.6859 57.9313 15.5657C59.6232 17.9343 61.0444 20.5061 62.0596 23.2808C62.804 25.4465 63.3455 27.6798 63.6162 29.9808C63.6838 30.5899 63.7515 31.2667 63.7515 31.8758C63.7515 32.4172 63.8192 32.8909 63.8192 33.4323C63.8192 33.9737 63.8192 34.4475 63.7515 34.9889C63.7515 35.6657 63.6838 36.3424 63.6162 36.9515C63.1424 40.8768 61.9919 44.599 60.1646 47.8475C59.4879 49.0657 58.7434 50.2162 57.999 51.299C57.3899 52.1788 56.7131 52.9909 56.0364 53.7354C55.3596 54.4798 54.6828 55.1566 53.9384 55.8333C53.1263 56.5778 52.3141 57.2545 51.4343 57.8636C50.3515 58.6758 49.201 59.4202 47.9828 60.0293C46.3586 60.9091 44.599 61.6535 42.7717 62.2626C40.9444 62.8717 39.0495 63.2778 37.1545 63.4808C36.4778 63.5485 35.8687 63.6162 35.1919 63.6162C34.6505 63.6162 34.1768 63.6838 33.6354 63.6838C33.0939 63.6838 32.6202 63.6838 32.0788 63.6162C31.402 63.6162 30.7253 63.5485 30.0485 63.4131C28.1535 63.2101 26.2586 62.804 24.4313 62.1949C24.0929 62.0596 23.7545 61.9919 23.4162 61.8566L20.8444 64.4283C21.9949 64.902 23.2131 65.3081 24.4313 65.6465C26.8677 66.3232 29.4394 66.797 32.0788 66.8646C32.5525 66.8646 33.0263 66.8646 33.5677 66.8646H33.6354C34.1768 66.8646 34.6505 66.8646 35.1919 66.8646C37.8313 66.7293 40.403 66.3232 42.8394 65.6465C47.9152 64.2253 52.5172 61.5859 56.3071 58.1343C56.4424 58.0667 56.5101 57.9313 56.6455 57.8636C57.1192 57.3899 57.5929 56.9162 58.0667 56.4424C58.202 56.3071 58.2697 56.1717 58.4051 56.104C63.5485 50.4869 66.797 43.1101 67.1354 34.9889C67 34.5152 67 34.0414 67 33.5Z" fill="#322016"/>
<path d="M34.9888 10.6929V22.9424C34.9888 23.7545 34.312 24.4313 33.4999 24.4313H33.4322C32.6201 24.4313 31.9434 23.7545 31.9434 22.9424V10.6929C31.9434 9.88081 32.6201 9.20404 33.4322 9.20404H33.4999C34.3797 9.20404 34.9888 9.88081 34.9888 10.6929Z" fill="#322016"/>
<path d="M50.2835 50.2839C49.6744 50.893 48.7946 50.893 48.1856 50.2839L39.5906 41.6889C38.9815 41.0798 38.9815 40.2 39.5906 39.5909C40.1997 39.0495 41.0795 39.0495 41.6886 39.5909L42.6361 40.5384L44.8017 42.7041L50.2835 48.1859C50.825 48.7273 50.825 49.6748 50.2835 50.2839Z" fill="#322016"/>
<path d="M37.8309 33.5677C37.8309 34.1091 37.7632 34.5828 37.5602 35.0565C37.5602 35.1919 37.4925 35.2596 37.4248 35.3949C37.0188 36.3424 36.2743 37.0868 35.3945 37.4929C35.2592 37.5606 35.1915 37.6283 35.0561 37.6283C34.5147 37.7636 34.041 37.899 33.4996 37.899C32.9582 37.899 32.4844 37.8313 31.943 37.6283C31.8077 37.5606 31.74 37.5606 31.6046 37.4929C30.7248 37.0868 29.9804 36.3424 29.5066 35.3949C29.439 35.2596 29.439 35.1919 29.3713 35.0565C29.1683 34.5828 29.1006 34.1091 29.1006 33.5677C29.1006 33.0262 29.2359 32.4848 29.3713 32.0111C29.3713 31.8757 29.439 31.8081 29.5066 31.7404C29.9127 30.7929 30.7248 30.1161 31.6046 29.7101C31.6723 29.6424 31.8077 29.6424 31.8753 29.5747C32.3491 29.3717 32.8905 29.304 33.4319 29.304C33.9733 29.304 34.4471 29.3717 34.9885 29.5747C35.0561 29.5747 35.1915 29.6424 35.2592 29.7101C36.2066 30.1161 36.9511 30.8606 37.3572 31.8081C37.4248 31.8757 37.4248 32.0111 37.4925 32.0788C37.6955 32.4848 37.8309 33.0262 37.8309 33.5677Z" fill="#322016"/>
<path d="M3.79033 58.6758L3.72266 58.6081C3.72266 58.6081 3.79033 58.6081 3.79033 58.6758Z" fill="#322016"/>
<path d="M20.6419 58.5404L20.5742 58.6081C20.5742 58.6081 20.6419 58.6081 20.6419 58.5404Z" fill="#322016"/>
<path d="M21.9274 54.8182C21.9274 56.2394 21.4537 57.5252 20.6416 58.5404C20.6416 58.6081 20.5739 58.6081 20.5739 58.6757L19.6941 59.5555L12.182 67L4.66986 59.4879L3.79006 58.6081C3.79006 58.6081 3.72238 58.5404 3.72238 58.4727C2.91026 57.5252 2.43652 56.2394 2.43652 54.8182C2.43652 51.502 5.14359 48.7949 8.45976 48.7949C9.88097 48.7949 11.1668 49.2687 12.182 50.0808C13.1971 49.2687 14.483 48.7949 15.9042 48.7949C19.2204 48.7949 21.9274 51.502 21.9274 54.8182Z" fill="#E1603B"/>
<path d="M4.66984 59.4879C4.33145 59.2172 4.06075 58.9465 3.79004 58.6081L4.66984 59.4879Z" fill="#322016"/>
<path d="M20.5741 58.6758C20.3034 59.0142 20.0327 59.2849 19.6943 59.5556L20.5741 58.6758Z" fill="#322016"/>
</g>
<defs>
<clipPath id="clip0_2_2582">
<rect width="67" height="67" fill="white"/>
</clipPath>
</defs>
</svg>
