<svg width="617" height="131" viewBox="0 0 617 131" fill="none" xmlns="http://www.w3.org/2000/svg">
<path d="M229.708 52.3193C228.637 54.0511 227.191 55.7715 225.368 57.4805C223.545 59.1667 221.46 60.6934 219.113 62.0605C216.788 63.4049 214.248 64.4873 211.491 65.3076C208.733 66.1507 205.885 66.5723 202.946 66.5723C200.644 66.5723 198.343 66.3672 196.041 65.957C193.763 65.5469 191.564 64.9202 189.445 64.0771C187.348 63.234 185.389 62.1745 183.566 60.8984C181.766 59.5996 180.193 58.0729 178.849 56.3184C177.505 54.5638 176.445 52.57 175.67 50.3369C174.918 48.1038 174.542 45.6201 174.542 42.8857C174.542 40.2197 174.93 37.6904 175.704 35.2979C176.502 32.9053 177.607 30.695 179.02 28.667C180.433 26.6162 182.107 24.7705 184.044 23.1299C185.981 21.4893 188.1 20.0993 190.402 18.96C192.703 17.7979 195.13 16.9092 197.682 16.2939C200.234 15.6787 202.843 15.3711 205.509 15.3711C208.449 15.3711 211.206 15.7243 213.781 16.4307C216.378 17.1143 218.646 18.0941 220.582 19.3701C222.519 20.6234 224.046 22.1387 225.163 23.916C226.302 25.6706 226.871 27.6302 226.871 29.7949C226.871 31.8001 226.404 33.7142 225.47 35.5371C224.536 37.3372 223.248 38.9209 221.608 40.2881C219.99 41.6553 218.087 42.7376 215.9 43.5352C213.735 44.3327 211.422 44.7314 208.961 44.7314C206.979 44.7314 205.224 44.4922 203.698 44.0137C202.171 43.5124 200.895 42.8288 199.87 41.9629C198.844 41.097 198.069 40.083 197.545 38.9209C197.021 37.7588 196.759 36.5055 196.759 35.1611C196.759 34.0446 196.93 33.0306 197.272 32.1191C197.636 31.1849 198.024 30.3874 198.434 29.7266C198.867 29.0658 199.266 28.5531 199.63 28.1885C200.018 27.8011 200.234 27.5846 200.28 27.5391C200.394 27.4251 200.519 27.3568 200.656 27.334C200.815 27.2884 200.963 27.2656 201.1 27.2656C201.465 27.2656 201.772 27.3796 202.023 27.6074C202.274 27.8353 202.399 28.1315 202.399 28.4961C202.399 28.9062 202.251 29.248 201.954 29.5215C201.909 29.5443 201.749 29.7038 201.476 30C201.203 30.2734 200.906 30.6608 200.587 31.1621C200.268 31.6406 199.972 32.2217 199.699 32.9053C199.448 33.5889 199.323 34.3408 199.323 35.1611C199.323 36.46 199.607 37.5537 200.177 38.4424C200.77 39.3311 201.533 40.0602 202.467 40.6299C203.401 41.1768 204.438 41.5755 205.578 41.8262C206.717 42.054 207.856 42.168 208.996 42.168C211.115 42.168 213.097 41.8262 214.943 41.1426C216.811 40.459 218.441 39.5475 219.83 38.4082C221.22 37.2689 222.314 35.9587 223.112 34.4775C223.909 32.9964 224.308 31.4469 224.308 29.8291C224.308 28.0518 223.807 26.4339 222.804 24.9756C221.802 23.4945 220.446 22.2412 218.737 21.2158C217.028 20.1676 215.023 19.3587 212.721 18.7891C210.442 18.2194 208.004 17.9346 205.407 17.9346C203.447 17.9346 201.385 18.1738 199.22 18.6523C197.078 19.1081 194.959 19.8031 192.863 20.7373C190.766 21.6715 188.761 22.8337 186.847 24.2236C184.956 25.6136 183.292 27.2428 181.857 29.1113C180.421 30.957 179.271 33.0306 178.405 35.332C177.562 37.6335 177.14 40.1514 177.14 42.8857C177.14 45.3695 177.482 47.6139 178.165 49.6191C178.872 51.6243 179.84 53.4131 181.071 54.9854C182.301 56.5348 183.737 57.8792 185.377 59.0186C187.041 60.1579 188.818 61.1035 190.709 61.8555C192.623 62.5846 194.617 63.1315 196.691 63.4961C198.764 63.8379 200.827 64.0088 202.877 64.0088C205.612 64.0088 208.244 63.6328 210.773 62.8809C213.302 62.1061 215.638 61.1035 217.78 59.873C219.944 58.6198 221.858 57.2184 223.522 55.6689C225.185 54.1195 226.507 52.5586 227.487 50.9863C227.601 50.7812 227.76 50.6331 227.965 50.542C228.17 50.4281 228.387 50.3711 228.615 50.3711C229.002 50.3711 229.31 50.5078 229.538 50.7812C229.765 51.0319 229.879 51.3167 229.879 51.6357C229.879 51.7497 229.868 51.8636 229.845 51.9775C229.822 52.0915 229.777 52.2054 229.708 52.3193ZM241.32 61.2402C240.75 61.2402 240.249 61.1947 239.816 61.1035C239.474 61.7871 239.064 62.4251 238.586 63.0176C238.107 63.5872 237.549 64.0885 236.911 64.5215C236.296 64.9544 235.601 65.2962 234.826 65.5469C234.051 65.7975 233.208 65.9229 232.296 65.9229C231.226 65.9229 230.246 65.7292 229.357 65.3418C228.468 64.9772 227.694 64.4645 227.033 63.8037C226.372 63.1201 225.859 62.3112 225.495 61.377C225.13 60.4199 224.948 59.3717 224.948 58.2324C224.948 56.7741 225.21 55.5094 225.734 54.4385C226.258 53.3447 226.862 52.4447 227.546 51.7383C228.229 51.0091 228.913 50.4736 229.596 50.1318C230.28 49.7673 230.793 49.585 231.134 49.585C231.522 49.585 231.807 49.6875 231.989 49.8926C232.194 50.0977 232.296 50.3711 232.296 50.7129C232.296 51.1003 232.171 51.3965 231.921 51.6016C231.693 51.7839 231.396 51.9661 231.032 52.1484C230.667 52.3307 230.28 52.5928 229.87 52.9346C229.46 53.2536 229.072 53.6637 228.708 54.165C228.366 54.6663 228.081 55.2588 227.853 55.9424C227.625 56.626 227.511 57.3893 227.511 58.2324C227.511 58.9844 227.625 59.6908 227.853 60.3516C228.081 60.9896 228.411 61.5479 228.844 62.0264C229.277 62.4821 229.79 62.8467 230.382 63.1201C230.975 63.3708 231.636 63.4961 232.365 63.4961C233.664 63.4961 234.735 63.1999 235.578 62.6074C236.444 61.9922 237.104 61.2174 237.56 60.2832C236.216 59.5768 235.111 58.5742 234.245 57.2754C233.379 55.9766 232.946 54.5182 232.946 52.9004C232.946 51.6016 233.254 50.542 233.869 49.7217C234.507 48.9014 235.338 48.4912 236.364 48.4912C236.979 48.4912 237.56 48.6393 238.107 48.9355C238.654 49.2318 239.132 49.6989 239.543 50.3369C239.976 50.9749 240.317 51.7952 240.568 52.7979C240.819 53.8005 240.944 54.9967 240.944 56.3867C240.944 57.1159 240.853 57.8792 240.671 58.6768C240.807 58.6995 240.944 58.7109 241.081 58.7109C241.217 58.7109 241.366 58.7109 241.525 58.7109C242.3 58.7109 242.995 58.6198 243.61 58.4375C244.225 58.2552 244.783 57.9818 245.285 57.6172C245.786 57.2526 246.23 56.7855 246.618 56.2158C247.028 55.6462 247.415 54.9854 247.78 54.2334C247.848 54.0967 247.996 53.9714 248.224 53.8574C248.452 53.7207 248.68 53.6523 248.908 53.6523C249.204 53.6523 249.477 53.7777 249.728 54.0283C250.002 54.2562 250.138 54.5638 250.138 54.9512C250.138 55.1335 250.093 55.3385 250.002 55.5664C249.91 55.7715 249.819 55.9652 249.728 56.1475C249.341 56.8311 248.885 57.4919 248.361 58.1299C247.86 58.7451 247.256 59.292 246.549 59.7705C245.866 60.2262 245.091 60.5908 244.225 60.8643C243.359 61.1377 242.391 61.263 241.32 61.2402ZM235.475 52.627C235.475 53.0599 235.532 53.5156 235.646 53.9941C235.76 54.4727 235.931 54.9512 236.159 55.4297C236.409 55.8854 236.706 56.3298 237.047 56.7627C237.412 57.1729 237.834 57.526 238.312 57.8223C238.38 57.3438 238.415 56.8766 238.415 56.4209C238.415 55.8057 238.369 55.179 238.278 54.541C238.187 53.903 238.05 53.3219 237.868 52.7979C237.708 52.251 237.503 51.818 237.253 51.499C237.002 51.1572 236.706 50.9863 236.364 50.9863C236.227 50.9863 236.045 51.0889 235.817 51.2939C235.589 51.499 235.475 51.9434 235.475 52.627ZM255.299 61.9238C255.664 61.1719 256.086 60.3516 256.564 59.4629C257.043 58.5514 257.555 57.64 258.102 56.7285C258.649 55.7943 259.219 54.8714 259.811 53.96C260.426 53.0485 261.064 52.1826 261.725 51.3623C262.386 50.5648 263.047 49.9951 263.708 49.6533C264.391 49.2887 265.029 49.1064 265.622 49.1064C266.807 49.1064 267.684 49.5394 268.254 50.4053C268.823 51.2712 269.108 52.3421 269.108 53.6182C269.108 53.9144 269.085 54.279 269.04 54.7119C269.017 55.1221 268.983 55.5664 268.937 56.0449C268.914 56.5234 268.88 57.0133 268.835 57.5146C268.812 57.9932 268.8 58.4489 268.8 58.8818C268.8 59.4287 268.823 59.9528 268.869 60.4541C268.937 60.9554 269.051 61.3997 269.211 61.7871C269.37 62.1517 269.598 62.4479 269.894 62.6758C270.19 62.8809 270.578 62.9834 271.056 62.9834C271.922 62.9834 272.765 62.653 273.586 61.9922C274.406 61.3086 275.158 60.5111 275.841 59.5996C276.548 58.6654 277.152 57.7197 277.653 56.7627C278.177 55.8057 278.564 55.0309 278.815 54.4385C278.929 54.1878 279.088 53.9941 279.294 53.8574C279.521 53.7207 279.761 53.6523 280.011 53.6523C280.399 53.6523 280.706 53.8005 280.934 54.0967C281.185 54.3701 281.31 54.6663 281.31 54.9854C281.31 55.1449 281.276 55.3044 281.208 55.4639C281.116 55.6462 280.934 56.0221 280.661 56.5918C280.387 57.1615 280.023 57.8223 279.567 58.5742C279.134 59.3034 278.621 60.0895 278.029 60.9326C277.436 61.7529 276.776 62.5049 276.046 63.1885C275.34 63.8721 274.565 64.4417 273.722 64.8975C272.902 65.3532 272.036 65.5811 271.125 65.5811C270.099 65.5811 269.268 65.3874 268.63 65C267.991 64.5898 267.49 64.0658 267.126 63.4277C266.761 62.7669 266.51 62.0492 266.374 61.2744C266.26 60.4769 266.203 59.6794 266.203 58.8818C266.203 58.54 266.214 58.1527 266.237 57.7197C266.282 57.2868 266.328 56.8311 266.374 56.3525C266.442 55.874 266.488 55.3955 266.51 54.917C266.556 54.4385 266.579 53.9827 266.579 53.5498C266.579 52.8206 266.465 52.3307 266.237 52.0801C266.009 51.8066 265.804 51.6699 265.622 51.6699C265.257 51.6699 264.836 51.8864 264.357 52.3193C263.901 52.7295 263.411 53.2764 262.887 53.96C262.386 54.6436 261.862 55.4183 261.315 56.2842C260.791 57.1273 260.29 57.9704 259.811 58.8135C259.355 59.6566 258.922 60.4655 258.512 61.2402C258.125 61.9922 257.817 62.6188 257.589 63.1201C257.134 64.0771 256.678 64.7152 256.222 65.0342C255.767 65.376 255.299 65.5469 254.821 65.5469C254.16 65.5469 253.625 65.3532 253.214 64.9658C252.827 64.5557 252.633 63.986 252.633 63.2568C252.633 63.0973 252.656 62.7897 252.702 62.334C252.747 61.8555 252.804 61.2972 252.873 60.6592C252.941 59.9984 253.009 59.292 253.078 58.54C253.146 57.7881 253.214 57.0475 253.283 56.3184C253.351 55.5664 253.408 54.8714 253.454 54.2334C253.499 53.5954 253.522 53.0599 253.522 52.627C253.522 52.0573 253.499 51.5104 253.454 50.9863C253.408 50.4622 253.317 50.1432 253.18 50.0293C252.975 50.0977 252.611 50.5306 252.087 51.3281C251.562 52.1029 250.89 53.4814 250.07 55.4639C249.956 55.7145 249.785 55.9082 249.557 56.0449C249.329 56.1816 249.09 56.25 248.839 56.25C248.452 56.25 248.144 56.1247 247.917 55.874C247.689 55.6006 247.575 55.293 247.575 54.9512C247.575 54.7917 247.609 54.6208 247.677 54.4385C248.703 52.0003 249.66 50.2116 250.548 49.0723C251.46 47.9102 252.36 47.3291 253.249 47.3291C253.773 47.3291 254.217 47.4658 254.582 47.7393C254.946 47.9899 255.231 48.3317 255.436 48.7646C255.664 49.1976 255.824 49.6761 255.915 50.2002C256.029 50.7243 256.086 51.2598 256.086 51.8066C256.086 52.2168 256.051 52.8548 255.983 53.7207C255.937 54.5866 255.869 55.5208 255.778 56.5234C255.687 57.5033 255.596 58.4831 255.505 59.4629C255.436 60.4427 255.368 61.263 255.299 61.9238ZM306.569 30.7861C306.569 31.1507 306.444 31.4469 306.193 31.6748C305.942 31.8799 305.635 31.9824 305.27 31.9824H287.941V32.3584C287.941 33.7484 287.838 35.2295 287.633 36.8018C287.428 38.374 287.143 39.9463 286.779 41.5186C286.437 43.068 286.038 44.5833 285.583 46.0645C285.15 47.5456 284.694 48.9128 284.215 50.166C283.76 51.4193 283.304 52.513 282.848 53.4473C282.393 54.3587 281.982 55.0423 281.618 55.498C281.914 56.5462 282.267 57.526 282.677 58.4375C283.088 59.3262 283.543 60.1123 284.045 60.7959C284.569 61.4567 285.127 61.9808 285.719 62.3682C286.312 62.7555 286.95 62.9492 287.633 62.9492C288.431 62.9492 289.217 62.6188 289.992 61.958C290.789 61.2744 291.518 60.4769 292.179 59.5654C292.863 58.6312 293.455 57.6969 293.957 56.7627C294.481 55.8057 294.857 55.0423 295.085 54.4727C295.312 53.9258 295.711 53.6523 296.281 53.6523C296.668 53.6523 296.976 53.7891 297.204 54.0625C297.454 54.3359 297.58 54.6322 297.58 54.9512C297.58 55.1107 297.546 55.2702 297.477 55.4297C297.409 55.5892 297.238 55.9538 296.964 56.5234C296.714 57.0931 296.372 57.7539 295.939 58.5059C295.529 59.2578 295.039 60.0553 294.469 60.8984C293.922 61.7188 293.296 62.4707 292.589 63.1543C291.906 63.8379 291.165 64.4076 290.368 64.8633C289.57 65.319 288.727 65.5469 287.838 65.5469C286.266 65.5469 284.853 65.0342 283.6 64.0088C282.347 62.9834 281.276 61.5479 280.387 59.7021C279.521 57.8564 278.861 55.6689 278.405 53.1396C277.949 50.6104 277.721 47.8418 277.721 44.834C277.721 44.082 277.733 43.2048 277.755 42.2021C277.778 41.1768 277.824 40.1058 277.892 38.9893C277.961 37.8499 278.063 36.6878 278.2 35.5029C278.337 34.2952 278.519 33.1217 278.747 31.9824H266.476C266.112 31.9824 265.804 31.8799 265.553 31.6748C265.303 31.4469 265.177 31.1507 265.177 30.7861C265.177 30.4215 265.303 30.1367 265.553 29.9316C265.804 29.7038 266.112 29.5898 266.476 29.5898H279.328C279.556 28.7695 279.818 28.0176 280.114 27.334C280.433 26.6504 280.786 26.0579 281.173 25.5566C281.584 25.0553 282.028 24.668 282.506 24.3945C283.008 24.0983 283.555 23.9502 284.147 23.9502C284.717 23.9502 285.207 24.0983 285.617 24.3945C286.05 24.668 286.414 25.0553 286.711 25.5566C287.007 26.0579 287.235 26.6504 287.394 27.334C287.576 28.0176 287.713 28.7695 287.804 29.5898H305.27C305.635 29.5898 305.942 29.7038 306.193 29.9316C306.444 30.1367 306.569 30.4215 306.569 30.7861ZM280.832 52.0801C281.515 50.5762 282.13 48.9583 282.677 47.2266C283.247 45.472 283.726 43.7061 284.113 41.9287C284.523 40.1514 284.831 38.4082 285.036 36.6992C285.264 34.9902 285.378 33.418 285.378 31.9824H281.344C281.025 33.3952 280.763 35.1497 280.558 37.2461C280.376 39.3197 280.285 41.849 280.285 44.834C280.285 46.4974 280.33 47.8988 280.421 49.0381C280.513 50.1546 280.649 51.1686 280.832 52.0801ZM284.01 26.5137C283.805 26.5137 283.509 26.7415 283.122 27.1973C282.734 27.6302 282.347 28.4277 281.96 29.5898H285.241C285.127 28.6328 284.956 27.8809 284.728 27.334C284.523 26.7871 284.284 26.5137 284.01 26.5137ZM281.379 54.541V54.5752V54.541ZM321.642 55.4639C321.551 55.6462 321.357 56.0335 321.061 56.626C320.788 57.1956 320.423 57.8564 319.967 58.6084C319.534 59.3604 319.022 60.1465 318.429 60.9668C317.837 61.7871 317.176 62.5391 316.447 63.2227C315.718 63.9062 314.932 64.4759 314.088 64.9316C313.245 65.3646 312.357 65.5811 311.422 65.5811C310.101 65.5811 308.984 65.1595 308.073 64.3164C307.184 63.4733 306.535 62.4137 306.125 61.1377C305.35 62.4365 304.427 63.4733 303.356 64.248C302.285 65 301.214 65.376 300.143 65.376C299.3 65.376 298.537 65.2279 297.853 64.9316C297.17 64.6126 296.588 64.1797 296.11 63.6328C295.631 63.0632 295.255 62.4023 294.982 61.6504C294.731 60.8984 294.606 60.0781 294.606 59.1895C294.606 57.4121 294.902 55.8512 295.495 54.5068C296.11 53.1396 296.885 52.0003 297.819 51.0889C298.753 50.1774 299.779 49.4938 300.895 49.0381C302.034 48.5824 303.128 48.3545 304.176 48.3545C304.883 48.3545 305.532 48.457 306.125 48.6621C306.717 48.8444 307.218 49.0495 307.629 49.2773C308.061 49.5052 308.392 49.7217 308.62 49.9268C308.848 50.109 308.973 50.2116 308.996 50.2344C309.246 50.5306 309.372 50.8382 309.372 51.1572C309.372 51.499 309.246 51.8066 308.996 52.0801C308.745 52.3307 308.449 52.4561 308.107 52.4561C307.742 52.4561 307.435 52.3307 307.184 52.0801C307.139 52.0345 307.036 51.9548 306.877 51.8408C306.717 51.7041 306.501 51.5674 306.227 51.4307C305.954 51.2939 305.623 51.18 305.236 51.0889C304.871 50.9749 304.45 50.918 303.971 50.918C303.265 50.918 302.513 51.0775 301.715 51.3965C300.918 51.7155 300.189 52.2168 299.528 52.9004C298.867 53.5612 298.309 54.4043 297.853 55.4297C297.42 56.4323 297.204 57.6286 297.204 59.0186C297.204 59.4515 297.249 59.8958 297.34 60.3516C297.432 60.7845 297.591 61.1833 297.819 61.5479C298.047 61.9124 298.354 62.2087 298.742 62.4365C299.129 62.6644 299.608 62.7783 300.177 62.7783C300.588 62.7783 301.055 62.6416 301.579 62.3682C302.126 62.0947 302.638 61.6732 303.117 61.1035C303.618 60.5339 304.062 59.8161 304.45 58.9502C304.86 58.0843 305.145 57.0589 305.304 55.874C305.35 55.555 305.498 55.293 305.749 55.0879C305.999 54.86 306.296 54.7461 306.637 54.7461C306.956 54.7461 307.23 54.8714 307.458 55.1221C307.708 55.3727 307.845 55.6576 307.868 55.9766C307.891 56.4095 307.936 57.0247 308.005 57.8223C308.073 58.597 308.221 59.3717 308.449 60.1465C308.699 60.9212 309.064 61.5934 309.543 62.1631C310.021 62.7327 310.682 63.0176 311.525 63.0176C312.072 63.0176 312.607 62.8695 313.131 62.5732C313.678 62.277 314.202 61.8896 314.704 61.4111C315.228 60.9098 315.718 60.3516 316.173 59.7363C316.652 59.0983 317.085 58.4603 317.472 57.8223C317.86 57.1842 318.201 56.569 318.498 55.9766C318.794 55.3841 319.045 54.8714 319.25 54.4385C319.364 54.1878 319.523 53.9941 319.728 53.8574C319.956 53.7207 320.195 53.6523 320.446 53.6523C320.833 53.6523 321.141 53.8005 321.369 54.0967C321.619 54.3701 321.745 54.6663 321.745 54.9854C321.745 55.1449 321.711 55.3044 321.642 55.4639ZM301.476 43.0908L306.945 37.8955C307.173 37.6904 307.435 37.5879 307.731 37.5879C308.027 37.5879 308.289 37.7018 308.517 37.9297C308.745 38.1576 308.859 38.431 308.859 38.75C308.859 39.069 308.745 39.3311 308.517 39.5361L303.048 44.7314C302.798 44.9365 302.536 45.0391 302.262 45.0391C301.943 45.0391 301.67 44.9251 301.442 44.6973C301.237 44.4694 301.134 44.2074 301.134 43.9111C301.134 43.5921 301.248 43.3187 301.476 43.0908ZM341.637 55.5322C341.501 55.7829 341.261 56.2386 340.92 56.8994C340.601 57.5602 340.156 58.3122 339.587 59.1553C339.04 59.9756 338.379 60.8301 337.604 61.7188C336.829 62.6074 335.941 63.4277 334.938 64.1797C333.935 64.9089 332.808 65.5127 331.554 65.9912C330.324 66.4697 328.979 66.709 327.521 66.709C326.222 66.709 325.072 66.4697 324.069 65.9912C323.066 65.5355 322.212 64.8861 321.505 64.043C320.799 63.1771 320.264 62.1631 319.899 61.001C319.534 59.8389 319.352 58.5514 319.352 57.1387C319.352 55.7715 319.546 54.4954 319.933 53.3105C320.321 52.1029 320.845 51.0547 321.505 50.166C322.189 49.2773 322.975 48.5824 323.864 48.0811C324.753 47.557 325.698 47.2949 326.701 47.2949C327.453 47.2949 328.136 47.4316 328.752 47.7051C329.367 47.9557 329.88 48.2975 330.29 48.7305C330.723 49.1634 331.053 49.6419 331.281 50.166C331.532 50.6901 331.657 51.2142 331.657 51.7383C331.657 52.2396 331.588 52.7067 331.452 53.1396C331.338 53.5726 331.178 53.96 330.973 54.3018C330.791 54.6208 330.574 54.8828 330.324 55.0879C330.073 55.2702 329.823 55.3613 329.572 55.3613C329.185 55.3613 328.866 55.236 328.615 54.9854C328.387 54.7347 328.273 54.4271 328.273 54.0625C328.273 53.8802 328.307 53.7207 328.376 53.584C328.467 53.4473 328.558 53.3105 328.649 53.1738C328.763 53.0143 328.854 52.832 328.922 52.627C329.014 52.3991 329.059 52.1143 329.059 51.7725C329.059 51.2939 328.831 50.861 328.376 50.4736C327.943 50.0863 327.384 49.8926 326.701 49.8926C326.063 49.8926 325.448 50.0863 324.855 50.4736C324.285 50.861 323.784 51.3851 323.351 52.0459C322.918 52.6839 322.565 53.4473 322.292 54.3359C322.041 55.2018 321.916 56.1247 321.916 57.1045C321.916 58.0387 322.03 58.9274 322.257 59.7705C322.485 60.6136 322.827 61.3656 323.283 62.0264C323.739 62.6644 324.308 63.1771 324.992 63.5645C325.698 63.9518 326.53 64.1455 327.487 64.1455C328.717 64.1455 329.857 63.929 330.905 63.4961C331.953 63.0404 332.91 62.4707 333.776 61.7871C334.642 61.1035 335.405 60.363 336.066 59.5654C336.727 58.7451 337.285 57.9818 337.741 57.2754C338.219 56.5462 338.584 55.9196 338.835 55.3955C339.108 54.8486 339.268 54.5068 339.313 54.3701C339.404 54.1423 339.552 53.9714 339.757 53.8574C339.985 53.7207 340.225 53.6523 340.475 53.6523C340.863 53.6523 341.17 53.7891 341.398 54.0625C341.649 54.3359 341.774 54.6436 341.774 54.9854C341.774 55.1221 341.728 55.3044 341.637 55.5322ZM366.999 30.7861C366.999 31.1507 366.873 31.4469 366.623 31.6748C366.372 31.8799 366.064 31.9824 365.7 31.9824H348.371V32.3584C348.371 33.7484 348.268 35.2295 348.063 36.8018C347.858 38.374 347.573 39.9463 347.209 41.5186C346.867 43.068 346.468 44.5833 346.012 46.0645C345.579 47.5456 345.124 48.9128 344.645 50.166C344.189 51.4193 343.734 52.513 343.278 53.4473C342.822 54.3587 342.412 55.0423 342.047 55.498C342.344 56.5462 342.697 57.526 343.107 58.4375C343.517 59.3262 343.973 60.1123 344.474 60.7959C344.998 61.4567 345.557 61.9808 346.149 62.3682C346.741 62.7555 347.38 62.9492 348.063 62.9492C348.861 62.9492 349.647 62.6188 350.421 61.958C351.219 61.2744 351.948 60.4769 352.609 59.5654C353.293 58.6312 353.885 57.6969 354.386 56.7627C354.91 55.8057 355.286 55.0423 355.514 54.4727C355.742 53.9258 356.141 53.6523 356.711 53.6523C357.098 53.6523 357.406 53.7891 357.633 54.0625C357.884 54.3359 358.009 54.6322 358.009 54.9512C358.009 55.1107 357.975 55.2702 357.907 55.4297C357.838 55.5892 357.668 55.9538 357.394 56.5234C357.143 57.0931 356.802 57.7539 356.369 58.5059C355.959 59.2578 355.469 60.0553 354.899 60.8984C354.352 61.7188 353.726 62.4707 353.019 63.1543C352.336 63.8379 351.595 64.4076 350.797 64.8633C350 65.319 349.157 65.5469 348.268 65.5469C346.696 65.5469 345.283 65.0342 344.03 64.0088C342.777 62.9834 341.706 61.5479 340.817 59.7021C339.951 57.8564 339.29 55.6689 338.835 53.1396C338.379 50.6104 338.151 47.8418 338.151 44.834C338.151 44.082 338.162 43.2048 338.185 42.2021C338.208 41.1768 338.254 40.1058 338.322 38.9893C338.39 37.8499 338.493 36.6878 338.63 35.5029C338.766 34.2952 338.949 33.1217 339.176 31.9824H326.906C326.541 31.9824 326.234 31.8799 325.983 31.6748C325.732 31.4469 325.607 31.1507 325.607 30.7861C325.607 30.4215 325.732 30.1367 325.983 29.9316C326.234 29.7038 326.541 29.5898 326.906 29.5898H339.757C339.985 28.7695 340.247 28.0176 340.544 27.334C340.863 26.6504 341.216 26.0579 341.603 25.5566C342.013 25.0553 342.458 24.668 342.936 24.3945C343.437 24.0983 343.984 23.9502 344.577 23.9502C345.146 23.9502 345.636 24.0983 346.046 24.3945C346.479 24.668 346.844 25.0553 347.14 25.5566C347.436 26.0579 347.664 26.6504 347.824 27.334C348.006 28.0176 348.143 28.7695 348.234 29.5898H365.7C366.064 29.5898 366.372 29.7038 366.623 29.9316C366.873 30.1367 366.999 30.4215 366.999 30.7861ZM341.261 52.0801C341.945 50.5762 342.56 48.9583 343.107 47.2266C343.677 45.472 344.155 43.7061 344.543 41.9287C344.953 40.1514 345.26 38.4082 345.465 36.6992C345.693 34.9902 345.807 33.418 345.807 31.9824H341.774C341.455 33.3952 341.193 35.1497 340.988 37.2461C340.806 39.3197 340.714 41.849 340.714 44.834C340.714 46.4974 340.76 47.8988 340.851 49.0381C340.942 50.1546 341.079 51.1686 341.261 52.0801ZM344.44 26.5137C344.235 26.5137 343.939 26.7415 343.551 27.1973C343.164 27.6302 342.777 28.4277 342.389 29.5898H345.671C345.557 28.6328 345.386 27.8809 345.158 27.334C344.953 26.7871 344.713 26.5137 344.44 26.5137ZM341.808 54.541V54.5752V54.541ZM382.072 55.4639C381.981 55.6462 381.787 56.0335 381.491 56.626C381.217 57.1956 380.853 57.8564 380.397 58.6084C379.964 59.3604 379.451 60.1465 378.859 60.9668C378.267 61.7871 377.606 62.5391 376.877 63.2227C376.147 63.9062 375.361 64.4759 374.518 64.9316C373.675 65.3646 372.786 65.5811 371.852 65.5811C370.531 65.5811 369.414 65.1595 368.503 64.3164C367.614 63.4733 366.964 62.4137 366.554 61.1377C365.78 62.4365 364.857 63.4733 363.786 64.248C362.715 65 361.644 65.376 360.573 65.376C359.73 65.376 358.966 65.2279 358.283 64.9316C357.599 64.6126 357.018 64.1797 356.54 63.6328C356.061 63.0632 355.685 62.4023 355.412 61.6504C355.161 60.8984 355.036 60.0781 355.036 59.1895C355.036 57.4121 355.332 55.8512 355.924 54.5068C356.54 53.1396 357.314 52.0003 358.249 51.0889C359.183 50.1774 360.208 49.4938 361.325 49.0381C362.464 48.5824 363.558 48.3545 364.606 48.3545C365.312 48.3545 365.962 48.457 366.554 48.6621C367.147 48.8444 367.648 49.0495 368.058 49.2773C368.491 49.5052 368.822 49.7217 369.049 49.9268C369.277 50.109 369.403 50.2116 369.425 50.2344C369.676 50.5306 369.801 50.8382 369.801 51.1572C369.801 51.499 369.676 51.8066 369.425 52.0801C369.175 52.3307 368.879 52.4561 368.537 52.4561C368.172 52.4561 367.865 52.3307 367.614 52.0801C367.568 52.0345 367.466 51.9548 367.306 51.8408C367.147 51.7041 366.93 51.5674 366.657 51.4307C366.383 51.2939 366.053 51.18 365.666 51.0889C365.301 50.9749 364.88 50.918 364.401 50.918C363.695 50.918 362.943 51.0775 362.145 51.3965C361.348 51.7155 360.618 52.2168 359.958 52.9004C359.297 53.5612 358.739 54.4043 358.283 55.4297C357.85 56.4323 357.633 57.6286 357.633 59.0186C357.633 59.4515 357.679 59.8958 357.77 60.3516C357.861 60.7845 358.021 61.1833 358.249 61.5479C358.477 61.9124 358.784 62.2087 359.171 62.4365C359.559 62.6644 360.037 62.7783 360.607 62.7783C361.017 62.7783 361.484 62.6416 362.008 62.3682C362.555 62.0947 363.068 61.6732 363.546 61.1035C364.048 60.5339 364.492 59.8161 364.88 58.9502C365.29 58.0843 365.574 57.0589 365.734 55.874C365.78 55.555 365.928 55.293 366.178 55.0879C366.429 54.86 366.725 54.7461 367.067 54.7461C367.386 54.7461 367.659 54.8714 367.887 55.1221C368.138 55.3727 368.275 55.6576 368.297 55.9766C368.32 56.4095 368.366 57.0247 368.434 57.8223C368.503 58.597 368.651 59.3717 368.879 60.1465C369.129 60.9212 369.494 61.5934 369.972 62.1631C370.451 62.7327 371.112 63.0176 371.955 63.0176C372.502 63.0176 373.037 62.8695 373.561 62.5732C374.108 62.277 374.632 61.8896 375.133 61.4111C375.657 60.9098 376.147 60.3516 376.603 59.7363C377.082 59.0983 377.515 58.4603 377.902 57.8223C378.289 57.1842 378.631 56.569 378.927 55.9766C379.224 55.3841 379.474 54.8714 379.679 54.4385C379.793 54.1878 379.953 53.9941 380.158 53.8574C380.386 53.7207 380.625 53.6523 380.876 53.6523C381.263 53.6523 381.571 53.8005 381.798 54.0967C382.049 54.3701 382.174 54.6663 382.174 54.9854C382.174 55.1449 382.14 55.3044 382.072 55.4639ZM387.301 61.9238C387.666 61.1719 388.088 60.3516 388.566 59.4629C389.045 58.5514 389.557 57.64 390.104 56.7285C390.651 55.7943 391.221 54.8714 391.813 53.96C392.428 53.0485 393.066 52.1826 393.727 51.3623C394.388 50.5648 395.049 49.9951 395.71 49.6533C396.393 49.2887 397.031 49.1064 397.624 49.1064C398.809 49.1064 399.686 49.5394 400.255 50.4053C400.825 51.2712 401.11 52.3421 401.11 53.6182C401.11 53.9144 401.087 54.279 401.042 54.7119C401.019 55.1221 400.985 55.5664 400.939 56.0449C400.916 56.5234 400.882 57.0133 400.837 57.5146C400.814 57.9932 400.802 58.4489 400.802 58.8818C400.802 59.4287 400.825 59.9528 400.871 60.4541C400.939 60.9554 401.053 61.3997 401.213 61.7871C401.372 62.1517 401.6 62.4479 401.896 62.6758C402.192 62.8809 402.58 62.9834 403.058 62.9834C403.924 62.9834 404.767 62.653 405.588 61.9922C406.408 61.3086 407.16 60.5111 407.843 59.5996C408.55 58.6654 409.154 57.7197 409.655 56.7627C410.179 55.8057 410.566 55.0309 410.817 54.4385C410.931 54.1878 411.09 53.9941 411.296 53.8574C411.523 53.7207 411.763 53.6523 412.013 53.6523C412.401 53.6523 412.708 53.8005 412.936 54.0967C413.187 54.3701 413.312 54.6663 413.312 54.9854C413.312 55.1449 413.278 55.3044 413.21 55.4639C413.118 55.6462 412.936 56.0221 412.663 56.5918C412.389 57.1615 412.025 57.8223 411.569 58.5742C411.136 59.3034 410.623 60.0895 410.031 60.9326C409.438 61.7529 408.778 62.5049 408.048 63.1885C407.342 63.8721 406.567 64.4417 405.724 64.8975C404.904 65.3532 404.038 65.5811 403.127 65.5811C402.101 65.5811 401.269 65.3874 400.631 65C399.993 64.5898 399.492 64.0658 399.128 63.4277C398.763 62.7669 398.512 62.0492 398.376 61.2744C398.262 60.4769 398.205 59.6794 398.205 58.8818C398.205 58.54 398.216 58.1527 398.239 57.7197C398.284 57.2868 398.33 56.8311 398.376 56.3525C398.444 55.874 398.49 55.3955 398.512 54.917C398.558 54.4385 398.581 53.9827 398.581 53.5498C398.581 52.8206 398.467 52.3307 398.239 52.0801C398.011 51.8066 397.806 51.6699 397.624 51.6699C397.259 51.6699 396.838 51.8864 396.359 52.3193C395.903 52.7295 395.413 53.2764 394.889 53.96C394.388 54.6436 393.864 55.4183 393.317 56.2842C392.793 57.1273 392.292 57.9704 391.813 58.8135C391.357 59.6566 390.924 60.4655 390.514 61.2402C390.127 61.9922 389.819 62.6188 389.591 63.1201C389.136 64.0771 388.68 64.7152 388.224 65.0342C387.768 65.376 387.301 65.5469 386.823 65.5469C386.162 65.5469 385.627 65.3532 385.216 64.9658C384.829 64.5557 384.635 63.986 384.635 63.2568C384.635 63.0973 384.658 62.7897 384.704 62.334C384.749 61.8555 384.806 61.2972 384.875 60.6592C384.943 59.9984 385.011 59.292 385.08 58.54C385.148 57.7881 385.216 57.0475 385.285 56.3184C385.353 55.5664 385.41 54.8714 385.456 54.2334C385.501 53.5954 385.524 53.0599 385.524 52.627C385.524 52.0573 385.501 51.5104 385.456 50.9863C385.41 50.4622 385.319 50.1432 385.182 50.0293C384.977 50.0977 384.613 50.5306 384.088 51.3281C383.564 52.1029 382.892 53.4814 382.072 55.4639C381.958 55.7145 381.787 55.9082 381.559 56.0449C381.331 56.1816 381.092 56.25 380.841 56.25C380.454 56.25 380.146 56.1247 379.919 55.874C379.691 55.6006 379.577 55.293 379.577 54.9512C379.577 54.7917 379.611 54.6208 379.679 54.4385C380.705 52.0003 381.662 50.2116 382.55 49.0723C383.462 47.9102 384.362 47.3291 385.251 47.3291C385.775 47.3291 386.219 47.4658 386.584 47.7393C386.948 47.9899 387.233 48.3317 387.438 48.7646C387.666 49.1976 387.825 49.6761 387.917 50.2002C388.031 50.7243 388.088 51.2598 388.088 51.8066C388.088 52.2168 388.053 52.8548 387.985 53.7207C387.939 54.5866 387.871 55.5208 387.78 56.5234C387.689 57.5033 387.598 58.4831 387.506 59.4629C387.438 60.4427 387.37 61.263 387.301 61.9238ZM426.642 61.2402C426.073 61.2402 425.571 61.1947 425.138 61.1035C424.796 61.7871 424.386 62.4251 423.908 63.0176C423.429 63.5872 422.871 64.0885 422.233 64.5215C421.618 64.9544 420.923 65.2962 420.148 65.5469C419.373 65.7975 418.53 65.9229 417.619 65.9229C416.548 65.9229 415.568 65.7292 414.679 65.3418C413.791 64.9772 413.016 64.4645 412.355 63.8037C411.694 63.1201 411.182 62.3112 410.817 61.377C410.452 60.4199 410.27 59.3717 410.27 58.2324C410.27 56.7741 410.532 55.5094 411.056 54.4385C411.58 53.3447 412.184 52.4447 412.868 51.7383C413.551 51.0091 414.235 50.4736 414.919 50.1318C415.602 49.7673 416.115 49.585 416.457 49.585C416.844 49.585 417.129 49.6875 417.311 49.8926C417.516 50.0977 417.619 50.3711 417.619 50.7129C417.619 51.1003 417.493 51.3965 417.243 51.6016C417.015 51.7839 416.719 51.9661 416.354 52.1484C415.99 52.3307 415.602 52.5928 415.192 52.9346C414.782 53.2536 414.394 53.6637 414.03 54.165C413.688 54.6663 413.403 55.2588 413.175 55.9424C412.948 56.626 412.834 57.3893 412.834 58.2324C412.834 58.9844 412.948 59.6908 413.175 60.3516C413.403 60.9896 413.734 61.5479 414.167 62.0264C414.6 62.4821 415.112 62.8467 415.705 63.1201C416.297 63.3708 416.958 63.4961 417.687 63.4961C418.986 63.4961 420.057 63.1999 420.9 62.6074C421.766 61.9922 422.427 61.2174 422.882 60.2832C421.538 59.5768 420.433 58.5742 419.567 57.2754C418.701 55.9766 418.268 54.5182 418.268 52.9004C418.268 51.6016 418.576 50.542 419.191 49.7217C419.829 48.9014 420.661 48.4912 421.686 48.4912C422.301 48.4912 422.882 48.6393 423.429 48.9355C423.976 49.2318 424.455 49.6989 424.865 50.3369C425.298 50.9749 425.64 51.7952 425.89 52.7979C426.141 53.8005 426.266 54.9967 426.266 56.3867C426.266 57.1159 426.175 57.8792 425.993 58.6768C426.13 58.6995 426.266 58.7109 426.403 58.7109C426.54 58.7109 426.688 58.7109 426.847 58.7109C427.622 58.7109 428.317 58.6198 428.932 58.4375C429.547 58.2552 430.106 57.9818 430.607 57.6172C431.108 57.2526 431.553 56.7855 431.94 56.2158C432.35 55.6462 432.738 54.9854 433.102 54.2334C433.171 54.0967 433.319 53.9714 433.546 53.8574C433.774 53.7207 434.002 53.6523 434.23 53.6523C434.526 53.6523 434.8 53.7777 435.05 54.0283C435.324 54.2562 435.461 54.5638 435.461 54.9512C435.461 55.1335 435.415 55.3385 435.324 55.5664C435.233 55.7715 435.142 55.9652 435.05 56.1475C434.663 56.8311 434.207 57.4919 433.683 58.1299C433.182 58.7451 432.578 59.292 431.872 59.7705C431.188 60.2262 430.413 60.5908 429.547 60.8643C428.682 61.1377 427.713 61.263 426.642 61.2402ZM420.797 52.627C420.797 53.0599 420.854 53.5156 420.968 53.9941C421.082 54.4727 421.253 54.9512 421.481 55.4297C421.732 55.8854 422.028 56.3298 422.37 56.7627C422.734 57.1729 423.156 57.526 423.634 57.8223C423.703 57.3438 423.737 56.8766 423.737 56.4209C423.737 55.8057 423.691 55.179 423.6 54.541C423.509 53.903 423.372 53.3219 423.19 52.7979C423.031 52.251 422.825 51.818 422.575 51.499C422.324 51.1572 422.028 50.9863 421.686 50.9863C421.549 50.9863 421.367 51.0889 421.139 51.2939C420.911 51.499 420.797 51.9434 420.797 52.627ZM436.828 52.3535C436.691 52.7181 436.52 53.1283 436.315 53.584C436.133 54.0397 435.916 54.5182 435.666 55.0195C435.461 55.4069 435.244 55.7145 435.016 55.9424C434.811 56.1475 434.538 56.25 434.196 56.25C433.809 56.25 433.501 56.1361 433.273 55.9082C433.045 55.6576 432.931 55.3727 432.931 55.0537C432.931 54.9398 432.943 54.8486 432.965 54.7803C432.988 54.6891 433.045 54.5524 433.136 54.3701C433.729 53.2308 434.162 52.2396 434.435 51.3965C434.731 50.5306 434.971 49.6305 435.153 48.6963C434.993 48.1722 434.879 47.7279 434.811 47.3633C434.743 46.9987 434.709 46.6227 434.709 46.2354C434.709 45.4834 434.868 44.8796 435.187 44.4238C435.506 43.9453 435.95 43.7061 436.52 43.7061C437.044 43.7061 437.454 43.9339 437.751 44.3896C438.07 44.8454 438.229 45.4036 438.229 46.0645C438.229 46.429 438.195 46.7936 438.127 47.1582C438.058 47.5228 437.967 47.9785 437.853 48.5254C438.377 49.8242 438.901 50.9749 439.425 51.9775C439.949 52.9801 440.417 53.903 440.827 54.7461C441.237 55.5664 441.567 56.3411 441.818 57.0703C442.091 57.7995 442.228 58.5286 442.228 59.2578C442.228 60.2148 442.034 61.1263 441.647 61.9922C441.26 62.8581 440.622 63.5872 439.733 64.1797C439.847 64.2025 439.961 64.2139 440.075 64.2139C440.189 64.2139 440.303 64.2139 440.417 64.2139C441.715 64.2139 442.912 63.9176 444.005 63.3252C445.099 62.7327 446.079 61.9694 446.945 61.0352C447.834 60.0781 448.62 59.0299 449.303 57.8906C449.987 56.7285 450.579 55.5778 451.081 54.4385C451.309 53.9144 451.628 53.6523 452.038 53.6523C452.425 53.6523 452.721 53.7891 452.926 54.0625C453.154 54.3359 453.268 54.6322 453.268 54.9512C453.268 55.1335 453.234 55.3044 453.166 55.4639C452.915 56.0791 452.585 56.7855 452.174 57.583C451.787 58.3577 451.309 59.1667 450.739 60.0098C450.192 60.8301 449.554 61.639 448.825 62.4365C448.096 63.234 447.275 63.9518 446.364 64.5898C445.475 65.2051 444.495 65.695 443.424 66.0596C442.353 66.4469 441.18 66.6406 439.904 66.6406C438.377 66.6406 436.953 66.3672 435.631 65.8203C434.333 65.2962 433.273 64.4189 432.453 63.1885C432.316 62.9834 432.248 62.7669 432.248 62.5391C432.248 62.1973 432.373 61.901 432.624 61.6504C432.897 61.377 433.205 61.2402 433.546 61.2402C433.911 61.2402 434.219 61.3656 434.469 61.6162C434.492 61.6618 434.572 61.7415 434.709 61.8555C434.845 61.9466 435.005 62.0605 435.187 62.1973C435.392 62.3112 435.62 62.4137 435.871 62.5049C436.144 62.596 436.418 62.6416 436.691 62.6416C437.238 62.6416 437.694 62.5277 438.058 62.2998C438.446 62.0719 438.753 61.7985 438.981 61.4795C439.209 61.1377 439.368 60.7845 439.46 60.4199C439.573 60.0326 439.63 59.7021 439.63 59.4287C439.63 58.859 439.539 58.2894 439.357 57.7197C439.175 57.1501 438.935 56.5804 438.639 56.0107C438.366 55.4411 438.058 54.86 437.716 54.2676C437.397 53.6523 437.101 53.0143 436.828 52.3535Z" fill="#322016"/>
<path d="M194.364 92C194.177 92 194.004 91.9533 193.844 91.86C193.684 91.7533 193.604 91.6 193.604 91.4V77.98C193.604 77.78 193.684 77.6333 193.844 77.54C194.004 77.4333 194.177 77.38 194.364 77.38H201.484C201.697 77.38 201.844 77.46 201.924 77.62C202.017 77.78 202.064 77.9467 202.064 78.12C202.064 78.32 202.01 78.5 201.904 78.66C201.81 78.82 201.67 78.9 201.484 78.9H195.284V83.98H198.404C198.59 83.98 198.73 84.0533 198.824 84.2C198.93 84.3467 198.984 84.5133 198.984 84.7C198.984 84.86 198.937 85.0133 198.844 85.16C198.764 85.3067 198.617 85.38 198.404 85.38H195.284V90.48H201.484C201.67 90.48 201.81 90.56 201.904 90.72C202.01 90.8667 202.064 91.0467 202.064 91.26C202.064 91.4333 202.017 91.6 201.924 91.76C201.844 91.92 201.697 92 201.484 92H194.364ZM210.357 92.16C209.504 92.16 208.757 92.0333 208.117 91.78C207.477 91.5133 206.984 91.2067 206.637 90.86C206.29 90.5 206.117 90.18 206.117 89.9C206.117 89.7667 206.15 89.6333 206.217 89.5C206.297 89.3533 206.39 89.2333 206.497 89.14C206.617 89.0333 206.737 88.98 206.857 88.98C207.017 88.98 207.17 89.06 207.317 89.22C207.477 89.38 207.67 89.5733 207.897 89.8C208.137 90.0133 208.444 90.2 208.817 90.36C209.19 90.52 209.677 90.6 210.277 90.6C210.837 90.6 211.324 90.5133 211.737 90.34C212.15 90.1533 212.47 89.88 212.697 89.52C212.937 89.1467 213.057 88.68 213.057 88.12C213.057 87.5467 212.937 87.08 212.697 86.72C212.457 86.36 212.137 86.06 211.737 85.82C211.35 85.58 210.924 85.3667 210.457 85.18C210.004 84.9933 209.537 84.8067 209.057 84.62C208.59 84.42 208.164 84.18 207.777 83.9C207.39 83.6067 207.077 83.2333 206.837 82.78C206.597 82.3267 206.477 81.7533 206.477 81.06C206.477 80.3267 206.61 79.72 206.877 79.24C207.144 78.76 207.497 78.38 207.937 78.1C208.377 77.82 208.85 77.6267 209.357 77.52C209.877 77.4 210.384 77.34 210.877 77.34C211.237 77.34 211.617 77.3667 212.017 77.42C212.417 77.4733 212.797 77.5533 213.157 77.66C213.517 77.7667 213.81 77.9067 214.037 78.08C214.264 78.24 214.377 78.4333 214.377 78.66C214.377 78.7667 214.35 78.8933 214.297 79.04C214.244 79.1733 214.164 79.3 214.057 79.42C213.95 79.5267 213.817 79.58 213.657 79.58C213.51 79.58 213.33 79.52 213.117 79.4C212.904 79.2667 212.617 79.14 212.257 79.02C211.91 78.8867 211.45 78.82 210.877 78.82C210.397 78.82 209.944 78.8867 209.517 79.02C209.104 79.1533 208.77 79.3733 208.517 79.68C208.277 79.9867 208.157 80.3933 208.157 80.9C208.157 81.38 208.277 81.7733 208.517 82.08C208.757 82.3867 209.07 82.64 209.457 82.84C209.844 83.04 210.27 83.2267 210.737 83.4C211.204 83.56 211.67 83.7533 212.137 83.98C212.604 84.1933 213.03 84.46 213.417 84.78C213.817 85.1 214.137 85.52 214.377 86.04C214.617 86.5467 214.737 87.1867 214.737 87.96C214.737 88.92 214.544 89.7133 214.157 90.34C213.784 90.9533 213.27 91.4133 212.617 91.72C211.964 92.0133 211.21 92.16 210.357 92.16ZM224.056 92.12C223.283 92.12 222.569 91.98 221.916 91.7C221.263 91.4067 220.743 90.94 220.356 90.3C219.969 89.66 219.776 88.8133 219.776 87.76V81.74C219.776 80.6867 219.969 79.84 220.356 79.2C220.756 78.56 221.283 78.1 221.936 77.82C222.589 77.5267 223.303 77.38 224.076 77.38C224.983 77.38 225.756 77.5333 226.396 77.84C227.036 78.1467 227.529 78.5667 227.876 79.1C228.223 79.62 228.396 80.2067 228.396 80.86C228.396 81.2333 228.323 81.48 228.176 81.6C228.043 81.72 227.836 81.78 227.556 81.78C227.289 81.78 227.083 81.7267 226.936 81.62C226.803 81.5133 226.729 81.3733 226.716 81.2C226.703 81 226.663 80.7733 226.596 80.52C226.543 80.2533 226.423 80 226.236 79.76C226.063 79.5067 225.803 79.3 225.456 79.14C225.123 78.98 224.676 78.9 224.116 78.9C223.263 78.9 222.603 79.1333 222.136 79.6C221.683 80.0533 221.456 80.7667 221.456 81.74V87.76C221.456 88.7333 221.689 89.4533 222.156 89.92C222.623 90.3733 223.296 90.6 224.176 90.6C224.736 90.6 225.176 90.52 225.496 90.36C225.829 90.2 226.076 90 226.236 89.76C226.396 89.52 226.509 89.2667 226.576 89C226.643 88.72 226.689 88.46 226.716 88.22C226.729 88.02 226.809 87.8733 226.956 87.78C227.103 87.6867 227.303 87.64 227.556 87.64C227.836 87.64 228.043 87.7067 228.176 87.84C228.323 87.96 228.396 88.2067 228.396 88.58C228.396 89.2333 228.216 89.8333 227.856 90.38C227.509 90.9133 227.009 91.34 226.356 91.66C225.716 91.9667 224.949 92.12 224.056 92.12ZM241.321 92.04C241.161 92.04 241.014 91.9733 240.881 91.84C240.761 91.7067 240.654 91.5533 240.561 91.38L237.561 85.52H235.241V91.4C235.241 91.6 235.154 91.7533 234.981 91.86C234.807 91.9533 234.614 92 234.401 92C234.201 92 234.007 91.9533 233.821 91.86C233.647 91.7533 233.561 91.6 233.561 91.4V77.96C233.561 77.8 233.614 77.6667 233.721 77.56C233.841 77.4533 233.987 77.3933 234.161 77.38H237.821C238.634 77.38 239.374 77.5067 240.041 77.76C240.721 78 241.261 78.4133 241.661 79C242.061 79.5733 242.261 80.3667 242.261 81.38C242.261 82.1933 242.127 82.8667 241.861 83.4C241.607 83.9333 241.254 84.3533 240.801 84.66C240.347 84.9533 239.841 85.16 239.281 85.28L242.241 90.9C242.267 90.9533 242.287 91.0067 242.301 91.06C242.314 91.1 242.321 91.14 242.321 91.18C242.321 91.3267 242.267 91.4667 242.161 91.6C242.067 91.7333 241.941 91.84 241.781 91.92C241.634 92 241.481 92.04 241.321 92.04ZM235.241 84.12H237.821C238.647 84.12 239.314 83.92 239.821 83.52C240.327 83.12 240.581 82.4467 240.581 81.5C240.581 80.5533 240.327 79.8867 239.821 79.5C239.314 79.1 238.647 78.9 237.821 78.9H235.241V84.12ZM248.182 92C247.982 92 247.789 91.9533 247.602 91.86C247.429 91.7533 247.342 91.6 247.342 91.4V77.96C247.342 77.76 247.429 77.6133 247.602 77.52C247.789 77.4267 247.982 77.38 248.182 77.38C248.395 77.38 248.589 77.4267 248.762 77.52C248.935 77.6133 249.022 77.76 249.022 77.96V91.4C249.022 91.6 248.935 91.7533 248.762 91.86C248.589 91.9533 248.395 92 248.182 92ZM255.633 92C255.406 92 255.22 91.9467 255.073 91.84C254.94 91.72 254.873 91.58 254.873 91.42V77.98C254.873 77.78 254.953 77.6333 255.113 77.54C255.273 77.4333 255.446 77.38 255.633 77.38H259.073C259.806 77.38 260.48 77.4733 261.093 77.66C261.72 77.8333 262.213 78.1667 262.573 78.66C262.946 79.1533 263.133 79.8667 263.133 80.8C263.133 81.64 262.98 82.34 262.673 82.9C262.366 83.46 261.953 83.8533 261.433 84.08C261.846 84.24 262.206 84.46 262.513 84.74C262.82 85.0067 263.06 85.36 263.233 85.8C263.406 86.2267 263.493 86.7867 263.493 87.48V87.84C263.493 88.8667 263.32 89.6867 262.973 90.3C262.626 90.9 262.153 91.3333 261.553 91.6C260.953 91.8667 260.28 92 259.533 92H255.633ZM256.553 90.48H259.253C260.066 90.48 260.693 90.26 261.133 89.82C261.586 89.38 261.813 88.6867 261.813 87.74V87.4C261.813 86.44 261.586 85.7667 261.133 85.38C260.693 84.98 260.066 84.78 259.253 84.78H256.553V90.48ZM256.553 83.38H259.053C259.88 83.38 260.486 83.2 260.873 82.84C261.26 82.4667 261.453 81.8667 261.453 81.04C261.453 80.4933 261.346 80.0667 261.133 79.76C260.933 79.44 260.646 79.22 260.273 79.1C259.913 78.9667 259.486 78.9 258.993 78.9H256.553V83.38ZM269.532 92C269.345 92 269.172 91.9533 269.012 91.86C268.852 91.7533 268.772 91.6 268.772 91.4V77.98C268.772 77.78 268.852 77.6333 269.012 77.54C269.172 77.4333 269.345 77.38 269.532 77.38H276.652C276.865 77.38 277.012 77.46 277.092 77.62C277.185 77.78 277.232 77.9467 277.232 78.12C277.232 78.32 277.178 78.5 277.072 78.66C276.978 78.82 276.838 78.9 276.652 78.9H270.452V83.98H273.572C273.758 83.98 273.898 84.0533 273.992 84.2C274.098 84.3467 274.152 84.5133 274.152 84.7C274.152 84.86 274.105 85.0133 274.012 85.16C273.932 85.3067 273.785 85.38 273.572 85.38H270.452V90.48H276.652C276.838 90.48 276.978 90.56 277.072 90.72C277.178 90.8667 277.232 91.0467 277.232 91.26C277.232 91.4333 277.185 91.6 277.092 91.76C277.012 91.92 276.865 92 276.652 92H269.532ZM292.529 92C292.316 92 292.122 91.9533 291.949 91.86C291.776 91.7533 291.689 91.6 291.689 91.4V78.94H288.449C288.276 78.94 288.136 78.86 288.029 78.7C287.922 78.54 287.869 78.3533 287.869 78.14C287.869 77.9533 287.916 77.78 288.009 77.62C288.102 77.46 288.249 77.38 288.449 77.38H296.609C296.809 77.38 296.956 77.46 297.049 77.62C297.142 77.78 297.189 77.9533 297.189 78.14C297.189 78.34 297.142 78.5267 297.049 78.7C296.956 78.86 296.809 78.94 296.609 78.94H293.369V91.4C293.369 91.6 293.282 91.7533 293.109 91.86C292.936 91.9533 292.742 92 292.529 92ZM306.154 92.12C305.327 92.12 304.587 91.98 303.934 91.7C303.28 91.4067 302.76 90.9467 302.374 90.32C301.987 89.68 301.794 88.8267 301.794 87.76V77.96C301.794 77.76 301.874 77.6133 302.034 77.52C302.207 77.4267 302.407 77.38 302.634 77.38C302.847 77.38 303.04 77.4267 303.214 77.52C303.387 77.6133 303.474 77.76 303.474 77.96V87.76C303.474 88.7333 303.707 89.4533 304.174 89.92C304.64 90.3733 305.3 90.6 306.154 90.6C306.994 90.6 307.647 90.3733 308.114 89.92C308.594 89.4533 308.834 88.7333 308.834 87.76V77.96C308.834 77.76 308.92 77.6133 309.094 77.52C309.267 77.4267 309.46 77.38 309.674 77.38C309.887 77.38 310.08 77.4267 310.254 77.52C310.427 77.6133 310.514 77.76 310.514 77.96V87.76C310.514 88.8267 310.32 89.68 309.934 90.32C309.547 90.9467 309.02 91.4067 308.354 91.7C307.7 91.98 306.967 92.12 306.154 92.12ZM327.443 92.12C326.669 92.12 325.956 91.98 325.303 91.7C324.649 91.4067 324.129 90.94 323.743 90.3C323.356 89.66 323.163 88.8133 323.163 87.76V81.74C323.163 80.6867 323.356 79.84 323.743 79.2C324.143 78.56 324.669 78.1 325.323 77.82C325.976 77.5267 326.689 77.38 327.463 77.38C328.369 77.38 329.143 77.5333 329.783 77.84C330.423 78.1467 330.916 78.5667 331.263 79.1C331.609 79.62 331.783 80.2067 331.783 80.86C331.783 81.2333 331.709 81.48 331.563 81.6C331.429 81.72 331.223 81.78 330.943 81.78C330.676 81.78 330.469 81.7267 330.323 81.62C330.189 81.5133 330.116 81.3733 330.103 81.2C330.089 81 330.049 80.7733 329.983 80.52C329.929 80.2533 329.809 80 329.623 79.76C329.449 79.5067 329.189 79.3 328.843 79.14C328.509 78.98 328.063 78.9 327.503 78.9C326.649 78.9 325.989 79.1333 325.523 79.6C325.069 80.0533 324.843 80.7667 324.843 81.74V87.76C324.843 88.7333 325.076 89.4533 325.543 89.92C326.009 90.3733 326.683 90.6 327.563 90.6C328.123 90.6 328.563 90.52 328.883 90.36C329.216 90.2 329.463 90 329.623 89.76C329.783 89.52 329.896 89.2667 329.963 89C330.029 88.72 330.076 88.46 330.103 88.22C330.116 88.02 330.196 87.8733 330.343 87.78C330.489 87.6867 330.689 87.64 330.943 87.64C331.223 87.64 331.429 87.7067 331.563 87.84C331.709 87.96 331.783 88.2067 331.783 88.58C331.783 89.2333 331.603 89.8333 331.243 90.38C330.896 90.9133 330.396 91.34 329.743 91.66C329.103 91.9667 328.336 92.12 327.443 92.12ZM341.107 92.12C340.294 92.12 339.561 91.98 338.907 91.7C338.267 91.4067 337.754 90.9467 337.367 90.32C336.994 89.68 336.807 88.8267 336.807 87.76V81.74C336.807 80.6733 336.994 79.8267 337.367 79.2C337.754 78.56 338.267 78.1 338.907 77.82C339.561 77.5267 340.294 77.38 341.107 77.38C341.921 77.38 342.654 77.5267 343.307 77.82C343.961 78.1 344.474 78.56 344.847 79.2C345.234 79.8267 345.427 80.6733 345.427 81.74V87.76C345.427 88.8267 345.234 89.68 344.847 90.32C344.474 90.9467 343.961 91.4067 343.307 91.7C342.654 91.98 341.921 92.12 341.107 92.12ZM341.107 90.6C341.934 90.6 342.581 90.3733 343.047 89.92C343.514 89.4533 343.747 88.7333 343.747 87.76V81.74C343.747 80.7667 343.514 80.0533 343.047 79.6C342.581 79.1333 341.934 78.9 341.107 78.9C340.281 78.9 339.634 79.1333 339.167 79.6C338.714 80.0533 338.487 80.7667 338.487 81.74V87.76C338.487 88.7333 338.714 89.4533 339.167 89.92C339.634 90.3733 340.281 90.6 341.107 90.6ZM351.959 92C351.759 92 351.566 91.9533 351.379 91.86C351.206 91.7533 351.119 91.6 351.119 91.4V77.96C351.119 77.7467 351.206 77.6 351.379 77.52C351.566 77.4267 351.759 77.38 351.959 77.38C352.173 77.38 352.353 77.42 352.499 77.5C352.646 77.58 352.779 77.7 352.899 77.86C353.019 78.0067 353.139 78.2 353.259 78.44L358.219 88.18V77.96C358.219 77.76 358.306 77.6133 358.479 77.52C358.666 77.4267 358.859 77.38 359.059 77.38C359.273 77.38 359.466 77.4267 359.639 77.52C359.813 77.6133 359.899 77.76 359.899 77.96V91.4C359.899 91.6 359.813 91.7533 359.639 91.86C359.466 91.9533 359.273 92 359.059 92C358.846 92 358.646 91.9267 358.459 91.78C358.286 91.6333 358.139 91.4533 358.019 91.24L352.799 81.18V91.4C352.799 91.6 352.713 91.7533 352.539 91.86C352.366 91.9533 352.173 92 351.959 92ZM369.24 92.16C368.387 92.16 367.64 92.0333 367 91.78C366.36 91.5133 365.867 91.2067 365.52 90.86C365.173 90.5 365 90.18 365 89.9C365 89.7667 365.033 89.6333 365.1 89.5C365.18 89.3533 365.273 89.2333 365.38 89.14C365.5 89.0333 365.62 88.98 365.74 88.98C365.9 88.98 366.053 89.06 366.2 89.22C366.36 89.38 366.553 89.5733 366.78 89.8C367.02 90.0133 367.327 90.2 367.7 90.36C368.073 90.52 368.56 90.6 369.16 90.6C369.72 90.6 370.207 90.5133 370.62 90.34C371.033 90.1533 371.353 89.88 371.58 89.52C371.82 89.1467 371.94 88.68 371.94 88.12C371.94 87.5467 371.82 87.08 371.58 86.72C371.34 86.36 371.02 86.06 370.62 85.82C370.233 85.58 369.807 85.3667 369.34 85.18C368.887 84.9933 368.42 84.8067 367.94 84.62C367.473 84.42 367.047 84.18 366.66 83.9C366.273 83.6067 365.96 83.2333 365.72 82.78C365.48 82.3267 365.36 81.7533 365.36 81.06C365.36 80.3267 365.493 79.72 365.76 79.24C366.027 78.76 366.38 78.38 366.82 78.1C367.26 77.82 367.733 77.6267 368.24 77.52C368.76 77.4 369.267 77.34 369.76 77.34C370.12 77.34 370.5 77.3667 370.9 77.42C371.3 77.4733 371.68 77.5533 372.04 77.66C372.4 77.7667 372.693 77.9067 372.92 78.08C373.147 78.24 373.26 78.4333 373.26 78.66C373.26 78.7667 373.233 78.8933 373.18 79.04C373.127 79.1733 373.047 79.3 372.94 79.42C372.833 79.5267 372.7 79.58 372.54 79.58C372.393 79.58 372.213 79.52 372 79.4C371.787 79.2667 371.5 79.14 371.14 79.02C370.793 78.8867 370.333 78.82 369.76 78.82C369.28 78.82 368.827 78.8867 368.4 79.02C367.987 79.1533 367.653 79.3733 367.4 79.68C367.16 79.9867 367.04 80.3933 367.04 80.9C367.04 81.38 367.16 81.7733 367.4 82.08C367.64 82.3867 367.953 82.64 368.34 82.84C368.727 83.04 369.153 83.2267 369.62 83.4C370.087 83.56 370.553 83.7533 371.02 83.98C371.487 84.1933 371.913 84.46 372.3 84.78C372.7 85.1 373.02 85.52 373.26 86.04C373.5 86.5467 373.62 87.1867 373.62 87.96C373.62 88.92 373.427 89.7133 373.04 90.34C372.667 90.9533 372.153 91.4133 371.5 91.72C370.847 92.0133 370.093 92.16 369.24 92.16ZM383.099 92.12C382.272 92.12 381.532 91.98 380.879 91.7C380.226 91.4067 379.706 90.9467 379.319 90.32C378.932 89.68 378.739 88.8267 378.739 87.76V77.96C378.739 77.76 378.819 77.6133 378.979 77.52C379.152 77.4267 379.352 77.38 379.579 77.38C379.792 77.38 379.986 77.4267 380.159 77.52C380.332 77.6133 380.419 77.76 380.419 77.96V87.76C380.419 88.7333 380.652 89.4533 381.119 89.92C381.586 90.3733 382.246 90.6 383.099 90.6C383.939 90.6 384.592 90.3733 385.059 89.92C385.539 89.4533 385.779 88.7333 385.779 87.76V77.96C385.779 77.76 385.866 77.6133 386.039 77.52C386.212 77.4267 386.406 77.38 386.619 77.38C386.832 77.38 387.026 77.4267 387.199 77.52C387.372 77.6133 387.459 77.76 387.459 77.96V87.76C387.459 88.8267 387.266 89.68 386.879 90.32C386.492 90.9467 385.966 91.4067 385.299 91.7C384.646 91.98 383.912 92.12 383.099 92.12ZM394.004 92C393.818 92 393.644 91.9533 393.484 91.86C393.324 91.7533 393.244 91.6 393.244 91.4V77.96C393.244 77.76 393.331 77.6133 393.504 77.52C393.691 77.4267 393.884 77.38 394.084 77.38C394.298 77.38 394.491 77.4267 394.664 77.52C394.838 77.6133 394.924 77.76 394.924 77.96V90.48H400.404C400.591 90.48 400.724 90.56 400.804 90.72C400.898 90.8667 400.944 91.04 400.944 91.24C400.944 91.4267 400.898 91.6 400.804 91.76C400.724 91.92 400.591 92 400.404 92H394.004ZM407.107 92C406.894 92 406.7 91.9533 406.527 91.86C406.354 91.7533 406.267 91.6 406.267 91.4V78.94H403.027C402.854 78.94 402.714 78.86 402.607 78.7C402.5 78.54 402.447 78.3533 402.447 78.14C402.447 77.9533 402.494 77.78 402.587 77.62C402.68 77.46 402.827 77.38 403.027 77.38H411.187C411.387 77.38 411.534 77.46 411.627 77.62C411.72 77.78 411.767 77.9533 411.767 78.14C411.767 78.34 411.72 78.5267 411.627 78.7C411.534 78.86 411.387 78.94 411.187 78.94H407.947V91.4C407.947 91.6 407.86 91.7533 407.687 91.86C407.514 91.9533 407.32 92 407.107 92ZM415.199 92C415.066 92 414.913 91.9733 414.739 91.92C414.579 91.8533 414.446 91.7667 414.339 91.66C414.246 91.5533 414.199 91.4333 414.199 91.3C414.199 91.2467 414.206 91.1933 414.219 91.14L418.319 77.84C418.373 77.64 418.499 77.4933 418.699 77.4C418.899 77.3067 419.113 77.26 419.339 77.26C419.579 77.26 419.799 77.3133 419.999 77.42C420.199 77.5133 420.326 77.6533 420.379 77.84L424.459 91.14C424.486 91.1933 424.499 91.24 424.499 91.28C424.499 91.4133 424.439 91.5333 424.319 91.64C424.213 91.7467 424.079 91.8333 423.919 91.9C423.759 91.9667 423.606 92 423.459 92C423.313 92 423.186 91.9733 423.079 91.92C422.973 91.8533 422.899 91.7533 422.859 91.62L421.959 88.64H416.699L415.839 91.62C415.799 91.7533 415.719 91.8533 415.599 91.92C415.493 91.9733 415.359 92 415.199 92ZM417.099 87.26H421.579L419.339 79.74L417.099 87.26Z" fill="#322016"/>
</svg>
