<svg width="64" height="65" viewBox="0 0 64 65" fill="none" xmlns="http://www.w3.org/2000/svg">
<g clip-path="url(#clip0_2_2601)">
<path d="M62.6508 52.0653L49.4781 38.608C48.7713 37.8894 47.6147 37.8894 46.9078 38.608L46.201 39.3266L38.8757 46.8392C34.8918 45.598 31.1649 43.5075 28.0163 40.8944C26.4741 39.5879 24.9962 38.0854 23.711 36.5176C21.0765 33.3166 19.0845 29.5276 17.8636 25.412L25.8958 17.2462C26.6026 16.5276 26.6026 15.3517 25.8958 14.6331L25.1247 13.8492L24.5464 13.2613L12.0163 0.522587C11.3094 -0.196006 10.1528 -0.196006 9.44598 0.522587L8.73915 1.24118L3.21305 6.9246C1.28534 8.8844 0.12871 11.5628 0.0644531 14.3718C0.0644531 14.8944 0.0644531 15.4171 0.0644531 16.005C0.0644531 17.6382 0.12871 19.2713 0.321481 20.8392C0.514252 22.603 0.77128 24.3668 1.09257 26.0653C1.73514 29.3316 2.76325 32.4673 3.98413 35.407C4.1769 35.799 4.30542 36.1909 4.49819 36.5176C4.6267 36.8442 4.81947 37.1708 5.01224 37.5628C5.14076 37.8241 5.20502 38.0201 5.33353 38.2814C6.68293 40.9598 8.2251 43.5075 10.0243 45.8593C12.5946 49.2563 15.6147 52.3266 18.956 54.9397C21.2693 56.7688 23.711 58.3367 26.3456 59.7085C26.6026 59.8392 26.8596 59.9698 27.1167 60.1005C27.4379 60.2965 27.7592 60.4271 28.1448 60.6231C28.4661 60.8191 28.8516 60.9497 29.1729 61.0804C32.1287 62.3869 35.213 63.3668 38.4259 64.0854C40.0966 64.412 41.8315 64.7387 43.5665 64.8693C45.1086 65.0653 46.7151 65.1306 48.3215 65.1306C48.8998 65.1306 49.4781 65.1306 49.9922 65.1306H50.0564C52.7552 65.0653 55.3255 63.8894 57.2532 61.9296L62.7793 56.3115L63.4861 55.5929C64.193 54.8743 64.193 53.6985 63.4861 52.9799L62.6508 52.0653ZM55.9681 58.7939C53.9118 60.8844 51.1488 61.9949 48.3215 62.0603H48.2572C48.0002 62.0603 47.7432 62.0603 47.4861 62.0603C45.944 62.0603 44.3375 61.9296 42.8596 61.7336C39.5183 61.3417 36.2412 60.5578 33.1568 59.4472C32.5143 59.2512 31.8717 58.9899 31.2934 58.7286C30.3295 58.3367 29.3657 57.8794 28.4018 57.4221C28.2733 57.3568 28.1448 57.2914 28.0163 57.2261C27.8877 57.1608 27.8235 57.1608 27.7592 57.0955C19.1488 52.6532 12.1448 45.5326 7.83955 36.8442C7.71104 36.7135 7.71104 36.5829 7.64678 36.5176C7.58252 36.3869 7.51827 36.1909 7.38975 36.0603C6.93995 35.0804 6.49016 34.1658 6.10461 33.1206C5.84759 32.5326 5.65481 31.8794 5.39779 31.2914C4.36967 28.1558 3.59859 24.8241 3.21305 21.4271C3.02028 19.8593 2.89176 18.2914 2.89176 16.7236C2.89176 16.4623 2.89176 16.201 2.89176 15.9397V15.8743C2.89176 13 3.98413 10.2563 5.9761 8.23113L10.7954 3.33163L14.5865 7.1859L14.6508 7.25123L16.8355 9.40701L17.0926 9.66832L21.3335 13.9799L23.1327 15.809L15.3576 23.7789C14.9078 24.2362 14.7151 24.9547 14.9078 25.5427C15.1006 26.2613 15.3576 27.0452 15.6147 27.7638C16.707 30.8995 18.2492 33.8392 20.1126 36.5176C22.2974 39.6532 24.9962 42.3316 28.0805 44.6181C30.6508 46.5125 33.5424 48.0804 36.6267 49.1909C37.3335 49.4522 38.0404 49.7135 38.7472 49.9095C39.3898 50.1055 40.0323 49.9095 40.5464 49.4522L42.2171 47.7537L47.4861 42.397L48.3215 41.5477L50.1849 43.4422L54.4259 47.7537L54.6829 48.015L56.8677 50.2362L60.7231 54.0904L55.9681 58.7939Z" fill="#322016"/>
<path d="M49.7355 21.8844C49.7355 23.2562 49.2857 24.4974 48.5146 25.4773C48.5146 25.4773 48.4504 25.5427 48.4504 25.608L47.6793 26.3919L40.4825 33.7085L33.35 26.3919L32.5789 25.608C32.5146 25.5427 32.5146 25.5427 32.4504 25.4773C31.6793 24.4974 31.2295 23.2562 31.2295 21.8844C31.2295 18.6834 33.7998 16.0703 36.9484 16.0703C38.2978 16.0703 39.5186 16.5276 40.4825 17.3115C41.4464 16.5276 42.6672 16.0703 44.0166 16.0703C47.1652 16.0703 49.7355 18.6834 49.7355 21.8844Z" fill="#E1603B"/>
</g>
<defs>
<clipPath id="clip0_2_2601">
<rect width="64" height="65" fill="white"/>
</clipPath>
</defs>
</svg>
