<svg width="505" height="102" viewBox="0 0 505 102" fill="none" xmlns="http://www.w3.org/2000/svg">
<path d="M56.2227 50.4736C56.1999 50.5648 56.0404 50.9521 55.7441 51.6357C55.4479 52.3193 54.9466 53.1624 54.2402 54.165C53.5566 55.1676 52.6452 56.2728 51.5059 57.4805C50.3665 58.6882 48.931 59.873 47.1992 61.0352C45.4674 62.1745 43.4167 63.2227 41.0469 64.1797C38.6771 65.1139 35.9313 65.8317 32.8096 66.333C30.7132 66.6748 28.5143 66.8457 26.2129 66.8457C24.2988 66.8457 22.3734 66.709 20.4365 66.4355C18.5225 66.1849 16.6768 65.7747 14.8994 65.2051C13.1449 64.6582 11.5042 63.9518 9.97754 63.0859C8.45085 62.2201 7.11784 61.1947 5.97852 60.0098C4.86198 58.8249 3.97331 57.4691 3.3125 55.9424C2.67448 54.3929 2.35547 52.6725 2.35547 50.7812C2.35547 47.4316 3.27832 44.5492 5.12402 42.1338C6.99251 39.7184 9.74967 37.8385 13.3955 36.4941C12.0967 35.2865 11.1283 33.9535 10.4902 32.4951C9.85221 31.0368 9.5332 29.5215 9.5332 27.9492C9.5332 25.9896 9.97754 24.1781 10.8662 22.5146C11.7777 20.8512 13.0309 19.4157 14.626 18.208C16.221 17.0003 18.1123 16.0661 20.2998 15.4053C22.5101 14.7217 24.9255 14.3799 27.5459 14.3799C30.1891 14.3799 32.4906 14.6305 34.4502 15.1318C36.4326 15.6331 38.1188 16.2598 39.5088 17.0117C40.9215 17.7637 42.0723 18.584 42.9609 19.4727C43.8724 20.3613 44.5902 21.193 45.1143 21.9678C45.6383 22.7425 46.0029 23.4033 46.208 23.9502C46.4131 24.4743 46.527 24.7705 46.5498 24.8389C46.5726 24.93 46.584 25.0553 46.584 25.2148C46.584 25.5339 46.4587 25.8301 46.208 26.1035C45.9801 26.3542 45.6725 26.4795 45.2852 26.4795C45.0117 26.4795 44.7611 26.3997 44.5332 26.2402C44.3281 26.0579 44.18 25.8187 44.0889 25.5225C44.0889 25.4769 43.9977 25.2376 43.8154 24.8047C43.6331 24.349 43.3141 23.8021 42.8584 23.1641C42.4027 22.526 41.776 21.8538 40.9785 21.1475C40.2038 20.4183 39.2012 19.7461 37.9707 19.1309C36.7402 18.4928 35.2705 17.9688 33.5615 17.5586C31.8525 17.1484 29.8473 16.9434 27.5459 16.9434C24.9027 16.9434 22.6012 17.2738 20.6416 17.9346C18.7048 18.5954 17.0983 19.4613 15.8223 20.5322C14.569 21.5804 13.6348 22.7539 13.0195 24.0527C12.4043 25.3516 12.0967 26.6276 12.0967 27.8809C12.0967 29.362 12.4613 30.7747 13.1904 32.1191C13.9196 33.4635 14.9678 34.6143 16.335 35.5713C17.5654 35.2523 18.7731 35.0016 19.958 34.8193C21.1429 34.637 22.2594 34.5003 23.3076 34.4092C24.3558 34.2952 25.3014 34.2269 26.1445 34.2041C27.0104 34.1585 27.7168 34.1357 28.2637 34.1357C29.2663 34.1357 30.1891 34.2155 31.0322 34.375C31.8753 34.5117 32.5931 34.7282 33.1855 35.0244C33.8008 35.2979 34.2793 35.6624 34.6211 36.1182C34.9629 36.5511 35.1338 37.0524 35.1338 37.6221C35.1338 38.1917 34.9629 38.7044 34.6211 39.1602C34.2793 39.6159 33.8008 40.0033 33.1855 40.3223C32.5931 40.6413 31.8753 40.8919 31.0322 41.0742C30.1891 41.2337 29.2663 41.3135 28.2637 41.3135C27.1699 41.3135 26.0648 41.2451 24.9482 41.1084C23.8317 40.9717 22.738 40.778 21.667 40.5273C20.6188 40.2767 19.6048 39.9691 18.625 39.6045C17.6452 39.2171 16.7565 38.7842 15.959 38.3057C12.3359 39.3994 9.59017 40.9831 7.72168 43.0566C5.85319 45.1074 4.91895 47.6481 4.91895 50.6787C4.91895 52.3193 5.20378 53.8005 5.77344 55.1221C6.36589 56.4209 7.1748 57.5716 8.2002 58.5742C9.22559 59.5768 10.4219 60.4427 11.7891 61.1719C13.179 61.8783 14.6602 62.4593 16.2324 62.915C17.8047 63.3708 19.4453 63.7126 21.1543 63.9404C22.8633 64.1455 24.5609 64.248 26.2471 64.248C27.3408 64.248 28.4004 64.2139 29.4258 64.1455C30.4512 64.0544 31.4424 63.929 32.3994 63.7695C35.2705 63.3138 37.7884 62.653 39.9531 61.7871C42.1406 60.8984 44.0205 59.9414 45.5928 58.916C47.1878 57.8678 48.5094 56.8083 49.5576 55.7373C50.6058 54.6436 51.4375 53.6523 52.0527 52.7637C52.6908 51.8522 53.1351 51.1117 53.3857 50.542C53.6592 49.9723 53.7959 49.6761 53.7959 49.6533C53.887 49.3799 54.0352 49.1748 54.2402 49.0381C54.4681 48.8786 54.7188 48.7988 54.9922 48.7988C55.3568 48.7988 55.6644 48.9242 55.915 49.1748C56.1657 49.4255 56.291 49.7217 56.291 50.0635C56.291 50.1546 56.2682 50.2913 56.2227 50.4736ZM32.5361 37.6562C32.5361 37.474 32.388 37.3145 32.0918 37.1777C31.7956 37.041 31.4082 36.9385 30.9297 36.8701C30.474 36.779 29.9499 36.722 29.3574 36.6992C28.765 36.6536 28.1611 36.6309 27.5459 36.6309C26.2015 36.6309 24.9255 36.6764 23.7178 36.7676C22.5101 36.8359 21.1315 37.0182 19.582 37.3145C20.7669 37.7474 22.1227 38.1006 23.6494 38.374C25.1989 38.6247 26.7598 38.75 28.332 38.75C29.7676 38.75 30.8271 38.6361 31.5107 38.4082C32.1943 38.1803 32.5361 37.9297 32.5361 37.6562ZM67.5361 61.958C67.8779 61.2744 68.3109 60.4313 68.835 59.4287C69.3818 58.4033 69.9401 57.3779 70.5098 56.3525C71.1022 55.3271 71.6719 54.3587 72.2188 53.4473C72.7884 52.5358 73.2669 51.8408 73.6543 51.3623C74.3151 50.5648 74.9987 49.9951 75.7051 49.6533C76.4115 49.3115 77.0609 49.1406 77.6533 49.1406C78.2458 49.1406 78.7471 49.266 79.1572 49.5166C79.5902 49.7673 79.9434 50.109 80.2168 50.542C80.4902 50.9521 80.6953 51.4421 80.832 52.0117C80.9688 52.5586 81.0371 53.151 81.0371 53.7891C81.0371 54.1536 81.0143 54.6322 80.9688 55.2246C80.946 55.8171 80.9118 56.4551 80.8662 57.1387C80.8434 57.8223 80.8092 58.5286 80.7637 59.2578C80.7409 59.987 80.7181 60.6706 80.6953 61.3086C81.0371 60.625 81.4245 59.873 81.8574 59.0527C82.2904 58.2096 82.7233 57.3779 83.1562 56.5576C83.612 55.7373 84.0449 54.974 84.4551 54.2676C84.8652 53.5384 85.2412 52.946 85.583 52.4902C86.5628 51.1458 87.4743 50.2458 88.3174 49.79C89.1833 49.3343 89.9466 49.1064 90.6074 49.1064C91.3822 49.1064 92.0202 49.2546 92.5215 49.5508C93.0228 49.8242 93.4102 50.1888 93.6836 50.6445C93.9798 51.0775 94.1849 51.5674 94.2988 52.1143C94.4128 52.6611 94.4697 53.1852 94.4697 53.6865C94.4697 54.4613 94.4128 55.2702 94.2988 56.1133C94.1849 56.9564 94.1279 57.959 94.1279 59.1211C94.1279 59.5996 94.1507 60.0781 94.1963 60.5566C94.2419 61.0352 94.333 61.4567 94.4697 61.8213C94.6292 62.1859 94.8685 62.4821 95.1875 62.71C95.5065 62.9378 95.9395 63.0518 96.4863 63.0518C97.0788 63.0518 97.6598 62.9036 98.2295 62.6074C98.7992 62.2884 99.346 61.8783 99.8701 61.377C100.394 60.8757 100.884 60.306 101.34 59.668C101.818 59.0299 102.251 58.3919 102.639 57.7539C103.026 57.1159 103.368 56.512 103.664 55.9424C103.96 55.3499 104.2 54.8486 104.382 54.4385C104.496 54.1878 104.655 53.9941 104.86 53.8574C105.065 53.7207 105.293 53.6523 105.544 53.6523C105.931 53.6523 106.239 53.8005 106.467 54.0967C106.717 54.3701 106.843 54.6663 106.843 54.9854C106.843 55.1449 106.809 55.3044 106.74 55.4639C106.649 55.6462 106.467 56.0335 106.193 56.626C105.92 57.1956 105.555 57.8564 105.1 58.6084C104.644 59.3376 104.108 60.1123 103.493 60.9326C102.901 61.7529 102.24 62.5163 101.511 63.2227C100.782 63.9062 99.9954 64.4759 99.1523 64.9316C98.3092 65.3646 97.4206 65.5811 96.4863 65.5811C95.4837 65.5811 94.6634 65.3988 94.0254 65.0342C93.4102 64.6924 92.9089 64.2253 92.5215 63.6328C92.1569 63.0404 91.9062 62.3568 91.7695 61.582C91.6328 60.8073 91.5645 59.9984 91.5645 59.1553C91.5645 58.0387 91.6214 57.0133 91.7354 56.0791C91.8493 55.1221 91.9062 54.3815 91.9062 53.8574C91.9062 53.2878 91.8493 52.8548 91.7354 52.5586C91.6442 52.2624 91.5189 52.0573 91.3594 51.9434C91.2227 51.8066 91.0859 51.7383 90.9492 51.7383C90.8125 51.7155 90.71 51.7041 90.6416 51.7041C90.0947 51.7041 89.5137 52.0117 88.8984 52.627C88.306 53.2194 87.6908 54.0169 87.0527 55.0195C86.4147 56.0221 85.7539 57.1615 85.0703 58.4375C84.4095 59.7135 83.7373 61.0124 83.0537 62.334C82.6663 63.0632 82.3359 63.667 82.0625 64.1455C81.8118 64.624 81.5612 65 81.3105 65.2734C81.0827 65.5469 80.8548 65.7406 80.627 65.8545C80.3991 65.9684 80.1484 66.0254 79.875 66.0254C79.2826 66.0254 78.8268 65.8203 78.5078 65.4102C78.2116 65 78.0635 64.4645 78.0635 63.8037C78.0635 63.4619 78.0749 63.0062 78.0977 62.4365C78.1204 61.8669 78.1432 61.2402 78.166 60.5566C78.1888 59.873 78.223 59.1667 78.2686 58.4375C78.3141 57.7083 78.3483 57.0133 78.3711 56.3525C78.3939 55.6689 78.4167 55.0651 78.4395 54.541C78.4622 54.0169 78.4736 53.6182 78.4736 53.3447C78.4736 52.7523 78.3711 52.3307 78.166 52.0801C77.9609 51.8066 77.7217 51.6699 77.4482 51.6699C77.1976 51.6699 76.9128 51.7611 76.5938 51.9434C76.2975 52.1257 75.9443 52.4788 75.5342 53.0029C75.2152 53.4131 74.805 54.0169 74.3037 54.8145C73.8252 55.5892 73.3125 56.4551 72.7656 57.4121C72.2188 58.3691 71.6719 59.349 71.125 60.3516C70.6009 61.3542 70.1452 62.2542 69.7578 63.0518C69.2793 64.0088 68.8008 64.6582 68.3223 65C67.8438 65.3646 67.3766 65.5469 66.9209 65.5469C66.2601 65.5469 65.7702 65.3532 65.4512 64.9658C65.1322 64.5557 64.9727 64.0202 64.9727 63.3594C64.9727 63.291 64.984 62.8809 65.0068 62.1289C65.0524 61.377 65.098 60.4655 65.1436 59.3945C65.1891 58.3008 65.2347 57.1387 65.2803 55.9082C65.3486 54.6777 65.4056 53.527 65.4512 52.4561C65.474 51.8864 65.4512 51.3623 65.3828 50.8838C65.3145 50.4053 65.2233 50.1204 65.1094 50.0293C64.9271 50.0749 64.5625 50.4964 64.0156 51.2939C63.4915 52.0915 62.8193 53.4814 61.999 55.4639C61.8851 55.7145 61.7142 55.9082 61.4863 56.0449C61.2585 56.1816 61.0192 56.25 60.7686 56.25C60.3812 56.25 60.0736 56.1247 59.8457 55.874C59.6178 55.6006 59.5039 55.293 59.5039 54.9512C59.5039 54.7917 59.5381 54.6208 59.6064 54.4385C60.6318 52.0003 61.6117 50.2116 62.5459 49.0723C63.4801 47.9102 64.3916 47.3291 65.2803 47.3291C65.8044 47.3291 66.2373 47.4544 66.5791 47.7051C66.9437 47.9329 67.2285 48.2406 67.4336 48.6279C67.6387 48.9925 67.7868 49.4141 67.8779 49.8926C67.9691 50.3711 68.0146 50.8382 68.0146 51.2939C68.0146 53.3219 67.9577 55.179 67.8438 56.8652C67.7526 58.5514 67.6501 60.249 67.5361 61.958ZM133.229 55.5322C133.161 55.6689 133.013 55.9538 132.785 56.3867C132.557 56.7969 132.261 57.2868 131.896 57.8564C131.532 58.4033 131.099 58.9958 130.598 59.6338C130.096 60.249 129.549 60.8187 128.957 61.3428C128.365 61.8669 127.727 62.2998 127.043 62.6416C126.359 62.9834 125.653 63.1543 124.924 63.1543C123.739 63.1543 122.736 62.9492 121.916 62.5391C121.096 62.1061 120.424 61.6276 119.899 61.1035C119.535 61.901 119.09 62.6302 118.566 63.291C118.042 63.9518 117.461 64.5215 116.823 65C116.185 65.5013 115.502 65.8887 114.772 66.1621C114.066 66.4355 113.337 66.5723 112.585 66.5723C111.195 66.5723 110.01 66.1621 109.03 65.3418C108.05 64.5215 107.23 63.4277 106.569 62.0605C105.931 60.6706 105.43 59.0641 105.065 57.2412C104.701 55.4183 104.416 53.5042 104.211 51.499C104.029 49.4938 103.915 47.4658 103.869 45.415C103.824 43.3643 103.801 41.416 103.801 39.5703C103.801 36.0384 103.903 32.985 104.108 30.4102C104.313 27.8125 104.587 25.6136 104.929 23.8135C105.293 21.9906 105.703 20.5208 106.159 19.4043C106.638 18.265 107.139 17.3877 107.663 16.7725C108.187 16.1344 108.723 15.7015 109.27 15.4736C109.816 15.2458 110.352 15.1318 110.876 15.1318C111.719 15.1318 112.46 15.3825 113.098 15.8838C113.758 16.3851 114.305 17.0915 114.738 18.0029C115.194 18.8916 115.536 19.974 115.764 21.25C115.992 22.526 116.105 23.9274 116.105 25.4541C116.105 27.8923 115.843 30.4102 115.319 33.0078C114.795 35.6055 114.112 38.2031 113.269 40.8008C112.448 43.3757 111.525 45.9163 110.5 48.4229C109.475 50.9066 108.461 53.265 107.458 55.498C107.595 56.6146 107.8 57.6855 108.073 58.7109C108.347 59.7135 108.7 60.6136 109.133 61.4111C109.566 62.1859 110.078 62.8125 110.671 63.291C111.263 63.7467 111.947 63.9746 112.722 63.9746C113.496 63.9746 114.226 63.7581 114.909 63.3252C115.593 62.8695 116.185 62.2884 116.687 61.582C117.188 60.8529 117.575 60.0326 117.849 59.1211C118.145 58.2096 118.293 57.2754 118.293 56.3184C118.293 55.6803 118.225 55.0423 118.088 54.4043C117.974 53.7435 117.78 53.1624 117.507 52.6611C117.256 52.137 116.937 51.7155 116.55 51.3965C116.162 51.0775 115.695 50.918 115.148 50.918C114.738 50.918 114.419 51.0091 114.191 51.1914C113.964 51.3509 113.793 51.5446 113.679 51.7725C113.565 51.9775 113.496 52.1826 113.474 52.3877C113.451 52.5928 113.439 52.7295 113.439 52.7979C113.439 53.1169 113.508 53.4359 113.645 53.7549C113.781 54.0739 114.043 54.3587 114.431 54.6094C114.818 54.8828 115.012 55.2588 115.012 55.7373C115.012 56.1247 114.875 56.4323 114.602 56.6602C114.351 56.888 114.066 57.002 113.747 57.002C113.291 57.002 112.881 56.8652 112.517 56.5918C112.175 56.3184 111.879 55.9766 111.628 55.5664C111.377 55.1335 111.184 54.6777 111.047 54.1992C110.91 53.7207 110.842 53.2764 110.842 52.8662C110.842 52.2054 110.956 51.6016 111.184 51.0547C111.411 50.485 111.719 50.0065 112.106 49.6191C112.517 49.209 112.972 48.9014 113.474 48.6963C113.998 48.4684 114.545 48.3545 115.114 48.3545C116.094 48.3545 116.937 48.5824 117.644 49.0381C118.373 49.4938 118.977 50.0977 119.455 50.8496C119.934 51.6016 120.287 52.4561 120.515 53.4131C120.743 54.3701 120.856 55.3385 120.856 56.3184C120.856 56.888 120.822 57.4463 120.754 57.9932C120.845 58.1755 120.993 58.4147 121.198 58.7109C121.403 59.0072 121.677 59.292 122.019 59.5654C122.36 59.8389 122.771 60.0781 123.249 60.2832C123.728 60.4883 124.286 60.5908 124.924 60.5908C125.471 60.5908 126.029 60.3857 126.599 59.9756C127.191 59.5426 127.749 59.0186 128.273 58.4033C128.82 57.7653 129.322 57.0931 129.777 56.3867C130.233 55.6576 130.609 54.9854 130.905 54.3701C131.019 54.1423 131.179 53.9714 131.384 53.8574C131.589 53.7207 131.817 53.6523 132.067 53.6523C132.455 53.6523 132.762 53.7891 132.99 54.0625C133.241 54.3359 133.366 54.6436 133.366 54.9854C133.366 55.1221 133.321 55.3044 133.229 55.5322ZM106.809 51.123C107.583 49.209 108.369 47.2038 109.167 45.1074C109.965 42.9883 110.682 40.835 111.32 38.6475C111.958 36.46 112.482 34.2497 112.893 32.0166C113.303 29.7835 113.508 27.5846 113.508 25.4199C113.508 24.5996 113.462 23.7451 113.371 22.8564C113.303 21.945 113.166 21.1133 112.961 20.3613C112.756 19.6094 112.471 18.9827 112.106 18.4814C111.765 17.9801 111.32 17.7295 110.773 17.7295C110.591 17.7295 110.352 17.8548 110.056 18.1055C109.782 18.3333 109.486 18.7549 109.167 19.3701C108.848 19.9626 108.529 20.7943 108.21 21.8652C107.891 22.9362 107.595 24.3034 107.321 25.9668C107.071 27.6074 106.854 29.5898 106.672 31.9141C106.512 34.2383 106.433 36.9727 106.433 40.1172C106.433 41.1654 106.444 42.2363 106.467 43.3301C106.49 44.401 106.512 45.4264 106.535 46.4062C106.581 47.3861 106.626 48.2861 106.672 49.1064C106.717 49.9268 106.763 50.599 106.809 51.123ZM135.041 61.2402C135.52 61.901 136.135 62.4365 136.887 62.8467C137.639 63.234 138.562 63.4277 139.655 63.4277C140.772 63.4277 141.786 63.1657 142.697 62.6416C143.609 62.0947 144.44 61.3883 145.192 60.5225C145.944 59.6566 146.617 58.6882 147.209 57.6172C147.801 56.5462 148.337 55.4753 148.815 54.4043C148.929 54.1536 149.089 53.9714 149.294 53.8574C149.499 53.7207 149.727 53.6523 149.978 53.6523C150.365 53.6523 150.673 53.7891 150.9 54.0625C151.151 54.3359 151.276 54.6322 151.276 54.9512C151.276 55.0651 151.265 55.1676 151.242 55.2588C151.219 55.3271 151.185 55.4069 151.14 55.498C149.567 58.9616 147.847 61.5706 145.979 63.3252C144.133 65.0798 142.036 65.9798 139.689 66.0254C138.186 66.0254 136.887 65.7292 135.793 65.1367C134.699 64.5671 133.799 63.8265 133.093 62.915C132.386 61.9808 131.862 60.9326 131.521 59.7705C131.179 58.6084 131.008 57.4463 131.008 56.2842C131.008 55.1221 131.145 54.0511 131.418 53.0713C131.714 52.0915 132.124 51.237 132.648 50.5078C133.195 49.7786 133.833 49.209 134.562 48.7988C135.314 48.3887 136.135 48.1836 137.023 48.1836C137.548 48.1836 138.06 48.2975 138.562 48.5254C139.086 48.7305 139.553 49.0381 139.963 49.4482C140.373 49.8356 140.703 50.3141 140.954 50.8838C141.205 51.4535 141.33 52.1029 141.33 52.832C141.33 53.7663 141.171 54.6436 140.852 55.4639C140.533 56.2842 140.088 57.0475 139.519 57.7539C138.972 58.4603 138.311 59.1097 137.536 59.7021C136.761 60.2946 135.93 60.8073 135.041 61.2402ZM134.016 59.0186C134.722 58.7223 135.36 58.3464 135.93 57.8906C136.522 57.4349 137.023 56.9336 137.434 56.3867C137.844 55.8398 138.163 55.2702 138.391 54.6777C138.618 54.0625 138.732 53.4473 138.732 52.832C138.732 52.1484 138.562 51.6357 138.22 51.2939C137.878 50.9294 137.479 50.7471 137.023 50.7471C136.408 50.7471 135.884 50.918 135.451 51.2598C135.018 51.6016 134.665 52.0459 134.392 52.5928C134.118 53.1396 133.913 53.7549 133.776 54.4385C133.662 55.0993 133.605 55.7601 133.605 56.4209C133.605 56.8311 133.64 57.264 133.708 57.7197C133.799 58.1755 133.902 58.6084 134.016 59.0186ZM168.298 55.5322C168.047 56.0563 167.728 56.6829 167.341 57.4121C166.976 58.1185 166.555 58.859 166.076 59.6338C165.598 60.4085 165.062 61.1833 164.47 61.958C163.877 62.71 163.228 63.3936 162.521 64.0088C161.838 64.6012 161.097 65.0798 160.3 65.4443C159.525 65.8317 158.693 66.0254 157.805 66.0254C156.438 66.0254 155.264 65.6038 154.284 64.7607C153.304 63.9176 152.473 62.8125 151.789 61.4453C151.105 60.0781 150.547 58.5286 150.114 56.7969C149.704 55.0423 149.385 53.265 149.157 51.4648C148.929 49.6419 148.77 47.876 148.679 46.167C148.61 44.458 148.576 42.9427 148.576 41.6211C148.576 39.707 148.633 37.7246 148.747 35.6738C148.884 33.623 149.089 31.6178 149.362 29.6582C149.636 27.6986 149.978 25.8415 150.388 24.0869C150.821 22.3324 151.322 20.7943 151.892 19.4727C152.484 18.151 153.156 17.1029 153.908 16.3281C154.66 15.5534 155.515 15.166 156.472 15.166C157.224 15.166 157.896 15.3483 158.488 15.7129C159.104 16.0547 159.616 16.6243 160.026 17.4219C160.437 18.2194 160.756 19.2562 160.983 20.5322C161.211 21.8083 161.325 23.3691 161.325 25.2148C161.325 27.4935 161.086 29.8519 160.607 32.29C160.129 34.7054 159.479 37.1436 158.659 39.6045C157.839 42.0654 156.87 44.5264 155.754 46.9873C154.637 49.4255 153.441 51.8066 152.165 54.1309C152.735 57.0247 153.498 59.3034 154.455 60.9668C155.412 62.6074 156.563 63.4277 157.907 63.4277C158.819 63.4277 159.696 63.0745 160.539 62.3682C161.382 61.639 162.157 60.7845 162.863 59.8047C163.57 58.8249 164.185 57.8337 164.709 56.8311C165.256 55.8057 165.677 54.9854 165.974 54.3701C166.088 54.1423 166.247 53.9714 166.452 53.8574C166.657 53.7207 166.885 53.6523 167.136 53.6523C167.523 53.6523 167.831 53.7891 168.059 54.0625C168.309 54.3359 168.435 54.6436 168.435 54.9854C168.435 55.1221 168.389 55.3044 168.298 55.5322ZM151.174 41.792C151.174 43.2503 151.208 44.6517 151.276 45.9961C151.345 47.3405 151.436 48.6279 151.55 49.8584C152.507 48.0127 153.418 46.0531 154.284 43.9795C155.15 41.8831 155.913 39.7754 156.574 37.6562C157.235 35.5143 157.759 33.3952 158.146 31.2988C158.557 29.1797 158.762 27.1631 158.762 25.249C158.762 22.5602 158.545 20.6348 158.112 19.4727C157.679 18.3105 157.098 17.7295 156.369 17.7295C155.891 17.7295 155.424 18.0599 154.968 18.7207C154.535 19.3815 154.125 20.2816 153.737 21.4209C153.35 22.5602 152.997 23.9046 152.678 25.4541C152.359 27.0036 152.085 28.667 151.857 30.4443C151.652 32.2217 151.481 34.0788 151.345 36.0156C151.231 37.9525 151.174 39.8779 151.174 41.792ZM185.456 55.5322C185.205 56.0563 184.886 56.6829 184.499 57.4121C184.134 58.1185 183.713 58.859 183.234 59.6338C182.756 60.4085 182.22 61.1833 181.628 61.958C181.035 62.71 180.386 63.3936 179.68 64.0088C178.996 64.6012 178.256 65.0798 177.458 65.4443C176.683 65.8317 175.852 66.0254 174.963 66.0254C173.596 66.0254 172.422 65.6038 171.442 64.7607C170.463 63.9176 169.631 62.8125 168.947 61.4453C168.264 60.0781 167.705 58.5286 167.272 56.7969C166.862 55.0423 166.543 53.265 166.315 51.4648C166.088 49.6419 165.928 47.876 165.837 46.167C165.769 44.458 165.734 42.9427 165.734 41.6211C165.734 39.707 165.791 37.7246 165.905 35.6738C166.042 33.623 166.247 31.6178 166.521 29.6582C166.794 27.6986 167.136 25.8415 167.546 24.0869C167.979 22.3324 168.48 20.7943 169.05 19.4727C169.642 18.151 170.314 17.1029 171.066 16.3281C171.818 15.5534 172.673 15.166 173.63 15.166C174.382 15.166 175.054 15.3483 175.646 15.7129C176.262 16.0547 176.774 16.6243 177.185 17.4219C177.595 18.2194 177.914 19.2562 178.142 20.5322C178.369 21.8083 178.483 23.3691 178.483 25.2148C178.483 27.4935 178.244 29.8519 177.766 32.29C177.287 34.7054 176.638 37.1436 175.817 39.6045C174.997 42.0654 174.029 44.5264 172.912 46.9873C171.796 49.4255 170.599 51.8066 169.323 54.1309C169.893 57.0247 170.656 59.3034 171.613 60.9668C172.57 62.6074 173.721 63.4277 175.065 63.4277C175.977 63.4277 176.854 63.0745 177.697 62.3682C178.54 61.639 179.315 60.7845 180.021 59.8047C180.728 58.8249 181.343 57.8337 181.867 56.8311C182.414 55.8057 182.836 54.9854 183.132 54.3701C183.246 54.1423 183.405 53.9714 183.61 53.8574C183.815 53.7207 184.043 53.6523 184.294 53.6523C184.681 53.6523 184.989 53.7891 185.217 54.0625C185.467 54.3359 185.593 54.6436 185.593 54.9854C185.593 55.1221 185.547 55.3044 185.456 55.5322ZM168.332 41.792C168.332 43.2503 168.366 44.6517 168.435 45.9961C168.503 47.3405 168.594 48.6279 168.708 49.8584C169.665 48.0127 170.576 46.0531 171.442 43.9795C172.308 41.8831 173.072 39.7754 173.732 37.6562C174.393 35.5143 174.917 33.3952 175.305 31.2988C175.715 29.1797 175.92 27.1631 175.92 25.249C175.92 22.5602 175.703 20.6348 175.271 19.4727C174.838 18.3105 174.257 17.7295 173.527 17.7295C173.049 17.7295 172.582 18.0599 172.126 18.7207C171.693 19.3815 171.283 20.2816 170.896 21.4209C170.508 22.5602 170.155 23.9046 169.836 25.4541C169.517 27.0036 169.243 28.667 169.016 30.4443C168.811 32.2217 168.64 34.0788 168.503 36.0156C168.389 37.9525 168.332 39.8779 168.332 41.792ZM187.268 61.2402C187.746 61.901 188.361 62.4365 189.113 62.8467C189.865 63.234 190.788 63.4277 191.882 63.4277C192.998 63.4277 194.012 63.1657 194.924 62.6416C195.835 62.0947 196.667 61.3883 197.419 60.5225C198.171 59.6566 198.843 58.6882 199.436 57.6172C200.028 56.5462 200.563 55.4753 201.042 54.4043C201.156 54.1536 201.315 53.9714 201.521 53.8574C201.726 53.7207 201.953 53.6523 202.204 53.6523C202.591 53.6523 202.899 53.7891 203.127 54.0625C203.378 54.3359 203.503 54.6322 203.503 54.9512C203.503 55.0651 203.492 55.1676 203.469 55.2588C203.446 55.3271 203.412 55.4069 203.366 55.498C201.794 58.9616 200.074 61.5706 198.205 63.3252C196.359 65.0798 194.263 65.9798 191.916 66.0254C190.412 66.0254 189.113 65.7292 188.02 65.1367C186.926 64.5671 186.026 63.8265 185.319 62.915C184.613 61.9808 184.089 60.9326 183.747 59.7705C183.405 58.6084 183.234 57.4463 183.234 56.2842C183.234 55.1221 183.371 54.0511 183.645 53.0713C183.941 52.0915 184.351 51.237 184.875 50.5078C185.422 49.7786 186.06 49.209 186.789 48.7988C187.541 48.3887 188.361 48.1836 189.25 48.1836C189.774 48.1836 190.287 48.2975 190.788 48.5254C191.312 48.7305 191.779 49.0381 192.189 49.4482C192.6 49.8356 192.93 50.3141 193.181 50.8838C193.431 51.4535 193.557 52.1029 193.557 52.832C193.557 53.7663 193.397 54.6436 193.078 55.4639C192.759 56.2842 192.315 57.0475 191.745 57.7539C191.198 58.4603 190.537 59.1097 189.763 59.7021C188.988 60.2946 188.156 60.8073 187.268 61.2402ZM186.242 59.0186C186.949 58.7223 187.587 58.3464 188.156 57.8906C188.749 57.4349 189.25 56.9336 189.66 56.3867C190.07 55.8398 190.389 55.2702 190.617 54.6777C190.845 54.0625 190.959 53.4473 190.959 52.832C190.959 52.1484 190.788 51.6357 190.446 51.2939C190.104 50.9294 189.706 50.7471 189.25 50.7471C188.635 50.7471 188.111 50.918 187.678 51.2598C187.245 51.6016 186.892 52.0459 186.618 52.5928C186.345 53.1396 186.14 53.7549 186.003 54.4385C185.889 55.0993 185.832 55.7601 185.832 56.4209C185.832 56.8311 185.866 57.264 185.935 57.7197C186.026 58.1755 186.128 58.6084 186.242 59.0186ZM223.43 55.5322C223.293 55.7829 223.054 56.2386 222.712 56.8994C222.393 57.5602 221.949 58.3122 221.379 59.1553C220.832 59.9756 220.171 60.8301 219.396 61.7188C218.622 62.6074 217.733 63.4277 216.73 64.1797C215.728 64.9089 214.6 65.5127 213.347 65.9912C212.116 66.4697 210.772 66.709 209.313 66.709C208.015 66.709 206.864 66.4697 205.861 65.9912C204.859 65.5355 204.004 64.8861 203.298 64.043C202.591 63.1771 202.056 62.1631 201.691 61.001C201.327 59.8389 201.145 58.5514 201.145 57.1387C201.145 55.7715 201.338 54.4954 201.726 53.3105C202.113 52.1029 202.637 51.0547 203.298 50.166C203.981 49.2773 204.768 48.5824 205.656 48.0811C206.545 47.557 207.491 47.2949 208.493 47.2949C209.245 47.2949 209.929 47.4316 210.544 47.7051C211.159 47.9557 211.672 48.2975 212.082 48.7305C212.515 49.1634 212.845 49.6419 213.073 50.166C213.324 50.6901 213.449 51.2142 213.449 51.7383C213.449 52.2396 213.381 52.7067 213.244 53.1396C213.13 53.5726 212.971 53.96 212.766 54.3018C212.583 54.6208 212.367 54.8828 212.116 55.0879C211.866 55.2702 211.615 55.3613 211.364 55.3613C210.977 55.3613 210.658 55.236 210.407 54.9854C210.179 54.7347 210.065 54.4271 210.065 54.0625C210.065 53.8802 210.1 53.7207 210.168 53.584C210.259 53.4473 210.35 53.3105 210.441 53.1738C210.555 53.0143 210.646 52.832 210.715 52.627C210.806 52.3991 210.852 52.1143 210.852 51.7725C210.852 51.2939 210.624 50.861 210.168 50.4736C209.735 50.0863 209.177 49.8926 208.493 49.8926C207.855 49.8926 207.24 50.0863 206.647 50.4736C206.078 50.861 205.576 51.3851 205.144 52.0459C204.711 52.6839 204.357 53.4473 204.084 54.3359C203.833 55.2018 203.708 56.1247 203.708 57.1045C203.708 58.0387 203.822 58.9274 204.05 59.7705C204.278 60.6136 204.619 61.3656 205.075 62.0264C205.531 62.6644 206.101 63.1771 206.784 63.5645C207.491 63.9518 208.322 64.1455 209.279 64.1455C210.51 64.1455 211.649 63.929 212.697 63.4961C213.745 63.0404 214.702 62.4707 215.568 61.7871C216.434 61.1035 217.198 60.363 217.858 59.5654C218.519 58.7451 219.077 57.9818 219.533 57.2754C220.012 56.5462 220.376 55.9196 220.627 55.3955C220.9 54.8486 221.06 54.5068 221.105 54.3701C221.197 54.1423 221.345 53.9714 221.55 53.8574C221.778 53.7207 222.017 53.6523 222.268 53.6523C222.655 53.6523 222.963 53.7891 223.19 54.0625C223.441 54.3359 223.566 54.6436 223.566 54.9854C223.566 55.1221 223.521 55.3044 223.43 55.5322ZM225.207 61.2402C225.686 61.901 226.301 62.4365 227.053 62.8467C227.805 63.234 228.728 63.4277 229.821 63.4277C230.938 63.4277 231.952 63.1657 232.863 62.6416C233.775 62.0947 234.606 61.3883 235.358 60.5225C236.11 59.6566 236.783 58.6882 237.375 57.6172C237.967 56.5462 238.503 55.4753 238.981 54.4043C239.095 54.1536 239.255 53.9714 239.46 53.8574C239.665 53.7207 239.893 53.6523 240.144 53.6523C240.531 53.6523 240.839 53.7891 241.066 54.0625C241.317 54.3359 241.442 54.6322 241.442 54.9512C241.442 55.0651 241.431 55.1676 241.408 55.2588C241.385 55.3271 241.351 55.4069 241.306 55.498C239.733 58.9616 238.013 61.5706 236.145 63.3252C234.299 65.0798 232.202 65.9798 229.855 66.0254C228.352 66.0254 227.053 65.7292 225.959 65.1367C224.865 64.5671 223.965 63.8265 223.259 62.915C222.552 61.9808 222.028 60.9326 221.687 59.7705C221.345 58.6084 221.174 57.4463 221.174 56.2842C221.174 55.1221 221.311 54.0511 221.584 53.0713C221.88 52.0915 222.29 51.237 222.814 50.5078C223.361 49.7786 223.999 49.209 224.729 48.7988C225.48 48.3887 226.301 48.1836 227.189 48.1836C227.714 48.1836 228.226 48.2975 228.728 48.5254C229.252 48.7305 229.719 49.0381 230.129 49.4482C230.539 49.8356 230.869 50.3141 231.12 50.8838C231.371 51.4535 231.496 52.1029 231.496 52.832C231.496 53.7663 231.337 54.6436 231.018 55.4639C230.699 56.2842 230.254 57.0475 229.685 57.7539C229.138 58.4603 228.477 59.1097 227.702 59.7021C226.927 60.2946 226.096 60.8073 225.207 61.2402ZM224.182 59.0186C224.888 58.7223 225.526 58.3464 226.096 57.8906C226.688 57.4349 227.189 56.9336 227.6 56.3867C228.01 55.8398 228.329 55.2702 228.557 54.6777C228.785 54.0625 228.898 53.4473 228.898 52.832C228.898 52.1484 228.728 51.6357 228.386 51.2939C228.044 50.9294 227.645 50.7471 227.189 50.7471C226.574 50.7471 226.05 50.918 225.617 51.2598C225.184 51.6016 224.831 52.0459 224.558 52.5928C224.284 53.1396 224.079 53.7549 223.942 54.4385C223.828 55.0993 223.771 55.7601 223.771 56.4209C223.771 56.8311 223.806 57.264 223.874 57.7197C223.965 58.1755 224.068 58.6084 224.182 59.0186ZM282.082 30.7861C282.082 31.1507 281.957 31.4469 281.706 31.6748C281.455 31.8799 281.148 31.9824 280.783 31.9824H263.454V32.3584C263.454 33.7484 263.352 35.2295 263.146 36.8018C262.941 38.374 262.657 39.9463 262.292 41.5186C261.95 43.068 261.551 44.5833 261.096 46.0645C260.663 47.5456 260.207 48.9128 259.729 50.166C259.273 51.4193 258.817 52.513 258.361 53.4473C257.906 54.3587 257.495 55.0423 257.131 55.498C257.427 56.5462 257.78 57.526 258.19 58.4375C258.601 59.3262 259.056 60.1123 259.558 60.7959C260.082 61.4567 260.64 61.9808 261.232 62.3682C261.825 62.7555 262.463 62.9492 263.146 62.9492C263.944 62.9492 264.73 62.6188 265.505 61.958C266.302 61.2744 267.032 60.4769 267.692 59.5654C268.376 58.6312 268.968 57.6969 269.47 56.7627C269.994 55.8057 270.37 55.0423 270.598 54.4727C270.826 53.9258 271.224 53.6523 271.794 53.6523C272.181 53.6523 272.489 53.7891 272.717 54.0625C272.967 54.3359 273.093 54.6322 273.093 54.9512C273.093 55.1107 273.059 55.2702 272.99 55.4297C272.922 55.5892 272.751 55.9538 272.478 56.5234C272.227 57.0931 271.885 57.7539 271.452 58.5059C271.042 59.2578 270.552 60.0553 269.982 60.8984C269.436 61.7188 268.809 62.4707 268.103 63.1543C267.419 63.8379 266.678 64.4076 265.881 64.8633C265.083 65.319 264.24 65.5469 263.352 65.5469C261.779 65.5469 260.367 65.0342 259.113 64.0088C257.86 62.9834 256.789 61.5479 255.9 59.7021C255.035 57.8564 254.374 55.6689 253.918 53.1396C253.462 50.6104 253.234 47.8418 253.234 44.834C253.234 44.082 253.246 43.2048 253.269 42.2021C253.291 41.1768 253.337 40.1058 253.405 38.9893C253.474 37.8499 253.576 36.6878 253.713 35.5029C253.85 34.2952 254.032 33.1217 254.26 31.9824H241.989C241.625 31.9824 241.317 31.8799 241.066 31.6748C240.816 31.4469 240.69 31.1507 240.69 30.7861C240.69 30.4215 240.816 30.1367 241.066 29.9316C241.317 29.7038 241.625 29.5898 241.989 29.5898H254.841C255.069 28.7695 255.331 28.0176 255.627 27.334C255.946 26.6504 256.299 26.0579 256.687 25.5566C257.097 25.0553 257.541 24.668 258.02 24.3945C258.521 24.0983 259.068 23.9502 259.66 23.9502C260.23 23.9502 260.72 24.0983 261.13 24.3945C261.563 24.668 261.927 25.0553 262.224 25.5566C262.52 26.0579 262.748 26.6504 262.907 27.334C263.09 28.0176 263.226 28.7695 263.317 29.5898H280.783C281.148 29.5898 281.455 29.7038 281.706 29.9316C281.957 30.1367 282.082 30.4215 282.082 30.7861ZM256.345 52.0801C257.028 50.5762 257.644 48.9583 258.19 47.2266C258.76 45.472 259.239 43.7061 259.626 41.9287C260.036 40.1514 260.344 38.4082 260.549 36.6992C260.777 34.9902 260.891 33.418 260.891 31.9824H256.857C256.538 33.3952 256.276 35.1497 256.071 37.2461C255.889 39.3197 255.798 41.849 255.798 44.834C255.798 46.4974 255.843 47.8988 255.935 49.0381C256.026 50.1546 256.162 51.1686 256.345 52.0801ZM259.523 26.5137C259.318 26.5137 259.022 26.7415 258.635 27.1973C258.247 27.6302 257.86 28.4277 257.473 29.5898H260.754C260.64 28.6328 260.469 27.8809 260.241 27.334C260.036 26.7871 259.797 26.5137 259.523 26.5137ZM256.892 54.541V54.5752V54.541ZM282.082 61.1719C281.285 62.4707 280.35 63.4961 279.279 64.248C278.231 65 277.172 65.376 276.101 65.376C275.235 65.376 274.46 65.2165 273.776 64.8975C273.093 64.5785 272.5 64.1341 271.999 63.5645C271.498 62.972 271.11 62.2656 270.837 61.4453C270.586 60.625 270.461 59.7021 270.461 58.6768C270.461 57.0817 270.609 55.6689 270.905 54.4385C271.224 53.208 271.566 52.1826 271.931 51.3623C272.295 50.5192 272.637 49.8812 272.956 49.4482C273.275 49.0153 273.435 48.7988 273.435 48.7988C273.549 48.6621 273.685 48.5596 273.845 48.4912C274.027 48.4229 274.209 48.3887 274.392 48.3887C274.756 48.3887 275.052 48.5254 275.28 48.7988C275.531 49.0495 275.656 49.3457 275.656 49.6875C275.656 49.8242 275.622 49.9609 275.554 50.0977C275.508 50.2344 275.451 50.3711 275.383 50.5078C275.269 50.7129 275.087 51.0319 274.836 51.4648C274.585 51.875 274.323 52.4219 274.05 53.1055C273.776 53.7891 273.537 54.598 273.332 55.5322C273.127 56.4437 273.024 57.4919 273.024 58.6768C273.024 60.0212 273.286 61.0465 273.811 61.7529C274.357 62.4365 275.121 62.7783 276.101 62.7783C276.511 62.7783 276.978 62.653 277.502 62.4023C278.049 62.1289 278.573 61.7188 279.074 61.1719C279.598 60.625 280.054 59.93 280.441 59.0869C280.829 58.2438 281.079 57.2526 281.193 56.1133L281.706 50.2344C281.752 49.8926 281.9 49.6077 282.15 49.3799C282.401 49.152 282.697 49.0381 283.039 49.0381C283.426 49.0381 283.734 49.1862 283.962 49.4824C284.19 49.7559 284.304 50.0749 284.304 50.4395L283.859 56.1133C283.814 56.5918 283.825 57.2184 283.894 57.9932C283.985 58.7679 284.156 59.5312 284.406 60.2832C284.657 61.0352 285.033 61.6846 285.534 62.2314C286.035 62.7555 286.696 63.0176 287.517 63.0176C288.109 63.0176 288.69 62.8695 289.26 62.5732C289.829 62.2542 290.376 61.8441 290.9 61.3428C291.424 60.8415 291.903 60.2832 292.336 59.668C292.792 59.0299 293.202 58.3919 293.566 57.7539C293.954 57.1159 294.284 56.512 294.558 55.9424C294.831 55.3499 295.059 54.8486 295.241 54.4385C295.355 54.1878 295.515 53.9941 295.72 53.8574C295.925 53.7207 296.153 53.6523 296.403 53.6523C296.813 53.6523 297.132 53.7891 297.36 54.0625C297.588 54.3359 297.702 54.6322 297.702 54.9512C297.702 55.1335 297.668 55.3044 297.6 55.4639C297.508 55.6462 297.326 56.0335 297.053 56.626C296.802 57.1956 296.46 57.8564 296.027 58.6084C295.617 59.3376 295.116 60.1123 294.523 60.9326C293.931 61.7529 293.27 62.5163 292.541 63.2227C291.812 63.9062 291.014 64.4759 290.148 64.9316C289.305 65.3646 288.394 65.5811 287.414 65.5811C286.07 65.5811 284.953 65.2051 284.064 64.4531C283.176 63.6784 282.515 62.5846 282.082 61.1719ZM318.552 61.958C318.894 61.2744 319.326 60.4313 319.851 59.4287C320.397 58.4033 320.956 57.3779 321.525 56.3525C322.118 55.3271 322.688 54.3587 323.234 53.4473C323.804 52.5358 324.283 51.8408 324.67 51.3623C325.331 50.5648 326.014 49.9951 326.721 49.6533C327.427 49.3115 328.076 49.1406 328.669 49.1406C329.261 49.1406 329.763 49.266 330.173 49.5166C330.606 49.7673 330.959 50.109 331.232 50.542C331.506 50.9521 331.711 51.4421 331.848 52.0117C331.984 52.5586 332.053 53.151 332.053 53.7891C332.053 54.1536 332.03 54.6322 331.984 55.2246C331.962 55.8171 331.927 56.4551 331.882 57.1387C331.859 57.8223 331.825 58.5286 331.779 59.2578C331.757 59.987 331.734 60.6706 331.711 61.3086C332.053 60.625 332.44 59.873 332.873 59.0527C333.306 58.2096 333.739 57.3779 334.172 56.5576C334.628 55.7373 335.061 54.974 335.471 54.2676C335.881 53.5384 336.257 52.946 336.599 52.4902C337.578 51.1458 338.49 50.2458 339.333 49.79C340.199 49.3343 340.962 49.1064 341.623 49.1064C342.398 49.1064 343.036 49.2546 343.537 49.5508C344.038 49.8242 344.426 50.1888 344.699 50.6445C344.995 51.0775 345.201 51.5674 345.314 52.1143C345.428 52.6611 345.485 53.1852 345.485 53.6865C345.485 54.4613 345.428 55.2702 345.314 56.1133C345.201 56.9564 345.144 57.959 345.144 59.1211C345.144 59.5996 345.166 60.0781 345.212 60.5566C345.257 61.0352 345.349 61.4567 345.485 61.8213C345.645 62.1859 345.884 62.4821 346.203 62.71C346.522 62.9378 346.955 63.0518 347.502 63.0518C348.094 63.0518 348.675 62.9036 349.245 62.6074C349.815 62.2884 350.362 61.8783 350.886 61.377C351.41 60.8757 351.9 60.306 352.355 59.668C352.834 59.0299 353.267 58.3919 353.654 57.7539C354.042 57.1159 354.383 56.512 354.68 55.9424C354.976 55.3499 355.215 54.8486 355.397 54.4385C355.511 54.1878 355.671 53.9941 355.876 53.8574C356.081 53.7207 356.309 53.6523 356.56 53.6523C356.947 53.6523 357.255 53.8005 357.482 54.0967C357.733 54.3701 357.858 54.6663 357.858 54.9854C357.858 55.1449 357.824 55.3044 357.756 55.4639C357.665 55.6462 357.482 56.0335 357.209 56.626C356.936 57.1956 356.571 57.8564 356.115 58.6084C355.66 59.3376 355.124 60.1123 354.509 60.9326C353.916 61.7529 353.256 62.5163 352.526 63.2227C351.797 63.9062 351.011 64.4759 350.168 64.9316C349.325 65.3646 348.436 65.5811 347.502 65.5811C346.499 65.5811 345.679 65.3988 345.041 65.0342C344.426 64.6924 343.924 64.2253 343.537 63.6328C343.173 63.0404 342.922 62.3568 342.785 61.582C342.648 60.8073 342.58 59.9984 342.58 59.1553C342.58 58.0387 342.637 57.0133 342.751 56.0791C342.865 55.1221 342.922 54.3815 342.922 53.8574C342.922 53.2878 342.865 52.8548 342.751 52.5586C342.66 52.2624 342.535 52.0573 342.375 51.9434C342.238 51.8066 342.102 51.7383 341.965 51.7383C341.828 51.7155 341.726 51.7041 341.657 51.7041C341.11 51.7041 340.529 52.0117 339.914 52.627C339.322 53.2194 338.706 54.0169 338.068 55.0195C337.43 56.0221 336.77 57.1615 336.086 58.4375C335.425 59.7135 334.753 61.0124 334.069 62.334C333.682 63.0632 333.352 63.667 333.078 64.1455C332.827 64.624 332.577 65 332.326 65.2734C332.098 65.5469 331.87 65.7406 331.643 65.8545C331.415 65.9684 331.164 66.0254 330.891 66.0254C330.298 66.0254 329.842 65.8203 329.523 65.4102C329.227 65 329.079 64.4645 329.079 63.8037C329.079 63.4619 329.09 63.0062 329.113 62.4365C329.136 61.8669 329.159 61.2402 329.182 60.5566C329.204 59.873 329.239 59.1667 329.284 58.4375C329.33 57.7083 329.364 57.0133 329.387 56.3525C329.41 55.6689 329.432 55.0651 329.455 54.541C329.478 54.0169 329.489 53.6182 329.489 53.3447C329.489 52.7523 329.387 52.3307 329.182 52.0801C328.977 51.8066 328.737 51.6699 328.464 51.6699C328.213 51.6699 327.928 51.7611 327.609 51.9434C327.313 52.1257 326.96 52.4788 326.55 53.0029C326.231 53.4131 325.821 54.0169 325.319 54.8145C324.841 55.5892 324.328 56.4551 323.781 57.4121C323.234 58.3691 322.688 59.349 322.141 60.3516C321.617 61.3542 321.161 62.2542 320.773 63.0518C320.295 64.0088 319.816 64.6582 319.338 65C318.859 65.3646 318.392 65.5469 317.937 65.5469C317.276 65.5469 316.786 65.3532 316.467 64.9658C316.148 64.5557 315.988 64.0202 315.988 63.3594C315.988 63.291 316 62.8809 316.022 62.1289C316.068 61.377 316.114 60.4655 316.159 59.3945C316.205 58.3008 316.25 57.1387 316.296 55.9082C316.364 54.6777 316.421 53.527 316.467 52.4561C316.49 51.8864 316.467 51.3623 316.398 50.8838C316.33 50.4053 316.239 50.1204 316.125 50.0293C315.943 50.0749 315.578 50.4964 315.031 51.2939C314.507 52.0915 313.835 53.4814 313.015 55.4639C312.901 55.7145 312.73 55.9082 312.502 56.0449C312.274 56.1816 312.035 56.25 311.784 56.25C311.397 56.25 311.089 56.1247 310.861 55.874C310.633 55.6006 310.52 55.293 310.52 54.9512C310.52 54.7917 310.554 54.6208 310.622 54.4385C311.647 52.0003 312.627 50.2116 313.562 49.0723C314.496 47.9102 315.407 47.3291 316.296 47.3291C316.82 47.3291 317.253 47.4544 317.595 47.7051C317.959 47.9329 318.244 48.2406 318.449 48.6279C318.654 48.9925 318.802 49.4141 318.894 49.8926C318.985 50.3711 319.03 50.8382 319.03 51.2939C319.03 53.3219 318.973 55.179 318.859 56.8652C318.768 58.5514 318.666 60.249 318.552 61.958ZM361.003 38.1689C361.003 39.0348 360.695 39.7754 360.08 40.3906C359.488 40.9831 358.758 41.2793 357.893 41.2793C357.027 41.2793 356.286 40.9831 355.671 40.3906C355.078 39.7754 354.782 39.0348 354.782 38.1689C354.782 37.736 354.862 37.3372 355.021 36.9727C355.181 36.5853 355.397 36.2549 355.671 35.9814C355.967 35.6852 356.298 35.4574 356.662 35.2979C357.049 35.1383 357.46 35.0586 357.893 35.0586C358.326 35.0586 358.724 35.1383 359.089 35.2979C359.476 35.4574 359.807 35.6852 360.08 35.9814C360.376 36.2549 360.604 36.5853 360.764 36.9727C360.923 37.3372 361.003 37.736 361.003 38.1689ZM355.466 58.1982C355.466 54.917 355.671 51.6471 356.081 48.3887C356.127 48.0697 356.263 47.7962 356.491 47.5684C356.742 47.3177 357.061 47.1924 357.448 47.1924C357.79 47.1924 358.075 47.3291 358.303 47.6025C358.531 47.8532 358.645 48.1494 358.645 48.4912C358.645 48.6279 358.61 49.0381 358.542 49.7217C358.496 50.4053 358.428 51.2256 358.337 52.1826C358.269 53.1169 358.2 54.1195 358.132 55.1904C358.086 56.2386 358.063 57.207 358.063 58.0957C358.063 59.3034 358.177 60.2832 358.405 61.0352C358.656 61.7643 358.964 62.334 359.328 62.7441C359.715 63.1543 360.114 63.4277 360.524 63.5645C360.957 63.7012 361.368 63.7695 361.755 63.7695C362.393 63.7695 363.054 63.5417 363.737 63.0859C364.421 62.6302 365.116 61.9922 365.822 61.1719C366.551 60.3516 367.281 59.3717 368.01 58.2324C368.739 57.0703 369.457 55.7829 370.163 54.3701C370.277 54.1423 370.437 53.9714 370.642 53.8574C370.847 53.7207 371.075 53.6523 371.325 53.6523C371.69 53.6523 371.986 53.7891 372.214 54.0625C372.465 54.3359 372.59 54.6322 372.59 54.9512C372.59 55.179 372.544 55.3727 372.453 55.5322C372.18 56.0563 371.838 56.6943 371.428 57.4463C371.018 58.1982 370.55 58.973 370.026 59.7705C369.502 60.568 368.921 61.3656 368.283 62.1631C367.668 62.9378 367.007 63.6442 366.301 64.2822C365.594 64.8975 364.854 65.3988 364.079 65.7861C363.304 66.1735 362.518 66.3672 361.721 66.3672C360.695 66.3672 359.795 66.1507 359.021 65.7178C358.246 65.2848 357.585 64.7038 357.038 63.9746C356.514 63.2454 356.115 62.391 355.842 61.4111C355.591 60.4085 355.466 59.3376 355.466 58.1982ZM359.089 38.1689C359.089 37.8499 358.964 37.5765 358.713 37.3486C358.485 37.098 358.212 36.9727 357.893 36.9727C357.574 36.9727 357.3 37.098 357.072 37.3486C356.844 37.5765 356.73 37.8499 356.73 38.1689C356.73 38.488 356.844 38.7614 357.072 38.9893C357.3 39.2171 357.574 39.3311 357.893 39.3311C358.212 39.3311 358.485 39.2171 358.713 38.9893C358.964 38.7614 359.089 38.488 359.089 38.1689ZM373.718 50.9521C373.627 51.5674 373.513 52.1484 373.376 52.6953C373.239 53.2194 373.103 53.6865 372.966 54.0967C372.852 54.484 372.749 54.8031 372.658 55.0537C372.567 55.3044 372.51 55.4411 372.487 55.4639C372.259 55.988 371.861 56.25 371.291 56.25C370.972 56.25 370.676 56.1361 370.402 55.9082C370.129 55.6576 369.992 55.3499 369.992 54.9854C369.992 54.8486 370.015 54.7461 370.061 54.6777C370.106 54.6094 370.174 54.4727 370.266 54.2676C370.357 54.0625 370.471 53.7207 370.607 53.2422C370.744 52.7637 370.915 52.0231 371.12 51.0205C370.733 51.0205 370.334 51.0091 369.924 50.9863C369.514 50.9635 369.138 50.8838 368.796 50.7471C368.431 50.6104 368.135 50.3939 367.907 50.0977C367.679 49.8014 367.565 49.3913 367.565 48.8672C367.565 48.4798 367.679 47.9557 367.907 47.2949C368.112 46.6341 368.397 45.9847 368.762 45.3467C369.126 44.7087 369.536 44.1618 369.992 43.7061C370.448 43.2275 370.904 42.9883 371.359 42.9883C371.883 42.9883 372.305 43.182 372.624 43.5693C372.966 43.9567 373.228 44.4352 373.41 45.0049C373.592 45.5518 373.718 46.1328 373.786 46.748C373.877 47.3633 373.923 47.8988 373.923 48.3545C374.31 48.3545 374.686 48.3545 375.051 48.3545C375.438 48.3317 375.803 48.3203 376.145 48.3203C377.443 48.3203 378.435 48.6051 379.118 49.1748C379.802 49.7445 380.144 50.6787 380.144 51.9775C380.144 52.5016 380.109 53.0485 380.041 53.6182C379.973 54.1878 379.893 54.7803 379.802 55.3955C379.711 55.988 379.631 56.5804 379.562 57.1729C379.494 57.7653 379.46 58.3464 379.46 58.916C379.46 59.7363 379.574 60.4199 379.802 60.9668C380.03 61.4909 380.314 61.9124 380.656 62.2314C380.998 62.5505 381.363 62.7783 381.75 62.915C382.137 63.029 382.491 63.0859 382.81 63.0859C383.789 63.0859 384.712 62.7669 385.578 62.1289C386.444 61.4909 387.242 60.7275 387.971 59.8389C388.7 58.9274 389.349 57.9704 389.919 56.9678C390.511 55.9652 391.001 55.0879 391.389 54.3359C391.503 54.1309 391.662 53.9714 391.867 53.8574C392.072 53.7435 392.289 53.6865 392.517 53.6865C392.927 53.6865 393.246 53.8232 393.474 54.0967C393.701 54.3473 393.815 54.6322 393.815 54.9512C393.815 55.179 393.77 55.3841 393.679 55.5664C393.155 56.5007 392.539 57.5602 391.833 58.7451C391.149 59.9072 390.363 61.001 389.475 62.0264C388.586 63.0518 387.583 63.9176 386.467 64.624C385.373 65.3304 384.165 65.6836 382.844 65.6836C382.023 65.6836 381.249 65.5241 380.52 65.2051C379.79 64.9089 379.152 64.4759 378.605 63.9062C378.081 63.3138 377.66 62.596 377.341 61.7529C377.022 60.887 376.862 59.9186 376.862 58.8477C376.862 57.7083 376.976 56.5804 377.204 55.4639C377.432 54.3245 377.546 53.2422 377.546 52.2168C377.546 51.7839 377.443 51.4648 377.238 51.2598C377.056 51.0319 376.634 50.918 375.974 50.918C375.655 50.918 375.301 50.918 374.914 50.918C374.549 50.918 374.151 50.9294 373.718 50.9521ZM371.428 48.4229C371.428 48.2633 371.416 48.0583 371.394 47.8076C371.394 47.5342 371.371 47.2721 371.325 47.0215C371.302 46.7708 371.257 46.5544 371.188 46.3721C371.143 46.1898 371.086 46.0986 371.018 46.0986C370.949 46.0986 370.858 46.1898 370.744 46.3721C370.653 46.5316 370.55 46.7367 370.437 46.9873C370.323 47.2152 370.22 47.4658 370.129 47.7393C370.038 48.0127 369.969 48.2406 369.924 48.4229H371.428ZM417.81 55.4639C417.718 55.6462 417.525 56.0335 417.229 56.626C416.955 57.1956 416.59 57.8564 416.135 58.6084C415.702 59.3604 415.189 60.1465 414.597 60.9668C414.004 61.7871 413.343 62.5391 412.614 63.2227C411.885 63.9062 411.099 64.4759 410.256 64.9316C409.413 65.3646 408.524 65.5811 407.59 65.5811C406.268 65.5811 405.152 65.1595 404.24 64.3164C403.352 63.4733 402.702 62.4137 402.292 61.1377C401.517 62.4365 400.594 63.4733 399.523 64.248C398.452 65 397.382 65.376 396.311 65.376C395.467 65.376 394.704 65.2279 394.021 64.9316C393.337 64.6126 392.756 64.1797 392.277 63.6328C391.799 63.0632 391.423 62.4023 391.149 61.6504C390.899 60.8984 390.773 60.0781 390.773 59.1895C390.773 57.4121 391.07 55.8512 391.662 54.5068C392.277 53.1396 393.052 52.0003 393.986 51.0889C394.921 50.1774 395.946 49.4938 397.062 49.0381C398.202 48.5824 399.296 48.3545 400.344 48.3545C401.05 48.3545 401.7 48.457 402.292 48.6621C402.884 48.8444 403.386 49.0495 403.796 49.2773C404.229 49.5052 404.559 49.7217 404.787 49.9268C405.015 50.109 405.14 50.2116 405.163 50.2344C405.414 50.5306 405.539 50.8382 405.539 51.1572C405.539 51.499 405.414 51.8066 405.163 52.0801C404.912 52.3307 404.616 52.4561 404.274 52.4561C403.91 52.4561 403.602 52.3307 403.352 52.0801C403.306 52.0345 403.203 51.9548 403.044 51.8408C402.884 51.7041 402.668 51.5674 402.395 51.4307C402.121 51.2939 401.791 51.18 401.403 51.0889C401.039 50.9749 400.617 50.918 400.139 50.918C399.432 50.918 398.68 51.0775 397.883 51.3965C397.085 51.7155 396.356 52.2168 395.695 52.9004C395.035 53.5612 394.476 54.4043 394.021 55.4297C393.588 56.4323 393.371 57.6286 393.371 59.0186C393.371 59.4515 393.417 59.8958 393.508 60.3516C393.599 60.7845 393.758 61.1833 393.986 61.5479C394.214 61.9124 394.522 62.2087 394.909 62.4365C395.297 62.6644 395.775 62.7783 396.345 62.7783C396.755 62.7783 397.222 62.6416 397.746 62.3682C398.293 62.0947 398.806 61.6732 399.284 61.1035C399.785 60.5339 400.23 59.8161 400.617 58.9502C401.027 58.0843 401.312 57.0589 401.472 55.874C401.517 55.555 401.665 55.293 401.916 55.0879C402.167 54.86 402.463 54.7461 402.805 54.7461C403.124 54.7461 403.397 54.8714 403.625 55.1221C403.876 55.3727 404.012 55.6576 404.035 55.9766C404.058 56.4095 404.104 57.0247 404.172 57.8223C404.24 58.597 404.388 59.3717 404.616 60.1465C404.867 60.9212 405.231 61.5934 405.71 62.1631C406.188 62.7327 406.849 63.0176 407.692 63.0176C408.239 63.0176 408.775 62.8695 409.299 62.5732C409.846 62.277 410.37 61.8896 410.871 61.4111C411.395 60.9098 411.885 60.3516 412.341 59.7363C412.819 59.0983 413.252 58.4603 413.64 57.8223C414.027 57.1842 414.369 56.569 414.665 55.9766C414.961 55.3841 415.212 54.8714 415.417 54.4385C415.531 54.1878 415.69 53.9941 415.896 53.8574C416.123 53.7207 416.363 53.6523 416.613 53.6523C417.001 53.6523 417.308 53.8005 417.536 54.0967C417.787 54.3701 417.912 54.6663 417.912 54.9854C417.912 55.1449 417.878 55.3044 417.81 55.4639ZM428.713 55.0537C429.829 60.3174 431.447 62.9492 433.566 62.9492C434.387 62.9492 435.173 62.653 435.925 62.0605C436.677 61.4453 437.372 60.7048 438.01 59.8389C438.671 58.9502 439.252 58.016 439.753 57.0361C440.254 56.0563 440.664 55.2018 440.983 54.4727C441.211 53.9258 441.61 53.6523 442.18 53.6523C442.544 53.6523 442.852 53.7891 443.103 54.0625C443.353 54.3359 443.479 54.6322 443.479 54.9512C443.479 55.1335 443.444 55.293 443.376 55.4297C443.216 55.8171 442.977 56.3411 442.658 57.002C442.362 57.64 441.986 58.335 441.53 59.0869C441.097 59.8161 440.607 60.568 440.061 61.3428C439.514 62.1175 438.91 62.8125 438.249 63.4277C437.588 64.043 436.882 64.5557 436.13 64.9658C435.401 65.3532 434.626 65.5469 433.806 65.5469C432.279 65.5469 430.969 65.0228 429.875 63.9746C428.781 62.9036 427.836 61.1491 427.038 58.7109C425.944 61.0352 424.839 62.7214 423.723 63.7695C422.606 64.8177 421.398 65.3418 420.1 65.3418C419.416 65.3418 418.755 65.2279 418.117 65C417.479 64.7949 416.921 64.4417 416.442 63.9404C415.964 63.4391 415.576 62.8011 415.28 62.0264C414.984 61.2288 414.836 60.2604 414.836 59.1211C414.836 57.5488 415.109 56.1019 415.656 54.7803C416.203 53.4587 416.91 52.3307 417.775 51.3965C418.641 50.4395 419.598 49.6989 420.646 49.1748C421.717 48.6507 422.777 48.3887 423.825 48.3887C424.167 48.3887 424.463 48.514 424.714 48.7646C424.965 48.9925 425.09 49.2887 425.09 49.6533C425.09 49.9723 424.987 50.2572 424.782 50.5078C424.577 50.7585 424.304 50.9066 423.962 50.9521C423.278 51.0433 422.549 51.2598 421.774 51.6016C421 51.9434 420.282 52.4447 419.621 53.1055C418.983 53.7435 418.448 54.5638 418.015 55.5664C417.604 56.569 417.399 57.7653 417.399 59.1553C417.399 60.2946 417.627 61.1833 418.083 61.8213C418.562 62.4593 419.245 62.7783 420.134 62.7783C420.498 62.7783 420.886 62.6872 421.296 62.5049C421.706 62.2998 422.139 61.9124 422.595 61.3428C423.073 60.7731 423.586 59.9642 424.133 58.916C424.702 57.8678 425.329 56.4893 426.013 54.7803C425.625 52.7751 425.272 50.4622 424.953 47.8418C424.634 45.2214 424.475 42.2933 424.475 39.0576C424.475 37.6449 424.52 36.1751 424.611 34.6484C424.702 33.099 424.851 31.5951 425.056 30.1367C425.261 28.6556 425.534 27.2542 425.876 25.9326C426.218 24.611 426.628 23.4489 427.106 22.4463C427.608 21.4437 428.189 20.6576 428.85 20.0879C429.51 19.4954 430.262 19.1992 431.105 19.1992C431.857 19.1992 432.495 19.4043 433.02 19.8145C433.544 20.2246 433.965 20.7943 434.284 21.5234C434.626 22.2526 434.877 23.1299 435.036 24.1553C435.196 25.1807 435.275 26.3086 435.275 27.5391C435.275 30.1823 435.048 32.8255 434.592 35.4688C434.136 38.112 433.566 40.6413 432.883 43.0566C432.222 45.472 431.516 47.7051 430.764 49.7559C430.012 51.8066 429.328 53.5726 428.713 55.0537ZM432.712 27.5049C432.712 26.9352 432.689 26.32 432.644 25.6592C432.621 24.9984 432.541 24.3831 432.404 23.8135C432.29 23.221 432.131 22.7311 431.926 22.3438C431.721 21.9564 431.447 21.7627 431.105 21.7627C430.536 21.7627 430 22.264 429.499 23.2666C429.021 24.2692 428.599 25.5908 428.234 27.2314C427.87 28.8493 427.574 30.695 427.346 32.7686C427.141 34.8193 427.038 36.8929 427.038 38.9893C427.038 40.9945 427.118 42.9997 427.277 45.0049C427.437 47.0101 427.619 48.7988 427.824 50.3711C428.485 48.6165 429.112 46.8164 429.704 44.9707C430.297 43.1022 430.809 41.1995 431.242 39.2627C431.698 37.3258 432.051 35.3776 432.302 33.418C432.575 31.4355 432.712 29.4645 432.712 27.5049ZM467.438 55.4639C467.347 55.6462 467.154 56.0335 466.857 56.626C466.584 57.1956 466.219 57.8564 465.764 58.6084C465.331 59.3604 464.818 60.1465 464.226 60.9668C463.633 61.7871 462.972 62.5391 462.243 63.2227C461.514 63.9062 460.728 64.4759 459.885 64.9316C459.042 65.3646 458.153 65.5811 457.219 65.5811C455.897 65.5811 454.781 65.1595 453.869 64.3164C452.98 63.4733 452.331 62.4137 451.921 61.1377C451.146 62.4365 450.223 63.4733 449.152 64.248C448.081 65 447.01 65.376 445.939 65.376C445.096 65.376 444.333 65.2279 443.649 64.9316C442.966 64.6126 442.385 64.1797 441.906 63.6328C441.428 63.0632 441.052 62.4023 440.778 61.6504C440.528 60.8984 440.402 60.0781 440.402 59.1895C440.402 57.4121 440.699 55.8512 441.291 54.5068C441.906 53.1396 442.681 52.0003 443.615 51.0889C444.549 50.1774 445.575 49.4938 446.691 49.0381C447.831 48.5824 448.924 48.3545 449.973 48.3545C450.679 48.3545 451.328 48.457 451.921 48.6621C452.513 48.8444 453.015 49.0495 453.425 49.2773C453.858 49.5052 454.188 49.7217 454.416 49.9268C454.644 50.109 454.769 50.2116 454.792 50.2344C455.043 50.5306 455.168 50.8382 455.168 51.1572C455.168 51.499 455.043 51.8066 454.792 52.0801C454.541 52.3307 454.245 52.4561 453.903 52.4561C453.539 52.4561 453.231 52.3307 452.98 52.0801C452.935 52.0345 452.832 51.9548 452.673 51.8408C452.513 51.7041 452.297 51.5674 452.023 51.4307C451.75 51.2939 451.42 51.18 451.032 51.0889C450.668 50.9749 450.246 50.918 449.768 50.918C449.061 50.918 448.309 51.0775 447.512 51.3965C446.714 51.7155 445.985 52.2168 445.324 52.9004C444.663 53.5612 444.105 54.4043 443.649 55.4297C443.216 56.4323 443 57.6286 443 59.0186C443 59.4515 443.046 59.8958 443.137 60.3516C443.228 60.7845 443.387 61.1833 443.615 61.5479C443.843 61.9124 444.151 62.2087 444.538 62.4365C444.925 62.6644 445.404 62.7783 445.974 62.7783C446.384 62.7783 446.851 62.6416 447.375 62.3682C447.922 62.0947 448.435 61.6732 448.913 61.1035C449.414 60.5339 449.859 59.8161 450.246 58.9502C450.656 58.0843 450.941 57.0589 451.101 55.874C451.146 55.555 451.294 55.293 451.545 55.0879C451.796 54.86 452.092 54.7461 452.434 54.7461C452.753 54.7461 453.026 54.8714 453.254 55.1221C453.505 55.3727 453.641 55.6576 453.664 55.9766C453.687 56.4095 453.732 57.0247 453.801 57.8223C453.869 58.597 454.017 59.3717 454.245 60.1465C454.496 60.9212 454.86 61.5934 455.339 62.1631C455.817 62.7327 456.478 63.0176 457.321 63.0176C457.868 63.0176 458.404 62.8695 458.928 62.5732C459.475 62.277 459.999 61.8896 460.5 61.4111C461.024 60.9098 461.514 60.3516 461.97 59.7363C462.448 59.0983 462.881 58.4603 463.269 57.8223C463.656 57.1842 463.998 56.569 464.294 55.9766C464.59 55.3841 464.841 54.8714 465.046 54.4385C465.16 54.1878 465.319 53.9941 465.524 53.8574C465.752 53.7207 465.992 53.6523 466.242 53.6523C466.63 53.6523 466.937 53.8005 467.165 54.0967C467.416 54.3701 467.541 54.6663 467.541 54.9854C467.541 55.1449 467.507 55.3044 467.438 55.4639ZM493.176 65.4785C493.973 64.681 494.782 63.8721 495.603 63.0518C496.423 62.2087 497.22 61.3314 497.995 60.4199C498.77 59.5085 499.488 58.5628 500.148 57.583C500.832 56.5804 501.436 55.5208 501.96 54.4043C502.074 54.1536 502.233 53.9714 502.438 53.8574C502.644 53.7207 502.871 53.6523 503.122 53.6523C503.509 53.6523 503.817 53.7891 504.045 54.0625C504.296 54.3359 504.421 54.6436 504.421 54.9854C504.421 55.1676 504.387 55.3385 504.318 55.498C503.612 56.9792 502.803 58.335 501.892 59.5654C500.98 60.7959 500.023 61.9694 499.021 63.0859C498.018 64.1797 497.004 65.2393 495.979 66.2646C494.953 67.3128 493.973 68.361 493.039 69.4092C492.948 70.9814 492.948 72.5537 493.039 74.126C493.13 75.721 493.176 77.4072 493.176 79.1846C493.176 80.6429 493.13 82.1012 493.039 83.5596C492.948 85.0179 492.8 86.4079 492.595 87.7295C492.39 89.0739 492.105 90.3271 491.74 91.4893C491.398 92.6514 490.954 93.654 490.407 94.4971C489.86 95.363 489.222 96.0352 488.493 96.5137C487.764 97.015 486.91 97.2656 485.93 97.2656C484.312 97.2656 483.07 96.7074 482.204 95.5908C481.338 94.4743 480.905 92.9134 480.905 90.9082C480.905 89.8145 481.019 88.641 481.247 87.3877C481.498 86.1344 481.84 84.8356 482.272 83.4912C482.705 82.1696 483.218 80.8252 483.811 79.458C484.426 78.0908 485.087 76.7578 485.793 75.459C486.499 74.1602 487.251 72.9183 488.049 71.7334C488.846 70.5713 489.655 69.5117 490.476 68.5547C490.521 67.4609 490.567 66.3216 490.612 65.1367C490.681 63.9746 490.749 62.8923 490.817 61.8896C490.225 62.9378 489.484 63.7809 488.596 64.4189C487.73 65.057 486.773 65.376 485.725 65.376C483.993 65.376 482.637 64.7949 481.657 63.6328C480.677 62.4707 480.188 60.8757 480.188 58.8477C480.188 57.3665 480.324 56.0221 480.598 54.8145C480.894 53.584 481.201 52.5358 481.521 51.6699C481.862 50.7812 482.17 50.109 482.443 49.6533C482.717 49.1748 482.854 48.9469 482.854 48.9697C483.104 48.5824 483.457 48.3887 483.913 48.3887C484.3 48.3887 484.608 48.5254 484.836 48.7988C485.087 49.0495 485.212 49.3457 485.212 49.6875C485.212 49.9382 485.144 50.166 485.007 50.3711C485.03 50.3483 484.916 50.542 484.665 50.9521C484.437 51.3395 484.175 51.9092 483.879 52.6611C483.605 53.4131 483.343 54.3132 483.093 55.3613C482.865 56.4095 482.751 57.5602 482.751 58.8135C482.751 60.0667 482.979 61.0465 483.435 61.7529C483.89 62.4593 484.631 62.8125 485.656 62.8125C486.955 62.8125 488.129 61.8555 489.177 59.9414C490.225 58.0046 491.114 55.2018 491.843 51.5332C491.888 51.237 492.025 50.9977 492.253 50.8154C492.481 50.6104 492.754 50.5078 493.073 50.5078C493.438 50.5078 493.745 50.6331 493.996 50.8838C494.247 51.1344 494.372 51.4421 494.372 51.8066C494.372 51.875 494.326 52.2852 494.235 53.0371C494.144 53.7663 494.03 54.7461 493.894 55.9766C493.78 57.207 493.654 58.6426 493.518 60.2832C493.381 61.901 493.267 63.6328 493.176 65.4785ZM490.441 72.7246C489.416 74.2057 488.47 75.7666 487.604 77.4072C486.761 79.0479 486.032 80.6771 485.417 82.2949C484.802 83.9128 484.323 85.4622 483.981 86.9434C483.64 88.4245 483.469 89.7461 483.469 90.9082C483.469 92.0931 483.662 93.016 484.05 93.6768C484.437 94.3604 485.052 94.7021 485.896 94.7021C486.647 94.7021 487.308 94.3262 487.878 93.5742C488.47 92.8451 488.96 91.7969 489.348 90.4297C489.758 89.0625 490.065 87.3991 490.271 85.4395C490.476 83.5026 490.578 81.3265 490.578 78.9111C490.578 77.9313 490.555 76.9401 490.51 75.9375C490.487 74.9349 490.464 73.8639 490.441 72.7246Z" fill="#322016"/>
<path d="M96.2 96.06C96.0267 96.06 95.8667 96 95.72 95.88C95.5867 95.76 95.4733 95.6133 95.38 95.44L92.44 89.72H90.44V95.3C90.44 95.5267 90.3267 95.7 90.1 95.82C89.8867 95.94 89.6467 96 89.38 96C89.1133 96 88.8667 95.94 88.64 95.82C88.4267 95.7 88.32 95.5267 88.32 95.3V82.06C88.32 81.8733 88.38 81.7133 88.5 81.58C88.6333 81.4467 88.8133 81.38 89.04 81.38H92.84C93.68 81.38 94.4467 81.5067 95.14 81.76C95.8333 82 96.3867 82.42 96.8 83.02C97.2133 83.6067 97.42 84.42 97.42 85.46C97.42 86.26 97.2933 86.9267 97.04 87.46C96.8 87.9933 96.4667 88.42 96.04 88.74C95.6267 89.0467 95.1533 89.2733 94.62 89.42L97.42 94.68C97.4467 94.72 97.4667 94.7733 97.48 94.84C97.4933 94.8933 97.5 94.94 97.5 94.98C97.5 95.1533 97.4333 95.3267 97.3 95.5C97.1667 95.66 97 95.7933 96.8 95.9C96.6133 96.0067 96.4133 96.06 96.2 96.06ZM90.44 88.02H92.84C93.5867 88.02 94.18 87.84 94.62 87.48C95.0733 87.12 95.3 86.5067 95.3 85.64C95.3 84.7733 95.0733 84.16 94.62 83.8C94.18 83.44 93.5867 83.26 92.84 83.26H90.44V88.02ZM103.315 96C103.088 96 102.875 95.94 102.675 95.82C102.475 95.7 102.375 95.5267 102.375 95.3V82.08C102.375 81.8533 102.475 81.68 102.675 81.56C102.875 81.44 103.088 81.38 103.315 81.38H110.435C110.688 81.38 110.868 81.48 110.975 81.68C111.081 81.88 111.135 82.0867 111.135 82.3C111.135 82.5533 111.075 82.78 110.955 82.98C110.835 83.1667 110.661 83.26 110.435 83.26H104.495V87.84H107.575C107.801 87.84 107.975 87.9267 108.095 88.1C108.215 88.2733 108.275 88.4733 108.275 88.7C108.275 88.8867 108.221 89.0733 108.115 89.26C108.008 89.4333 107.828 89.52 107.575 89.52H104.495V94.12H110.435C110.661 94.12 110.835 94.2133 110.955 94.4C111.075 94.5867 111.135 94.8133 111.135 95.08C111.135 95.2933 111.081 95.5 110.975 95.7C110.868 95.9 110.688 96 110.435 96H103.315ZM119.504 96.16C118.637 96.16 117.871 96.0333 117.204 95.78C116.537 95.5267 116.017 95.22 115.644 94.86C115.271 94.4867 115.084 94.1333 115.084 93.8C115.084 93.64 115.124 93.4733 115.204 93.3C115.297 93.1267 115.411 92.98 115.544 92.86C115.691 92.7267 115.844 92.66 116.004 92.66C116.191 92.66 116.364 92.74 116.524 92.9C116.697 93.0467 116.904 93.2267 117.144 93.44C117.384 93.6533 117.684 93.84 118.044 94C118.404 94.16 118.864 94.24 119.424 94.24C119.904 94.24 120.331 94.1667 120.704 94.02C121.091 93.86 121.391 93.6267 121.604 93.32C121.831 93 121.944 92.6 121.944 92.12C121.944 91.6133 121.824 91.1933 121.584 90.86C121.357 90.5267 121.044 90.2467 120.644 90.02C120.257 89.7933 119.837 89.5867 119.384 89.4C118.931 89.2133 118.471 89.0133 118.004 88.8C117.537 88.5867 117.111 88.3333 116.724 88.04C116.337 87.7333 116.024 87.3533 115.784 86.9C115.557 86.4333 115.444 85.8533 115.444 85.16C115.444 84.4267 115.577 83.8133 115.844 83.32C116.124 82.8267 116.491 82.4333 116.944 82.14C117.397 81.8467 117.897 81.64 118.444 81.52C118.991 81.3867 119.531 81.32 120.064 81.32C120.397 81.32 120.764 81.3467 121.164 81.4C121.577 81.44 121.977 81.52 122.364 81.64C122.751 81.7467 123.071 81.8933 123.324 82.08C123.577 82.2667 123.704 82.4933 123.704 82.76C123.704 82.8933 123.671 83.0533 123.604 83.24C123.537 83.4133 123.437 83.5667 123.304 83.7C123.184 83.8333 123.024 83.9 122.824 83.9C122.651 83.9 122.457 83.84 122.244 83.72C122.031 83.5867 121.751 83.46 121.404 83.34C121.071 83.2067 120.624 83.14 120.064 83.14C119.584 83.14 119.151 83.2067 118.764 83.34C118.391 83.4733 118.097 83.6733 117.884 83.94C117.671 84.1933 117.564 84.5333 117.564 84.96C117.564 85.3867 117.677 85.74 117.904 86.02C118.144 86.2867 118.457 86.52 118.844 86.72C119.231 86.9067 119.651 87.0867 120.104 87.26C120.571 87.4333 121.031 87.64 121.484 87.88C121.951 88.1067 122.377 88.3867 122.764 88.72C123.164 89.0533 123.477 89.48 123.704 90C123.944 90.5067 124.064 91.14 124.064 91.9C124.064 92.86 123.864 93.66 123.464 94.3C123.077 94.9267 122.537 95.3933 121.844 95.7C121.164 96.0067 120.384 96.16 119.504 96.16ZM129.299 96C129.112 96 128.912 95.96 128.699 95.88C128.485 95.8 128.312 95.7 128.179 95.58C128.045 95.4467 127.979 95.2933 127.979 95.12C127.979 95.08 127.985 95.02 127.999 94.94L131.979 81.98C132.059 81.74 132.225 81.56 132.479 81.44C132.745 81.32 133.025 81.26 133.319 81.26C133.625 81.26 133.905 81.32 134.159 81.44C134.425 81.56 134.599 81.74 134.679 81.98L138.639 94.94C138.665 95.02 138.679 95.08 138.679 95.12C138.679 95.28 138.605 95.4267 138.459 95.56C138.325 95.6933 138.152 95.8 137.939 95.88C137.739 95.96 137.539 96 137.339 96C137.165 96 137.012 95.9667 136.879 95.9C136.759 95.8333 136.672 95.72 136.619 95.56L135.799 92.72H130.839L130.039 95.56C129.999 95.72 129.905 95.8333 129.759 95.9C129.625 95.9667 129.472 96 129.299 96ZM131.319 91.02H135.319L133.319 84.16L131.319 91.02ZM144.19 96C143.963 96 143.75 95.94 143.55 95.82C143.35 95.7 143.25 95.5267 143.25 95.3V82.06C143.25 81.82 143.356 81.6467 143.57 81.54C143.796 81.4333 144.043 81.38 144.31 81.38C144.576 81.38 144.816 81.4333 145.03 81.54C145.256 81.6467 145.37 81.82 145.37 82.06V94.12H150.57C150.783 94.12 150.943 94.22 151.05 94.42C151.156 94.6067 151.21 94.82 151.21 95.06C151.21 95.2867 151.156 95.5 151.05 95.7C150.943 95.9 150.783 96 150.57 96H144.19ZM157.548 96C157.282 96 157.035 95.94 156.808 95.82C156.595 95.7 156.488 95.5267 156.488 95.3V83.32H153.388C153.175 83.32 153.008 83.22 152.888 83.02C152.768 82.82 152.708 82.5933 152.708 82.34C152.708 82.1 152.762 81.88 152.868 81.68C152.975 81.48 153.148 81.38 153.388 81.38H161.688C161.942 81.38 162.122 81.48 162.228 81.68C162.335 81.88 162.388 82.0933 162.388 82.32C162.388 82.5867 162.328 82.82 162.208 83.02C162.102 83.22 161.928 83.32 161.688 83.32H158.608V95.3C158.608 95.5267 158.495 95.7 158.268 95.82C158.055 95.94 157.815 96 157.548 96ZM165.994 96C165.807 96 165.607 95.96 165.394 95.88C165.181 95.8 165.007 95.7 164.874 95.58C164.741 95.4467 164.674 95.2933 164.674 95.12C164.674 95.08 164.681 95.02 164.694 94.94L168.674 81.98C168.754 81.74 168.921 81.56 169.174 81.44C169.441 81.32 169.721 81.26 170.014 81.26C170.321 81.26 170.601 81.32 170.854 81.44C171.121 81.56 171.294 81.74 171.374 81.98L175.334 94.94C175.361 95.02 175.374 95.08 175.374 95.12C175.374 95.28 175.301 95.4267 175.154 95.56C175.021 95.6933 174.847 95.8 174.634 95.88C174.434 95.96 174.234 96 174.034 96C173.861 96 173.707 95.9667 173.574 95.9C173.454 95.8333 173.367 95.72 173.314 95.56L172.494 92.72H167.534L166.734 95.56C166.694 95.72 166.601 95.8333 166.454 95.9C166.321 95.9667 166.167 96 165.994 96ZM168.014 91.02H172.014L170.014 84.16L168.014 91.02ZM190.689 96C190.422 96 190.176 95.94 189.949 95.82C189.736 95.7 189.629 95.5267 189.629 95.3V83.32H186.529C186.316 83.32 186.149 83.22 186.029 83.02C185.909 82.82 185.849 82.5933 185.849 82.34C185.849 82.1 185.902 81.88 186.009 81.68C186.116 81.48 186.289 81.38 186.529 81.38H194.829C195.082 81.38 195.262 81.48 195.369 81.68C195.476 81.88 195.529 82.0933 195.529 82.32C195.529 82.5867 195.469 82.82 195.349 83.02C195.242 83.22 195.069 83.32 194.829 83.32H191.749V95.3C191.749 95.5267 191.636 95.7 191.409 95.82C191.196 95.94 190.956 96 190.689 96ZM204.566 96.12C203.713 96.12 202.939 95.9733 202.246 95.68C201.553 95.3867 201.006 94.9133 200.606 94.26C200.206 93.6067 200.006 92.74 200.006 91.66V82.06C200.006 81.82 200.113 81.6467 200.326 81.54C200.539 81.4333 200.786 81.38 201.066 81.38C201.319 81.38 201.559 81.4333 201.786 81.54C202.013 81.6467 202.126 81.82 202.126 82.06V91.66C202.126 92.54 202.339 93.1933 202.766 93.62C203.193 94.0333 203.793 94.24 204.566 94.24C205.326 94.24 205.926 94.0333 206.366 93.62C206.806 93.1933 207.026 92.54 207.026 91.66V82.06C207.026 81.82 207.133 81.6467 207.346 81.54C207.559 81.4333 207.806 81.38 208.086 81.38C208.339 81.38 208.579 81.4333 208.806 81.54C209.033 81.6467 209.146 81.82 209.146 82.06V91.66C209.146 92.74 208.939 93.6067 208.526 94.26C208.126 94.9133 207.579 95.3867 206.886 95.68C206.193 95.9733 205.419 96.12 204.566 96.12ZM222.651 96C222.371 96 222.144 95.9333 221.971 95.8C221.797 95.6667 221.711 95.5067 221.711 95.32V82.08C221.711 81.8533 221.811 81.68 222.011 81.56C222.211 81.44 222.424 81.38 222.651 81.38H226.291C227.011 81.38 227.677 81.4733 228.291 81.66C228.904 81.8467 229.397 82.1933 229.771 82.7C230.144 83.1933 230.331 83.9067 230.331 84.84C230.331 85.68 230.177 86.3733 229.871 86.92C229.577 87.4667 229.164 87.8533 228.631 88.08C229.044 88.24 229.404 88.4533 229.711 88.72C230.017 88.9733 230.257 89.32 230.431 89.76C230.604 90.1867 230.691 90.74 230.691 91.42V91.8C230.691 92.8267 230.517 93.6467 230.171 94.26C229.824 94.8733 229.351 95.32 228.751 95.6C228.151 95.8667 227.471 96 226.711 96H222.651ZM223.811 94.12H226.311C227.031 94.12 227.584 93.9267 227.971 93.54C228.371 93.14 228.571 92.5067 228.571 91.64V91.32C228.571 90.44 228.371 89.82 227.971 89.46C227.584 89.1 227.031 88.92 226.311 88.92H223.811V94.12ZM223.811 87.24H226.211C226.891 87.24 227.391 87.0667 227.711 86.72C228.044 86.3733 228.211 85.86 228.211 85.18C228.211 84.7267 228.124 84.36 227.951 84.08C227.791 83.8 227.557 83.5933 227.251 83.46C226.944 83.3267 226.584 83.26 226.171 83.26H223.811V87.24ZM236.705 96C236.479 96 236.265 95.94 236.065 95.82C235.865 95.7 235.765 95.5267 235.765 95.3V82.08C235.765 81.8533 235.865 81.68 236.065 81.56C236.265 81.44 236.479 81.38 236.705 81.38H243.825C244.079 81.38 244.259 81.48 244.365 81.68C244.472 81.88 244.525 82.0867 244.525 82.3C244.525 82.5533 244.465 82.78 244.345 82.98C244.225 83.1667 244.052 83.26 243.825 83.26H237.885V87.84H240.965C241.192 87.84 241.365 87.9267 241.485 88.1C241.605 88.2733 241.665 88.4733 241.665 88.7C241.665 88.8867 241.612 89.0733 241.505 89.26C241.399 89.4333 241.219 89.52 240.965 89.52H237.885V94.12H243.825C244.052 94.12 244.225 94.2133 244.345 94.4C244.465 94.5867 244.525 94.8133 244.525 95.08C244.525 95.2933 244.472 95.5 244.365 95.7C244.259 95.9 244.079 96 243.825 96H236.705ZM250.155 96C249.928 96 249.715 95.94 249.515 95.82C249.315 95.7 249.215 95.5267 249.215 95.3V82.06C249.215 81.82 249.321 81.6467 249.535 81.54C249.761 81.4333 250.008 81.38 250.275 81.38C250.541 81.38 250.781 81.4333 250.995 81.54C251.221 81.6467 251.335 81.82 251.335 82.06V94.12H256.535C256.748 94.12 256.908 94.22 257.015 94.42C257.121 94.6067 257.175 94.82 257.175 95.06C257.175 95.2867 257.121 95.5 257.015 95.7C256.908 95.9 256.748 96 256.535 96H250.155ZM262.647 96C262.42 96 262.207 95.94 262.007 95.82C261.807 95.7 261.707 95.5267 261.707 95.3V82.06C261.707 81.82 261.813 81.6467 262.027 81.54C262.253 81.4333 262.5 81.38 262.767 81.38C263.033 81.38 263.273 81.4333 263.487 81.54C263.713 81.6467 263.827 81.82 263.827 82.06V94.12H269.027C269.24 94.12 269.4 94.22 269.507 94.42C269.613 94.6067 269.667 94.82 269.667 95.06C269.667 95.2867 269.613 95.5 269.507 95.7C269.4 95.9 269.24 96 269.027 96H262.647ZM275.139 96C274.912 96 274.699 95.94 274.499 95.82C274.299 95.7 274.199 95.5267 274.199 95.3V82.08C274.199 81.8533 274.299 81.68 274.499 81.56C274.699 81.44 274.912 81.38 275.139 81.38H282.259C282.512 81.38 282.692 81.48 282.799 81.68C282.906 81.88 282.959 82.0867 282.959 82.3C282.959 82.5533 282.899 82.78 282.779 82.98C282.659 83.1667 282.486 83.26 282.259 83.26H276.319V87.84H279.399C279.626 87.84 279.799 87.9267 279.919 88.1C280.039 88.2733 280.099 88.4733 280.099 88.7C280.099 88.8867 280.046 89.0733 279.939 89.26C279.832 89.4333 279.652 89.52 279.399 89.52H276.319V94.12H282.259C282.486 94.12 282.659 94.2133 282.779 94.4C282.899 94.5867 282.959 94.8133 282.959 95.08C282.959 95.2933 282.906 95.5 282.799 95.7C282.692 95.9 282.512 96 282.259 96H275.139ZM287.328 96C287.101 96 286.935 95.94 286.828 95.82C286.721 95.7 286.668 95.5533 286.668 95.38C286.668 95.14 286.741 94.8933 286.888 94.64L293.088 83.26H287.668C287.455 83.26 287.281 83.1667 287.148 82.98C287.028 82.7933 286.968 82.5733 286.968 82.32C286.968 82.0933 287.021 81.88 287.128 81.68C287.248 81.48 287.428 81.38 287.668 81.38H295.128C295.355 81.38 295.521 81.44 295.628 81.56C295.748 81.6667 295.808 81.8067 295.808 81.98C295.808 82.2067 295.728 82.4667 295.568 82.76L289.368 94.12H295.428C295.655 94.12 295.828 94.22 295.948 94.42C296.068 94.62 296.128 94.8333 296.128 95.06C296.128 95.2867 296.068 95.5 295.948 95.7C295.828 95.9 295.655 96 295.428 96H287.328ZM301.025 96C300.839 96 300.639 95.96 300.425 95.88C300.212 95.8 300.039 95.7 299.905 95.58C299.772 95.4467 299.705 95.2933 299.705 95.12C299.705 95.08 299.712 95.02 299.725 94.94L303.705 81.98C303.785 81.74 303.952 81.56 304.205 81.44C304.472 81.32 304.752 81.26 305.045 81.26C305.352 81.26 305.632 81.32 305.885 81.44C306.152 81.56 306.325 81.74 306.405 81.98L310.365 94.94C310.392 95.02 310.405 95.08 310.405 95.12C310.405 95.28 310.332 95.4267 310.185 95.56C310.052 95.6933 309.879 95.8 309.665 95.88C309.465 95.96 309.265 96 309.065 96C308.892 96 308.739 95.9667 308.605 95.9C308.485 95.8333 308.399 95.72 308.345 95.56L307.525 92.72H302.565L301.765 95.56C301.725 95.72 301.632 95.8333 301.485 95.9C301.352 95.9667 301.199 96 301.025 96ZM303.045 91.02H307.045L305.045 84.16L303.045 91.02ZM323.04 96C322.773 96 322.527 95.94 322.3 95.82C322.087 95.7 321.98 95.5267 321.98 95.3V82.08C321.98 81.8267 322.087 81.6467 322.3 81.54C322.527 81.4333 322.773 81.38 323.04 81.38C323.293 81.38 323.507 81.42 323.68 81.5C323.867 81.5667 324.033 81.6867 324.18 81.86C324.327 82.0333 324.48 82.2733 324.64 82.58L329.08 91.24V82.06C329.08 81.82 329.187 81.6467 329.4 81.54C329.627 81.4333 329.873 81.38 330.14 81.38C330.407 81.38 330.647 81.4333 330.86 81.54C331.087 81.6467 331.2 81.82 331.2 82.06V95.3C331.2 95.5267 331.087 95.7 330.86 95.82C330.647 95.94 330.407 96 330.14 96C329.873 96 329.633 95.9333 329.42 95.8C329.207 95.6667 329.027 95.4733 328.88 95.22L324.1 86.12V95.3C324.1 95.5267 323.987 95.7 323.76 95.82C323.547 95.94 323.307 96 323.04 96ZM337.096 96C336.909 96 336.709 95.96 336.496 95.88C336.282 95.8 336.109 95.7 335.976 95.58C335.842 95.4467 335.776 95.2933 335.776 95.12C335.776 95.08 335.782 95.02 335.796 94.94L339.776 81.98C339.856 81.74 340.022 81.56 340.276 81.44C340.542 81.32 340.822 81.26 341.116 81.26C341.422 81.26 341.702 81.32 341.956 81.44C342.222 81.56 342.396 81.74 342.476 81.98L346.436 94.94C346.462 95.02 346.476 95.08 346.476 95.12C346.476 95.28 346.402 95.4267 346.256 95.56C346.122 95.6933 345.949 95.8 345.736 95.88C345.536 95.96 345.336 96 345.136 96C344.962 96 344.809 95.9667 344.676 95.9C344.556 95.8333 344.469 95.72 344.416 95.56L343.596 92.72H338.636L337.836 95.56C337.796 95.72 337.702 95.8333 337.556 95.9C337.422 95.9667 337.269 96 337.096 96ZM339.116 91.02H343.116L341.116 84.16L339.116 91.02ZM353.595 96C353.328 96 353.082 95.94 352.855 95.82C352.642 95.7 352.535 95.5267 352.535 95.3V83.32H349.435C349.222 83.32 349.055 83.22 348.935 83.02C348.815 82.82 348.755 82.5933 348.755 82.34C348.755 82.1 348.808 81.88 348.915 81.68C349.022 81.48 349.195 81.38 349.435 81.38H357.735C357.988 81.38 358.168 81.48 358.275 81.68C358.382 81.88 358.435 82.0933 358.435 82.32C358.435 82.5867 358.375 82.82 358.255 83.02C358.148 83.22 357.975 83.32 357.735 83.32H354.655V95.3C354.655 95.5267 354.542 95.7 354.315 95.82C354.102 95.94 353.862 96 353.595 96ZM367.472 96.12C366.619 96.12 365.846 95.9733 365.152 95.68C364.459 95.3867 363.912 94.9133 363.512 94.26C363.112 93.6067 362.912 92.74 362.912 91.66V82.06C362.912 81.82 363.019 81.6467 363.232 81.54C363.446 81.4333 363.692 81.38 363.972 81.38C364.226 81.38 364.466 81.4333 364.692 81.54C364.919 81.6467 365.032 81.82 365.032 82.06V91.66C365.032 92.54 365.246 93.1933 365.672 93.62C366.099 94.0333 366.699 94.24 367.472 94.24C368.232 94.24 368.832 94.0333 369.272 93.62C369.712 93.1933 369.932 92.54 369.932 91.66V82.06C369.932 81.82 370.039 81.6467 370.252 81.54C370.466 81.4333 370.712 81.38 370.992 81.38C371.246 81.38 371.486 81.4333 371.712 81.54C371.939 81.6467 372.052 81.82 372.052 82.06V91.66C372.052 92.74 371.846 93.6067 371.432 94.26C371.032 94.9133 370.486 95.3867 369.792 95.68C369.099 95.9733 368.326 96.12 367.472 96.12ZM385.493 96.06C385.32 96.06 385.16 96 385.013 95.88C384.88 95.76 384.766 95.6133 384.673 95.44L381.733 89.72H379.733V95.3C379.733 95.5267 379.62 95.7 379.393 95.82C379.18 95.94 378.94 96 378.673 96C378.406 96 378.16 95.94 377.933 95.82C377.72 95.7 377.613 95.5267 377.613 95.3V82.06C377.613 81.8733 377.673 81.7133 377.793 81.58C377.926 81.4467 378.106 81.38 378.333 81.38H382.133C382.973 81.38 383.74 81.5067 384.433 81.76C385.126 82 385.68 82.42 386.093 83.02C386.506 83.6067 386.713 84.42 386.713 85.46C386.713 86.26 386.586 86.9267 386.333 87.46C386.093 87.9933 385.76 88.42 385.333 88.74C384.92 89.0467 384.446 89.2733 383.913 89.42L386.713 94.68C386.74 94.72 386.76 94.7733 386.773 94.84C386.786 94.8933 386.793 94.94 386.793 94.98C386.793 95.1533 386.726 95.3267 386.593 95.5C386.46 95.66 386.293 95.7933 386.093 95.9C385.906 96.0067 385.706 96.06 385.493 96.06ZM379.733 88.02H382.133C382.88 88.02 383.473 87.84 383.913 87.48C384.366 87.12 384.593 86.5067 384.593 85.64C384.593 84.7733 384.366 84.16 383.913 83.8C383.473 83.44 382.88 83.26 382.133 83.26H379.733V88.02ZM391.928 96C391.741 96 391.541 95.96 391.328 95.88C391.114 95.8 390.941 95.7 390.808 95.58C390.674 95.4467 390.608 95.2933 390.608 95.12C390.608 95.08 390.614 95.02 390.628 94.94L394.608 81.98C394.688 81.74 394.854 81.56 395.108 81.44C395.374 81.32 395.654 81.26 395.948 81.26C396.254 81.26 396.534 81.32 396.788 81.44C397.054 81.56 397.228 81.74 397.308 81.98L401.268 94.94C401.294 95.02 401.308 95.08 401.308 95.12C401.308 95.28 401.234 95.4267 401.088 95.56C400.954 95.6933 400.781 95.8 400.568 95.88C400.368 95.96 400.168 96 399.968 96C399.794 96 399.641 95.9667 399.508 95.9C399.388 95.8333 399.301 95.72 399.248 95.56L398.428 92.72H393.468L392.668 95.56C392.628 95.72 392.534 95.8333 392.388 95.9C392.254 95.9667 392.101 96 391.928 96ZM393.948 91.02H397.948L395.948 84.16L393.948 91.02ZM406.819 96C406.592 96 406.379 95.94 406.179 95.82C405.979 95.7 405.879 95.5267 405.879 95.3V82.06C405.879 81.82 405.985 81.6467 406.199 81.54C406.425 81.4333 406.672 81.38 406.939 81.38C407.205 81.38 407.445 81.4333 407.659 81.54C407.885 81.6467 407.999 81.82 407.999 82.06V94.12H413.199C413.412 94.12 413.572 94.22 413.679 94.42C413.785 94.6067 413.839 94.82 413.839 95.06C413.839 95.2867 413.785 95.5 413.679 95.7C413.572 95.9 413.412 96 413.199 96H406.819Z" fill="#322016"/>
</svg>
