<svg width="400" height="121" viewBox="0 0 400 121" fill="none" xmlns="http://www.w3.org/2000/svg">
<path d="M90.9834 1.59375C90.9378 1.93555 90.7897 2.20898 90.5391 2.41406C90.2884 2.61914 90.0036 2.72168 89.6846 2.72168C89.639 2.72168 89.5592 2.72168 89.4453 2.72168C89.3314 2.69889 89.0693 2.6875 88.6592 2.6875C88.2262 2.6875 87.668 2.73307 86.9844 2.82422C86.3236 2.91536 85.583 3.10905 84.7627 3.40527C83.9652 3.67871 83.1221 4.08887 82.2334 4.63574C81.3675 5.18262 80.513 5.92318 79.6699 6.85742C78.8268 7.76888 78.0293 8.9082 77.2773 10.2754C76.5254 11.6198 75.8874 13.249 75.3633 15.1631C75.0898 16.1201 74.7708 17.4987 74.4062 19.2988C74.0645 21.0762 73.6885 23.0814 73.2783 25.3145C72.891 27.5475 72.4922 29.9287 72.082 32.458C71.6947 34.9873 71.3187 37.471 70.9541 39.9092C70.6123 42.3473 70.2933 44.6715 69.9971 46.8818C69.7008 49.0693 69.473 50.9492 69.3135 52.5215C69.2679 52.8177 69.1312 53.0798 68.9033 53.3076C68.6982 53.5583 68.4362 53.6836 68.1172 53.6836C67.7982 53.6836 67.5133 53.6038 67.2627 53.4443C67.0348 53.2848 66.8753 53.0456 66.7842 52.7266C66.488 51.6328 66.0208 50.1175 65.3828 48.1807C64.7448 46.2438 64.0042 44.0677 63.1611 41.6523C62.3408 39.2142 61.4408 36.6279 60.4609 33.8936C59.4811 31.1592 58.5013 28.459 57.5215 25.793C56.5645 23.1042 55.6302 20.5407 54.7188 18.1025C53.8301 15.6416 53.0439 13.4769 52.3604 11.6084C52.2464 12.8844 52.0641 14.3086 51.8135 15.8809C51.5856 17.4303 51.2666 19.1051 50.8564 20.9053C50.4691 22.6826 49.9792 24.5739 49.3867 26.5791C48.7943 28.5615 48.0879 30.6237 47.2676 32.7656C45.9915 36.0469 44.4876 38.8496 42.7559 41.1738C41.0469 43.498 39.2467 45.4349 37.3555 46.9844C35.4642 48.5339 33.5387 49.7643 31.5791 50.6758C29.6423 51.5645 27.8193 52.2367 26.1104 52.6924C24.4014 53.1481 22.8633 53.4329 21.4961 53.5469C20.1289 53.6836 19.0807 53.752 18.3516 53.752C15.8451 53.752 13.5322 53.4215 11.4131 52.7607C9.31673 52.0999 7.49382 51.1657 5.94434 49.958C4.41764 48.7275 3.22135 47.2692 2.35547 45.583C1.51237 43.874 1.09082 41.9941 1.09082 39.9434C1.09082 38.0977 1.50098 36.3773 2.32129 34.7822C3.16439 33.1644 4.28092 31.763 5.6709 30.5781C7.08366 29.3932 8.6901 28.459 10.4902 27.7754C12.3132 27.0918 14.2044 26.75 16.1641 26.75C17.7819 26.75 19.2288 26.9095 20.5049 27.2285C21.8037 27.5475 22.943 27.9577 23.9229 28.459C24.9255 28.9375 25.7799 29.4616 26.4863 30.0312C27.2155 30.6009 27.8079 31.1478 28.2637 31.6719C28.7422 32.1732 29.0954 32.6061 29.3232 32.9707C29.5739 33.3353 29.722 33.5518 29.7676 33.6201C29.8587 33.8024 29.9043 34.0075 29.9043 34.2354C29.9043 34.5544 29.779 34.8506 29.5283 35.124C29.3005 35.3975 28.9928 35.5342 28.6055 35.5342C28.1042 35.5342 27.7282 35.3063 27.4775 34.8506C27.4548 34.7822 27.2269 34.4632 26.7939 33.8936C26.3838 33.3011 25.7344 32.6631 24.8457 31.9795C23.9798 31.2959 22.8519 30.6807 21.4619 30.1338C20.0719 29.5641 18.3857 29.2793 16.4033 29.2793C14.7855 29.2793 13.2018 29.5527 11.6523 30.0996C10.1257 30.6465 8.76986 31.3984 7.58496 32.3555C6.40007 33.3125 5.44303 34.4518 4.71387 35.7734C4.00749 37.0723 3.6543 38.485 3.6543 40.0117C3.6543 41.6751 4.04167 43.2018 4.81641 44.5918C5.59115 45.959 6.63932 47.1325 7.96094 48.1123C9.30534 49.0921 10.8548 49.8555 12.6094 50.4023C14.3867 50.9264 16.278 51.1885 18.2832 51.1885C19.0579 51.1885 20.0833 51.1315 21.3594 51.0176C22.6354 50.9036 24.0596 50.6416 25.6318 50.2314C27.2269 49.8213 28.9017 49.2061 30.6562 48.3857C32.4108 47.5426 34.1426 46.4033 35.8516 44.9678C37.5605 43.5322 39.1898 41.7435 40.7393 39.6016C42.3115 37.4596 43.6901 34.862 44.875 31.8086C46.1055 28.6641 47.0625 25.679 47.7461 22.8535C48.4525 20.0052 48.9766 17.4417 49.3184 15.1631C49.6602 12.8844 49.8652 10.9476 49.9336 9.35254C50.0247 7.7347 50.0703 6.58398 50.0703 5.90039V5.2168C50.0703 4.85221 50.1842 4.5446 50.4121 4.29395C50.6628 4.02051 50.9818 3.88379 51.3691 3.88379C51.9388 3.88379 52.3376 4.16862 52.5654 4.73828C52.6338 4.89779 52.8275 5.43327 53.1465 6.34473C53.4883 7.25618 53.9212 8.44108 54.4453 9.89941C54.9922 11.335 55.6074 12.9984 56.291 14.8896C56.9974 16.7809 57.738 18.7975 58.5127 20.9395C59.2874 23.0586 60.085 25.2575 60.9053 27.5361C61.7256 29.8148 62.5231 32.0592 63.2979 34.2695C64.0954 36.4798 64.8473 38.6104 65.5537 40.6611C66.2601 42.7119 66.8981 44.5804 67.4678 46.2666C67.7184 44.4437 67.9919 42.5182 68.2881 40.4902C68.5843 38.4395 68.8919 36.3773 69.2109 34.3037C69.5527 32.2074 69.8831 30.1566 70.2021 28.1514C70.5439 26.1462 70.8743 24.2663 71.1934 22.5117C71.5352 20.7572 71.8428 19.1849 72.1162 17.7949C72.3896 16.4049 72.6403 15.2884 72.8682 14.4453C73.3695 12.4401 74.0872 10.5716 75.0215 8.83984C75.9557 7.08529 77.0837 5.55859 78.4053 4.25977C79.7497 2.96094 81.2764 1.94694 82.9854 1.21777C84.7171 0.46582 86.6312 0.0898438 88.7275 0.0898438C89.5251 0.0898438 90.0947 0.18099 90.4365 0.363281C90.8011 0.545573 90.9834 0.898763 90.9834 1.42285V1.59375ZM91.667 49.1719C90.8695 50.4707 89.9352 51.4961 88.8643 52.248C87.8161 53 86.7565 53.376 85.6855 53.376C84.8197 53.376 84.0449 53.2165 83.3613 52.8975C82.6777 52.5785 82.0853 52.1341 81.584 51.5645C81.0827 50.972 80.6953 50.2656 80.4219 49.4453C80.1712 48.625 80.0459 47.7021 80.0459 46.6768C80.0459 45.0817 80.194 43.6689 80.4902 42.4385C80.8092 41.208 81.151 40.1826 81.5156 39.3623C81.8802 38.5192 82.222 37.8812 82.541 37.4482C82.86 37.0153 83.0195 36.7988 83.0195 36.7988C83.1335 36.6621 83.2702 36.5596 83.4297 36.4912C83.612 36.4229 83.7943 36.3887 83.9766 36.3887C84.3411 36.3887 84.6374 36.5254 84.8652 36.7988C85.1159 37.0495 85.2412 37.3457 85.2412 37.6875C85.2412 37.8242 85.207 37.9609 85.1387 38.0977C85.0931 38.2344 85.0361 38.3711 84.9678 38.5078C84.8538 38.7129 84.6715 39.0319 84.4209 39.4648C84.1702 39.875 83.9082 40.4219 83.6348 41.1055C83.3613 41.7891 83.1221 42.598 82.917 43.5322C82.7119 44.4437 82.6094 45.4919 82.6094 46.6768C82.6094 48.0212 82.8714 49.0465 83.3955 49.7529C83.9424 50.4365 84.7057 50.7783 85.6855 50.7783C86.0957 50.7783 86.5628 50.653 87.0869 50.4023C87.6338 50.1289 88.1579 49.7188 88.6592 49.1719C89.1833 48.625 89.639 47.93 90.0264 47.0869C90.4137 46.2438 90.6644 45.2526 90.7783 44.1133L91.291 38.2344C91.3366 37.8926 91.4847 37.6077 91.7354 37.3799C91.986 37.152 92.2822 37.0381 92.624 37.0381C93.0114 37.0381 93.319 37.1862 93.5469 37.4824C93.7747 37.7559 93.8887 38.0749 93.8887 38.4395L93.4443 44.1133C93.3988 44.5918 93.4102 45.2184 93.4785 45.9932C93.5697 46.7679 93.7406 47.5312 93.9912 48.2832C94.2419 49.0352 94.6178 49.6846 95.1191 50.2314C95.6204 50.7555 96.2812 51.0176 97.1016 51.0176C97.694 51.0176 98.2751 50.8695 98.8447 50.5732C99.4144 50.2542 99.9613 49.8441 100.485 49.3428C101.009 48.8415 101.488 48.2832 101.921 47.668C102.377 47.0299 102.787 46.3919 103.151 45.7539C103.539 45.1159 103.869 44.512 104.143 43.9424C104.416 43.3499 104.644 42.8486 104.826 42.4385C104.94 42.1878 105.1 41.9941 105.305 41.8574C105.51 41.7207 105.738 41.6523 105.988 41.6523C106.398 41.6523 106.717 41.7891 106.945 42.0625C107.173 42.3359 107.287 42.6322 107.287 42.9512C107.287 43.1335 107.253 43.3044 107.185 43.4639C107.093 43.6462 106.911 44.0335 106.638 44.626C106.387 45.1956 106.045 45.8564 105.612 46.6084C105.202 47.3376 104.701 48.1123 104.108 48.9326C103.516 49.7529 102.855 50.5163 102.126 51.2227C101.397 51.9062 100.599 52.4759 99.7334 52.9316C98.8903 53.3646 97.9788 53.5811 96.999 53.5811C95.6546 53.5811 94.5381 53.2051 93.6494 52.4531C92.7607 51.6784 92.0999 50.5846 91.667 49.1719ZM108.962 49.2402C109.44 49.901 110.056 50.4365 110.808 50.8467C111.56 51.234 112.482 51.4277 113.576 51.4277C114.693 51.4277 115.707 51.1657 116.618 50.6416C117.53 50.0947 118.361 49.3883 119.113 48.5225C119.865 47.6566 120.537 46.6882 121.13 45.6172C121.722 44.5462 122.258 43.4753 122.736 42.4043C122.85 42.1536 123.01 41.9714 123.215 41.8574C123.42 41.7207 123.648 41.6523 123.898 41.6523C124.286 41.6523 124.593 41.7891 124.821 42.0625C125.072 42.3359 125.197 42.6322 125.197 42.9512C125.197 43.0651 125.186 43.1676 125.163 43.2588C125.14 43.3271 125.106 43.4069 125.061 43.498C123.488 46.9616 121.768 49.5706 119.899 51.3252C118.054 53.0798 115.957 53.9798 113.61 54.0254C112.106 54.0254 110.808 53.7292 109.714 53.1367C108.62 52.5671 107.72 51.8265 107.014 50.915C106.307 49.9808 105.783 48.9326 105.441 47.7705C105.1 46.6084 104.929 45.4463 104.929 44.2842C104.929 43.1221 105.065 42.0511 105.339 41.0713C105.635 40.0915 106.045 39.237 106.569 38.5078C107.116 37.7786 107.754 37.209 108.483 36.7988C109.235 36.3887 110.056 36.1836 110.944 36.1836C111.468 36.1836 111.981 36.2975 112.482 36.5254C113.007 36.7305 113.474 37.0381 113.884 37.4482C114.294 37.8356 114.624 38.3141 114.875 38.8838C115.126 39.4535 115.251 40.1029 115.251 40.832C115.251 41.7663 115.091 42.6436 114.772 43.4639C114.453 44.2842 114.009 45.0475 113.439 45.7539C112.893 46.4603 112.232 47.1097 111.457 47.7021C110.682 48.2946 109.851 48.8073 108.962 49.2402ZM107.937 47.0186C108.643 46.7223 109.281 46.3464 109.851 45.8906C110.443 45.4349 110.944 44.9336 111.354 44.3867C111.765 43.8398 112.084 43.2702 112.312 42.6777C112.539 42.0625 112.653 41.4473 112.653 40.832C112.653 40.1484 112.482 39.6357 112.141 39.2939C111.799 38.9294 111.4 38.7471 110.944 38.7471C110.329 38.7471 109.805 38.918 109.372 39.2598C108.939 39.6016 108.586 40.0459 108.312 40.5928C108.039 41.1396 107.834 41.7549 107.697 42.4385C107.583 43.0993 107.526 43.7601 107.526 44.4209C107.526 44.8311 107.561 45.264 107.629 45.7197C107.72 46.1755 107.823 46.6084 107.937 47.0186ZM126.564 40.3535C126.428 40.7181 126.257 41.1283 126.052 41.584C125.869 42.0397 125.653 42.5182 125.402 43.0195C125.197 43.4069 124.981 43.7145 124.753 43.9424C124.548 44.1475 124.274 44.25 123.933 44.25C123.545 44.25 123.238 44.1361 123.01 43.9082C122.782 43.6576 122.668 43.3727 122.668 43.0537C122.668 42.9398 122.679 42.8486 122.702 42.7803C122.725 42.6891 122.782 42.5524 122.873 42.3701C123.465 41.2308 123.898 40.2396 124.172 39.3965C124.468 38.5306 124.707 37.6305 124.89 36.6963C124.73 36.1722 124.616 35.7279 124.548 35.3633C124.479 34.9987 124.445 34.6227 124.445 34.2354C124.445 33.4834 124.605 32.8796 124.924 32.4238C125.243 31.9453 125.687 31.7061 126.257 31.7061C126.781 31.7061 127.191 31.9339 127.487 32.3896C127.806 32.8454 127.966 33.4036 127.966 34.0645C127.966 34.429 127.932 34.7936 127.863 35.1582C127.795 35.5228 127.704 35.9785 127.59 36.5254C128.114 37.8242 128.638 38.9749 129.162 39.9775C129.686 40.9801 130.153 41.903 130.563 42.7461C130.974 43.5664 131.304 44.3411 131.555 45.0703C131.828 45.7995 131.965 46.5286 131.965 47.2578C131.965 48.2148 131.771 49.1263 131.384 49.9922C130.996 50.8581 130.358 51.5872 129.47 52.1797C129.584 52.2025 129.698 52.2139 129.812 52.2139C129.925 52.2139 130.039 52.2139 130.153 52.2139C131.452 52.2139 132.648 51.9176 133.742 51.3252C134.836 50.7327 135.816 49.9694 136.682 49.0352C137.57 48.0781 138.356 47.0299 139.04 45.8906C139.724 44.7285 140.316 43.5778 140.817 42.4385C141.045 41.9144 141.364 41.6523 141.774 41.6523C142.162 41.6523 142.458 41.7891 142.663 42.0625C142.891 42.3359 143.005 42.6322 143.005 42.9512C143.005 43.1335 142.971 43.3044 142.902 43.4639C142.652 44.0791 142.321 44.7855 141.911 45.583C141.524 46.3577 141.045 47.1667 140.476 48.0098C139.929 48.8301 139.291 49.639 138.562 50.4365C137.832 51.234 137.012 51.9518 136.101 52.5898C135.212 53.2051 134.232 53.695 133.161 54.0596C132.09 54.4469 130.917 54.6406 129.641 54.6406C128.114 54.6406 126.69 54.3672 125.368 53.8203C124.069 53.2962 123.01 52.4189 122.189 51.1885C122.053 50.9834 121.984 50.7669 121.984 50.5391C121.984 50.1973 122.11 49.901 122.36 49.6504C122.634 49.377 122.941 49.2402 123.283 49.2402C123.648 49.2402 123.955 49.3656 124.206 49.6162C124.229 49.6618 124.309 49.7415 124.445 49.8555C124.582 49.9466 124.742 50.0605 124.924 50.1973C125.129 50.3112 125.357 50.4137 125.607 50.5049C125.881 50.596 126.154 50.6416 126.428 50.6416C126.975 50.6416 127.43 50.5277 127.795 50.2998C128.182 50.0719 128.49 49.7985 128.718 49.4795C128.946 49.1377 129.105 48.7845 129.196 48.4199C129.31 48.0326 129.367 47.7021 129.367 47.4287C129.367 46.859 129.276 46.2894 129.094 45.7197C128.911 45.1501 128.672 44.5804 128.376 44.0107C128.103 43.4411 127.795 42.86 127.453 42.2676C127.134 41.6523 126.838 41.0143 126.564 40.3535ZM168.229 18.7861C168.229 19.1507 168.104 19.4469 167.854 19.6748C167.603 19.8799 167.295 19.9824 166.931 19.9824H149.602V20.3584C149.602 21.7484 149.499 23.2295 149.294 24.8018C149.089 26.374 148.804 27.9463 148.439 29.5186C148.098 31.068 147.699 32.5833 147.243 34.0645C146.81 35.5456 146.354 36.9128 145.876 38.166C145.42 39.4193 144.965 40.513 144.509 41.4473C144.053 42.3587 143.643 43.0423 143.278 43.498C143.575 44.5462 143.928 45.526 144.338 46.4375C144.748 47.3262 145.204 48.1123 145.705 48.7959C146.229 49.4567 146.787 49.9808 147.38 50.3682C147.972 50.7555 148.61 50.9492 149.294 50.9492C150.091 50.9492 150.878 50.6188 151.652 49.958C152.45 49.2744 153.179 48.4769 153.84 47.5654C154.523 46.6312 155.116 45.6969 155.617 44.7627C156.141 43.8057 156.517 43.0423 156.745 42.4727C156.973 41.9258 157.372 41.6523 157.941 41.6523C158.329 41.6523 158.636 41.7891 158.864 42.0625C159.115 42.3359 159.24 42.6322 159.24 42.9512C159.24 43.1107 159.206 43.2702 159.138 43.4297C159.069 43.5892 158.898 43.9538 158.625 44.5234C158.374 45.0931 158.033 45.7539 157.6 46.5059C157.189 47.2578 156.7 48.0553 156.13 48.8984C155.583 49.7188 154.956 50.4707 154.25 51.1543C153.566 51.8379 152.826 52.4076 152.028 52.8633C151.231 53.319 150.388 53.5469 149.499 53.5469C147.927 53.5469 146.514 53.0342 145.261 52.0088C144.007 50.9834 142.937 49.5479 142.048 47.7021C141.182 45.8564 140.521 43.6689 140.065 41.1396C139.61 38.6104 139.382 35.8418 139.382 32.834C139.382 32.082 139.393 31.2048 139.416 30.2021C139.439 29.1768 139.484 28.1058 139.553 26.9893C139.621 25.8499 139.724 24.6878 139.86 23.5029C139.997 22.2952 140.179 21.1217 140.407 19.9824H128.137C127.772 19.9824 127.465 19.8799 127.214 19.6748C126.963 19.4469 126.838 19.1507 126.838 18.7861C126.838 18.4215 126.963 18.1367 127.214 17.9316C127.465 17.7038 127.772 17.5898 128.137 17.5898H140.988C141.216 16.7695 141.478 16.0176 141.774 15.334C142.093 14.6504 142.447 14.0579 142.834 13.5566C143.244 13.0553 143.688 12.668 144.167 12.3945C144.668 12.0983 145.215 11.9502 145.808 11.9502C146.377 11.9502 146.867 12.0983 147.277 12.3945C147.71 12.668 148.075 13.0553 148.371 13.5566C148.667 14.0579 148.895 14.6504 149.055 15.334C149.237 16.0176 149.374 16.7695 149.465 17.5898H166.931C167.295 17.5898 167.603 17.7038 167.854 17.9316C168.104 18.1367 168.229 18.4215 168.229 18.7861ZM142.492 40.0801C143.176 38.5762 143.791 36.9583 144.338 35.2266C144.908 33.472 145.386 31.7061 145.773 29.9287C146.184 28.1514 146.491 26.4082 146.696 24.6992C146.924 22.9902 147.038 21.418 147.038 19.9824H143.005C142.686 21.3952 142.424 23.1497 142.219 25.2461C142.036 27.3197 141.945 29.849 141.945 32.834C141.945 34.4974 141.991 35.8988 142.082 37.0381C142.173 38.1546 142.31 39.1686 142.492 40.0801ZM145.671 14.5137C145.466 14.5137 145.17 14.7415 144.782 15.1973C144.395 15.6302 144.007 16.4277 143.62 17.5898H146.901C146.787 16.6328 146.617 15.8809 146.389 15.334C146.184 14.7871 145.944 14.5137 145.671 14.5137ZM143.039 42.541V42.5752V42.541ZM160.471 38.9521C160.38 39.5674 160.266 40.1484 160.129 40.6953C159.992 41.2194 159.855 41.6865 159.719 42.0967C159.605 42.484 159.502 42.8031 159.411 43.0537C159.32 43.3044 159.263 43.4411 159.24 43.4639C159.012 43.988 158.614 44.25 158.044 44.25C157.725 44.25 157.429 44.1361 157.155 43.9082C156.882 43.6576 156.745 43.3499 156.745 42.9854C156.745 42.8486 156.768 42.7461 156.813 42.6777C156.859 42.6094 156.927 42.4727 157.019 42.2676C157.11 42.0625 157.224 41.7207 157.36 41.2422C157.497 40.7637 157.668 40.0231 157.873 39.0205C157.486 39.0205 157.087 39.0091 156.677 38.9863C156.267 38.9635 155.891 38.8838 155.549 38.7471C155.184 38.6104 154.888 38.3939 154.66 38.0977C154.432 37.8014 154.318 37.3913 154.318 36.8672C154.318 36.4798 154.432 35.9557 154.66 35.2949C154.865 34.6341 155.15 33.9847 155.515 33.3467C155.879 32.7087 156.289 32.1618 156.745 31.7061C157.201 31.2275 157.657 30.9883 158.112 30.9883C158.636 30.9883 159.058 31.182 159.377 31.5693C159.719 31.9567 159.981 32.4352 160.163 33.0049C160.345 33.5518 160.471 34.1328 160.539 34.748C160.63 35.3633 160.676 35.8988 160.676 36.3545C161.063 36.3545 161.439 36.3545 161.804 36.3545C162.191 36.3317 162.556 36.3203 162.897 36.3203C164.196 36.3203 165.188 36.6051 165.871 37.1748C166.555 37.7445 166.896 38.6787 166.896 39.9775C166.896 40.5016 166.862 41.0485 166.794 41.6182C166.726 42.1878 166.646 42.7803 166.555 43.3955C166.464 43.988 166.384 44.5804 166.315 45.1729C166.247 45.7653 166.213 46.3464 166.213 46.916C166.213 47.7363 166.327 48.4199 166.555 48.9668C166.783 49.4909 167.067 49.9124 167.409 50.2314C167.751 50.5505 168.116 50.7783 168.503 50.915C168.89 51.029 169.243 51.0859 169.562 51.0859C170.542 51.0859 171.465 50.7669 172.331 50.1289C173.197 49.4909 173.994 48.7275 174.724 47.8389C175.453 46.9274 176.102 45.9704 176.672 44.9678C177.264 43.9652 177.754 43.0879 178.142 42.3359C178.256 42.1309 178.415 41.9714 178.62 41.8574C178.825 41.7435 179.042 41.6865 179.27 41.6865C179.68 41.6865 179.999 41.8232 180.227 42.0967C180.454 42.3473 180.568 42.6322 180.568 42.9512C180.568 43.179 180.523 43.3841 180.432 43.5664C179.908 44.5007 179.292 45.5602 178.586 46.7451C177.902 47.9072 177.116 49.001 176.228 50.0264C175.339 51.0518 174.336 51.9176 173.22 52.624C172.126 53.3304 170.918 53.6836 169.597 53.6836C168.776 53.6836 168.002 53.5241 167.272 53.2051C166.543 52.9089 165.905 52.4759 165.358 51.9062C164.834 51.3138 164.413 50.596 164.094 49.7529C163.775 48.887 163.615 47.9186 163.615 46.8477C163.615 45.7083 163.729 44.5804 163.957 43.4639C164.185 42.3245 164.299 41.2422 164.299 40.2168C164.299 39.7839 164.196 39.4648 163.991 39.2598C163.809 39.0319 163.387 38.918 162.727 38.918C162.408 38.918 162.054 38.918 161.667 38.918C161.302 38.918 160.904 38.9294 160.471 38.9521ZM158.181 36.4229C158.181 36.2633 158.169 36.0583 158.146 35.8076C158.146 35.5342 158.124 35.2721 158.078 35.0215C158.055 34.7708 158.01 34.5544 157.941 34.3721C157.896 34.1898 157.839 34.0986 157.771 34.0986C157.702 34.0986 157.611 34.1898 157.497 34.3721C157.406 34.5316 157.303 34.7367 157.189 34.9873C157.076 35.2152 156.973 35.4658 156.882 35.7393C156.791 36.0127 156.722 36.2406 156.677 36.4229H158.181ZM193.898 49.2402C193.329 49.2402 192.827 49.1947 192.395 49.1035C192.053 49.7871 191.643 50.4251 191.164 51.0176C190.686 51.5872 190.127 52.0885 189.489 52.5215C188.874 52.9544 188.179 53.2962 187.404 53.5469C186.63 53.7975 185.786 53.9229 184.875 53.9229C183.804 53.9229 182.824 53.7292 181.936 53.3418C181.047 52.9772 180.272 52.4645 179.611 51.8037C178.951 51.1201 178.438 50.3112 178.073 49.377C177.709 48.4199 177.526 47.3717 177.526 46.2324C177.526 44.7741 177.788 43.5094 178.312 42.4385C178.837 41.3447 179.44 40.4447 180.124 39.7383C180.808 39.0091 181.491 38.4736 182.175 38.1318C182.858 37.7673 183.371 37.585 183.713 37.585C184.1 37.585 184.385 37.6875 184.567 37.8926C184.772 38.0977 184.875 38.3711 184.875 38.7129C184.875 39.1003 184.75 39.3965 184.499 39.6016C184.271 39.7839 183.975 39.9661 183.61 40.1484C183.246 40.3307 182.858 40.5928 182.448 40.9346C182.038 41.2536 181.651 41.6637 181.286 42.165C180.944 42.6663 180.66 43.2588 180.432 43.9424C180.204 44.626 180.09 45.3893 180.09 46.2324C180.09 46.9844 180.204 47.6908 180.432 48.3516C180.66 48.9896 180.99 49.5479 181.423 50.0264C181.856 50.4821 182.368 50.8467 182.961 51.1201C183.553 51.3708 184.214 51.4961 184.943 51.4961C186.242 51.4961 187.313 51.1999 188.156 50.6074C189.022 49.9922 189.683 49.2174 190.139 48.2832C188.794 47.5768 187.689 46.5742 186.823 45.2754C185.957 43.9766 185.524 42.5182 185.524 40.9004C185.524 39.6016 185.832 38.542 186.447 37.7217C187.085 36.9014 187.917 36.4912 188.942 36.4912C189.558 36.4912 190.139 36.6393 190.686 36.9355C191.232 37.2318 191.711 37.6989 192.121 38.3369C192.554 38.9749 192.896 39.7952 193.146 40.7979C193.397 41.8005 193.522 42.9967 193.522 44.3867C193.522 45.1159 193.431 45.8792 193.249 46.6768C193.386 46.6995 193.522 46.7109 193.659 46.7109C193.796 46.7109 193.944 46.7109 194.104 46.7109C194.878 46.7109 195.573 46.6198 196.188 46.4375C196.804 46.2552 197.362 45.9818 197.863 45.6172C198.365 45.2526 198.809 44.7855 199.196 44.2158C199.606 43.6462 199.994 42.9854 200.358 42.2334C200.427 42.0967 200.575 41.9714 200.803 41.8574C201.031 41.7207 201.258 41.6523 201.486 41.6523C201.783 41.6523 202.056 41.7777 202.307 42.0283C202.58 42.2562 202.717 42.5638 202.717 42.9512C202.717 43.1335 202.671 43.3385 202.58 43.5664C202.489 43.7715 202.398 43.9652 202.307 44.1475C201.919 44.8311 201.464 45.4919 200.939 46.1299C200.438 46.7451 199.834 47.292 199.128 47.7705C198.444 48.2262 197.67 48.5908 196.804 48.8643C195.938 49.1377 194.969 49.263 193.898 49.2402ZM188.054 40.627C188.054 41.0599 188.111 41.5156 188.225 41.9941C188.339 42.4727 188.509 42.9512 188.737 43.4297C188.988 43.8854 189.284 44.3298 189.626 44.7627C189.991 45.1729 190.412 45.526 190.891 45.8223C190.959 45.3438 190.993 44.8766 190.993 44.4209C190.993 43.8057 190.948 43.179 190.856 42.541C190.765 41.903 190.629 41.3219 190.446 40.7979C190.287 40.251 190.082 39.818 189.831 39.499C189.58 39.1572 189.284 38.9863 188.942 38.9863C188.806 38.9863 188.623 39.0889 188.396 39.2939C188.168 39.499 188.054 39.9434 188.054 40.627ZM204.084 40.3535C203.947 40.7181 203.776 41.1283 203.571 41.584C203.389 42.0397 203.173 42.5182 202.922 43.0195C202.717 43.4069 202.5 43.7145 202.272 43.9424C202.067 44.1475 201.794 44.25 201.452 44.25C201.065 44.25 200.757 44.1361 200.529 43.9082C200.301 43.6576 200.188 43.3727 200.188 43.0537C200.188 42.9398 200.199 42.8486 200.222 42.7803C200.244 42.6891 200.301 42.5524 200.393 42.3701C200.985 41.2308 201.418 40.2396 201.691 39.3965C201.988 38.5306 202.227 37.6305 202.409 36.6963C202.25 36.1722 202.136 35.7279 202.067 35.3633C201.999 34.9987 201.965 34.6227 201.965 34.2354C201.965 33.4834 202.124 32.8796 202.443 32.4238C202.762 31.9453 203.207 31.7061 203.776 31.7061C204.3 31.7061 204.711 31.9339 205.007 32.3896C205.326 32.8454 205.485 33.4036 205.485 34.0645C205.485 34.429 205.451 34.7936 205.383 35.1582C205.314 35.5228 205.223 35.9785 205.109 36.5254C205.633 37.8242 206.158 38.9749 206.682 39.9775C207.206 40.9801 207.673 41.903 208.083 42.7461C208.493 43.5664 208.824 44.3411 209.074 45.0703C209.348 45.7995 209.484 46.5286 209.484 47.2578C209.484 48.2148 209.291 49.1263 208.903 49.9922C208.516 50.8581 207.878 51.5872 206.989 52.1797C207.103 52.2025 207.217 52.2139 207.331 52.2139C207.445 52.2139 207.559 52.2139 207.673 52.2139C208.972 52.2139 210.168 51.9176 211.262 51.3252C212.355 50.7327 213.335 49.9694 214.201 49.0352C215.09 48.0781 215.876 47.0299 216.56 45.8906C217.243 44.7285 217.836 43.5778 218.337 42.4385C218.565 41.9144 218.884 41.6523 219.294 41.6523C219.681 41.6523 219.978 41.7891 220.183 42.0625C220.41 42.3359 220.524 42.6322 220.524 42.9512C220.524 43.1335 220.49 43.3044 220.422 43.4639C220.171 44.0791 219.841 44.7855 219.431 45.583C219.043 46.3577 218.565 47.1667 217.995 48.0098C217.448 48.8301 216.81 49.639 216.081 50.4365C215.352 51.234 214.532 51.9518 213.62 52.5898C212.731 53.2051 211.752 53.695 210.681 54.0596C209.61 54.4469 208.436 54.6406 207.16 54.6406C205.633 54.6406 204.209 54.3672 202.888 53.8203C201.589 53.2962 200.529 52.4189 199.709 51.1885C199.572 50.9834 199.504 50.7669 199.504 50.5391C199.504 50.1973 199.629 49.901 199.88 49.6504C200.153 49.377 200.461 49.2402 200.803 49.2402C201.167 49.2402 201.475 49.3656 201.726 49.6162C201.748 49.6618 201.828 49.7415 201.965 49.8555C202.102 49.9466 202.261 50.0605 202.443 50.1973C202.648 50.3112 202.876 50.4137 203.127 50.5049C203.4 50.596 203.674 50.6416 203.947 50.6416C204.494 50.6416 204.95 50.5277 205.314 50.2998C205.702 50.0719 206.009 49.7985 206.237 49.4795C206.465 49.1377 206.625 48.7845 206.716 48.4199C206.83 48.0326 206.887 47.7021 206.887 47.4287C206.887 46.859 206.796 46.2894 206.613 45.7197C206.431 45.1501 206.192 44.5804 205.896 44.0107C205.622 43.4411 205.314 42.86 204.973 42.2676C204.654 41.6523 204.357 41.0143 204.084 40.3535ZM261.13 18.7861C261.13 19.1507 261.005 19.4469 260.754 19.6748C260.503 19.8799 260.196 19.9824 259.831 19.9824H242.502V20.3584C242.502 21.7484 242.399 23.2295 242.194 24.8018C241.989 26.374 241.704 27.9463 241.34 29.5186C240.998 31.068 240.599 32.5833 240.144 34.0645C239.711 35.5456 239.255 36.9128 238.776 38.166C238.321 39.4193 237.865 40.513 237.409 41.4473C236.953 42.3587 236.543 43.0423 236.179 43.498C236.475 44.5462 236.828 45.526 237.238 46.4375C237.648 47.3262 238.104 48.1123 238.605 48.7959C239.13 49.4567 239.688 49.9808 240.28 50.3682C240.873 50.7555 241.511 50.9492 242.194 50.9492C242.992 50.9492 243.778 50.6188 244.553 49.958C245.35 49.2744 246.079 48.4769 246.74 47.5654C247.424 46.6312 248.016 45.6969 248.518 44.7627C249.042 43.8057 249.418 43.0423 249.646 42.4727C249.873 41.9258 250.272 41.6523 250.842 41.6523C251.229 41.6523 251.537 41.7891 251.765 42.0625C252.015 42.3359 252.141 42.6322 252.141 42.9512C252.141 43.1107 252.106 43.2702 252.038 43.4297C251.97 43.5892 251.799 43.9538 251.525 44.5234C251.275 45.0931 250.933 45.7539 250.5 46.5059C250.09 47.2578 249.6 48.0553 249.03 48.8984C248.483 49.7188 247.857 50.4707 247.15 51.1543C246.467 51.8379 245.726 52.4076 244.929 52.8633C244.131 53.319 243.288 53.5469 242.399 53.5469C240.827 53.5469 239.414 53.0342 238.161 52.0088C236.908 50.9834 235.837 49.5479 234.948 47.7021C234.082 45.8564 233.422 43.6689 232.966 41.1396C232.51 38.6104 232.282 35.8418 232.282 32.834C232.282 32.082 232.294 31.2048 232.316 30.2021C232.339 29.1768 232.385 28.1058 232.453 26.9893C232.521 25.8499 232.624 24.6878 232.761 23.5029C232.897 22.2952 233.08 21.1217 233.308 19.9824H221.037C220.673 19.9824 220.365 19.8799 220.114 19.6748C219.864 19.4469 219.738 19.1507 219.738 18.7861C219.738 18.4215 219.864 18.1367 220.114 17.9316C220.365 17.7038 220.673 17.5898 221.037 17.5898H233.889C234.117 16.7695 234.379 16.0176 234.675 15.334C234.994 14.6504 235.347 14.0579 235.734 13.5566C236.145 13.0553 236.589 12.668 237.067 12.3945C237.569 12.0983 238.116 11.9502 238.708 11.9502C239.278 11.9502 239.768 12.0983 240.178 12.3945C240.611 12.668 240.975 13.0553 241.271 13.5566C241.568 14.0579 241.796 14.6504 241.955 15.334C242.137 16.0176 242.274 16.7695 242.365 17.5898H259.831C260.196 17.5898 260.503 17.7038 260.754 17.9316C261.005 18.1367 261.13 18.4215 261.13 18.7861ZM235.393 40.0801C236.076 38.5762 236.691 36.9583 237.238 35.2266C237.808 33.472 238.286 31.7061 238.674 29.9287C239.084 28.1514 239.392 26.4082 239.597 24.6992C239.825 22.9902 239.938 21.418 239.938 19.9824H235.905C235.586 21.3952 235.324 23.1497 235.119 25.2461C234.937 27.3197 234.846 29.849 234.846 32.834C234.846 34.4974 234.891 35.8988 234.982 37.0381C235.074 38.1546 235.21 39.1686 235.393 40.0801ZM238.571 14.5137C238.366 14.5137 238.07 14.7415 237.683 15.1973C237.295 15.6302 236.908 16.4277 236.521 17.5898H239.802C239.688 16.6328 239.517 15.8809 239.289 15.334C239.084 14.7871 238.845 14.5137 238.571 14.5137ZM235.939 42.541V42.5752V42.541ZM253.371 38.9521C253.28 39.5674 253.166 40.1484 253.029 40.6953C252.893 41.2194 252.756 41.6865 252.619 42.0967C252.505 42.484 252.403 42.8031 252.312 43.0537C252.22 43.3044 252.163 43.4411 252.141 43.4639C251.913 43.988 251.514 44.25 250.944 44.25C250.625 44.25 250.329 44.1361 250.056 43.9082C249.782 43.6576 249.646 43.3499 249.646 42.9854C249.646 42.8486 249.668 42.7461 249.714 42.6777C249.759 42.6094 249.828 42.4727 249.919 42.2676C250.01 42.0625 250.124 41.7207 250.261 41.2422C250.397 40.7637 250.568 40.0231 250.773 39.0205C250.386 39.0205 249.987 39.0091 249.577 38.9863C249.167 38.9635 248.791 38.8838 248.449 38.7471C248.085 38.6104 247.788 38.3939 247.561 38.0977C247.333 37.8014 247.219 37.3913 247.219 36.8672C247.219 36.4798 247.333 35.9557 247.561 35.2949C247.766 34.6341 248.05 33.9847 248.415 33.3467C248.78 32.7087 249.19 32.1618 249.646 31.7061C250.101 31.2275 250.557 30.9883 251.013 30.9883C251.537 30.9883 251.958 31.182 252.277 31.5693C252.619 31.9567 252.881 32.4352 253.063 33.0049C253.246 33.5518 253.371 34.1328 253.439 34.748C253.531 35.3633 253.576 35.8988 253.576 36.3545C253.964 36.3545 254.34 36.3545 254.704 36.3545C255.091 36.3317 255.456 36.3203 255.798 36.3203C257.097 36.3203 258.088 36.6051 258.771 37.1748C259.455 37.7445 259.797 38.6787 259.797 39.9775C259.797 40.5016 259.763 41.0485 259.694 41.6182C259.626 42.1878 259.546 42.7803 259.455 43.3955C259.364 43.988 259.284 44.5804 259.216 45.1729C259.147 45.7653 259.113 46.3464 259.113 46.916C259.113 47.7363 259.227 48.4199 259.455 48.9668C259.683 49.4909 259.968 49.9124 260.31 50.2314C260.651 50.5505 261.016 50.7783 261.403 50.915C261.791 51.029 262.144 51.0859 262.463 51.0859C263.443 51.0859 264.366 50.7669 265.231 50.1289C266.097 49.4909 266.895 48.7275 267.624 47.8389C268.353 46.9274 269.003 45.9704 269.572 44.9678C270.165 43.9652 270.655 43.0879 271.042 42.3359C271.156 42.1309 271.315 41.9714 271.521 41.8574C271.726 41.7435 271.942 41.6865 272.17 41.6865C272.58 41.6865 272.899 41.8232 273.127 42.0967C273.355 42.3473 273.469 42.6322 273.469 42.9512C273.469 43.179 273.423 43.3841 273.332 43.5664C272.808 44.5007 272.193 45.5602 271.486 46.7451C270.803 47.9072 270.017 49.001 269.128 50.0264C268.239 51.0518 267.237 51.9176 266.12 52.624C265.026 53.3304 263.819 53.6836 262.497 53.6836C261.677 53.6836 260.902 53.5241 260.173 53.2051C259.444 52.9089 258.806 52.4759 258.259 51.9062C257.735 51.3138 257.313 50.596 256.994 49.7529C256.675 48.887 256.516 47.9186 256.516 46.8477C256.516 45.7083 256.63 44.5804 256.857 43.4639C257.085 42.3245 257.199 41.2422 257.199 40.2168C257.199 39.7839 257.097 39.4648 256.892 39.2598C256.709 39.0319 256.288 38.918 255.627 38.918C255.308 38.918 254.955 38.918 254.567 38.918C254.203 38.918 253.804 38.9294 253.371 38.9521ZM251.081 36.4229C251.081 36.2633 251.07 36.0583 251.047 35.8076C251.047 35.5342 251.024 35.2721 250.979 35.0215C250.956 34.7708 250.91 34.5544 250.842 34.3721C250.796 34.1898 250.739 34.0986 250.671 34.0986C250.603 34.0986 250.511 34.1898 250.397 34.3721C250.306 34.5316 250.204 34.7367 250.09 34.9873C249.976 35.2152 249.873 35.4658 249.782 35.7393C249.691 36.0127 249.623 36.2406 249.577 36.4229H251.081ZM297.463 43.4639C297.372 43.6462 297.178 44.0335 296.882 44.626C296.608 45.1956 296.244 45.8564 295.788 46.6084C295.355 47.3604 294.842 48.1465 294.25 48.9668C293.658 49.7871 292.997 50.5391 292.268 51.2227C291.538 51.9062 290.752 52.4759 289.909 52.9316C289.066 53.3646 288.177 53.5811 287.243 53.5811C285.922 53.5811 284.805 53.1595 283.894 52.3164C283.005 51.4733 282.355 50.4137 281.945 49.1377C281.171 50.4365 280.248 51.4733 279.177 52.248C278.106 53 277.035 53.376 275.964 53.376C275.121 53.376 274.357 53.2279 273.674 52.9316C272.99 52.6126 272.409 52.1797 271.931 51.6328C271.452 51.0632 271.076 50.4023 270.803 49.6504C270.552 48.8984 270.427 48.0781 270.427 47.1895C270.427 45.4121 270.723 43.8512 271.315 42.5068C271.931 41.1396 272.705 40.0003 273.64 39.0889C274.574 38.1774 275.599 37.4938 276.716 37.0381C277.855 36.5824 278.949 36.3545 279.997 36.3545C280.703 36.3545 281.353 36.457 281.945 36.6621C282.538 36.8444 283.039 37.0495 283.449 37.2773C283.882 37.5052 284.213 37.7217 284.44 37.9268C284.668 38.109 284.794 38.2116 284.816 38.2344C285.067 38.5306 285.192 38.8382 285.192 39.1572C285.192 39.499 285.067 39.8066 284.816 40.0801C284.566 40.3307 284.27 40.4561 283.928 40.4561C283.563 40.4561 283.256 40.3307 283.005 40.0801C282.959 40.0345 282.857 39.9548 282.697 39.8408C282.538 39.7041 282.321 39.5674 282.048 39.4307C281.774 39.2939 281.444 39.18 281.057 39.0889C280.692 38.9749 280.271 38.918 279.792 38.918C279.086 38.918 278.334 39.0775 277.536 39.3965C276.739 39.7155 276.009 40.2168 275.349 40.9004C274.688 41.5612 274.13 42.4043 273.674 43.4297C273.241 44.4323 273.024 45.6286 273.024 47.0186C273.024 47.4515 273.07 47.8958 273.161 48.3516C273.252 48.7845 273.412 49.1833 273.64 49.5479C273.868 49.9124 274.175 50.2087 274.562 50.4365C274.95 50.6644 275.428 50.7783 275.998 50.7783C276.408 50.7783 276.875 50.6416 277.399 50.3682C277.946 50.0947 278.459 49.6732 278.938 49.1035C279.439 48.5339 279.883 47.8161 280.271 46.9502C280.681 46.0843 280.965 45.0589 281.125 43.874C281.171 43.555 281.319 43.293 281.569 43.0879C281.82 42.86 282.116 42.7461 282.458 42.7461C282.777 42.7461 283.05 42.8714 283.278 43.1221C283.529 43.3727 283.666 43.6576 283.688 43.9766C283.711 44.4095 283.757 45.0247 283.825 45.8223C283.894 46.597 284.042 47.3717 284.27 48.1465C284.52 48.9212 284.885 49.5934 285.363 50.1631C285.842 50.7327 286.503 51.0176 287.346 51.0176C287.893 51.0176 288.428 50.8695 288.952 50.5732C289.499 50.277 290.023 49.8896 290.524 49.4111C291.049 48.9098 291.538 48.3516 291.994 47.7363C292.473 47.0983 292.906 46.4603 293.293 45.8223C293.68 45.1842 294.022 44.569 294.318 43.9766C294.615 43.3841 294.865 42.8714 295.07 42.4385C295.184 42.1878 295.344 41.9941 295.549 41.8574C295.777 41.7207 296.016 41.6523 296.267 41.6523C296.654 41.6523 296.962 41.8005 297.189 42.0967C297.44 42.3701 297.565 42.6663 297.565 42.9854C297.565 43.1449 297.531 43.3044 297.463 43.4639ZM323.918 43.5322C323.85 43.6689 323.701 43.9538 323.474 44.3867C323.246 44.7969 322.95 45.2868 322.585 45.8564C322.22 46.4033 321.787 46.9958 321.286 47.6338C320.785 48.249 320.238 48.8187 319.646 49.3428C319.053 49.8669 318.415 50.2998 317.731 50.6416C317.048 50.9834 316.341 51.1543 315.612 51.1543C314.427 51.1543 313.425 50.9492 312.604 50.5391C311.784 50.1061 311.112 49.6276 310.588 49.1035C310.223 49.901 309.779 50.6302 309.255 51.291C308.731 51.9518 308.15 52.5215 307.512 53C306.874 53.5013 306.19 53.8887 305.461 54.1621C304.755 54.4355 304.025 54.5723 303.273 54.5723C301.883 54.5723 300.699 54.1621 299.719 53.3418C298.739 52.5215 297.919 51.4277 297.258 50.0605C296.62 48.6706 296.118 47.0641 295.754 45.2412C295.389 43.4183 295.104 41.5042 294.899 39.499C294.717 37.4938 294.603 35.4658 294.558 33.415C294.512 31.3643 294.489 29.416 294.489 27.5703C294.489 24.0384 294.592 20.985 294.797 18.4102C295.002 15.8125 295.275 13.6136 295.617 11.8135C295.982 9.99056 296.392 8.52083 296.848 7.4043C297.326 6.26497 297.827 5.3877 298.352 4.77246C298.876 4.13444 299.411 3.7015 299.958 3.47363C300.505 3.24577 301.04 3.13184 301.564 3.13184C302.408 3.13184 303.148 3.38249 303.786 3.88379C304.447 4.38509 304.994 5.09147 305.427 6.00293C305.882 6.8916 306.224 7.97396 306.452 9.25C306.68 10.526 306.794 11.9274 306.794 13.4541C306.794 15.8923 306.532 18.4102 306.008 21.0078C305.484 23.6055 304.8 26.2031 303.957 28.8008C303.137 31.3757 302.214 33.9163 301.188 36.4229C300.163 38.9066 299.149 41.265 298.146 43.498C298.283 44.6146 298.488 45.6855 298.762 46.7109C299.035 47.7135 299.388 48.6136 299.821 49.4111C300.254 50.1859 300.767 50.8125 301.359 51.291C301.952 51.7467 302.635 51.9746 303.41 51.9746C304.185 51.9746 304.914 51.7581 305.598 51.3252C306.281 50.8695 306.874 50.2884 307.375 49.582C307.876 48.8529 308.264 48.0326 308.537 47.1211C308.833 46.2096 308.981 45.2754 308.981 44.3184C308.981 43.6803 308.913 43.0423 308.776 42.4043C308.662 41.7435 308.469 41.1624 308.195 40.6611C307.945 40.137 307.626 39.7155 307.238 39.3965C306.851 39.0775 306.384 38.918 305.837 38.918C305.427 38.918 305.108 39.0091 304.88 39.1914C304.652 39.3509 304.481 39.5446 304.367 39.7725C304.253 39.9775 304.185 40.1826 304.162 40.3877C304.139 40.5928 304.128 40.7295 304.128 40.7979C304.128 41.1169 304.196 41.4359 304.333 41.7549C304.47 42.0739 304.732 42.3587 305.119 42.6094C305.507 42.8828 305.7 43.2588 305.7 43.7373C305.7 44.1247 305.563 44.4323 305.29 44.6602C305.039 44.888 304.755 45.002 304.436 45.002C303.98 45.002 303.57 44.8652 303.205 44.5918C302.863 44.3184 302.567 43.9766 302.316 43.5664C302.066 43.1335 301.872 42.6777 301.735 42.1992C301.599 41.7207 301.53 41.2764 301.53 40.8662C301.53 40.2054 301.644 39.6016 301.872 39.0547C302.1 38.485 302.408 38.0065 302.795 37.6191C303.205 37.209 303.661 36.9014 304.162 36.6963C304.686 36.4684 305.233 36.3545 305.803 36.3545C306.783 36.3545 307.626 36.5824 308.332 37.0381C309.061 37.4938 309.665 38.0977 310.144 38.8496C310.622 39.6016 310.975 40.4561 311.203 41.4131C311.431 42.3701 311.545 43.3385 311.545 44.3184C311.545 44.888 311.511 45.4463 311.442 45.9932C311.534 46.1755 311.682 46.4147 311.887 46.7109C312.092 47.0072 312.365 47.292 312.707 47.5654C313.049 47.8389 313.459 48.0781 313.938 48.2832C314.416 48.4883 314.974 48.5908 315.612 48.5908C316.159 48.5908 316.717 48.3857 317.287 47.9756C317.88 47.5426 318.438 47.0186 318.962 46.4033C319.509 45.7653 320.01 45.0931 320.466 44.3867C320.922 43.6576 321.298 42.9854 321.594 42.3701C321.708 42.1423 321.867 41.9714 322.072 41.8574C322.277 41.7207 322.505 41.6523 322.756 41.6523C323.143 41.6523 323.451 41.7891 323.679 42.0625C323.929 42.3359 324.055 42.6436 324.055 42.9854C324.055 43.1221 324.009 43.3044 323.918 43.5322ZM297.497 39.123C298.272 37.209 299.058 35.2038 299.855 33.1074C300.653 30.9883 301.371 28.835 302.009 26.6475C302.647 24.46 303.171 22.2497 303.581 20.0166C303.991 17.7835 304.196 15.5846 304.196 13.4199C304.196 12.5996 304.151 11.7451 304.06 10.8564C303.991 9.94499 303.854 9.11328 303.649 8.36133C303.444 7.60938 303.16 6.98275 302.795 6.48145C302.453 5.98014 302.009 5.72949 301.462 5.72949C301.28 5.72949 301.04 5.85482 300.744 6.10547C300.471 6.33333 300.174 6.75488 299.855 7.37012C299.536 7.96257 299.217 8.79427 298.898 9.86523C298.579 10.9362 298.283 12.3034 298.01 13.9668C297.759 15.6074 297.543 17.5898 297.36 19.9141C297.201 22.2383 297.121 24.9727 297.121 28.1172C297.121 29.1654 297.132 30.2363 297.155 31.3301C297.178 32.401 297.201 33.4264 297.224 34.4062C297.269 35.3861 297.315 36.2861 297.36 37.1064C297.406 37.9268 297.451 38.599 297.497 39.123ZM348.049 43.4639C347.958 43.6462 347.764 44.0335 347.468 44.626C347.194 45.1956 346.83 45.8564 346.374 46.6084C345.941 47.3604 345.428 48.1465 344.836 48.9668C344.243 49.7871 343.583 50.5391 342.854 51.2227C342.124 51.9062 341.338 52.4759 340.495 52.9316C339.652 53.3646 338.763 53.5811 337.829 53.5811C336.507 53.5811 335.391 53.1595 334.479 52.3164C333.591 51.4733 332.941 50.4137 332.531 49.1377C331.757 50.4365 330.834 51.4733 329.763 52.248C328.692 53 327.621 53.376 326.55 53.376C325.707 53.376 324.943 53.2279 324.26 52.9316C323.576 52.6126 322.995 52.1797 322.517 51.6328C322.038 51.0632 321.662 50.4023 321.389 49.6504C321.138 48.8984 321.013 48.0781 321.013 47.1895C321.013 45.4121 321.309 43.8512 321.901 42.5068C322.517 41.1396 323.291 40.0003 324.226 39.0889C325.16 38.1774 326.185 37.4938 327.302 37.0381C328.441 36.5824 329.535 36.3545 330.583 36.3545C331.289 36.3545 331.939 36.457 332.531 36.6621C333.124 36.8444 333.625 37.0495 334.035 37.2773C334.468 37.5052 334.799 37.7217 335.026 37.9268C335.254 38.109 335.38 38.2116 335.402 38.2344C335.653 38.5306 335.778 38.8382 335.778 39.1572C335.778 39.499 335.653 39.8066 335.402 40.0801C335.152 40.3307 334.855 40.4561 334.514 40.4561C334.149 40.4561 333.841 40.3307 333.591 40.0801C333.545 40.0345 333.443 39.9548 333.283 39.8408C333.124 39.7041 332.907 39.5674 332.634 39.4307C332.36 39.2939 332.03 39.18 331.643 39.0889C331.278 38.9749 330.856 38.918 330.378 38.918C329.672 38.918 328.92 39.0775 328.122 39.3965C327.325 39.7155 326.595 40.2168 325.935 40.9004C325.274 41.5612 324.715 42.4043 324.26 43.4297C323.827 44.4323 323.61 45.6286 323.61 47.0186C323.61 47.4515 323.656 47.8958 323.747 48.3516C323.838 48.7845 323.998 49.1833 324.226 49.5479C324.453 49.9124 324.761 50.2087 325.148 50.4365C325.536 50.6644 326.014 50.7783 326.584 50.7783C326.994 50.7783 327.461 50.6416 327.985 50.3682C328.532 50.0947 329.045 49.6732 329.523 49.1035C330.025 48.5339 330.469 47.8161 330.856 46.9502C331.267 46.0843 331.551 45.0589 331.711 43.874C331.757 43.555 331.905 43.293 332.155 43.0879C332.406 42.86 332.702 42.7461 333.044 42.7461C333.363 42.7461 333.636 42.8714 333.864 43.1221C334.115 43.3727 334.252 43.6576 334.274 43.9766C334.297 44.4095 334.343 45.0247 334.411 45.8223C334.479 46.597 334.628 47.3717 334.855 48.1465C335.106 48.9212 335.471 49.5934 335.949 50.1631C336.428 50.7327 337.089 51.0176 337.932 51.0176C338.479 51.0176 339.014 50.8695 339.538 50.5732C340.085 50.277 340.609 49.8896 341.11 49.4111C341.634 48.9098 342.124 48.3516 342.58 47.7363C343.059 47.0983 343.492 46.4603 343.879 45.8223C344.266 45.1842 344.608 44.569 344.904 43.9766C345.201 43.3841 345.451 42.8714 345.656 42.4385C345.77 42.1878 345.93 41.9941 346.135 41.8574C346.363 41.7207 346.602 41.6523 346.853 41.6523C347.24 41.6523 347.548 41.8005 347.775 42.0967C348.026 42.3701 348.151 42.6663 348.151 42.9854C348.151 43.1449 348.117 43.3044 348.049 43.4639ZM351.569 26.1689C351.569 27.0348 351.262 27.7754 350.646 28.3906C350.054 28.9831 349.325 29.2793 348.459 29.2793C347.593 29.2793 346.853 28.9831 346.237 28.3906C345.645 27.7754 345.349 27.0348 345.349 26.1689C345.349 25.736 345.428 25.3372 345.588 24.9727C345.747 24.5853 345.964 24.2549 346.237 23.9814C346.534 23.6852 346.864 23.4574 347.229 23.2979C347.616 23.1383 348.026 23.0586 348.459 23.0586C348.892 23.0586 349.291 23.1383 349.655 23.2979C350.043 23.4574 350.373 23.6852 350.646 23.9814C350.943 24.2549 351.171 24.5853 351.33 24.9727C351.49 25.3372 351.569 25.736 351.569 26.1689ZM348.288 54.1963C349.131 53.2848 349.997 52.3278 350.886 51.3252C351.774 50.2998 352.629 49.2858 353.449 48.2832C354.27 47.2578 355.021 46.2552 355.705 45.2754C356.389 44.2728 356.924 43.3271 357.312 42.4385C357.517 41.9372 357.904 41.6865 358.474 41.6865C358.861 41.6865 359.169 41.8232 359.396 42.0967C359.647 42.3473 359.772 42.6322 359.772 42.9512C359.772 43.1335 359.738 43.3044 359.67 43.4639C359.146 44.6488 358.428 45.8792 357.517 47.1553C356.605 48.4313 355.614 49.7074 354.543 50.9834C353.495 52.2367 352.412 53.4557 351.296 54.6406C350.202 55.8483 349.2 56.9648 348.288 57.9902C348.311 59.8132 348.334 61.6019 348.356 63.3564C348.402 65.111 348.425 66.7744 348.425 68.3467C348.425 74.613 347.81 79.2614 346.579 82.292C345.349 85.3226 343.514 86.8379 341.076 86.8379C340.233 86.8379 339.458 86.6556 338.752 86.291C338.046 85.9264 337.442 85.4023 336.94 84.7188C336.439 84.0352 336.052 83.1921 335.778 82.1895C335.482 81.1868 335.334 80.0475 335.334 78.7715C335.334 77.3587 335.528 75.8092 335.915 74.123C336.28 72.4596 336.883 70.6937 337.727 68.8252C338.547 66.9567 339.618 65.0199 340.939 63.0146C342.261 61.0322 343.856 59.0156 345.725 56.9648C345.725 55.0052 345.736 53.057 345.759 51.1201C345.782 49.1605 345.816 47.292 345.861 45.5146C345.93 43.7145 346.009 42.0397 346.101 40.4902C346.215 38.918 346.34 37.528 346.477 36.3203C346.522 35.9785 346.659 35.7051 346.887 35.5C347.137 35.2949 347.434 35.1924 347.775 35.1924C348.117 35.1924 348.413 35.3177 348.664 35.5684C348.915 35.819 349.04 36.1266 349.04 36.4912C349.04 36.6279 348.994 37.0723 348.903 37.8242C348.835 38.5762 348.755 39.6813 348.664 41.1396C348.573 42.598 348.482 44.4095 348.391 46.5742C348.322 48.7161 348.288 51.2568 348.288 54.1963ZM349.621 26.1689C349.621 25.8499 349.507 25.5765 349.279 25.3486C349.051 25.098 348.778 24.9727 348.459 24.9727C348.14 24.9727 347.855 25.098 347.604 25.3486C347.377 25.5765 347.263 25.8499 347.263 26.1689C347.263 26.488 347.377 26.7614 347.604 26.9893C347.855 27.2171 348.14 27.3311 348.459 27.3311C348.778 27.3311 349.051 27.2171 349.279 26.9893C349.507 26.7614 349.621 26.488 349.621 26.1689ZM345.861 68.1416C345.861 66.9795 345.85 65.8174 345.827 64.6553C345.804 63.4932 345.782 62.2285 345.759 60.8613C344.346 62.5703 343.15 64.2565 342.17 65.9199C341.167 67.5833 340.347 69.1784 339.709 70.7051C339.071 72.2318 338.615 73.6787 338.342 75.0459C338.046 76.4131 337.897 77.6549 337.897 78.7715C337.897 79.4095 337.943 80.0475 338.034 80.6855C338.125 81.3464 338.296 81.9388 338.547 82.4629C338.775 83.0098 339.094 83.4427 339.504 83.7617C339.914 84.1035 340.438 84.2744 341.076 84.2744C341.327 84.2744 341.623 84.2174 341.965 84.1035C342.307 83.9896 342.66 83.7389 343.024 83.3516C343.366 82.987 343.708 82.4515 344.05 81.7451C344.392 81.0387 344.699 80.0817 344.973 78.874C345.246 77.6891 345.463 76.2194 345.622 74.4648C345.782 72.7103 345.861 70.6025 345.861 68.1416ZM373.068 49.2402C372.499 49.2402 371.997 49.1947 371.564 49.1035C371.223 49.7871 370.812 50.4251 370.334 51.0176C369.855 51.5872 369.297 52.0885 368.659 52.5215C368.044 52.9544 367.349 53.2962 366.574 53.5469C365.799 53.7975 364.956 53.9229 364.045 53.9229C362.974 53.9229 361.994 53.7292 361.105 53.3418C360.217 52.9772 359.442 52.4645 358.781 51.8037C358.12 51.1201 357.608 50.3112 357.243 49.377C356.879 48.4199 356.696 47.3717 356.696 46.2324C356.696 44.7741 356.958 43.5094 357.482 42.4385C358.007 41.3447 358.61 40.4447 359.294 39.7383C359.978 39.0091 360.661 38.4736 361.345 38.1318C362.028 37.7673 362.541 37.585 362.883 37.585C363.27 37.585 363.555 37.6875 363.737 37.8926C363.942 38.0977 364.045 38.3711 364.045 38.7129C364.045 39.1003 363.92 39.3965 363.669 39.6016C363.441 39.7839 363.145 39.9661 362.78 40.1484C362.416 40.3307 362.028 40.5928 361.618 40.9346C361.208 41.2536 360.821 41.6637 360.456 42.165C360.114 42.6663 359.829 43.2588 359.602 43.9424C359.374 44.626 359.26 45.3893 359.26 46.2324C359.26 46.9844 359.374 47.6908 359.602 48.3516C359.829 48.9896 360.16 49.5479 360.593 50.0264C361.026 50.4821 361.538 50.8467 362.131 51.1201C362.723 51.3708 363.384 51.4961 364.113 51.4961C365.412 51.4961 366.483 51.1999 367.326 50.6074C368.192 49.9922 368.853 49.2174 369.309 48.2832C367.964 47.5768 366.859 46.5742 365.993 45.2754C365.127 43.9766 364.694 42.5182 364.694 40.9004C364.694 39.6016 365.002 38.542 365.617 37.7217C366.255 36.9014 367.087 36.4912 368.112 36.4912C368.728 36.4912 369.309 36.6393 369.855 36.9355C370.402 37.2318 370.881 37.6989 371.291 38.3369C371.724 38.9749 372.066 39.7952 372.316 40.7979C372.567 41.8005 372.692 42.9967 372.692 44.3867C372.692 45.1159 372.601 45.8792 372.419 46.6768C372.556 46.6995 372.692 46.7109 372.829 46.7109C372.966 46.7109 373.114 46.7109 373.273 46.7109C374.048 46.7109 374.743 46.6198 375.358 46.4375C375.974 46.2552 376.532 45.9818 377.033 45.6172C377.535 45.2526 377.979 44.7855 378.366 44.2158C378.776 43.6462 379.164 42.9854 379.528 42.2334C379.597 42.0967 379.745 41.9714 379.973 41.8574C380.201 41.7207 380.428 41.6523 380.656 41.6523C380.952 41.6523 381.226 41.7777 381.477 42.0283C381.75 42.2562 381.887 42.5638 381.887 42.9512C381.887 43.1335 381.841 43.3385 381.75 43.5664C381.659 43.7715 381.568 43.9652 381.477 44.1475C381.089 44.8311 380.633 45.4919 380.109 46.1299C379.608 46.7451 379.004 47.292 378.298 47.7705C377.614 48.2262 376.84 48.5908 375.974 48.8643C375.108 49.1377 374.139 49.263 373.068 49.2402ZM367.224 40.627C367.224 41.0599 367.281 41.5156 367.395 41.9941C367.508 42.4727 367.679 42.9512 367.907 43.4297C368.158 43.8854 368.454 44.3298 368.796 44.7627C369.16 45.1729 369.582 45.526 370.061 45.8223C370.129 45.3438 370.163 44.8766 370.163 44.4209C370.163 43.8057 370.118 43.179 370.026 42.541C369.935 41.903 369.799 41.3219 369.616 40.7979C369.457 40.251 369.252 39.818 369.001 39.499C368.75 39.1572 368.454 38.9863 368.112 38.9863C367.976 38.9863 367.793 39.0889 367.565 39.2939C367.338 39.499 367.224 39.9434 367.224 40.627ZM383.254 40.3535C383.117 40.7181 382.946 41.1283 382.741 41.584C382.559 42.0397 382.342 42.5182 382.092 43.0195C381.887 43.4069 381.67 43.7145 381.442 43.9424C381.237 44.1475 380.964 44.25 380.622 44.25C380.235 44.25 379.927 44.1361 379.699 43.9082C379.471 43.6576 379.357 43.3727 379.357 43.0537C379.357 42.9398 379.369 42.8486 379.392 42.7803C379.414 42.6891 379.471 42.5524 379.562 42.3701C380.155 41.2308 380.588 40.2396 380.861 39.3965C381.158 38.5306 381.397 37.6305 381.579 36.6963C381.42 36.1722 381.306 35.7279 381.237 35.3633C381.169 34.9987 381.135 34.6227 381.135 34.2354C381.135 33.4834 381.294 32.8796 381.613 32.4238C381.932 31.9453 382.377 31.7061 382.946 31.7061C383.47 31.7061 383.881 31.9339 384.177 32.3896C384.496 32.8454 384.655 33.4036 384.655 34.0645C384.655 34.429 384.621 34.7936 384.553 35.1582C384.484 35.5228 384.393 35.9785 384.279 36.5254C384.803 37.8242 385.327 38.9749 385.852 39.9775C386.376 40.9801 386.843 41.903 387.253 42.7461C387.663 43.5664 387.993 44.3411 388.244 45.0703C388.518 45.7995 388.654 46.5286 388.654 47.2578C388.654 48.2148 388.461 49.1263 388.073 49.9922C387.686 50.8581 387.048 51.5872 386.159 52.1797C386.273 52.2025 386.387 52.2139 386.501 52.2139C386.615 52.2139 386.729 52.2139 386.843 52.2139C388.142 52.2139 389.338 51.9176 390.432 51.3252C391.525 50.7327 392.505 49.9694 393.371 49.0352C394.26 48.0781 395.046 47.0299 395.729 45.8906C396.413 44.7285 397.006 43.5778 397.507 42.4385C397.735 41.9144 398.054 41.6523 398.464 41.6523C398.851 41.6523 399.147 41.7891 399.353 42.0625C399.58 42.3359 399.694 42.6322 399.694 42.9512C399.694 43.1335 399.66 43.3044 399.592 43.4639C399.341 44.0791 399.011 44.7855 398.601 45.583C398.213 46.3577 397.735 47.1667 397.165 48.0098C396.618 48.8301 395.98 49.639 395.251 50.4365C394.522 51.234 393.701 51.9518 392.79 52.5898C391.901 53.2051 390.922 53.695 389.851 54.0596C388.78 54.4469 387.606 54.6406 386.33 54.6406C384.803 54.6406 383.379 54.3672 382.058 53.8203C380.759 53.2962 379.699 52.4189 378.879 51.1885C378.742 50.9834 378.674 50.7669 378.674 50.5391C378.674 50.1973 378.799 49.901 379.05 49.6504C379.323 49.377 379.631 49.2402 379.973 49.2402C380.337 49.2402 380.645 49.3656 380.896 49.6162C380.918 49.6618 380.998 49.7415 381.135 49.8555C381.271 49.9466 381.431 50.0605 381.613 50.1973C381.818 50.3112 382.046 50.4137 382.297 50.5049C382.57 50.596 382.844 50.6416 383.117 50.6416C383.664 50.6416 384.12 50.5277 384.484 50.2998C384.872 50.0719 385.179 49.7985 385.407 49.4795C385.635 49.1377 385.795 48.7845 385.886 48.4199C386 48.0326 386.057 47.7021 386.057 47.4287C386.057 46.859 385.965 46.2894 385.783 45.7197C385.601 45.1501 385.362 44.5804 385.065 44.0107C384.792 43.4411 384.484 42.86 384.143 42.2676C383.824 41.6523 383.527 41.0143 383.254 40.3535Z" fill="#322016"/>
<path d="M108.836 82C108.636 82 108.443 81.9533 108.256 81.86C108.083 81.7533 107.996 81.6 107.996 81.4V68.2C107.996 67.8933 108.083 67.68 108.256 67.56C108.443 67.44 108.636 67.38 108.836 67.38C109.05 67.38 109.23 67.42 109.376 67.5C109.536 67.58 109.676 67.7 109.796 67.86C109.93 68.0067 110.056 68.2 110.176 68.44L113.336 74.46L116.496 68.44C116.63 68.2 116.756 68.0067 116.876 67.86C117.01 67.7 117.15 67.58 117.296 67.5C117.456 67.42 117.636 67.38 117.836 67.38C118.063 67.38 118.256 67.44 118.416 67.56C118.59 67.68 118.676 67.8933 118.676 68.2V81.4C118.676 81.6 118.59 81.7533 118.416 81.86C118.243 81.9533 118.05 82 117.836 82C117.623 82 117.43 81.9533 117.256 81.86C117.083 81.7533 116.996 81.6 116.996 81.4V70.9L113.956 76.58C113.863 76.74 113.763 76.86 113.656 76.94C113.55 77.0067 113.436 77.04 113.316 77.04C113.223 77.04 113.116 77.0067 112.996 76.94C112.89 76.8733 112.79 76.7533 112.696 76.58L109.676 70.82V81.4C109.676 81.6 109.59 81.7533 109.416 81.86C109.243 81.9533 109.05 82 108.836 82ZM124.451 82C124.318 82 124.165 81.9733 123.991 81.92C123.831 81.8533 123.698 81.7667 123.591 81.66C123.498 81.5533 123.451 81.4333 123.451 81.3C123.451 81.2467 123.458 81.1933 123.471 81.14L127.571 67.84C127.625 67.64 127.751 67.4933 127.951 67.4C128.151 67.3067 128.365 67.26 128.591 67.26C128.831 67.26 129.051 67.3133 129.251 67.42C129.451 67.5133 129.578 67.6533 129.631 67.84L133.711 81.14C133.738 81.1933 133.751 81.24 133.751 81.28C133.751 81.4133 133.691 81.5333 133.571 81.64C133.465 81.7467 133.331 81.8333 133.171 81.9C133.011 81.9667 132.858 82 132.711 82C132.565 82 132.438 81.9733 132.331 81.92C132.225 81.8533 132.151 81.7533 132.111 81.62L131.211 78.64H125.951L125.091 81.62C125.051 81.7533 124.971 81.8533 124.851 81.92C124.745 81.9733 124.611 82 124.451 82ZM126.351 77.26H130.831L128.591 69.74L126.351 77.26ZM127.791 65.3C127.631 65.3 127.491 65.2267 127.371 65.08C127.251 64.9333 127.191 64.78 127.191 64.62C127.191 64.4067 127.278 64.26 127.451 64.18L129.791 62.94C129.871 62.9133 129.938 62.9 129.991 62.9C130.165 62.9 130.298 62.9733 130.391 63.12C130.498 63.2533 130.551 63.4067 130.551 63.58C130.551 63.7933 130.458 63.9533 130.271 64.06L128.011 65.22C127.971 65.2333 127.931 65.2533 127.891 65.28C127.865 65.2933 127.831 65.3 127.791 65.3ZM141.968 82.16C141.115 82.16 140.368 82.0333 139.728 81.78C139.088 81.5133 138.595 81.2067 138.248 80.86C137.902 80.5 137.728 80.18 137.728 79.9C137.728 79.7667 137.762 79.6333 137.828 79.5C137.908 79.3533 138.002 79.2333 138.108 79.14C138.228 79.0333 138.348 78.98 138.468 78.98C138.628 78.98 138.782 79.06 138.928 79.22C139.088 79.38 139.282 79.5733 139.508 79.8C139.748 80.0133 140.055 80.2 140.428 80.36C140.802 80.52 141.288 80.6 141.888 80.6C142.448 80.6 142.935 80.5133 143.348 80.34C143.762 80.1533 144.082 79.88 144.308 79.52C144.548 79.1467 144.668 78.68 144.668 78.12C144.668 77.5467 144.548 77.08 144.308 76.72C144.068 76.36 143.748 76.06 143.348 75.82C142.962 75.58 142.535 75.3667 142.068 75.18C141.615 74.9933 141.148 74.8067 140.668 74.62C140.202 74.42 139.775 74.18 139.388 73.9C139.002 73.6067 138.688 73.2333 138.448 72.78C138.208 72.3267 138.088 71.7533 138.088 71.06C138.088 70.3267 138.222 69.72 138.488 69.24C138.755 68.76 139.108 68.38 139.548 68.1C139.988 67.82 140.462 67.6267 140.968 67.52C141.488 67.4 141.995 67.34 142.488 67.34C142.848 67.34 143.228 67.3667 143.628 67.42C144.028 67.4733 144.408 67.5533 144.768 67.66C145.128 67.7667 145.422 67.9067 145.648 68.08C145.875 68.24 145.988 68.4333 145.988 68.66C145.988 68.7667 145.962 68.8933 145.908 69.04C145.855 69.1733 145.775 69.3 145.668 69.42C145.562 69.5267 145.428 69.58 145.268 69.58C145.122 69.58 144.942 69.52 144.728 69.4C144.515 69.2667 144.228 69.14 143.868 69.02C143.522 68.8867 143.062 68.82 142.488 68.82C142.008 68.82 141.555 68.8867 141.128 69.02C140.715 69.1533 140.382 69.3733 140.128 69.68C139.888 69.9867 139.768 70.3933 139.768 70.9C139.768 71.38 139.888 71.7733 140.128 72.08C140.368 72.3867 140.682 72.64 141.068 72.84C141.455 73.04 141.882 73.2267 142.348 73.4C142.815 73.56 143.282 73.7533 143.748 73.98C144.215 74.1933 144.642 74.46 145.028 74.78C145.428 75.1 145.748 75.52 145.988 76.04C146.228 76.5467 146.348 77.1867 146.348 77.96C146.348 78.92 146.155 79.7133 145.768 80.34C145.395 80.9533 144.882 81.4133 144.228 81.72C143.575 82.0133 142.822 82.16 141.968 82.16ZM159.291 82C159.065 82 158.878 81.9467 158.731 81.84C158.598 81.72 158.531 81.58 158.531 81.42V67.96C158.531 67.8 158.598 67.6667 158.731 67.56C158.878 67.44 159.065 67.38 159.291 67.38H162.831C163.645 67.38 164.378 67.5267 165.031 67.82C165.685 68.1 166.198 68.56 166.571 69.2C166.958 69.8267 167.151 70.6733 167.151 71.74V77.64C167.151 78.7067 166.958 79.56 166.571 80.2C166.198 80.8267 165.685 81.2867 165.031 81.58C164.378 81.86 163.645 82 162.831 82H159.291ZM160.211 80.48H162.831C163.658 80.48 164.305 80.2533 164.771 79.8C165.238 79.3333 165.471 78.6133 165.471 77.64V71.74C165.471 70.7667 165.238 70.0533 164.771 69.6C164.305 69.1333 163.658 68.9 162.831 68.9H160.211V80.48ZM173.619 82C173.433 82 173.259 81.9533 173.099 81.86C172.939 81.7533 172.859 81.6 172.859 81.4V67.98C172.859 67.78 172.939 67.6333 173.099 67.54C173.259 67.4333 173.433 67.38 173.619 67.38H180.739C180.953 67.38 181.099 67.46 181.179 67.62C181.273 67.78 181.319 67.9467 181.319 68.12C181.319 68.32 181.266 68.5 181.159 68.66C181.066 68.82 180.926 68.9 180.739 68.9H174.539V73.98H177.659C177.846 73.98 177.986 74.0533 178.079 74.2C178.186 74.3467 178.239 74.5133 178.239 74.7C178.239 74.86 178.193 75.0133 178.099 75.16C178.019 75.3067 177.873 75.38 177.659 75.38H174.539V80.48H180.739C180.926 80.48 181.066 80.56 181.159 80.72C181.266 80.8667 181.319 81.0467 181.319 81.26C181.319 81.4333 181.273 81.6 181.179 81.76C181.099 81.92 180.953 82 180.739 82H173.619ZM189.613 82.16C188.76 82.16 188.013 82.0333 187.373 81.78C186.733 81.5133 186.24 81.2067 185.893 80.86C185.546 80.5 185.373 80.18 185.373 79.9C185.373 79.7667 185.406 79.6333 185.473 79.5C185.553 79.3533 185.646 79.2333 185.753 79.14C185.873 79.0333 185.993 78.98 186.113 78.98C186.273 78.98 186.426 79.06 186.573 79.22C186.733 79.38 186.926 79.5733 187.153 79.8C187.393 80.0133 187.7 80.2 188.073 80.36C188.446 80.52 188.933 80.6 189.533 80.6C190.093 80.6 190.58 80.5133 190.993 80.34C191.406 80.1533 191.726 79.88 191.953 79.52C192.193 79.1467 192.313 78.68 192.313 78.12C192.313 77.5467 192.193 77.08 191.953 76.72C191.713 76.36 191.393 76.06 190.993 75.82C190.606 75.58 190.18 75.3667 189.713 75.18C189.26 74.9933 188.793 74.8067 188.313 74.62C187.846 74.42 187.42 74.18 187.033 73.9C186.646 73.6067 186.333 73.2333 186.093 72.78C185.853 72.3267 185.733 71.7533 185.733 71.06C185.733 70.3267 185.866 69.72 186.133 69.24C186.4 68.76 186.753 68.38 187.193 68.1C187.633 67.82 188.106 67.6267 188.613 67.52C189.133 67.4 189.64 67.34 190.133 67.34C190.493 67.34 190.873 67.3667 191.273 67.42C191.673 67.4733 192.053 67.5533 192.413 67.66C192.773 67.7667 193.066 67.9067 193.293 68.08C193.52 68.24 193.633 68.4333 193.633 68.66C193.633 68.7667 193.606 68.8933 193.553 69.04C193.5 69.1733 193.42 69.3 193.313 69.42C193.206 69.5267 193.073 69.58 192.913 69.58C192.766 69.58 192.586 69.52 192.373 69.4C192.16 69.2667 191.873 69.14 191.513 69.02C191.166 68.8867 190.706 68.82 190.133 68.82C189.653 68.82 189.2 68.8867 188.773 69.02C188.36 69.1533 188.026 69.3733 187.773 69.68C187.533 69.9867 187.413 70.3933 187.413 70.9C187.413 71.38 187.533 71.7733 187.773 72.08C188.013 72.3867 188.326 72.64 188.713 72.84C189.1 73.04 189.526 73.2267 189.993 73.4C190.46 73.56 190.926 73.7533 191.393 73.98C191.86 74.1933 192.286 74.46 192.673 74.78C193.073 75.1 193.393 75.52 193.633 76.04C193.873 76.5467 193.993 77.1867 193.993 77.96C193.993 78.92 193.8 79.7133 193.413 80.34C193.04 80.9533 192.526 81.4133 191.873 81.72C191.22 82.0133 190.466 82.16 189.613 82.16ZM202.574 82C202.36 82 202.167 81.9533 201.994 81.86C201.82 81.7533 201.734 81.6 201.734 81.4V68.94H198.494C198.32 68.94 198.18 68.86 198.074 68.7C197.967 68.54 197.914 68.3533 197.914 68.14C197.914 67.9533 197.96 67.78 198.054 67.62C198.147 67.46 198.294 67.38 198.494 67.38H206.654C206.854 67.38 207 67.46 207.094 67.62C207.187 67.78 207.234 67.9533 207.234 68.14C207.234 68.34 207.187 68.5267 207.094 68.7C207 68.86 206.854 68.94 206.654 68.94H203.414V81.4C203.414 81.6 203.327 81.7533 203.154 81.86C202.98 81.9533 202.787 82 202.574 82ZM210.666 82C210.533 82 210.38 81.9733 210.206 81.92C210.046 81.8533 209.913 81.7667 209.806 81.66C209.713 81.5533 209.666 81.4333 209.666 81.3C209.666 81.2467 209.673 81.1933 209.686 81.14L213.786 67.84C213.84 67.64 213.966 67.4933 214.166 67.4C214.366 67.3067 214.58 67.26 214.806 67.26C215.046 67.26 215.266 67.3133 215.466 67.42C215.666 67.5133 215.793 67.6533 215.846 67.84L219.926 81.14C219.953 81.1933 219.966 81.24 219.966 81.28C219.966 81.4133 219.906 81.5333 219.786 81.64C219.68 81.7467 219.546 81.8333 219.386 81.9C219.226 81.9667 219.073 82 218.926 82C218.78 82 218.653 81.9733 218.546 81.92C218.44 81.8533 218.366 81.7533 218.326 81.62L217.426 78.64H212.166L211.306 81.62C211.266 81.7533 211.186 81.8533 211.066 81.92C210.96 81.9733 210.826 82 210.666 82ZM212.566 77.26H217.046L214.806 69.74L212.566 77.26ZM228.843 82.12C228.07 82.12 227.357 81.98 226.703 81.7C226.05 81.4067 225.53 80.94 225.143 80.3C224.757 79.66 224.563 78.8133 224.563 77.76V71.74C224.563 70.6867 224.757 69.84 225.143 69.2C225.543 68.56 226.07 68.1 226.723 67.82C227.377 67.5267 228.09 67.38 228.863 67.38C229.77 67.38 230.543 67.5333 231.183 67.84C231.823 68.1467 232.317 68.5667 232.663 69.1C233.01 69.62 233.183 70.2067 233.183 70.86C233.183 71.2333 233.11 71.48 232.963 71.6C232.83 71.72 232.623 71.78 232.343 71.78C232.077 71.78 231.87 71.7267 231.723 71.62C231.59 71.5133 231.517 71.3733 231.503 71.2C231.49 71 231.45 70.7733 231.383 70.52C231.33 70.2533 231.21 70 231.023 69.76C230.85 69.5067 230.59 69.3 230.243 69.14C229.91 68.98 229.463 68.9 228.903 68.9C228.05 68.9 227.39 69.1333 226.923 69.6C226.47 70.0533 226.243 70.7667 226.243 71.74V77.76C226.243 78.7333 226.477 79.4533 226.943 79.92C227.41 80.3733 228.083 80.6 228.963 80.6C229.523 80.6 229.963 80.52 230.283 80.36C230.617 80.2 230.863 80 231.023 79.76C231.183 79.52 231.297 79.2667 231.363 79C231.43 78.72 231.477 78.46 231.503 78.22C231.517 78.02 231.597 77.8733 231.743 77.78C231.89 77.6867 232.09 77.64 232.343 77.64C232.623 77.64 232.83 77.7067 232.963 77.84C233.11 77.96 233.183 78.2067 233.183 78.58C233.183 79.2333 233.003 79.8333 232.643 80.38C232.297 80.9133 231.797 81.34 231.143 81.66C230.503 81.9667 229.737 82.12 228.843 82.12ZM238.268 82C238.134 82 237.981 81.9733 237.808 81.92C237.648 81.8533 237.514 81.7667 237.408 81.66C237.314 81.5533 237.268 81.4333 237.268 81.3C237.268 81.2467 237.274 81.1933 237.288 81.14L241.388 67.84C241.441 67.64 241.568 67.4933 241.768 67.4C241.968 67.3067 242.181 67.26 242.408 67.26C242.648 67.26 242.868 67.3133 243.068 67.42C243.268 67.5133 243.394 67.6533 243.448 67.84L247.528 81.14C247.554 81.1933 247.568 81.24 247.568 81.28C247.568 81.4133 247.508 81.5333 247.388 81.64C247.281 81.7467 247.148 81.8333 246.988 81.9C246.828 81.9667 246.674 82 246.528 82C246.381 82 246.254 81.9733 246.148 81.92C246.041 81.8533 245.968 81.7533 245.928 81.62L245.028 78.64H239.768L238.908 81.62C238.868 81.7533 238.788 81.8533 238.668 81.92C238.561 81.9733 238.428 82 238.268 82ZM240.168 77.26H244.648L242.408 69.74L240.168 77.26ZM253.065 82C252.838 82 252.651 81.9467 252.505 81.84C252.371 81.72 252.305 81.58 252.305 81.42V67.96C252.305 67.8 252.371 67.6667 252.505 67.56C252.651 67.44 252.838 67.38 253.065 67.38H256.605C257.418 67.38 258.151 67.5267 258.805 67.82C259.458 68.1 259.971 68.56 260.345 69.2C260.731 69.8267 260.925 70.6733 260.925 71.74V77.64C260.925 78.7067 260.731 79.56 260.345 80.2C259.971 80.8267 259.458 81.2867 258.805 81.58C258.151 81.86 257.418 82 256.605 82H253.065ZM253.985 80.48H256.605C257.431 80.48 258.078 80.2533 258.545 79.8C259.011 79.3333 259.245 78.6133 259.245 77.64V71.74C259.245 70.7667 259.011 70.0533 258.545 69.6C258.078 69.1333 257.431 68.9 256.605 68.9H253.985V80.48ZM270.793 82.12C269.98 82.12 269.246 81.98 268.593 81.7C267.953 81.4067 267.44 80.9467 267.053 80.32C266.68 79.68 266.493 78.8267 266.493 77.76V71.74C266.493 70.6733 266.68 69.8267 267.053 69.2C267.44 68.56 267.953 68.1 268.593 67.82C269.246 67.5267 269.98 67.38 270.793 67.38C271.606 67.38 272.34 67.5267 272.993 67.82C273.646 68.1 274.16 68.56 274.533 69.2C274.92 69.8267 275.113 70.6733 275.113 71.74V77.76C275.113 78.8267 274.92 79.68 274.533 80.32C274.16 80.9467 273.646 81.4067 272.993 81.7C272.34 81.98 271.606 82.12 270.793 82.12ZM270.793 80.6C271.62 80.6 272.266 80.3733 272.733 79.92C273.2 79.4533 273.433 78.7333 273.433 77.76V71.74C273.433 70.7667 273.2 70.0533 272.733 69.6C272.266 69.1333 271.62 68.9 270.793 68.9C269.966 68.9 269.32 69.1333 268.853 69.6C268.4 70.0533 268.173 70.7667 268.173 71.74V77.76C268.173 78.7333 268.4 79.4533 268.853 79.92C269.32 80.3733 269.966 80.6 270.793 80.6ZM284.285 82.16C283.431 82.16 282.685 82.0333 282.045 81.78C281.405 81.5133 280.911 81.2067 280.565 80.86C280.218 80.5 280.045 80.18 280.045 79.9C280.045 79.7667 280.078 79.6333 280.145 79.5C280.225 79.3533 280.318 79.2333 280.425 79.14C280.545 79.0333 280.665 78.98 280.785 78.98C280.945 78.98 281.098 79.06 281.245 79.22C281.405 79.38 281.598 79.5733 281.825 79.8C282.065 80.0133 282.371 80.2 282.745 80.36C283.118 80.52 283.605 80.6 284.205 80.6C284.765 80.6 285.251 80.5133 285.665 80.34C286.078 80.1533 286.398 79.88 286.625 79.52C286.865 79.1467 286.985 78.68 286.985 78.12C286.985 77.5467 286.865 77.08 286.625 76.72C286.385 76.36 286.065 76.06 285.665 75.82C285.278 75.58 284.851 75.3667 284.385 75.18C283.931 74.9933 283.465 74.8067 282.985 74.62C282.518 74.42 282.091 74.18 281.705 73.9C281.318 73.6067 281.005 73.2333 280.765 72.78C280.525 72.3267 280.405 71.7533 280.405 71.06C280.405 70.3267 280.538 69.72 280.805 69.24C281.071 68.76 281.425 68.38 281.865 68.1C282.305 67.82 282.778 67.6267 283.285 67.52C283.805 67.4 284.311 67.34 284.805 67.34C285.165 67.34 285.545 67.3667 285.945 67.42C286.345 67.4733 286.725 67.5533 287.085 67.66C287.445 67.7667 287.738 67.9067 287.965 68.08C288.191 68.24 288.305 68.4333 288.305 68.66C288.305 68.7667 288.278 68.8933 288.225 69.04C288.171 69.1733 288.091 69.3 287.985 69.42C287.878 69.5267 287.745 69.58 287.585 69.58C287.438 69.58 287.258 69.52 287.045 69.4C286.831 69.2667 286.545 69.14 286.185 69.02C285.838 68.8867 285.378 68.82 284.805 68.82C284.325 68.82 283.871 68.8867 283.445 69.02C283.031 69.1533 282.698 69.3733 282.445 69.68C282.205 69.9867 282.085 70.3933 282.085 70.9C282.085 71.38 282.205 71.7733 282.445 72.08C282.685 72.3867 282.998 72.64 283.385 72.84C283.771 73.04 284.198 73.2267 284.665 73.4C285.131 73.56 285.598 73.7533 286.065 73.98C286.531 74.1933 286.958 74.46 287.345 74.78C287.745 75.1 288.065 75.52 288.305 76.04C288.545 76.5467 288.665 77.1867 288.665 77.96C288.665 78.92 288.471 79.7133 288.085 80.34C287.711 80.9533 287.198 81.4133 286.545 81.72C285.891 82.0133 285.138 82.16 284.285 82.16Z" fill="#322016"/>
</svg>
