<svg width="595" height="88" viewBox="0 0 595 88" fill="none" xmlns="http://www.w3.org/2000/svg">
<path d="M57.5752 37.3193C56.5042 39.0511 55.0573 40.7715 53.2344 42.4805C51.4115 44.1667 49.3265 45.6934 46.9795 47.0605C44.6553 48.4049 42.1146 49.4873 39.3574 50.3076C36.6003 51.1507 33.752 51.5723 30.8125 51.5723C28.5111 51.5723 26.2096 51.3672 23.9082 50.957C21.6296 50.5469 19.4307 49.9202 17.3115 49.0771C15.2152 48.234 13.2555 47.1745 11.4326 45.8984C9.63249 44.5996 8.06022 43.0729 6.71582 41.3184C5.37142 39.5638 4.31185 37.57 3.53711 35.3369C2.78516 33.1038 2.40918 30.6201 2.40918 27.8857C2.40918 25.2197 2.79655 22.6904 3.57129 20.2979C4.36882 17.9053 5.47396 15.695 6.88672 13.667C8.29948 11.6162 9.97428 9.77051 11.9111 8.12988C13.848 6.48926 15.9671 5.09928 18.2686 3.95996C20.57 2.79785 22.9967 1.90918 25.5488 1.29395C28.1009 0.678711 30.71 0.371094 33.376 0.371094C36.3154 0.371094 39.0726 0.724284 41.6475 1.43066C44.2451 2.11426 46.5124 3.09408 48.4492 4.37012C50.3861 5.62337 51.9128 7.13867 53.0293 8.91602C54.1686 10.6706 54.7383 12.6302 54.7383 14.7949C54.7383 16.8001 54.2712 18.7142 53.3369 20.5371C52.4027 22.3372 51.1152 23.9209 49.4746 25.2881C47.8568 26.6553 45.9541 27.7376 43.7666 28.5352C41.6019 29.3327 39.2891 29.7314 36.8281 29.7314C34.8457 29.7314 33.0911 29.4922 31.5645 29.0137C30.0378 28.5124 28.7617 27.8288 27.7363 26.9629C26.7109 26.097 25.9362 25.083 25.4121 23.9209C24.888 22.7588 24.626 21.5055 24.626 20.1611C24.626 19.0446 24.7969 18.0306 25.1387 17.1191C25.5033 16.1849 25.8906 15.3874 26.3008 14.7266C26.7337 14.0658 27.1325 13.5531 27.4971 13.1885C27.8844 12.8011 28.1009 12.5846 28.1465 12.5391C28.2604 12.4251 28.3857 12.3568 28.5225 12.334C28.682 12.2884 28.8301 12.2656 28.9668 12.2656C29.3314 12.2656 29.639 12.3796 29.8896 12.6074C30.1403 12.8353 30.2656 13.1315 30.2656 13.4961C30.2656 13.9062 30.1175 14.248 29.8213 14.5215C29.7757 14.5443 29.6162 14.7038 29.3428 15C29.0693 15.2734 28.7731 15.6608 28.4541 16.1621C28.1351 16.6406 27.8389 17.2217 27.5654 17.9053C27.3148 18.5889 27.1895 19.3408 27.1895 20.1611C27.1895 21.46 27.4743 22.5537 28.0439 23.4424C28.6364 24.3311 29.3997 25.0602 30.334 25.6299C31.2682 26.1768 32.305 26.5755 33.4443 26.8262C34.5837 27.054 35.723 27.168 36.8623 27.168C38.9814 27.168 40.9639 26.8262 42.8096 26.1426C44.6781 25.459 46.3073 24.5475 47.6973 23.4082C49.0872 22.2689 50.181 20.9587 50.9785 19.4775C51.776 17.9964 52.1748 16.4469 52.1748 14.8291C52.1748 13.0518 51.6735 11.4339 50.6709 9.97559C49.6683 8.49447 48.3125 7.24121 46.6035 6.21582C44.8945 5.16764 42.8893 4.35872 40.5879 3.78906C38.3092 3.2194 35.8711 2.93457 33.2734 2.93457C31.3138 2.93457 29.2516 3.17383 27.0869 3.65234C24.945 4.10807 22.8258 4.80306 20.7295 5.7373C18.6331 6.67155 16.6279 7.83366 14.7139 9.22363C12.8226 10.6136 11.1592 12.2428 9.72363 14.1113C8.28809 15.957 7.13737 18.0306 6.27148 20.332C5.42839 22.6335 5.00684 25.1514 5.00684 27.8857C5.00684 30.3695 5.34863 32.6139 6.03223 34.6191C6.73861 36.6243 7.70703 38.4131 8.9375 39.9854C10.168 41.5348 11.6035 42.8792 13.2441 44.0186C14.9076 45.1579 16.6849 46.1035 18.5762 46.8555C20.4902 47.5846 22.484 48.1315 24.5576 48.4961C26.6312 48.8379 28.6934 49.0088 30.7441 49.0088C33.4785 49.0088 36.1104 48.6328 38.6396 47.8809C41.1689 47.1061 43.5046 46.1035 45.6465 44.873C47.8112 43.6198 49.7253 42.2184 51.3887 40.6689C53.0521 39.1195 54.3737 37.5586 55.3535 35.9863C55.4674 35.7812 55.627 35.6331 55.832 35.542C56.0371 35.4281 56.2536 35.3711 56.4814 35.3711C56.8688 35.3711 57.1764 35.5078 57.4043 35.7812C57.6322 36.0319 57.7461 36.3167 57.7461 36.6357C57.7461 36.7497 57.7347 36.8636 57.7119 36.9775C57.6891 37.0915 57.6436 37.2054 57.5752 37.3193ZM76.8867 46.2402C76.3171 46.2402 75.8158 46.1947 75.3828 46.1035C75.041 46.7871 74.6309 47.4251 74.1523 48.0176C73.6738 48.5872 73.1156 49.0885 72.4775 49.5215C71.8623 49.9544 71.1673 50.2962 70.3926 50.5469C69.6178 50.7975 68.7747 50.9229 67.8633 50.9229C66.7923 50.9229 65.8125 50.7292 64.9238 50.3418C64.0352 49.9772 63.2604 49.4645 62.5996 48.8037C61.9388 48.1201 61.4261 47.3112 61.0615 46.377C60.6969 45.4199 60.5146 44.3717 60.5146 43.2324C60.5146 41.7741 60.7767 40.5094 61.3008 39.4385C61.8249 38.3447 62.4287 37.4447 63.1123 36.7383C63.7959 36.0091 64.4795 35.4736 65.1631 35.1318C65.8467 34.7673 66.3594 34.585 66.7012 34.585C67.0885 34.585 67.3734 34.6875 67.5557 34.8926C67.7607 35.0977 67.8633 35.3711 67.8633 35.7129C67.8633 36.1003 67.738 36.3965 67.4873 36.6016C67.2594 36.7839 66.9632 36.9661 66.5986 37.1484C66.234 37.3307 65.8467 37.5928 65.4365 37.9346C65.0264 38.2536 64.639 38.6637 64.2744 39.165C63.9326 39.6663 63.6478 40.2588 63.4199 40.9424C63.1921 41.626 63.0781 42.3893 63.0781 43.2324C63.0781 43.9844 63.1921 44.6908 63.4199 45.3516C63.6478 45.9896 63.9782 46.5479 64.4111 47.0264C64.8441 47.4821 65.3568 47.8467 65.9492 48.1201C66.5417 48.3708 67.2025 48.4961 67.9316 48.4961C69.2305 48.4961 70.3014 48.1999 71.1445 47.6074C72.0104 46.9922 72.6712 46.2174 73.127 45.2832C71.7826 44.5768 70.6774 43.5742 69.8115 42.2754C68.9456 40.9766 68.5127 39.5182 68.5127 37.9004C68.5127 36.6016 68.8203 35.542 69.4355 34.7217C70.0736 33.9014 70.9053 33.4912 71.9307 33.4912C72.5459 33.4912 73.127 33.6393 73.6738 33.9355C74.2207 34.2318 74.6992 34.6989 75.1094 35.3369C75.5423 35.9749 75.8841 36.7952 76.1348 37.7979C76.3854 38.8005 76.5107 39.9967 76.5107 41.3867C76.5107 42.1159 76.4196 42.8792 76.2373 43.6768C76.374 43.6995 76.5107 43.7109 76.6475 43.7109C76.7842 43.7109 76.9323 43.7109 77.0918 43.7109C77.8665 43.7109 78.5615 43.6198 79.1768 43.4375C79.792 43.2552 80.3503 42.9818 80.8516 42.6172C81.3529 42.2526 81.7972 41.7855 82.1846 41.2158C82.5947 40.6462 82.9821 39.9854 83.3467 39.2334C83.415 39.0967 83.5632 38.9714 83.791 38.8574C84.0189 38.7207 84.2467 38.6523 84.4746 38.6523C84.7708 38.6523 85.0443 38.7777 85.2949 39.0283C85.5684 39.2562 85.7051 39.5638 85.7051 39.9512C85.7051 40.1335 85.6595 40.3385 85.5684 40.5664C85.4772 40.7715 85.3861 40.9652 85.2949 41.1475C84.9076 41.8311 84.4518 42.4919 83.9277 43.1299C83.4264 43.7451 82.8226 44.292 82.1162 44.7705C81.4326 45.2262 80.6579 45.5908 79.792 45.8643C78.9261 46.1377 77.9577 46.263 76.8867 46.2402ZM71.042 37.627C71.042 38.0599 71.099 38.5156 71.2129 38.9941C71.3268 39.4727 71.4977 39.9512 71.7256 40.4297C71.9762 40.8854 72.2725 41.3298 72.6143 41.7627C72.9788 42.1729 73.4004 42.526 73.8789 42.8223C73.9473 42.3438 73.9814 41.8766 73.9814 41.4209C73.9814 40.8057 73.9359 40.179 73.8447 39.541C73.7536 38.903 73.6169 38.3219 73.4346 37.7979C73.2751 37.251 73.07 36.818 72.8193 36.499C72.5687 36.1572 72.2725 35.9863 71.9307 35.9863C71.7939 35.9863 71.6117 36.0889 71.3838 36.2939C71.1559 36.499 71.042 36.9434 71.042 37.627ZM90.8662 46.9238C91.2308 46.1719 91.6523 45.3516 92.1309 44.4629C92.6094 43.5514 93.1221 42.64 93.6689 41.7285C94.2158 40.7943 94.7855 39.8714 95.3779 38.96C95.9932 38.0485 96.6312 37.1826 97.292 36.3623C97.9528 35.5648 98.6136 34.9951 99.2744 34.6533C99.958 34.2887 100.596 34.1064 101.188 34.1064C102.373 34.1064 103.251 34.5394 103.82 35.4053C104.39 36.2712 104.675 37.3421 104.675 38.6182C104.675 38.9144 104.652 39.279 104.606 39.7119C104.584 40.1221 104.549 40.5664 104.504 41.0449C104.481 41.5234 104.447 42.0133 104.401 42.5146C104.379 42.9932 104.367 43.4489 104.367 43.8818C104.367 44.4287 104.39 44.9528 104.436 45.4541C104.504 45.9554 104.618 46.3997 104.777 46.7871C104.937 47.1517 105.165 47.4479 105.461 47.6758C105.757 47.8809 106.145 47.9834 106.623 47.9834C107.489 47.9834 108.332 47.653 109.152 46.9922C109.973 46.3086 110.725 45.5111 111.408 44.5996C112.115 43.6654 112.718 42.7197 113.22 41.7627C113.744 40.8057 114.131 40.0309 114.382 39.4385C114.496 39.1878 114.655 38.9941 114.86 38.8574C115.088 38.7207 115.327 38.6523 115.578 38.6523C115.965 38.6523 116.273 38.8005 116.501 39.0967C116.752 39.3701 116.877 39.6663 116.877 39.9854C116.877 40.1449 116.843 40.3044 116.774 40.4639C116.683 40.6462 116.501 41.0221 116.228 41.5918C115.954 42.1615 115.59 42.8223 115.134 43.5742C114.701 44.3034 114.188 45.0895 113.596 45.9326C113.003 46.7529 112.342 47.5049 111.613 48.1885C110.907 48.8721 110.132 49.4417 109.289 49.8975C108.469 50.3532 107.603 50.5811 106.691 50.5811C105.666 50.5811 104.834 50.3874 104.196 50C103.558 49.5898 103.057 49.0658 102.692 48.4277C102.328 47.7669 102.077 47.0492 101.94 46.2744C101.826 45.4769 101.77 44.6794 101.77 43.8818C101.77 43.54 101.781 43.1527 101.804 42.7197C101.849 42.2868 101.895 41.8311 101.94 41.3525C102.009 40.874 102.054 40.3955 102.077 39.917C102.123 39.4385 102.146 38.9827 102.146 38.5498C102.146 37.8206 102.032 37.3307 101.804 37.0801C101.576 36.8066 101.371 36.6699 101.188 36.6699C100.824 36.6699 100.402 36.8864 99.9238 37.3193C99.4681 37.7295 98.9782 38.2764 98.4541 38.96C97.9528 39.6436 97.4287 40.4183 96.8818 41.2842C96.3577 42.1273 95.8564 42.9704 95.3779 43.8135C94.9222 44.6566 94.4893 45.4655 94.0791 46.2402C93.6917 46.9922 93.3841 47.6188 93.1562 48.1201C92.7005 49.0771 92.2448 49.7152 91.7891 50.0342C91.3333 50.376 90.8662 50.5469 90.3877 50.5469C89.7269 50.5469 89.1914 50.3532 88.7812 49.9658C88.3939 49.5557 88.2002 48.986 88.2002 48.2568C88.2002 48.0973 88.223 47.7897 88.2686 47.334C88.3141 46.8555 88.3711 46.2972 88.4395 45.6592C88.5078 44.9984 88.5762 44.292 88.6445 43.54C88.7129 42.7881 88.7812 42.0475 88.8496 41.3184C88.918 40.5664 88.9749 39.8714 89.0205 39.2334C89.0661 38.5954 89.0889 38.0599 89.0889 37.627C89.0889 37.0573 89.0661 36.5104 89.0205 35.9863C88.9749 35.4622 88.8838 35.1432 88.7471 35.0293C88.542 35.0977 88.1774 35.5306 87.6533 36.3281C87.1292 37.1029 86.457 38.4814 85.6367 40.4639C85.5228 40.7145 85.3519 40.9082 85.124 41.0449C84.8962 41.1816 84.6569 41.25 84.4062 41.25C84.0189 41.25 83.7113 41.1247 83.4834 40.874C83.2555 40.6006 83.1416 40.293 83.1416 39.9512C83.1416 39.7917 83.1758 39.6208 83.2441 39.4385C84.2695 37.0003 85.2266 35.2116 86.1152 34.0723C87.0267 32.9102 87.9268 32.3291 88.8154 32.3291C89.3395 32.3291 89.7839 32.4658 90.1484 32.7393C90.513 32.9899 90.7979 33.3317 91.0029 33.7646C91.2308 34.1976 91.3903 34.6761 91.4814 35.2002C91.5954 35.7243 91.6523 36.2598 91.6523 36.8066C91.6523 37.2168 91.6182 37.8548 91.5498 38.7207C91.5042 39.5866 91.4359 40.5208 91.3447 41.5234C91.2536 42.5033 91.1624 43.4831 91.0713 44.4629C91.0029 45.4427 90.9346 46.263 90.8662 46.9238ZM118.244 37.3535C118.107 37.7181 117.937 38.1283 117.731 38.584C117.549 39.0397 117.333 39.5182 117.082 40.0195C116.877 40.4069 116.66 40.7145 116.433 40.9424C116.228 41.1475 115.954 41.25 115.612 41.25C115.225 41.25 114.917 41.1361 114.689 40.9082C114.462 40.6576 114.348 40.3727 114.348 40.0537C114.348 39.9398 114.359 39.8486 114.382 39.7803C114.405 39.6891 114.462 39.5524 114.553 39.3701C115.145 38.2308 115.578 37.2396 115.852 36.3965C116.148 35.5306 116.387 34.6305 116.569 33.6963C116.41 33.1722 116.296 32.7279 116.228 32.3633C116.159 31.9987 116.125 31.6227 116.125 31.2354C116.125 30.4834 116.285 29.8796 116.604 29.4238C116.923 28.9453 117.367 28.7061 117.937 28.7061C118.461 28.7061 118.871 28.9339 119.167 29.3896C119.486 29.8454 119.646 30.4036 119.646 31.0645C119.646 31.429 119.611 31.7936 119.543 32.1582C119.475 32.5228 119.383 32.9785 119.27 33.5254C119.794 34.8242 120.318 35.9749 120.842 36.9775C121.366 37.9801 121.833 38.903 122.243 39.7461C122.653 40.5664 122.984 41.3411 123.234 42.0703C123.508 42.7995 123.645 43.5286 123.645 44.2578C123.645 45.2148 123.451 46.1263 123.063 46.9922C122.676 47.8581 122.038 48.5872 121.149 49.1797C121.263 49.2025 121.377 49.2139 121.491 49.2139C121.605 49.2139 121.719 49.2139 121.833 49.2139C123.132 49.2139 124.328 48.9176 125.422 48.3252C126.516 47.7327 127.495 46.9694 128.361 46.0352C129.25 45.0781 130.036 44.0299 130.72 42.8906C131.403 41.7285 131.996 40.5778 132.497 39.4385C132.725 38.9144 133.044 38.6523 133.454 38.6523C133.841 38.6523 134.138 38.7891 134.343 39.0625C134.571 39.3359 134.685 39.6322 134.685 39.9512C134.685 40.1335 134.65 40.3044 134.582 40.4639C134.331 41.0791 134.001 41.7855 133.591 42.583C133.203 43.3577 132.725 44.1667 132.155 45.0098C131.608 45.8301 130.97 46.639 130.241 47.4365C129.512 48.234 128.692 48.9518 127.78 49.5898C126.892 50.2051 125.912 50.695 124.841 51.0596C123.77 51.4469 122.596 51.6406 121.32 51.6406C119.794 51.6406 118.369 51.3672 117.048 50.8203C115.749 50.2962 114.689 49.4189 113.869 48.1885C113.732 47.9834 113.664 47.7669 113.664 47.5391C113.664 47.1973 113.789 46.901 114.04 46.6504C114.313 46.377 114.621 46.2402 114.963 46.2402C115.327 46.2402 115.635 46.3656 115.886 46.6162C115.909 46.6618 115.988 46.7415 116.125 46.8555C116.262 46.9466 116.421 47.0605 116.604 47.1973C116.809 47.3112 117.036 47.4137 117.287 47.5049C117.561 47.596 117.834 47.6416 118.107 47.6416C118.654 47.6416 119.11 47.5277 119.475 47.2998C119.862 47.0719 120.17 46.7985 120.397 46.4795C120.625 46.1377 120.785 45.7845 120.876 45.4199C120.99 45.0326 121.047 44.7021 121.047 44.4287C121.047 43.859 120.956 43.2894 120.773 42.7197C120.591 42.1501 120.352 41.5804 120.056 41.0107C119.782 40.4411 119.475 39.86 119.133 39.2676C118.814 38.6523 118.518 38.0143 118.244 37.3535ZM137.795 23.1689C137.795 24.0348 137.487 24.7754 136.872 25.3906C136.28 25.9831 135.55 26.2793 134.685 26.2793C133.819 26.2793 133.078 25.9831 132.463 25.3906C131.87 24.7754 131.574 24.0348 131.574 23.1689C131.574 22.736 131.654 22.3372 131.813 21.9727C131.973 21.5853 132.189 21.2549 132.463 20.9814C132.759 20.6852 133.09 20.4574 133.454 20.2979C133.841 20.1383 134.252 20.0586 134.685 20.0586C135.118 20.0586 135.516 20.1383 135.881 20.2979C136.268 20.4574 136.599 20.6852 136.872 20.9814C137.168 21.2549 137.396 21.5853 137.556 21.9727C137.715 22.3372 137.795 22.736 137.795 23.1689ZM132.258 43.1982C132.258 39.917 132.463 36.6471 132.873 33.3887C132.919 33.0697 133.055 32.7962 133.283 32.5684C133.534 32.3177 133.853 32.1924 134.24 32.1924C134.582 32.1924 134.867 32.3291 135.095 32.6025C135.323 32.8532 135.437 33.1494 135.437 33.4912C135.437 33.6279 135.402 34.0381 135.334 34.7217C135.288 35.4053 135.22 36.2256 135.129 37.1826C135.061 38.1169 134.992 39.1195 134.924 40.1904C134.878 41.2386 134.855 42.207 134.855 43.0957C134.855 44.3034 134.969 45.2832 135.197 46.0352C135.448 46.7643 135.756 47.334 136.12 47.7441C136.507 48.1543 136.906 48.4277 137.316 48.5645C137.749 48.7012 138.16 48.7695 138.547 48.7695C139.185 48.7695 139.846 48.5417 140.529 48.0859C141.213 47.6302 141.908 46.9922 142.614 46.1719C143.343 45.3516 144.073 44.3717 144.802 43.2324C145.531 42.0703 146.249 40.7829 146.955 39.3701C147.069 39.1423 147.229 38.9714 147.434 38.8574C147.639 38.7207 147.867 38.6523 148.117 38.6523C148.482 38.6523 148.778 38.7891 149.006 39.0625C149.257 39.3359 149.382 39.6322 149.382 39.9512C149.382 40.179 149.336 40.3727 149.245 40.5322C148.972 41.0563 148.63 41.6943 148.22 42.4463C147.81 43.1982 147.342 43.973 146.818 44.7705C146.294 45.568 145.713 46.3656 145.075 47.1631C144.46 47.9378 143.799 48.6442 143.093 49.2822C142.386 49.8975 141.646 50.3988 140.871 50.7861C140.096 51.1735 139.31 51.3672 138.513 51.3672C137.487 51.3672 136.587 51.1507 135.812 50.7178C135.038 50.2848 134.377 49.7038 133.83 48.9746C133.306 48.2454 132.907 47.391 132.634 46.4111C132.383 45.4085 132.258 44.3376 132.258 43.1982ZM135.881 23.1689C135.881 22.8499 135.756 22.5765 135.505 22.3486C135.277 22.098 135.004 21.9727 134.685 21.9727C134.366 21.9727 134.092 22.098 133.864 22.3486C133.636 22.5765 133.522 22.8499 133.522 23.1689C133.522 23.488 133.636 23.7614 133.864 23.9893C134.092 24.2171 134.366 24.3311 134.685 24.3311C135.004 24.3311 135.277 24.2171 135.505 23.9893C135.756 23.7614 135.881 23.488 135.881 23.1689ZM151.022 46.2402C151.501 46.901 152.116 47.4365 152.868 47.8467C153.62 48.234 154.543 48.4277 155.637 48.4277C156.753 48.4277 157.767 48.1657 158.679 47.6416C159.59 47.0947 160.422 46.3883 161.174 45.5225C161.926 44.6566 162.598 43.6882 163.19 42.6172C163.783 41.5462 164.318 40.4753 164.797 39.4043C164.911 39.1536 165.07 38.9714 165.275 38.8574C165.48 38.7207 165.708 38.6523 165.959 38.6523C166.346 38.6523 166.654 38.7891 166.882 39.0625C167.132 39.3359 167.258 39.6322 167.258 39.9512C167.258 40.0651 167.246 40.1676 167.224 40.2588C167.201 40.3271 167.167 40.4069 167.121 40.498C165.549 43.9616 163.828 46.5706 161.96 48.3252C160.114 50.0798 158.018 50.9798 155.671 51.0254C154.167 51.0254 152.868 50.7292 151.774 50.1367C150.681 49.5671 149.781 48.8265 149.074 47.915C148.368 46.9808 147.844 45.9326 147.502 44.7705C147.16 43.6084 146.989 42.4463 146.989 41.2842C146.989 40.1221 147.126 39.0511 147.399 38.0713C147.696 37.0915 148.106 36.237 148.63 35.5078C149.177 34.7786 149.815 34.209 150.544 33.7988C151.296 33.3887 152.116 33.1836 153.005 33.1836C153.529 33.1836 154.042 33.2975 154.543 33.5254C155.067 33.7305 155.534 34.0381 155.944 34.4482C156.354 34.8356 156.685 35.3141 156.936 35.8838C157.186 36.4535 157.312 37.1029 157.312 37.832C157.312 38.7663 157.152 39.6436 156.833 40.4639C156.514 41.2842 156.07 42.0475 155.5 42.7539C154.953 43.4603 154.292 44.1097 153.518 44.7021C152.743 45.2946 151.911 45.8073 151.022 46.2402ZM149.997 44.0186C150.703 43.7223 151.341 43.3464 151.911 42.8906C152.504 42.4349 153.005 41.9336 153.415 41.3867C153.825 40.8398 154.144 40.2702 154.372 39.6777C154.6 39.0625 154.714 38.4473 154.714 37.832C154.714 37.1484 154.543 36.6357 154.201 36.2939C153.859 35.9294 153.461 35.7471 153.005 35.7471C152.39 35.7471 151.866 35.918 151.433 36.2598C151 36.6016 150.646 37.0459 150.373 37.5928C150.1 38.1396 149.895 38.7549 149.758 39.4385C149.644 40.0993 149.587 40.7601 149.587 41.4209C149.587 41.8311 149.621 42.264 149.689 42.7197C149.781 43.1755 149.883 43.6084 149.997 44.0186ZM151.296 27.8857L156.765 22.6904C156.993 22.4854 157.255 22.3828 157.551 22.3828C157.847 22.3828 158.109 22.4967 158.337 22.7246C158.565 22.9525 158.679 23.2259 158.679 23.5449C158.679 23.8639 158.565 24.126 158.337 24.3311L152.868 29.5264C152.618 29.7314 152.355 29.834 152.082 29.834C151.763 29.834 151.49 29.7201 151.262 29.4922C151.057 29.2643 150.954 29.0023 150.954 28.7061C150.954 28.387 151.068 28.1136 151.296 27.8857ZM172.419 46.9238C172.784 46.1719 173.205 45.3516 173.684 44.4629C174.162 43.5514 174.675 42.64 175.222 41.7285C175.769 40.7943 176.338 39.8714 176.931 38.96C177.546 38.0485 178.184 37.1826 178.845 36.3623C179.506 35.5648 180.166 34.9951 180.827 34.6533C181.511 34.2887 182.149 34.1064 182.741 34.1064C183.926 34.1064 184.803 34.5394 185.373 35.4053C185.943 36.2712 186.228 37.3421 186.228 38.6182C186.228 38.9144 186.205 39.279 186.159 39.7119C186.136 40.1221 186.102 40.5664 186.057 41.0449C186.034 41.5234 186 42.0133 185.954 42.5146C185.931 42.9932 185.92 43.4489 185.92 43.8818C185.92 44.4287 185.943 44.9528 185.988 45.4541C186.057 45.9554 186.171 46.3997 186.33 46.7871C186.49 47.1517 186.717 47.4479 187.014 47.6758C187.31 47.8809 187.697 47.9834 188.176 47.9834C189.042 47.9834 189.885 47.653 190.705 46.9922C191.525 46.3086 192.277 45.5111 192.961 44.5996C193.667 43.6654 194.271 42.7197 194.772 41.7627C195.297 40.8057 195.684 40.0309 195.935 39.4385C196.049 39.1878 196.208 38.9941 196.413 38.8574C196.641 38.7207 196.88 38.6523 197.131 38.6523C197.518 38.6523 197.826 38.8005 198.054 39.0967C198.304 39.3701 198.43 39.6663 198.43 39.9854C198.43 40.1449 198.396 40.3044 198.327 40.4639C198.236 40.6462 198.054 41.0221 197.78 41.5918C197.507 42.1615 197.142 42.8223 196.687 43.5742C196.254 44.3034 195.741 45.0895 195.148 45.9326C194.556 46.7529 193.895 47.5049 193.166 48.1885C192.46 48.8721 191.685 49.4417 190.842 49.8975C190.021 50.3532 189.156 50.5811 188.244 50.5811C187.219 50.5811 186.387 50.3874 185.749 50C185.111 49.5898 184.61 49.0658 184.245 48.4277C183.881 47.7669 183.63 47.0492 183.493 46.2744C183.379 45.4769 183.322 44.6794 183.322 43.8818C183.322 43.54 183.334 43.1527 183.356 42.7197C183.402 42.2868 183.448 41.8311 183.493 41.3525C183.562 40.874 183.607 40.3955 183.63 39.917C183.675 39.4385 183.698 38.9827 183.698 38.5498C183.698 37.8206 183.584 37.3307 183.356 37.0801C183.129 36.8066 182.924 36.6699 182.741 36.6699C182.377 36.6699 181.955 36.8864 181.477 37.3193C181.021 37.7295 180.531 38.2764 180.007 38.96C179.506 39.6436 178.981 40.4183 178.435 41.2842C177.91 42.1273 177.409 42.9704 176.931 43.8135C176.475 44.6566 176.042 45.4655 175.632 46.2402C175.244 46.9922 174.937 47.6188 174.709 48.1201C174.253 49.0771 173.798 49.7152 173.342 50.0342C172.886 50.376 172.419 50.5469 171.94 50.5469C171.28 50.5469 170.744 50.3532 170.334 49.9658C169.947 49.5557 169.753 48.986 169.753 48.2568C169.753 48.0973 169.776 47.7897 169.821 47.334C169.867 46.8555 169.924 46.2972 169.992 45.6592C170.061 44.9984 170.129 44.292 170.197 43.54C170.266 42.7881 170.334 42.0475 170.402 41.3184C170.471 40.5664 170.528 39.8714 170.573 39.2334C170.619 38.5954 170.642 38.0599 170.642 37.627C170.642 37.0573 170.619 36.5104 170.573 35.9863C170.528 35.4622 170.437 35.1432 170.3 35.0293C170.095 35.0977 169.73 35.5306 169.206 36.3281C168.682 37.1029 168.01 38.4814 167.189 40.4639C167.076 40.7145 166.905 40.9082 166.677 41.0449C166.449 41.1816 166.21 41.25 165.959 41.25C165.572 41.25 165.264 41.1247 165.036 40.874C164.808 40.6006 164.694 40.293 164.694 39.9512C164.694 39.7917 164.729 39.6208 164.797 39.4385C165.822 37.0003 166.779 35.2116 167.668 34.0723C168.579 32.9102 169.479 32.3291 170.368 32.3291C170.892 32.3291 171.337 32.4658 171.701 32.7393C172.066 32.9899 172.351 33.3317 172.556 33.7646C172.784 34.1976 172.943 34.6761 173.034 35.2002C173.148 35.7243 173.205 36.2598 173.205 36.8066C173.205 37.2168 173.171 37.8548 173.103 38.7207C173.057 39.5866 172.989 40.5208 172.897 41.5234C172.806 42.5033 172.715 43.4831 172.624 44.4629C172.556 45.4427 172.487 46.263 172.419 46.9238ZM223.688 15.7861C223.688 16.1507 223.563 16.4469 223.312 16.6748C223.062 16.8799 222.754 16.9824 222.39 16.9824H205.061V17.3584C205.061 18.7484 204.958 20.2295 204.753 21.8018C204.548 23.374 204.263 24.9463 203.898 26.5186C203.557 28.068 203.158 29.5833 202.702 31.0645C202.269 32.5456 201.813 33.9128 201.335 35.166C200.879 36.4193 200.424 37.513 199.968 38.4473C199.512 39.3587 199.102 40.0423 198.737 40.498C199.034 41.5462 199.387 42.526 199.797 43.4375C200.207 44.3262 200.663 45.1123 201.164 45.7959C201.688 46.4567 202.246 46.9808 202.839 47.3682C203.431 47.7555 204.069 47.9492 204.753 47.9492C205.55 47.9492 206.337 47.6188 207.111 46.958C207.909 46.2744 208.638 45.4769 209.299 44.5654C209.982 43.6312 210.575 42.6969 211.076 41.7627C211.6 40.8057 211.976 40.0423 212.204 39.4727C212.432 38.9258 212.831 38.6523 213.4 38.6523C213.788 38.6523 214.095 38.7891 214.323 39.0625C214.574 39.3359 214.699 39.6322 214.699 39.9512C214.699 40.1107 214.665 40.2702 214.597 40.4297C214.528 40.5892 214.357 40.9538 214.084 41.5234C213.833 42.0931 213.492 42.7539 213.059 43.5059C212.648 44.2578 212.159 45.0553 211.589 45.8984C211.042 46.7188 210.415 47.4707 209.709 48.1543C209.025 48.8379 208.285 49.4076 207.487 49.8633C206.69 50.319 205.847 50.5469 204.958 50.5469C203.386 50.5469 201.973 50.0342 200.72 49.0088C199.466 47.9834 198.396 46.5479 197.507 44.7021C196.641 42.8564 195.98 40.6689 195.524 38.1396C195.069 35.6104 194.841 32.8418 194.841 29.834C194.841 29.082 194.852 28.2048 194.875 27.2021C194.898 26.1768 194.943 25.1058 195.012 23.9893C195.08 22.8499 195.183 21.6878 195.319 20.5029C195.456 19.2952 195.638 18.1217 195.866 16.9824H183.596C183.231 16.9824 182.924 16.8799 182.673 16.6748C182.422 16.4469 182.297 16.1507 182.297 15.7861C182.297 15.4215 182.422 15.1367 182.673 14.9316C182.924 14.7038 183.231 14.5898 183.596 14.5898H196.447C196.675 13.7695 196.937 13.0176 197.233 12.334C197.552 11.6504 197.906 11.0579 198.293 10.5566C198.703 10.0553 199.147 9.66797 199.626 9.39453C200.127 9.09831 200.674 8.9502 201.267 8.9502C201.836 8.9502 202.326 9.09831 202.736 9.39453C203.169 9.66797 203.534 10.0553 203.83 10.5566C204.126 11.0579 204.354 11.6504 204.514 12.334C204.696 13.0176 204.833 13.7695 204.924 14.5898H222.39C222.754 14.5898 223.062 14.7038 223.312 14.9316C223.563 15.1367 223.688 15.4215 223.688 15.7861ZM197.951 37.0801C198.635 35.5762 199.25 33.9583 199.797 32.2266C200.367 30.472 200.845 28.7061 201.232 26.9287C201.643 25.1514 201.95 23.4082 202.155 21.6992C202.383 19.9902 202.497 18.418 202.497 16.9824H198.464C198.145 18.3952 197.883 20.1497 197.678 22.2461C197.495 24.3197 197.404 26.849 197.404 29.834C197.404 31.4974 197.45 32.8988 197.541 34.0381C197.632 35.1546 197.769 36.1686 197.951 37.0801ZM201.13 11.5137C200.925 11.5137 200.629 11.7415 200.241 12.1973C199.854 12.6302 199.466 13.4277 199.079 14.5898H202.36C202.246 13.6328 202.076 12.8809 201.848 12.334C201.643 11.7871 201.403 11.5137 201.13 11.5137ZM198.498 39.541V39.5752V39.541ZM216.442 46.2402C216.921 46.901 217.536 47.4365 218.288 47.8467C219.04 48.234 219.963 48.4277 221.057 48.4277C222.173 48.4277 223.187 48.1657 224.099 47.6416C225.01 47.0947 225.842 46.3883 226.594 45.5225C227.346 44.6566 228.018 43.6882 228.61 42.6172C229.203 41.5462 229.738 40.4753 230.217 39.4043C230.331 39.1536 230.49 38.9714 230.695 38.8574C230.9 38.7207 231.128 38.6523 231.379 38.6523C231.766 38.6523 232.074 38.7891 232.302 39.0625C232.552 39.3359 232.678 39.6322 232.678 39.9512C232.678 40.0651 232.666 40.1676 232.644 40.2588C232.621 40.3271 232.587 40.4069 232.541 40.498C230.969 43.9616 229.248 46.5706 227.38 48.3252C225.534 50.0798 223.438 50.9798 221.091 51.0254C219.587 51.0254 218.288 50.7292 217.194 50.1367C216.101 49.5671 215.201 48.8265 214.494 47.915C213.788 46.9808 213.264 45.9326 212.922 44.7705C212.58 43.6084 212.409 42.4463 212.409 41.2842C212.409 40.1221 212.546 39.0511 212.819 38.0713C213.116 37.0915 213.526 36.237 214.05 35.5078C214.597 34.7786 215.235 34.209 215.964 33.7988C216.716 33.3887 217.536 33.1836 218.425 33.1836C218.949 33.1836 219.462 33.2975 219.963 33.5254C220.487 33.7305 220.954 34.0381 221.364 34.4482C221.774 34.8356 222.105 35.3141 222.355 35.8838C222.606 36.4535 222.731 37.1029 222.731 37.832C222.731 38.7663 222.572 39.6436 222.253 40.4639C221.934 41.2842 221.49 42.0475 220.92 42.7539C220.373 43.4603 219.712 44.1097 218.938 44.7021C218.163 45.2946 217.331 45.8073 216.442 46.2402ZM215.417 44.0186C216.123 43.7223 216.761 43.3464 217.331 42.8906C217.924 42.4349 218.425 41.9336 218.835 41.3867C219.245 40.8398 219.564 40.2702 219.792 39.6777C220.02 39.0625 220.134 38.4473 220.134 37.832C220.134 37.1484 219.963 36.6357 219.621 36.2939C219.279 35.9294 218.881 35.7471 218.425 35.7471C217.81 35.7471 217.285 35.918 216.853 36.2598C216.42 36.6016 216.066 37.0459 215.793 37.5928C215.52 38.1396 215.314 38.7549 215.178 39.4385C215.064 40.0993 215.007 40.7601 215.007 41.4209C215.007 41.8311 215.041 42.264 215.109 42.7197C215.201 43.1755 215.303 43.6084 215.417 44.0186ZM257.937 15.7861C257.937 16.1507 257.811 16.4469 257.561 16.6748C257.31 16.8799 257.002 16.9824 256.638 16.9824H239.309V17.3584C239.309 18.7484 239.206 20.2295 239.001 21.8018C238.796 23.374 238.511 24.9463 238.146 26.5186C237.805 28.068 237.406 29.5833 236.95 31.0645C236.517 32.5456 236.062 33.9128 235.583 35.166C235.127 36.4193 234.672 37.513 234.216 38.4473C233.76 39.3587 233.35 40.0423 232.985 40.498C233.282 41.5462 233.635 42.526 234.045 43.4375C234.455 44.3262 234.911 45.1123 235.412 45.7959C235.936 46.4567 236.494 46.9808 237.087 47.3682C237.679 47.7555 238.317 47.9492 239.001 47.9492C239.799 47.9492 240.585 47.6188 241.359 46.958C242.157 46.2744 242.886 45.4769 243.547 44.5654C244.23 43.6312 244.823 42.6969 245.324 41.7627C245.848 40.8057 246.224 40.0423 246.452 39.4727C246.68 38.9258 247.079 38.6523 247.648 38.6523C248.036 38.6523 248.343 38.7891 248.571 39.0625C248.822 39.3359 248.947 39.6322 248.947 39.9512C248.947 40.1107 248.913 40.2702 248.845 40.4297C248.776 40.5892 248.605 40.9538 248.332 41.5234C248.081 42.0931 247.74 42.7539 247.307 43.5059C246.896 44.2578 246.407 45.0553 245.837 45.8984C245.29 46.7188 244.663 47.4707 243.957 48.1543C243.273 48.8379 242.533 49.4076 241.735 49.8633C240.938 50.319 240.095 50.5469 239.206 50.5469C237.634 50.5469 236.221 50.0342 234.968 49.0088C233.715 47.9834 232.644 46.5479 231.755 44.7021C230.889 42.8564 230.228 40.6689 229.772 38.1396C229.317 35.6104 229.089 32.8418 229.089 29.834C229.089 29.082 229.1 28.2048 229.123 27.2021C229.146 26.1768 229.191 25.1058 229.26 23.9893C229.328 22.8499 229.431 21.6878 229.567 20.5029C229.704 19.2952 229.886 18.1217 230.114 16.9824H217.844C217.479 16.9824 217.172 16.8799 216.921 16.6748C216.67 16.4469 216.545 16.1507 216.545 15.7861C216.545 15.4215 216.67 15.1367 216.921 14.9316C217.172 14.7038 217.479 14.5898 217.844 14.5898H230.695C230.923 13.7695 231.185 13.0176 231.481 12.334C231.8 11.6504 232.154 11.0579 232.541 10.5566C232.951 10.0553 233.396 9.66797 233.874 9.39453C234.375 9.09831 234.922 8.9502 235.515 8.9502C236.084 8.9502 236.574 9.09831 236.984 9.39453C237.417 9.66797 237.782 10.0553 238.078 10.5566C238.374 11.0579 238.602 11.6504 238.762 12.334C238.944 13.0176 239.081 13.7695 239.172 14.5898H256.638C257.002 14.5898 257.31 14.7038 257.561 14.9316C257.811 15.1367 257.937 15.4215 257.937 15.7861ZM232.199 37.0801C232.883 35.5762 233.498 33.9583 234.045 32.2266C234.615 30.472 235.093 28.7061 235.48 26.9287C235.891 25.1514 236.198 23.4082 236.403 21.6992C236.631 19.9902 236.745 18.418 236.745 16.9824H232.712C232.393 18.3952 232.131 20.1497 231.926 22.2461C231.743 24.3197 231.652 26.849 231.652 29.834C231.652 31.4974 231.698 32.8988 231.789 34.0381C231.88 35.1546 232.017 36.1686 232.199 37.0801ZM235.378 11.5137C235.173 11.5137 234.877 11.7415 234.489 12.1973C234.102 12.6302 233.715 13.4277 233.327 14.5898H236.608C236.494 13.6328 236.324 12.8809 236.096 12.334C235.891 11.7871 235.651 11.5137 235.378 11.5137ZM232.746 39.541V39.5752V39.541ZM250.69 46.2402C251.169 46.901 251.784 47.4365 252.536 47.8467C253.288 48.234 254.211 48.4277 255.305 48.4277C256.421 48.4277 257.435 48.1657 258.347 47.6416C259.258 47.0947 260.09 46.3883 260.842 45.5225C261.594 44.6566 262.266 43.6882 262.858 42.6172C263.451 41.5462 263.986 40.4753 264.465 39.4043C264.579 39.1536 264.738 38.9714 264.943 38.8574C265.148 38.7207 265.376 38.6523 265.627 38.6523C266.014 38.6523 266.322 38.7891 266.55 39.0625C266.8 39.3359 266.926 39.6322 266.926 39.9512C266.926 40.0651 266.914 40.1676 266.892 40.2588C266.869 40.3271 266.835 40.4069 266.789 40.498C265.217 43.9616 263.496 46.5706 261.628 48.3252C259.782 50.0798 257.686 50.9798 255.339 51.0254C253.835 51.0254 252.536 50.7292 251.442 50.1367C250.349 49.5671 249.449 48.8265 248.742 47.915C248.036 46.9808 247.512 45.9326 247.17 44.7705C246.828 43.6084 246.657 42.4463 246.657 41.2842C246.657 40.1221 246.794 39.0511 247.067 38.0713C247.364 37.0915 247.774 36.237 248.298 35.5078C248.845 34.7786 249.483 34.209 250.212 33.7988C250.964 33.3887 251.784 33.1836 252.673 33.1836C253.197 33.1836 253.71 33.2975 254.211 33.5254C254.735 33.7305 255.202 34.0381 255.612 34.4482C256.022 34.8356 256.353 35.3141 256.604 35.8838C256.854 36.4535 256.979 37.1029 256.979 37.832C256.979 38.7663 256.82 39.6436 256.501 40.4639C256.182 41.2842 255.738 42.0475 255.168 42.7539C254.621 43.4603 253.96 44.1097 253.186 44.7021C252.411 45.2946 251.579 45.8073 250.69 46.2402ZM249.665 44.0186C250.371 43.7223 251.009 43.3464 251.579 42.8906C252.172 42.4349 252.673 41.9336 253.083 41.3867C253.493 40.8398 253.812 40.2702 254.04 39.6777C254.268 39.0625 254.382 38.4473 254.382 37.832C254.382 37.1484 254.211 36.6357 253.869 36.2939C253.527 35.9294 253.129 35.7471 252.673 35.7471C252.058 35.7471 251.534 35.918 251.101 36.2598C250.668 36.6016 250.314 37.0459 250.041 37.5928C249.768 38.1396 249.562 38.7549 249.426 39.4385C249.312 40.0993 249.255 40.7601 249.255 41.4209C249.255 41.8311 249.289 42.264 249.357 42.7197C249.449 43.1755 249.551 43.6084 249.665 44.0186ZM302.233 40.5322C302.097 40.7829 301.857 41.2386 301.516 41.8994C301.197 42.5602 300.752 43.3122 300.183 44.1553C299.636 44.9756 298.975 45.8301 298.2 46.7188C297.425 47.6074 296.537 48.4277 295.534 49.1797C294.532 49.9089 293.404 50.5127 292.15 50.9912C290.92 51.4697 289.576 51.709 288.117 51.709C286.818 51.709 285.668 51.4697 284.665 50.9912C283.662 50.5355 282.808 49.8861 282.102 49.043C281.395 48.1771 280.86 47.1631 280.495 46.001C280.131 44.8389 279.948 43.5514 279.948 42.1387C279.948 40.7715 280.142 39.4954 280.529 38.3105C280.917 37.1029 281.441 36.0547 282.102 35.166C282.785 34.2773 283.571 33.5824 284.46 33.0811C285.349 32.557 286.294 32.2949 287.297 32.2949C288.049 32.2949 288.732 32.4316 289.348 32.7051C289.963 32.9557 290.476 33.2975 290.886 33.7305C291.319 34.1634 291.649 34.6419 291.877 35.166C292.128 35.6901 292.253 36.2142 292.253 36.7383C292.253 37.2396 292.185 37.7067 292.048 38.1396C291.934 38.5726 291.774 38.96 291.569 39.3018C291.387 39.6208 291.171 39.8828 290.92 40.0879C290.669 40.2702 290.419 40.3613 290.168 40.3613C289.781 40.3613 289.462 40.236 289.211 39.9854C288.983 39.7347 288.869 39.4271 288.869 39.0625C288.869 38.8802 288.903 38.7207 288.972 38.584C289.063 38.4473 289.154 38.3105 289.245 38.1738C289.359 38.0143 289.45 37.832 289.519 37.627C289.61 37.3991 289.655 37.1143 289.655 36.7725C289.655 36.2939 289.427 35.861 288.972 35.4736C288.539 35.0863 287.98 34.8926 287.297 34.8926C286.659 34.8926 286.044 35.0863 285.451 35.4736C284.882 35.861 284.38 36.3851 283.947 37.0459C283.514 37.6839 283.161 38.4473 282.888 39.3359C282.637 40.2018 282.512 41.1247 282.512 42.1045C282.512 43.0387 282.626 43.9274 282.854 44.7705C283.081 45.6136 283.423 46.3656 283.879 47.0264C284.335 47.6644 284.904 48.1771 285.588 48.5645C286.294 48.9518 287.126 49.1455 288.083 49.1455C289.313 49.1455 290.453 48.929 291.501 48.4961C292.549 48.0404 293.506 47.4707 294.372 46.7871C295.238 46.1035 296.001 45.363 296.662 44.5654C297.323 43.7451 297.881 42.9818 298.337 42.2754C298.815 41.5462 299.18 40.9196 299.431 40.3955C299.704 39.8486 299.864 39.5068 299.909 39.3701C300 39.1423 300.148 38.9714 300.354 38.8574C300.581 38.7207 300.821 38.6523 301.071 38.6523C301.459 38.6523 301.766 38.7891 301.994 39.0625C302.245 39.3359 302.37 39.6436 302.37 39.9854C302.37 40.1221 302.325 40.3044 302.233 40.5322ZM315.666 46.2402C315.096 46.2402 314.595 46.1947 314.162 46.1035C313.82 46.7871 313.41 47.4251 312.932 48.0176C312.453 48.5872 311.895 49.0885 311.257 49.5215C310.642 49.9544 309.947 50.2962 309.172 50.5469C308.397 50.7975 307.554 50.9229 306.643 50.9229C305.572 50.9229 304.592 50.7292 303.703 50.3418C302.814 49.9772 302.04 49.4645 301.379 48.8037C300.718 48.1201 300.205 47.3112 299.841 46.377C299.476 45.4199 299.294 44.3717 299.294 43.2324C299.294 41.7741 299.556 40.5094 300.08 39.4385C300.604 38.3447 301.208 37.4447 301.892 36.7383C302.575 36.0091 303.259 35.4736 303.942 35.1318C304.626 34.7673 305.139 34.585 305.48 34.585C305.868 34.585 306.153 34.6875 306.335 34.8926C306.54 35.0977 306.643 35.3711 306.643 35.7129C306.643 36.1003 306.517 36.3965 306.267 36.6016C306.039 36.7839 305.743 36.9661 305.378 37.1484C305.013 37.3307 304.626 37.5928 304.216 37.9346C303.806 38.2536 303.418 38.6637 303.054 39.165C302.712 39.6663 302.427 40.2588 302.199 40.9424C301.971 41.626 301.857 42.3893 301.857 43.2324C301.857 43.9844 301.971 44.6908 302.199 45.3516C302.427 45.9896 302.757 46.5479 303.19 47.0264C303.623 47.4821 304.136 47.8467 304.729 48.1201C305.321 48.3708 305.982 48.4961 306.711 48.4961C308.01 48.4961 309.081 48.1999 309.924 47.6074C310.79 46.9922 311.451 46.2174 311.906 45.2832C310.562 44.5768 309.457 43.5742 308.591 42.2754C307.725 40.9766 307.292 39.5182 307.292 37.9004C307.292 36.6016 307.6 35.542 308.215 34.7217C308.853 33.9014 309.685 33.4912 310.71 33.4912C311.325 33.4912 311.906 33.6393 312.453 33.9355C313 34.2318 313.479 34.6989 313.889 35.3369C314.322 35.9749 314.663 36.7952 314.914 37.7979C315.165 38.8005 315.29 39.9967 315.29 41.3867C315.29 42.1159 315.199 42.8792 315.017 43.6768C315.153 43.6995 315.29 43.7109 315.427 43.7109C315.563 43.7109 315.712 43.7109 315.871 43.7109C316.646 43.7109 317.341 43.6198 317.956 43.4375C318.571 43.2552 319.13 42.9818 319.631 42.6172C320.132 42.2526 320.576 41.7855 320.964 41.2158C321.374 40.6462 321.761 39.9854 322.126 39.2334C322.194 39.0967 322.342 38.9714 322.57 38.8574C322.798 38.7207 323.026 38.6523 323.254 38.6523C323.55 38.6523 323.824 38.7777 324.074 39.0283C324.348 39.2562 324.484 39.5638 324.484 39.9512C324.484 40.1335 324.439 40.3385 324.348 40.5664C324.257 40.7715 324.165 40.9652 324.074 41.1475C323.687 41.8311 323.231 42.4919 322.707 43.1299C322.206 43.7451 321.602 44.292 320.896 44.7705C320.212 45.2262 319.437 45.5908 318.571 45.8643C317.705 46.1377 316.737 46.263 315.666 46.2402ZM309.821 37.627C309.821 38.0599 309.878 38.5156 309.992 38.9941C310.106 39.4727 310.277 39.9512 310.505 40.4297C310.756 40.8854 311.052 41.3298 311.394 41.7627C311.758 42.1729 312.18 42.526 312.658 42.8223C312.727 42.3438 312.761 41.8766 312.761 41.4209C312.761 40.8057 312.715 40.179 312.624 39.541C312.533 38.903 312.396 38.3219 312.214 37.7979C312.054 37.251 311.849 36.818 311.599 36.499C311.348 36.1572 311.052 35.9863 310.71 35.9863C310.573 35.9863 310.391 36.0889 310.163 36.2939C309.935 36.499 309.821 36.9434 309.821 37.627ZM329.646 46.9238C330.01 46.1719 330.432 45.3516 330.91 44.4629C331.389 43.5514 331.901 42.64 332.448 41.7285C332.995 40.7943 333.565 39.8714 334.157 38.96C334.772 38.0485 335.41 37.1826 336.071 36.3623C336.732 35.5648 337.393 34.9951 338.054 34.6533C338.737 34.2887 339.375 34.1064 339.968 34.1064C341.153 34.1064 342.03 34.5394 342.6 35.4053C343.169 36.2712 343.454 37.3421 343.454 38.6182C343.454 38.9144 343.431 39.279 343.386 39.7119C343.363 40.1221 343.329 40.5664 343.283 41.0449C343.26 41.5234 343.226 42.0133 343.181 42.5146C343.158 42.9932 343.146 43.4489 343.146 43.8818C343.146 44.4287 343.169 44.9528 343.215 45.4541C343.283 45.9554 343.397 46.3997 343.557 46.7871C343.716 47.1517 343.944 47.4479 344.24 47.6758C344.536 47.8809 344.924 47.9834 345.402 47.9834C346.268 47.9834 347.111 47.653 347.932 46.9922C348.752 46.3086 349.504 45.5111 350.188 44.5996C350.894 43.6654 351.498 42.7197 351.999 41.7627C352.523 40.8057 352.91 40.0309 353.161 39.4385C353.275 39.1878 353.435 38.9941 353.64 38.8574C353.868 38.7207 354.107 38.6523 354.357 38.6523C354.745 38.6523 355.052 38.8005 355.28 39.0967C355.531 39.3701 355.656 39.6663 355.656 39.9854C355.656 40.1449 355.622 40.3044 355.554 40.4639C355.463 40.6462 355.28 41.0221 355.007 41.5918C354.733 42.1615 354.369 42.8223 353.913 43.5742C353.48 44.3034 352.967 45.0895 352.375 45.9326C351.783 46.7529 351.122 47.5049 350.393 48.1885C349.686 48.8721 348.911 49.4417 348.068 49.8975C347.248 50.3532 346.382 50.5811 345.471 50.5811C344.445 50.5811 343.614 50.3874 342.976 50C342.338 49.5898 341.836 49.0658 341.472 48.4277C341.107 47.7669 340.856 47.0492 340.72 46.2744C340.606 45.4769 340.549 44.6794 340.549 43.8818C340.549 43.54 340.56 43.1527 340.583 42.7197C340.629 42.2868 340.674 41.8311 340.72 41.3525C340.788 40.874 340.834 40.3955 340.856 39.917C340.902 39.4385 340.925 38.9827 340.925 38.5498C340.925 37.8206 340.811 37.3307 340.583 37.0801C340.355 36.8066 340.15 36.6699 339.968 36.6699C339.603 36.6699 339.182 36.8864 338.703 37.3193C338.247 37.7295 337.757 38.2764 337.233 38.96C336.732 39.6436 336.208 40.4183 335.661 41.2842C335.137 42.1273 334.636 42.9704 334.157 43.8135C333.701 44.6566 333.269 45.4655 332.858 46.2402C332.471 46.9922 332.163 47.6188 331.936 48.1201C331.48 49.0771 331.024 49.7152 330.568 50.0342C330.113 50.376 329.646 50.5469 329.167 50.5469C328.506 50.5469 327.971 50.3532 327.561 49.9658C327.173 49.5557 326.979 48.986 326.979 48.2568C326.979 48.0973 327.002 47.7897 327.048 47.334C327.093 46.8555 327.15 46.2972 327.219 45.6592C327.287 44.9984 327.355 44.292 327.424 43.54C327.492 42.7881 327.561 42.0475 327.629 41.3184C327.697 40.5664 327.754 39.8714 327.8 39.2334C327.845 38.5954 327.868 38.0599 327.868 37.627C327.868 37.0573 327.845 36.5104 327.8 35.9863C327.754 35.4622 327.663 35.1432 327.526 35.0293C327.321 35.0977 326.957 35.5306 326.433 36.3281C325.909 37.1029 325.236 38.4814 324.416 40.4639C324.302 40.7145 324.131 40.9082 323.903 41.0449C323.675 41.1816 323.436 41.25 323.186 41.25C322.798 41.25 322.491 41.1247 322.263 40.874C322.035 40.6006 321.921 40.293 321.921 39.9512C321.921 39.7917 321.955 39.6208 322.023 39.4385C323.049 37.0003 324.006 35.2116 324.895 34.0723C325.806 32.9102 326.706 32.3291 327.595 32.3291C328.119 32.3291 328.563 32.4658 328.928 32.7393C329.292 32.9899 329.577 33.3317 329.782 33.7646C330.01 34.1976 330.17 34.6761 330.261 35.2002C330.375 35.7243 330.432 36.2598 330.432 36.8066C330.432 37.2168 330.397 37.8548 330.329 38.7207C330.284 39.5866 330.215 40.5208 330.124 41.5234C330.033 42.5033 329.942 43.4831 329.851 44.4629C329.782 45.4427 329.714 46.263 329.646 46.9238ZM379.958 46.1719C379.16 47.4707 378.226 48.4961 377.155 49.248C376.107 50 375.048 50.376 373.977 50.376C373.111 50.376 372.336 50.2165 371.652 49.8975C370.969 49.5785 370.376 49.1341 369.875 48.5645C369.374 47.972 368.986 47.2656 368.713 46.4453C368.462 45.625 368.337 44.7021 368.337 43.6768C368.337 42.0817 368.485 40.6689 368.781 39.4385C369.1 38.208 369.442 37.1826 369.807 36.3623C370.171 35.5192 370.513 34.8812 370.832 34.4482C371.151 34.0153 371.311 33.7988 371.311 33.7988C371.424 33.6621 371.561 33.5596 371.721 33.4912C371.903 33.4229 372.085 33.3887 372.268 33.3887C372.632 33.3887 372.928 33.5254 373.156 33.7988C373.407 34.0495 373.532 34.3457 373.532 34.6875C373.532 34.8242 373.498 34.9609 373.43 35.0977C373.384 35.2344 373.327 35.3711 373.259 35.5078C373.145 35.7129 372.963 36.0319 372.712 36.4648C372.461 36.875 372.199 37.4219 371.926 38.1055C371.652 38.7891 371.413 39.598 371.208 40.5322C371.003 41.4437 370.9 42.4919 370.9 43.6768C370.9 45.0212 371.162 46.0465 371.687 46.7529C372.233 47.4365 372.997 47.7783 373.977 47.7783C374.387 47.7783 374.854 47.653 375.378 47.4023C375.925 47.1289 376.449 46.7188 376.95 46.1719C377.474 45.625 377.93 44.93 378.317 44.0869C378.705 43.2438 378.955 42.2526 379.069 41.1133L379.582 35.2344C379.628 34.8926 379.776 34.6077 380.026 34.3799C380.277 34.152 380.573 34.0381 380.915 34.0381C381.302 34.0381 381.61 34.1862 381.838 34.4824C382.066 34.7559 382.18 35.0749 382.18 35.4395L381.735 41.1133C381.69 41.5918 381.701 42.2184 381.77 42.9932C381.861 43.7679 382.032 44.5312 382.282 45.2832C382.533 46.0352 382.909 46.6846 383.41 47.2314C383.911 47.7555 384.572 48.0176 385.393 48.0176C385.985 48.0176 386.566 47.8695 387.136 47.5732C387.705 47.2542 388.252 46.8441 388.776 46.3428C389.3 45.8415 389.779 45.2832 390.212 44.668C390.668 44.0299 391.078 43.3919 391.442 42.7539C391.83 42.1159 392.16 41.512 392.434 40.9424C392.707 40.3499 392.935 39.8486 393.117 39.4385C393.231 39.1878 393.391 38.9941 393.596 38.8574C393.801 38.7207 394.029 38.6523 394.279 38.6523C394.689 38.6523 395.008 38.7891 395.236 39.0625C395.464 39.3359 395.578 39.6322 395.578 39.9512C395.578 40.1335 395.544 40.3044 395.476 40.4639C395.384 40.6462 395.202 41.0335 394.929 41.626C394.678 42.1956 394.336 42.8564 393.903 43.6084C393.493 44.3376 392.992 45.1123 392.399 45.9326C391.807 46.7529 391.146 47.5163 390.417 48.2227C389.688 48.9062 388.89 49.4759 388.024 49.9316C387.181 50.3646 386.27 50.5811 385.29 50.5811C383.946 50.5811 382.829 50.2051 381.94 49.4531C381.052 48.6784 380.391 47.5846 379.958 46.1719ZM400.739 46.9238C401.104 46.1719 401.525 45.3516 402.004 44.4629C402.482 43.5514 402.995 42.64 403.542 41.7285C404.089 40.7943 404.659 39.8714 405.251 38.96C405.866 38.0485 406.504 37.1826 407.165 36.3623C407.826 35.5648 408.487 34.9951 409.147 34.6533C409.831 34.2887 410.469 34.1064 411.062 34.1064C412.246 34.1064 413.124 34.5394 413.693 35.4053C414.263 36.2712 414.548 37.3421 414.548 38.6182C414.548 38.9144 414.525 39.279 414.479 39.7119C414.457 40.1221 414.423 40.5664 414.377 41.0449C414.354 41.5234 414.32 42.0133 414.274 42.5146C414.252 42.9932 414.24 43.4489 414.24 43.8818C414.24 44.4287 414.263 44.9528 414.309 45.4541C414.377 45.9554 414.491 46.3997 414.65 46.7871C414.81 47.1517 415.038 47.4479 415.334 47.6758C415.63 47.8809 416.018 47.9834 416.496 47.9834C417.362 47.9834 418.205 47.653 419.025 46.9922C419.846 46.3086 420.598 45.5111 421.281 44.5996C421.988 43.6654 422.591 42.7197 423.093 41.7627C423.617 40.8057 424.004 40.0309 424.255 39.4385C424.369 39.1878 424.528 38.9941 424.733 38.8574C424.961 38.7207 425.201 38.6523 425.451 38.6523C425.839 38.6523 426.146 38.8005 426.374 39.0967C426.625 39.3701 426.75 39.6663 426.75 39.9854C426.75 40.1449 426.716 40.3044 426.647 40.4639C426.556 40.6462 426.374 41.0221 426.101 41.5918C425.827 42.1615 425.463 42.8223 425.007 43.5742C424.574 44.3034 424.061 45.0895 423.469 45.9326C422.876 46.7529 422.215 47.5049 421.486 48.1885C420.78 48.8721 420.005 49.4417 419.162 49.8975C418.342 50.3532 417.476 50.5811 416.564 50.5811C415.539 50.5811 414.707 50.3874 414.069 50C413.431 49.5898 412.93 49.0658 412.565 48.4277C412.201 47.7669 411.95 47.0492 411.813 46.2744C411.7 45.4769 411.643 44.6794 411.643 43.8818C411.643 43.54 411.654 43.1527 411.677 42.7197C411.722 42.2868 411.768 41.8311 411.813 41.3525C411.882 40.874 411.927 40.3955 411.95 39.917C411.996 39.4385 412.019 38.9827 412.019 38.5498C412.019 37.8206 411.905 37.3307 411.677 37.0801C411.449 36.8066 411.244 36.6699 411.062 36.6699C410.697 36.6699 410.275 36.8864 409.797 37.3193C409.341 37.7295 408.851 38.2764 408.327 38.96C407.826 39.6436 407.302 40.4183 406.755 41.2842C406.231 42.1273 405.729 42.9704 405.251 43.8135C404.795 44.6566 404.362 45.4655 403.952 46.2402C403.565 46.9922 403.257 47.6188 403.029 48.1201C402.574 49.0771 402.118 49.7152 401.662 50.0342C401.206 50.376 400.739 50.5469 400.261 50.5469C399.6 50.5469 399.064 50.3532 398.654 49.9658C398.267 49.5557 398.073 48.986 398.073 48.2568C398.073 48.0973 398.096 47.7897 398.142 47.334C398.187 46.8555 398.244 46.2972 398.312 45.6592C398.381 44.9984 398.449 44.292 398.518 43.54C398.586 42.7881 398.654 42.0475 398.723 41.3184C398.791 40.5664 398.848 39.8714 398.894 39.2334C398.939 38.5954 398.962 38.0599 398.962 37.627C398.962 37.0573 398.939 36.5104 398.894 35.9863C398.848 35.4622 398.757 35.1432 398.62 35.0293C398.415 35.0977 398.05 35.5306 397.526 36.3281C397.002 37.1029 396.33 38.4814 395.51 40.4639C395.396 40.7145 395.225 40.9082 394.997 41.0449C394.769 41.1816 394.53 41.25 394.279 41.25C393.892 41.25 393.584 41.1247 393.356 40.874C393.129 40.6006 393.015 40.293 393.015 39.9512C393.015 39.7917 393.049 39.6208 393.117 39.4385C394.143 37.0003 395.1 35.2116 395.988 34.0723C396.9 32.9102 397.8 32.3291 398.688 32.3291C399.213 32.3291 399.657 32.4658 400.021 32.7393C400.386 32.9899 400.671 33.3317 400.876 33.7646C401.104 34.1976 401.263 34.6761 401.354 35.2002C401.468 35.7243 401.525 36.2598 401.525 36.8066C401.525 37.2168 401.491 37.8548 401.423 38.7207C401.377 39.5866 401.309 40.5208 401.218 41.5234C401.127 42.5033 401.035 43.4831 400.944 44.4629C400.876 45.4427 400.808 46.263 400.739 46.9238ZM462.058 40.5322C461.921 40.7829 461.682 41.2386 461.34 41.8994C461.021 42.5602 460.576 43.3122 460.007 44.1553C459.46 44.9756 458.799 45.8301 458.024 46.7188C457.25 47.6074 456.361 48.4277 455.358 49.1797C454.356 49.9089 453.228 50.5127 451.975 50.9912C450.744 51.4697 449.4 51.709 447.941 51.709C446.643 51.709 445.492 51.4697 444.489 50.9912C443.487 50.5355 442.632 49.8861 441.926 49.043C441.219 48.1771 440.684 47.1631 440.319 46.001C439.955 44.8389 439.772 43.5514 439.772 42.1387C439.772 40.7715 439.966 39.4954 440.354 38.3105C440.741 37.1029 441.265 36.0547 441.926 35.166C442.609 34.2773 443.396 33.5824 444.284 33.0811C445.173 32.557 446.118 32.2949 447.121 32.2949C447.873 32.2949 448.557 32.4316 449.172 32.7051C449.787 32.9557 450.3 33.2975 450.71 33.7305C451.143 34.1634 451.473 34.6419 451.701 35.166C451.952 35.6901 452.077 36.2142 452.077 36.7383C452.077 37.2396 452.009 37.7067 451.872 38.1396C451.758 38.5726 451.599 38.96 451.394 39.3018C451.211 39.6208 450.995 39.8828 450.744 40.0879C450.493 40.2702 450.243 40.3613 449.992 40.3613C449.605 40.3613 449.286 40.236 449.035 39.9854C448.807 39.7347 448.693 39.4271 448.693 39.0625C448.693 38.8802 448.728 38.7207 448.796 38.584C448.887 38.4473 448.978 38.3105 449.069 38.1738C449.183 38.0143 449.274 37.832 449.343 37.627C449.434 37.3991 449.479 37.1143 449.479 36.7725C449.479 36.2939 449.252 35.861 448.796 35.4736C448.363 35.0863 447.805 34.8926 447.121 34.8926C446.483 34.8926 445.868 35.0863 445.275 35.4736C444.706 35.861 444.204 36.3851 443.771 37.0459C443.339 37.6839 442.985 38.4473 442.712 39.3359C442.461 40.2018 442.336 41.1247 442.336 42.1045C442.336 43.0387 442.45 43.9274 442.678 44.7705C442.906 45.6136 443.247 46.3656 443.703 47.0264C444.159 47.6644 444.729 48.1771 445.412 48.5645C446.118 48.9518 446.95 49.1455 447.907 49.1455C449.138 49.1455 450.277 48.929 451.325 48.4961C452.373 48.0404 453.33 47.4707 454.196 46.7871C455.062 46.1035 455.826 45.363 456.486 44.5654C457.147 43.7451 457.705 42.9818 458.161 42.2754C458.64 41.5462 459.004 40.9196 459.255 40.3955C459.528 39.8486 459.688 39.5068 459.733 39.3701C459.825 39.1423 459.973 38.9714 460.178 38.8574C460.406 38.7207 460.645 38.6523 460.896 38.6523C461.283 38.6523 461.59 38.7891 461.818 39.0625C462.069 39.3359 462.194 39.6436 462.194 39.9854C462.194 40.1221 462.149 40.3044 462.058 40.5322ZM486.154 40.4639C486.063 40.6462 485.869 41.0335 485.573 41.626C485.3 42.1956 484.935 42.8564 484.479 43.6084C484.047 44.3604 483.534 45.1465 482.941 45.9668C482.349 46.7871 481.688 47.5391 480.959 48.2227C480.23 48.9062 479.444 49.4759 478.601 49.9316C477.757 50.3646 476.869 50.5811 475.935 50.5811C474.613 50.5811 473.496 50.1595 472.585 49.3164C471.696 48.4733 471.047 47.4137 470.637 46.1377C469.862 47.4365 468.939 48.4733 467.868 49.248C466.797 50 465.726 50.376 464.655 50.376C463.812 50.376 463.049 50.2279 462.365 49.9316C461.682 49.6126 461.101 49.1797 460.622 48.6328C460.144 48.0632 459.768 47.4023 459.494 46.6504C459.243 45.8984 459.118 45.0781 459.118 44.1895C459.118 42.4121 459.414 40.8512 460.007 39.5068C460.622 38.1396 461.397 37.0003 462.331 36.0889C463.265 35.1774 464.291 34.4938 465.407 34.0381C466.547 33.5824 467.64 33.3545 468.688 33.3545C469.395 33.3545 470.044 33.457 470.637 33.6621C471.229 33.8444 471.73 34.0495 472.141 34.2773C472.574 34.5052 472.904 34.7217 473.132 34.9268C473.36 35.109 473.485 35.2116 473.508 35.2344C473.758 35.5306 473.884 35.8382 473.884 36.1572C473.884 36.499 473.758 36.8066 473.508 37.0801C473.257 37.3307 472.961 37.4561 472.619 37.4561C472.255 37.4561 471.947 37.3307 471.696 37.0801C471.651 37.0345 471.548 36.9548 471.389 36.8408C471.229 36.7041 471.013 36.5674 470.739 36.4307C470.466 36.2939 470.135 36.18 469.748 36.0889C469.383 35.9749 468.962 35.918 468.483 35.918C467.777 35.918 467.025 36.0775 466.228 36.3965C465.43 36.7155 464.701 37.2168 464.04 37.9004C463.379 38.5612 462.821 39.4043 462.365 40.4297C461.932 41.4323 461.716 42.6286 461.716 44.0186C461.716 44.4515 461.761 44.8958 461.853 45.3516C461.944 45.7845 462.103 46.1833 462.331 46.5479C462.559 46.9124 462.867 47.2087 463.254 47.4365C463.641 47.6644 464.12 47.7783 464.689 47.7783C465.1 47.7783 465.567 47.6416 466.091 47.3682C466.638 47.0947 467.15 46.6732 467.629 46.1035C468.13 45.5339 468.575 44.8161 468.962 43.9502C469.372 43.0843 469.657 42.0589 469.816 40.874C469.862 40.555 470.01 40.293 470.261 40.0879C470.511 39.86 470.808 39.7461 471.149 39.7461C471.468 39.7461 471.742 39.8714 471.97 40.1221C472.22 40.3727 472.357 40.6576 472.38 40.9766C472.403 41.4095 472.448 42.0247 472.517 42.8223C472.585 43.597 472.733 44.3717 472.961 45.1465C473.212 45.9212 473.576 46.5934 474.055 47.1631C474.533 47.7327 475.194 48.0176 476.037 48.0176C476.584 48.0176 477.119 47.8695 477.644 47.5732C478.19 47.277 478.715 46.8896 479.216 46.4111C479.74 45.9098 480.23 45.3516 480.686 44.7363C481.164 44.0983 481.597 43.4603 481.984 42.8223C482.372 42.1842 482.714 41.569 483.01 40.9766C483.306 40.3841 483.557 39.8714 483.762 39.4385C483.876 39.1878 484.035 38.9941 484.24 38.8574C484.468 38.7207 484.707 38.6523 484.958 38.6523C485.345 38.6523 485.653 38.8005 485.881 39.0967C486.132 39.3701 486.257 39.6663 486.257 39.9854C486.257 40.1449 486.223 40.3044 486.154 40.4639ZM491.691 46.958C492.033 46.2744 492.466 45.4313 492.99 44.4287C493.537 43.4033 494.095 42.3779 494.665 41.3525C495.257 40.3271 495.827 39.3587 496.374 38.4473C496.944 37.5358 497.422 36.8408 497.81 36.3623C498.47 35.5648 499.154 34.9951 499.86 34.6533C500.567 34.3115 501.216 34.1406 501.809 34.1406C502.401 34.1406 502.902 34.266 503.312 34.5166C503.745 34.7673 504.099 35.109 504.372 35.542C504.646 35.9521 504.851 36.4421 504.987 37.0117C505.124 37.5586 505.192 38.151 505.192 38.7891C505.192 39.1536 505.17 39.6322 505.124 40.2246C505.101 40.8171 505.067 41.4551 505.021 42.1387C504.999 42.8223 504.965 43.5286 504.919 44.2578C504.896 44.987 504.873 45.6706 504.851 46.3086C505.192 45.625 505.58 44.873 506.013 44.0527C506.446 43.2096 506.879 42.3779 507.312 41.5576C507.767 40.7373 508.2 39.974 508.61 39.2676C509.021 38.5384 509.396 37.946 509.738 37.4902C510.718 36.1458 511.63 35.2458 512.473 34.79C513.339 34.3343 514.102 34.1064 514.763 34.1064C515.537 34.1064 516.175 34.2546 516.677 34.5508C517.178 34.8242 517.565 35.1888 517.839 35.6445C518.135 36.0775 518.34 36.5674 518.454 37.1143C518.568 37.6611 518.625 38.1852 518.625 38.6865C518.625 39.4613 518.568 40.2702 518.454 41.1133C518.34 41.9564 518.283 42.959 518.283 44.1211C518.283 44.5996 518.306 45.0781 518.352 45.5566C518.397 46.0352 518.488 46.4567 518.625 46.8213C518.785 47.1859 519.024 47.4821 519.343 47.71C519.662 47.9378 520.095 48.0518 520.642 48.0518C521.234 48.0518 521.815 47.9036 522.385 47.6074C522.954 47.2884 523.501 46.8783 524.025 46.377C524.549 45.8757 525.039 45.306 525.495 44.668C525.974 44.0299 526.407 43.3919 526.794 42.7539C527.181 42.1159 527.523 41.512 527.819 40.9424C528.116 40.3499 528.355 39.8486 528.537 39.4385C528.651 39.1878 528.811 38.9941 529.016 38.8574C529.221 38.7207 529.449 38.6523 529.699 38.6523C530.087 38.6523 530.394 38.8005 530.622 39.0967C530.873 39.3701 530.998 39.6663 530.998 39.9854C530.998 40.1449 530.964 40.3044 530.896 40.4639C530.804 40.6462 530.622 41.0335 530.349 41.626C530.075 42.1956 529.711 42.8564 529.255 43.6084C528.799 44.3376 528.264 45.1123 527.648 45.9326C527.056 46.7529 526.395 47.5163 525.666 48.2227C524.937 48.9062 524.151 49.4759 523.308 49.9316C522.465 50.3646 521.576 50.5811 520.642 50.5811C519.639 50.5811 518.819 50.3988 518.181 50.0342C517.565 49.6924 517.064 49.2253 516.677 48.6328C516.312 48.0404 516.062 47.3568 515.925 46.582C515.788 45.8073 515.72 44.9984 515.72 44.1553C515.72 43.0387 515.777 42.0133 515.891 41.0791C516.005 40.1221 516.062 39.3815 516.062 38.8574C516.062 38.2878 516.005 37.8548 515.891 37.5586C515.799 37.2624 515.674 37.0573 515.515 36.9434C515.378 36.8066 515.241 36.7383 515.104 36.7383C514.968 36.7155 514.865 36.7041 514.797 36.7041C514.25 36.7041 513.669 37.0117 513.054 37.627C512.461 38.2194 511.846 39.0169 511.208 40.0195C510.57 41.0221 509.909 42.1615 509.226 43.4375C508.565 44.7135 507.893 46.0124 507.209 47.334C506.822 48.0632 506.491 48.667 506.218 49.1455C505.967 49.624 505.716 50 505.466 50.2734C505.238 50.5469 505.01 50.7406 504.782 50.8545C504.554 50.9684 504.304 51.0254 504.03 51.0254C503.438 51.0254 502.982 50.8203 502.663 50.4102C502.367 50 502.219 49.4645 502.219 48.8037C502.219 48.4619 502.23 48.0062 502.253 47.4365C502.276 46.8669 502.299 46.2402 502.321 45.5566C502.344 44.873 502.378 44.1667 502.424 43.4375C502.469 42.7083 502.504 42.0133 502.526 41.3525C502.549 40.6689 502.572 40.0651 502.595 39.541C502.618 39.0169 502.629 38.6182 502.629 38.3447C502.629 37.7523 502.526 37.3307 502.321 37.0801C502.116 36.8066 501.877 36.6699 501.604 36.6699C501.353 36.6699 501.068 36.7611 500.749 36.9434C500.453 37.1257 500.1 37.4788 499.689 38.0029C499.37 38.4131 498.96 39.0169 498.459 39.8145C497.98 40.5892 497.468 41.4551 496.921 42.4121C496.374 43.3691 495.827 44.349 495.28 45.3516C494.756 46.3542 494.3 47.2542 493.913 48.0518C493.435 49.0088 492.956 49.6582 492.478 50C491.999 50.3646 491.532 50.5469 491.076 50.5469C490.415 50.5469 489.925 50.3532 489.606 49.9658C489.287 49.5557 489.128 49.0202 489.128 48.3594C489.128 48.291 489.139 47.8809 489.162 47.1289C489.208 46.377 489.253 45.4655 489.299 44.3945C489.344 43.3008 489.39 42.1387 489.436 40.9082C489.504 39.6777 489.561 38.527 489.606 37.4561C489.629 36.8864 489.606 36.3623 489.538 35.8838C489.47 35.4053 489.379 35.1204 489.265 35.0293C489.082 35.0749 488.718 35.4964 488.171 36.2939C487.647 37.0915 486.975 38.4814 486.154 40.4639C486.04 40.7145 485.869 40.9082 485.642 41.0449C485.414 41.1816 485.174 41.25 484.924 41.25C484.536 41.25 484.229 41.1247 484.001 40.874C483.773 40.6006 483.659 40.293 483.659 39.9512C483.659 39.7917 483.693 39.6208 483.762 39.4385C484.787 37.0003 485.767 35.2116 486.701 34.0723C487.635 32.9102 488.547 32.3291 489.436 32.3291C489.96 32.3291 490.393 32.4544 490.734 32.7051C491.099 32.9329 491.384 33.2406 491.589 33.6279C491.794 33.9925 491.942 34.4141 492.033 34.8926C492.124 35.3711 492.17 35.8382 492.17 36.2939C492.17 38.3219 492.113 40.179 491.999 41.8652C491.908 43.5514 491.805 45.249 491.691 46.958ZM557.385 40.5322C557.316 40.6689 557.168 40.9538 556.94 41.3867C556.713 41.7969 556.416 42.2868 556.052 42.8564C555.687 43.4033 555.254 43.9958 554.753 44.6338C554.252 45.249 553.705 45.8187 553.112 46.3428C552.52 46.8669 551.882 47.2998 551.198 47.6416C550.515 47.9834 549.808 48.1543 549.079 48.1543C547.894 48.1543 546.892 47.9492 546.071 47.5391C545.251 47.1061 544.579 46.6276 544.055 46.1035C543.69 46.901 543.246 47.6302 542.722 48.291C542.198 48.9518 541.617 49.5215 540.979 50C540.34 50.5013 539.657 50.8887 538.928 51.1621C538.221 51.4355 537.492 51.5723 536.74 51.5723C535.35 51.5723 534.165 51.1621 533.186 50.3418C532.206 49.5215 531.385 48.4277 530.725 47.0605C530.087 45.6706 529.585 44.0641 529.221 42.2412C528.856 40.4183 528.571 38.5042 528.366 36.499C528.184 34.4938 528.07 32.4658 528.024 30.415C527.979 28.3643 527.956 26.416 527.956 24.5703C527.956 21.0384 528.059 17.985 528.264 15.4102C528.469 12.8125 528.742 10.6136 529.084 8.81348C529.449 6.99056 529.859 5.52083 530.314 4.4043C530.793 3.26497 531.294 2.3877 531.818 1.77246C532.342 1.13444 532.878 0.701497 533.425 0.473633C533.972 0.245768 534.507 0.131836 535.031 0.131836C535.874 0.131836 536.615 0.382487 537.253 0.883789C537.914 1.38509 538.461 2.09147 538.894 3.00293C539.349 3.8916 539.691 4.97396 539.919 6.25C540.147 7.52604 540.261 8.92741 540.261 10.4541C540.261 12.8923 539.999 15.4102 539.475 18.0078C538.951 20.6055 538.267 23.2031 537.424 25.8008C536.604 28.3757 535.681 30.9163 534.655 33.4229C533.63 35.9066 532.616 38.265 531.613 40.498C531.75 41.6146 531.955 42.6855 532.229 43.7109C532.502 44.7135 532.855 45.6136 533.288 46.4111C533.721 47.1859 534.234 47.8125 534.826 48.291C535.419 48.7467 536.102 48.9746 536.877 48.9746C537.652 48.9746 538.381 48.7581 539.064 48.3252C539.748 47.8695 540.34 47.2884 540.842 46.582C541.343 45.8529 541.73 45.0326 542.004 44.1211C542.3 43.2096 542.448 42.2754 542.448 41.3184C542.448 40.6803 542.38 40.0423 542.243 39.4043C542.129 38.7435 541.936 38.1624 541.662 37.6611C541.411 37.137 541.092 36.7155 540.705 36.3965C540.318 36.0775 539.851 35.918 539.304 35.918C538.894 35.918 538.575 36.0091 538.347 36.1914C538.119 36.3509 537.948 36.5446 537.834 36.7725C537.72 36.9775 537.652 37.1826 537.629 37.3877C537.606 37.5928 537.595 37.7295 537.595 37.7979C537.595 38.1169 537.663 38.4359 537.8 38.7549C537.937 39.0739 538.199 39.3587 538.586 39.6094C538.973 39.8828 539.167 40.2588 539.167 40.7373C539.167 41.1247 539.03 41.4323 538.757 41.6602C538.506 41.888 538.221 42.002 537.902 42.002C537.447 42.002 537.036 41.8652 536.672 41.5918C536.33 41.3184 536.034 40.9766 535.783 40.5664C535.533 40.1335 535.339 39.6777 535.202 39.1992C535.065 38.7207 534.997 38.2764 534.997 37.8662C534.997 37.2054 535.111 36.6016 535.339 36.0547C535.567 35.485 535.874 35.0065 536.262 34.6191C536.672 34.209 537.128 33.9014 537.629 33.6963C538.153 33.4684 538.7 33.3545 539.27 33.3545C540.249 33.3545 541.092 33.5824 541.799 34.0381C542.528 34.4938 543.132 35.0977 543.61 35.8496C544.089 36.6016 544.442 37.4561 544.67 38.4131C544.898 39.3701 545.012 40.3385 545.012 41.3184C545.012 41.888 544.978 42.4463 544.909 42.9932C545 43.1755 545.148 43.4147 545.354 43.7109C545.559 44.0072 545.832 44.292 546.174 44.5654C546.516 44.8389 546.926 45.0781 547.404 45.2832C547.883 45.4883 548.441 45.5908 549.079 45.5908C549.626 45.5908 550.184 45.3857 550.754 44.9756C551.346 44.5426 551.905 44.0186 552.429 43.4033C552.976 42.7653 553.477 42.0931 553.933 41.3867C554.388 40.6576 554.764 39.9854 555.061 39.3701C555.174 39.1423 555.334 38.9714 555.539 38.8574C555.744 38.7207 555.972 38.6523 556.223 38.6523C556.61 38.6523 556.918 38.7891 557.146 39.0625C557.396 39.3359 557.521 39.6436 557.521 39.9854C557.521 40.1221 557.476 40.3044 557.385 40.5322ZM530.964 36.123C531.739 34.209 532.525 32.2038 533.322 30.1074C534.12 27.9883 534.838 25.835 535.476 23.6475C536.114 21.46 536.638 19.2497 537.048 17.0166C537.458 14.7835 537.663 12.5846 537.663 10.4199C537.663 9.59961 537.618 8.74512 537.526 7.85645C537.458 6.94499 537.321 6.11328 537.116 5.36133C536.911 4.60938 536.626 3.98275 536.262 3.48145C535.92 2.98014 535.476 2.72949 534.929 2.72949C534.746 2.72949 534.507 2.85482 534.211 3.10547C533.938 3.33333 533.641 3.75488 533.322 4.37012C533.003 4.96257 532.684 5.79427 532.365 6.86523C532.046 7.9362 531.75 9.30339 531.477 10.9668C531.226 12.6074 531.009 14.5898 530.827 16.9141C530.668 19.2383 530.588 21.9727 530.588 25.1172C530.588 26.1654 530.599 27.2363 530.622 28.3301C530.645 29.401 530.668 30.4264 530.69 31.4062C530.736 32.3861 530.782 33.2861 530.827 34.1064C530.873 34.9268 530.918 35.599 530.964 36.123ZM560.666 23.1689C560.666 24.0348 560.358 24.7754 559.743 25.3906C559.151 25.9831 558.422 26.2793 557.556 26.2793C556.69 26.2793 555.949 25.9831 555.334 25.3906C554.742 24.7754 554.445 24.0348 554.445 23.1689C554.445 22.736 554.525 22.3372 554.685 21.9727C554.844 21.5853 555.061 21.2549 555.334 20.9814C555.63 20.6852 555.961 20.4574 556.325 20.2979C556.713 20.1383 557.123 20.0586 557.556 20.0586C557.989 20.0586 558.387 20.1383 558.752 20.2979C559.139 20.4574 559.47 20.6852 559.743 20.9814C560.039 21.2549 560.267 21.5853 560.427 21.9727C560.586 22.3372 560.666 22.736 560.666 23.1689ZM555.129 43.1982C555.129 39.917 555.334 36.6471 555.744 33.3887C555.79 33.0697 555.926 32.7962 556.154 32.5684C556.405 32.3177 556.724 32.1924 557.111 32.1924C557.453 32.1924 557.738 32.3291 557.966 32.6025C558.194 32.8532 558.308 33.1494 558.308 33.4912C558.308 33.6279 558.273 34.0381 558.205 34.7217C558.16 35.4053 558.091 36.2256 558 37.1826C557.932 38.1169 557.863 39.1195 557.795 40.1904C557.749 41.2386 557.727 42.207 557.727 43.0957C557.727 44.3034 557.84 45.2832 558.068 46.0352C558.319 46.7643 558.627 47.334 558.991 47.7441C559.379 48.1543 559.777 48.4277 560.188 48.5645C560.62 48.7012 561.031 48.7695 561.418 48.7695C562.056 48.7695 562.717 48.5417 563.4 48.0859C564.084 47.6302 564.779 46.9922 565.485 46.1719C566.215 45.3516 566.944 44.3717 567.673 43.2324C568.402 42.0703 569.12 40.7829 569.826 39.3701C569.94 39.1423 570.1 38.9714 570.305 38.8574C570.51 38.7207 570.738 38.6523 570.988 38.6523C571.353 38.6523 571.649 38.7891 571.877 39.0625C572.128 39.3359 572.253 39.6322 572.253 39.9512C572.253 40.179 572.207 40.3727 572.116 40.5322C571.843 41.0563 571.501 41.6943 571.091 42.4463C570.681 43.1982 570.214 43.973 569.689 44.7705C569.165 45.568 568.584 46.3656 567.946 47.1631C567.331 47.9378 566.67 48.6442 565.964 49.2822C565.257 49.8975 564.517 50.3988 563.742 50.7861C562.967 51.1735 562.181 51.3672 561.384 51.3672C560.358 51.3672 559.458 51.1507 558.684 50.7178C557.909 50.2848 557.248 49.7038 556.701 48.9746C556.177 48.2454 555.778 47.391 555.505 46.4111C555.254 45.4085 555.129 44.3376 555.129 43.1982ZM558.752 23.1689C558.752 22.8499 558.627 22.5765 558.376 22.3486C558.148 22.098 557.875 21.9727 557.556 21.9727C557.237 21.9727 556.963 22.098 556.735 22.3486C556.507 22.5765 556.394 22.8499 556.394 23.1689C556.394 23.488 556.507 23.7614 556.735 23.9893C556.963 24.2171 557.237 24.3311 557.556 24.3311C557.875 24.3311 558.148 24.2171 558.376 23.9893C558.627 23.7614 558.752 23.488 558.752 23.1689ZM585.549 46.2402C584.979 46.2402 584.478 46.1947 584.045 46.1035C583.703 46.7871 583.293 47.4251 582.814 48.0176C582.336 48.5872 581.778 49.0885 581.14 49.5215C580.524 49.9544 579.829 50.2962 579.055 50.5469C578.28 50.7975 577.437 50.9229 576.525 50.9229C575.454 50.9229 574.475 50.7292 573.586 50.3418C572.697 49.9772 571.923 49.4645 571.262 48.8037C570.601 48.1201 570.088 47.3112 569.724 46.377C569.359 45.4199 569.177 44.3717 569.177 43.2324C569.177 41.7741 569.439 40.5094 569.963 39.4385C570.487 38.3447 571.091 37.4447 571.774 36.7383C572.458 36.0091 573.142 35.4736 573.825 35.1318C574.509 34.7673 575.021 34.585 575.363 34.585C575.751 34.585 576.035 34.6875 576.218 34.8926C576.423 35.0977 576.525 35.3711 576.525 35.7129C576.525 36.1003 576.4 36.3965 576.149 36.6016C575.922 36.7839 575.625 36.9661 575.261 37.1484C574.896 37.3307 574.509 37.5928 574.099 37.9346C573.688 38.2536 573.301 38.6637 572.937 39.165C572.595 39.6663 572.31 40.2588 572.082 40.9424C571.854 41.626 571.74 42.3893 571.74 43.2324C571.74 43.9844 571.854 44.6908 572.082 45.3516C572.31 45.9896 572.64 46.5479 573.073 47.0264C573.506 47.4821 574.019 47.8467 574.611 48.1201C575.204 48.3708 575.865 48.4961 576.594 48.4961C577.893 48.4961 578.964 48.1999 579.807 47.6074C580.673 46.9922 581.333 46.2174 581.789 45.2832C580.445 44.5768 579.34 43.5742 578.474 42.2754C577.608 40.9766 577.175 39.5182 577.175 37.9004C577.175 36.6016 577.482 35.542 578.098 34.7217C578.736 33.9014 579.567 33.4912 580.593 33.4912C581.208 33.4912 581.789 33.6393 582.336 33.9355C582.883 34.2318 583.361 34.6989 583.771 35.3369C584.204 35.9749 584.546 36.7952 584.797 37.7979C585.048 38.8005 585.173 39.9967 585.173 41.3867C585.173 42.1159 585.082 42.8792 584.899 43.6768C585.036 43.6995 585.173 43.7109 585.31 43.7109C585.446 43.7109 585.594 43.7109 585.754 43.7109C586.529 43.7109 587.224 43.6198 587.839 43.4375C588.454 43.2552 589.012 42.9818 589.514 42.6172C590.015 42.2526 590.459 41.7855 590.847 41.2158C591.257 40.6462 591.644 39.9854 592.009 39.2334C592.077 39.0967 592.225 38.9714 592.453 38.8574C592.681 38.7207 592.909 38.6523 593.137 38.6523C593.433 38.6523 593.706 38.7777 593.957 39.0283C594.23 39.2562 594.367 39.5638 594.367 39.9512C594.367 40.1335 594.322 40.3385 594.23 40.5664C594.139 40.7715 594.048 40.9652 593.957 41.1475C593.57 41.8311 593.114 42.4919 592.59 43.1299C592.089 43.7451 591.485 44.292 590.778 44.7705C590.095 45.2262 589.32 45.5908 588.454 45.8643C587.588 46.1377 586.62 46.263 585.549 46.2402ZM579.704 37.627C579.704 38.0599 579.761 38.5156 579.875 38.9941C579.989 39.4727 580.16 39.9512 580.388 40.4297C580.638 40.8854 580.935 41.3298 581.276 41.7627C581.641 42.1729 582.062 42.526 582.541 42.8223C582.609 42.3438 582.644 41.8766 582.644 41.4209C582.644 40.8057 582.598 40.179 582.507 39.541C582.416 38.903 582.279 38.3219 582.097 37.7979C581.937 37.251 581.732 36.818 581.481 36.499C581.231 36.1572 580.935 35.9863 580.593 35.9863C580.456 35.9863 580.274 36.0889 580.046 36.2939C579.818 36.499 579.704 36.9434 579.704 37.627Z" fill="#322016"/>
<path d="M76.26 83C76.0333 83 75.82 82.94 75.62 82.82C75.42 82.7 75.32 82.5267 75.32 82.3V69.08C75.32 68.8533 75.42 68.68 75.62 68.56C75.82 68.44 76.0333 68.38 76.26 68.38H83.38C83.6333 68.38 83.8133 68.48 83.92 68.68C84.0267 68.88 84.08 69.0867 84.08 69.3C84.08 69.5533 84.02 69.78 83.9 69.98C83.78 70.1667 83.6067 70.26 83.38 70.26H77.44V74.84H80.52C80.7467 74.84 80.92 74.9267 81.04 75.1C81.16 75.2733 81.22 75.4733 81.22 75.7C81.22 75.8867 81.1667 76.0733 81.06 76.26C80.9533 76.4333 80.7733 76.52 80.52 76.52H77.44V81.12H83.38C83.6067 81.12 83.78 81.2133 83.9 81.4C84.02 81.5867 84.08 81.8133 84.08 82.08C84.08 82.2933 84.0267 82.5 83.92 82.7C83.8133 82.9 83.6333 83 83.38 83H76.26ZM89.7092 83C89.4826 83 89.2692 82.94 89.0692 82.82C88.8692 82.7 88.7692 82.5267 88.7692 82.3V69.06C88.7692 68.82 88.8759 68.6467 89.0892 68.54C89.3159 68.4333 89.5626 68.38 89.8292 68.38C90.0959 68.38 90.3359 68.4333 90.5492 68.54C90.7759 68.6467 90.8892 68.82 90.8892 69.06V81.12H96.0892C96.3026 81.12 96.4626 81.22 96.5692 81.42C96.6759 81.6067 96.7292 81.82 96.7292 82.06C96.7292 82.2867 96.6759 82.5 96.5692 82.7C96.4626 82.9 96.3026 83 96.0892 83H89.7092ZM109.325 83C109.059 83 108.812 82.94 108.585 82.82C108.372 82.7 108.265 82.5267 108.265 82.3V69.44C108.265 69.04 108.372 68.7667 108.585 68.62C108.812 68.46 109.059 68.38 109.325 68.38C109.579 68.38 109.799 68.42 109.985 68.5C110.172 68.5667 110.345 68.6867 110.505 68.86C110.665 69.0333 110.832 69.2733 111.005 69.58L113.805 74.88L116.645 69.58C116.819 69.2733 116.979 69.0333 117.125 68.86C117.285 68.6867 117.459 68.5667 117.645 68.5C117.832 68.42 118.052 68.38 118.305 68.38C118.585 68.38 118.832 68.46 119.045 68.62C119.259 68.7667 119.365 69.04 119.365 69.44V82.3C119.365 82.5267 119.252 82.7 119.025 82.82C118.812 82.94 118.572 83 118.305 83C118.039 83 117.792 82.94 117.565 82.82C117.352 82.7 117.245 82.5267 117.245 82.3V72.7L114.565 77.66C114.459 77.8333 114.339 77.96 114.205 78.04C114.072 78.1067 113.932 78.14 113.785 78.14C113.665 78.14 113.539 78.1067 113.405 78.04C113.272 77.9733 113.159 77.8467 113.065 77.66L110.385 72.58V82.3C110.385 82.5267 110.272 82.7 110.045 82.82C109.832 82.94 109.592 83 109.325 83ZM125.936 83C125.709 83 125.496 82.94 125.296 82.82C125.096 82.7 124.996 82.5267 124.996 82.3V69.08C124.996 68.8533 125.096 68.68 125.296 68.56C125.496 68.44 125.709 68.38 125.936 68.38H133.056C133.309 68.38 133.489 68.48 133.596 68.68C133.702 68.88 133.756 69.0867 133.756 69.3C133.756 69.5533 133.696 69.78 133.576 69.98C133.456 70.1667 133.282 70.26 133.056 70.26H127.116V74.84H130.196C130.422 74.84 130.596 74.9267 130.716 75.1C130.836 75.2733 130.896 75.4733 130.896 75.7C130.896 75.8867 130.842 76.0733 130.736 76.26C130.629 76.4333 130.449 76.52 130.196 76.52H127.116V81.12H133.056C133.282 81.12 133.456 81.2133 133.576 81.4C133.696 81.5867 133.756 81.8133 133.756 82.08C133.756 82.2933 133.702 82.5 133.596 82.7C133.489 82.9 133.309 83 133.056 83H125.936ZM141.906 83.12C141.026 83.12 140.24 82.9667 139.546 82.66C138.853 82.34 138.313 81.8933 137.926 81.32C137.54 80.7467 137.346 80.0733 137.346 79.3C137.346 78.9 137.433 78.6333 137.606 78.5C137.793 78.3533 138.06 78.28 138.406 78.28C138.686 78.28 138.926 78.3333 139.126 78.44C139.34 78.5333 139.453 78.7133 139.466 78.98C139.48 79.3667 139.566 79.7333 139.726 80.08C139.886 80.4267 140.14 80.7067 140.486 80.92C140.833 81.1333 141.28 81.24 141.826 81.24C142.586 81.24 143.173 81.0333 143.586 80.62C144.013 80.1933 144.226 79.54 144.226 78.66V70.26H141.886C141.66 70.26 141.486 70.1667 141.366 69.98C141.246 69.78 141.186 69.5533 141.186 69.3C141.186 69.0867 141.24 68.88 141.346 68.68C141.453 68.48 141.633 68.38 141.886 68.38H145.386C145.64 68.38 145.86 68.44 146.046 68.56C146.246 68.68 146.346 68.8533 146.346 69.08V78.66C146.346 79.74 146.146 80.6067 145.746 81.26C145.346 81.9133 144.813 82.3867 144.146 82.68C143.48 82.9733 142.733 83.12 141.906 83.12ZM156.254 83.12C155.4 83.12 154.634 82.9733 153.954 82.68C153.287 82.3867 152.754 81.9133 152.354 81.26C151.967 80.6067 151.774 79.74 151.774 78.66V72.84C151.774 71.76 151.967 70.8933 152.354 70.24C152.754 69.5867 153.287 69.1133 153.954 68.82C154.634 68.5267 155.4 68.38 156.254 68.38C157.094 68.38 157.854 68.5267 158.534 68.82C159.214 69.1133 159.754 69.5867 160.154 70.24C160.554 70.8933 160.754 71.76 160.754 72.84V78.66C160.754 79.74 160.554 80.6067 160.154 81.26C159.754 81.9133 159.214 82.3867 158.534 82.68C157.854 82.9733 157.094 83.12 156.254 83.12ZM156.254 81.24C156.987 81.24 157.567 81.0333 157.994 80.62C158.42 80.1933 158.634 79.54 158.634 78.66V72.84C158.634 71.96 158.42 71.3133 157.994 70.9C157.58 70.4733 157 70.26 156.254 70.26C155.507 70.26 154.92 70.4733 154.494 70.9C154.08 71.3133 153.874 71.96 153.874 72.84V78.66C153.874 79.54 154.08 80.1933 154.494 80.62C154.92 81.0333 155.507 81.24 156.254 81.24ZM174.122 83.06C173.949 83.06 173.789 83 173.642 82.88C173.509 82.76 173.395 82.6133 173.302 82.44L170.362 76.72H168.362V82.3C168.362 82.5267 168.249 82.7 168.022 82.82C167.809 82.94 167.569 83 167.302 83C167.035 83 166.789 82.94 166.562 82.82C166.349 82.7 166.242 82.5267 166.242 82.3V69.06C166.242 68.8733 166.302 68.7133 166.422 68.58C166.555 68.4467 166.735 68.38 166.962 68.38H170.762C171.602 68.38 172.369 68.5067 173.062 68.76C173.755 69 174.309 69.42 174.722 70.02C175.135 70.6067 175.342 71.42 175.342 72.46C175.342 73.26 175.215 73.9267 174.962 74.46C174.722 74.9933 174.389 75.42 173.962 75.74C173.549 76.0467 173.075 76.2733 172.542 76.42L175.342 81.68C175.369 81.72 175.389 81.7733 175.402 81.84C175.415 81.8933 175.422 81.94 175.422 81.98C175.422 82.1533 175.355 82.3267 175.222 82.5C175.089 82.66 174.922 82.7933 174.722 82.9C174.535 83.0067 174.335 83.06 174.122 83.06ZM168.362 75.02H170.762C171.509 75.02 172.102 74.84 172.542 74.48C172.995 74.12 173.222 73.5067 173.222 72.64C173.222 71.7733 172.995 71.16 172.542 70.8C172.102 70.44 171.509 70.26 170.762 70.26H168.362V75.02ZM188.24 83C188.014 83 187.8 82.94 187.6 82.82C187.4 82.7 187.3 82.5267 187.3 82.3V69.06C187.3 68.82 187.407 68.6467 187.62 68.54C187.847 68.4333 188.094 68.38 188.36 68.38C188.627 68.38 188.867 68.4333 189.08 68.54C189.307 68.6467 189.42 68.82 189.42 69.06V81.12H194.62C194.834 81.12 194.994 81.22 195.1 81.42C195.207 81.6067 195.26 81.82 195.26 82.06C195.26 82.2867 195.207 82.5 195.1 82.7C194.994 82.9 194.834 83 194.62 83H188.24ZM203.922 83.12C203.068 83.12 202.295 82.9733 201.602 82.68C200.908 82.3867 200.362 81.9133 199.962 81.26C199.562 80.6067 199.362 79.74 199.362 78.66V69.06C199.362 68.82 199.468 68.6467 199.682 68.54C199.895 68.4333 200.142 68.38 200.422 68.38C200.675 68.38 200.915 68.4333 201.142 68.54C201.368 68.6467 201.482 68.82 201.482 69.06V78.66C201.482 79.54 201.695 80.1933 202.122 80.62C202.548 81.0333 203.148 81.24 203.922 81.24C204.682 81.24 205.282 81.0333 205.722 80.62C206.162 80.1933 206.382 79.54 206.382 78.66V69.06C206.382 68.82 206.488 68.6467 206.702 68.54C206.915 68.4333 207.162 68.38 207.442 68.38C207.695 68.38 207.935 68.4333 208.162 68.54C208.388 68.6467 208.502 68.82 208.502 69.06V78.66C208.502 79.74 208.295 80.6067 207.882 81.26C207.482 81.9133 206.935 82.3867 206.242 82.68C205.548 82.9733 204.775 83.12 203.922 83.12ZM218.402 83.12C217.549 83.12 216.782 82.9733 216.102 82.68C215.436 82.3867 214.902 81.9133 214.502 81.26C214.116 80.6067 213.922 79.74 213.922 78.66V72.84C213.922 71.76 214.116 70.8933 214.502 70.24C214.902 69.5867 215.436 69.1133 216.102 68.82C216.782 68.5267 217.529 68.38 218.342 68.38C219.249 68.38 220.042 68.5333 220.722 68.84C221.402 69.1467 221.936 69.5733 222.322 70.12C222.709 70.6667 222.902 71.32 222.902 72.08C222.902 72.48 222.809 72.7533 222.622 72.9C222.449 73.0333 222.189 73.1 221.842 73.1C221.562 73.1 221.316 73.0533 221.102 72.96C220.902 72.8533 220.796 72.6667 220.782 72.4C220.742 72.0133 220.649 71.66 220.502 71.34C220.356 71.0067 220.116 70.7467 219.782 70.56C219.449 70.36 218.989 70.26 218.402 70.26C217.656 70.26 217.069 70.4733 216.642 70.9C216.229 71.3133 216.022 71.96 216.022 72.84V78.66C216.022 79.54 216.229 80.1933 216.642 80.62C217.069 81.0333 217.656 81.24 218.402 81.24C219.136 81.24 219.716 81.0333 220.142 80.62C220.569 80.1933 220.782 79.54 220.782 78.66V77.02H218.762C218.549 77.02 218.382 76.9333 218.262 76.76C218.142 76.5867 218.082 76.3867 218.082 76.16C218.082 75.96 218.142 75.7733 218.262 75.6C218.382 75.4133 218.549 75.32 218.762 75.32H222.202C222.429 75.32 222.602 75.3933 222.722 75.54C222.842 75.6733 222.902 75.84 222.902 76.04V78.66C222.902 79.74 222.702 80.6067 222.302 81.26C221.902 81.9133 221.362 82.3867 220.682 82.68C220.002 82.9733 219.242 83.12 218.402 83.12ZM228.416 83C228.229 83 228.029 82.96 227.816 82.88C227.603 82.8 227.429 82.7 227.296 82.58C227.163 82.4467 227.096 82.2933 227.096 82.12C227.096 82.08 227.103 82.02 227.116 81.94L231.096 68.98C231.176 68.74 231.343 68.56 231.596 68.44C231.863 68.32 232.143 68.26 232.436 68.26C232.743 68.26 233.023 68.32 233.276 68.44C233.543 68.56 233.716 68.74 233.796 68.98L237.756 81.94C237.783 82.02 237.796 82.08 237.796 82.12C237.796 82.28 237.723 82.4267 237.576 82.56C237.443 82.6933 237.269 82.8 237.056 82.88C236.856 82.96 236.656 83 236.456 83C236.283 83 236.129 82.9667 235.996 82.9C235.876 82.8333 235.789 82.72 235.736 82.56L234.916 79.72H229.956L229.156 82.56C229.116 82.72 229.023 82.8333 228.876 82.9C228.743 82.9667 228.589 83 228.416 83ZM230.436 78.02H234.436L232.436 71.16L230.436 78.02ZM250.247 83.06C250.074 83.06 249.914 83 249.767 82.88C249.634 82.76 249.52 82.6133 249.427 82.44L246.487 76.72H244.487V82.3C244.487 82.5267 244.374 82.7 244.147 82.82C243.934 82.94 243.694 83 243.427 83C243.16 83 242.914 82.94 242.687 82.82C242.474 82.7 242.367 82.5267 242.367 82.3V69.06C242.367 68.8733 242.427 68.7133 242.547 68.58C242.68 68.4467 242.86 68.38 243.087 68.38H246.887C247.727 68.38 248.494 68.5067 249.187 68.76C249.88 69 250.434 69.42 250.847 70.02C251.26 70.6067 251.467 71.42 251.467 72.46C251.467 73.26 251.34 73.9267 251.087 74.46C250.847 74.9933 250.514 75.42 250.087 75.74C249.674 76.0467 249.2 76.2733 248.667 76.42L251.467 81.68C251.494 81.72 251.514 81.7733 251.527 81.84C251.54 81.8933 251.547 81.94 251.547 81.98C251.547 82.1533 251.48 82.3267 251.347 82.5C251.214 82.66 251.047 82.7933 250.847 82.9C250.66 83.0067 250.46 83.06 250.247 83.06ZM244.487 75.02H246.887C247.634 75.02 248.227 74.84 248.667 74.48C249.12 74.12 249.347 73.5067 249.347 72.64C249.347 71.7733 249.12 71.16 248.667 70.8C248.227 70.44 247.634 70.26 246.887 70.26H244.487V75.02ZM264.485 83C264.219 83 263.972 82.94 263.745 82.82C263.532 82.7 263.425 82.5267 263.425 82.3V69.06C263.425 68.8733 263.499 68.7133 263.645 68.58C263.805 68.4467 264.005 68.38 264.245 68.38H268.145C268.959 68.38 269.699 68.5267 270.365 68.82C271.032 69.1 271.559 69.5667 271.945 70.22C272.332 70.86 272.525 71.7133 272.525 72.78V72.94C272.525 74.0067 272.325 74.8667 271.925 75.52C271.539 76.1733 270.999 76.6467 270.305 76.94C269.625 77.22 268.865 77.36 268.025 77.36H265.545V82.3C265.545 82.5267 265.432 82.7 265.205 82.82C264.992 82.94 264.752 83 264.485 83ZM265.545 75.68H268.025C268.772 75.68 269.352 75.4667 269.765 75.04C270.192 74.6133 270.405 73.96 270.405 73.08V72.84C270.405 71.96 270.192 71.3133 269.765 70.9C269.352 70.4733 268.772 70.26 268.025 70.26H265.545V75.68ZM276.803 83C276.616 83 276.416 82.96 276.203 82.88C275.989 82.8 275.816 82.7 275.683 82.58C275.549 82.4467 275.483 82.2933 275.483 82.12C275.483 82.08 275.489 82.02 275.503 81.94L279.483 68.98C279.563 68.74 279.729 68.56 279.983 68.44C280.249 68.32 280.529 68.26 280.823 68.26C281.129 68.26 281.409 68.32 281.663 68.44C281.929 68.56 282.103 68.74 282.183 68.98L286.143 81.94C286.169 82.02 286.183 82.08 286.183 82.12C286.183 82.28 286.109 82.4267 285.963 82.56C285.829 82.6933 285.656 82.8 285.443 82.88C285.243 82.96 285.043 83 284.843 83C284.669 83 284.516 82.9667 284.383 82.9C284.263 82.8333 284.176 82.72 284.123 82.56L283.303 79.72H278.343L277.543 82.56C277.503 82.72 277.409 82.8333 277.263 82.9C277.129 82.9667 276.976 83 276.803 83ZM278.823 78.02H282.823L280.823 71.16L278.823 78.02ZM298.634 83.06C298.46 83.06 298.3 83 298.154 82.88C298.02 82.76 297.907 82.6133 297.814 82.44L294.874 76.72H292.874V82.3C292.874 82.5267 292.76 82.7 292.534 82.82C292.32 82.94 292.08 83 291.814 83C291.547 83 291.3 82.94 291.074 82.82C290.86 82.7 290.754 82.5267 290.754 82.3V69.06C290.754 68.8733 290.814 68.7133 290.934 68.58C291.067 68.4467 291.247 68.38 291.474 68.38H295.274C296.114 68.38 296.88 68.5067 297.574 68.76C298.267 69 298.82 69.42 299.234 70.02C299.647 70.6067 299.854 71.42 299.854 72.46C299.854 73.26 299.727 73.9267 299.474 74.46C299.234 74.9933 298.9 75.42 298.474 75.74C298.06 76.0467 297.587 76.2733 297.054 76.42L299.854 81.68C299.88 81.72 299.9 81.7733 299.914 81.84C299.927 81.8933 299.934 81.94 299.934 81.98C299.934 82.1533 299.867 82.3267 299.734 82.5C299.6 82.66 299.434 82.7933 299.234 82.9C299.047 83.0067 298.847 83.06 298.634 83.06ZM292.874 75.02H295.274C296.02 75.02 296.614 74.84 297.054 74.48C297.507 74.12 297.734 73.5067 297.734 72.64C297.734 71.7733 297.507 71.16 297.054 70.8C296.614 70.44 296.02 70.26 295.274 70.26H292.874V75.02ZM305.068 83C304.882 83 304.682 82.96 304.468 82.88C304.255 82.8 304.082 82.7 303.948 82.58C303.815 82.4467 303.748 82.2933 303.748 82.12C303.748 82.08 303.755 82.02 303.768 81.94L307.748 68.98C307.828 68.74 307.995 68.56 308.248 68.44C308.515 68.32 308.795 68.26 309.088 68.26C309.395 68.26 309.675 68.32 309.928 68.44C310.195 68.56 310.368 68.74 310.448 68.98L314.408 81.94C314.435 82.02 314.448 82.08 314.448 82.12C314.448 82.28 314.375 82.4267 314.228 82.56C314.095 82.6933 313.922 82.8 313.708 82.88C313.508 82.96 313.308 83 313.108 83C312.935 83 312.782 82.9667 312.648 82.9C312.528 82.8333 312.442 82.72 312.388 82.56L311.568 79.72H306.608L305.808 82.56C305.768 82.72 305.675 82.8333 305.528 82.9C305.395 82.9667 305.242 83 305.068 83ZM307.088 78.02H311.088L309.088 71.16L307.088 78.02ZM333.903 83.06C333.73 83.06 333.57 83 333.423 82.88C333.29 82.76 333.176 82.6133 333.083 82.44L330.143 76.72H328.143V82.3C328.143 82.5267 328.03 82.7 327.803 82.82C327.59 82.94 327.35 83 327.083 83C326.816 83 326.57 82.94 326.343 82.82C326.13 82.7 326.023 82.5267 326.023 82.3V69.06C326.023 68.8733 326.083 68.7133 326.203 68.58C326.336 68.4467 326.516 68.38 326.743 68.38H330.543C331.383 68.38 332.15 68.5067 332.843 68.76C333.536 69 334.09 69.42 334.503 70.02C334.916 70.6067 335.123 71.42 335.123 72.46C335.123 73.26 334.996 73.9267 334.743 74.46C334.503 74.9933 334.17 75.42 333.743 75.74C333.33 76.0467 332.856 76.2733 332.323 76.42L335.123 81.68C335.15 81.72 335.17 81.7733 335.183 81.84C335.196 81.8933 335.203 81.94 335.203 81.98C335.203 82.1533 335.136 82.3267 335.003 82.5C334.87 82.66 334.703 82.7933 334.503 82.9C334.316 83.0067 334.116 83.06 333.903 83.06ZM328.143 75.02H330.543C331.29 75.02 331.883 74.84 332.323 74.48C332.776 74.12 333.003 73.5067 333.003 72.64C333.003 71.7733 332.776 71.16 332.323 70.8C331.883 70.44 331.29 70.26 330.543 70.26H328.143V75.02ZM341.018 83C340.791 83 340.578 82.94 340.378 82.82C340.178 82.7 340.078 82.5267 340.078 82.3V69.08C340.078 68.8533 340.178 68.68 340.378 68.56C340.578 68.44 340.791 68.38 341.018 68.38H348.138C348.391 68.38 348.571 68.48 348.678 68.68C348.784 68.88 348.838 69.0867 348.838 69.3C348.838 69.5533 348.778 69.78 348.658 69.98C348.538 70.1667 348.364 70.26 348.138 70.26H342.198V74.84H345.278C345.504 74.84 345.678 74.9267 345.798 75.1C345.918 75.2733 345.978 75.4733 345.978 75.7C345.978 75.8867 345.924 76.0733 345.818 76.26C345.711 76.4333 345.531 76.52 345.278 76.52H342.198V81.12H348.138C348.364 81.12 348.538 81.2133 348.658 81.4C348.778 81.5867 348.838 81.8133 348.838 82.08C348.838 82.2933 348.784 82.5 348.678 82.7C348.571 82.9 348.391 83 348.138 83H341.018ZM354.587 83C354.32 83 354.074 82.94 353.847 82.82C353.634 82.7 353.527 82.5267 353.527 82.3V69.08C353.527 68.8267 353.634 68.6467 353.847 68.54C354.074 68.4333 354.32 68.38 354.587 68.38C354.84 68.38 355.054 68.42 355.227 68.5C355.414 68.5667 355.58 68.6867 355.727 68.86C355.874 69.0333 356.027 69.2733 356.187 69.58L360.627 78.24V69.06C360.627 68.82 360.734 68.6467 360.947 68.54C361.174 68.4333 361.42 68.38 361.687 68.38C361.954 68.38 362.194 68.4333 362.407 68.54C362.634 68.6467 362.747 68.82 362.747 69.06V82.3C362.747 82.5267 362.634 82.7 362.407 82.82C362.194 82.94 361.954 83 361.687 83C361.42 83 361.18 82.9333 360.967 82.8C360.754 82.6667 360.574 82.4733 360.427 82.22L355.647 73.12V82.3C355.647 82.5267 355.534 82.7 355.307 82.82C355.094 82.94 354.854 83 354.587 83ZM372.723 83.12C371.869 83.12 371.103 82.9733 370.423 82.68C369.756 82.3867 369.223 81.9133 368.823 81.26C368.436 80.6067 368.243 79.74 368.243 78.66V72.84C368.243 71.76 368.436 70.8933 368.823 70.24C369.223 69.5867 369.756 69.1133 370.423 68.82C371.103 68.5267 371.869 68.38 372.723 68.38C373.563 68.38 374.323 68.5267 375.003 68.82C375.683 69.1133 376.223 69.5867 376.623 70.24C377.023 70.8933 377.223 71.76 377.223 72.84V78.66C377.223 79.74 377.023 80.6067 376.623 81.26C376.223 81.9133 375.683 82.3867 375.003 82.68C374.323 82.9733 373.563 83.12 372.723 83.12ZM372.723 81.24C373.456 81.24 374.036 81.0333 374.463 80.62C374.889 80.1933 375.103 79.54 375.103 78.66V72.84C375.103 71.96 374.889 71.3133 374.463 70.9C374.049 70.4733 373.469 70.26 372.723 70.26C371.976 70.26 371.389 70.4733 370.963 70.9C370.549 71.3133 370.343 71.96 370.343 72.84V78.66C370.343 79.54 370.549 80.1933 370.963 80.62C371.389 81.0333 371.976 81.24 372.723 81.24ZM386.991 83.12C386.697 83.12 386.417 83.06 386.151 82.94C385.897 82.82 385.731 82.64 385.651 82.4L381.671 69.44C381.644 69.36 381.631 69.3 381.631 69.26C381.631 69.0867 381.697 68.94 381.831 68.82C381.977 68.6867 382.151 68.58 382.351 68.5C382.564 68.42 382.764 68.38 382.951 68.38C383.137 68.38 383.297 68.4133 383.431 68.48C383.564 68.5467 383.651 68.66 383.691 68.82L386.991 80.22L390.271 68.82C390.324 68.66 390.417 68.5467 390.551 68.48C390.684 68.4133 390.837 68.38 391.011 68.38C391.211 68.38 391.411 68.42 391.611 68.5C391.811 68.58 391.977 68.6867 392.111 68.82C392.257 68.94 392.331 69.0867 392.331 69.26C392.331 69.2867 392.324 69.3133 392.311 69.34C392.311 69.3667 392.311 69.4 392.311 69.44L388.351 82.4C388.271 82.64 388.097 82.82 387.831 82.94C387.577 83.06 387.297 83.12 386.991 83.12ZM396.4 83C396.214 83 396.014 82.96 395.8 82.88C395.587 82.8 395.414 82.7 395.28 82.58C395.147 82.4467 395.08 82.2933 395.08 82.12C395.08 82.08 395.087 82.02 395.1 81.94L399.08 68.98C399.16 68.74 399.327 68.56 399.58 68.44C399.847 68.32 400.127 68.26 400.42 68.26C400.727 68.26 401.007 68.32 401.26 68.44C401.527 68.56 401.7 68.74 401.78 68.98L405.74 81.94C405.767 82.02 405.78 82.08 405.78 82.12C405.78 82.28 405.707 82.4267 405.56 82.56C405.427 82.6933 405.254 82.8 405.04 82.88C404.84 82.96 404.64 83 404.44 83C404.267 83 404.114 82.9667 403.98 82.9C403.86 82.8333 403.774 82.72 403.72 82.56L402.9 79.72H397.94L397.14 82.56C397.1 82.72 397.007 82.8333 396.86 82.9C396.727 82.9667 396.574 83 396.4 83ZM398.42 78.02H402.42L400.42 71.16L398.42 78.02ZM418.231 83.06C418.058 83.06 417.898 83 417.751 82.88C417.618 82.76 417.505 82.6133 417.411 82.44L414.471 76.72H412.471V82.3C412.471 82.5267 412.358 82.7 412.131 82.82C411.918 82.94 411.678 83 411.411 83C411.145 83 410.898 82.94 410.671 82.82C410.458 82.7 410.351 82.5267 410.351 82.3V69.06C410.351 68.8733 410.411 68.7133 410.531 68.58C410.665 68.4467 410.845 68.38 411.071 68.38H414.871C415.711 68.38 416.478 68.5067 417.171 68.76C417.865 69 418.418 69.42 418.831 70.02C419.245 70.6067 419.451 71.42 419.451 72.46C419.451 73.26 419.325 73.9267 419.071 74.46C418.831 74.9933 418.498 75.42 418.071 75.74C417.658 76.0467 417.185 76.2733 416.651 76.42L419.451 81.68C419.478 81.72 419.498 81.7733 419.511 81.84C419.525 81.8933 419.531 81.94 419.531 81.98C419.531 82.1533 419.465 82.3267 419.331 82.5C419.198 82.66 419.031 82.7933 418.831 82.9C418.645 83.0067 418.445 83.06 418.231 83.06ZM412.471 75.02H414.871C415.618 75.02 416.211 74.84 416.651 74.48C417.105 74.12 417.331 73.5067 417.331 72.64C417.331 71.7733 417.105 71.16 416.651 70.8C416.211 70.44 415.618 70.26 414.871 70.26H412.471V75.02ZM435.15 83C434.883 83 434.637 82.94 434.41 82.82C434.197 82.7 434.09 82.5267 434.09 82.3V70.32H430.99C430.777 70.32 430.61 70.22 430.49 70.02C430.37 69.82 430.31 69.5933 430.31 69.34C430.31 69.1 430.363 68.88 430.47 68.68C430.577 68.48 430.75 68.38 430.99 68.38H439.29C439.543 68.38 439.723 68.48 439.83 68.68C439.937 68.88 439.99 69.0933 439.99 69.32C439.99 69.5867 439.93 69.82 439.81 70.02C439.703 70.22 439.53 70.32 439.29 70.32H436.21V82.3C436.21 82.5267 436.097 82.7 435.87 82.82C435.657 82.94 435.417 83 435.15 83ZM449.027 83.12C448.174 83.12 447.4 82.9733 446.707 82.68C446.014 82.3867 445.467 81.9133 445.067 81.26C444.667 80.6067 444.467 79.74 444.467 78.66V69.06C444.467 68.82 444.574 68.6467 444.787 68.54C445 68.4333 445.247 68.38 445.527 68.38C445.78 68.38 446.02 68.4333 446.247 68.54C446.474 68.6467 446.587 68.82 446.587 69.06V78.66C446.587 79.54 446.8 80.1933 447.227 80.62C447.654 81.0333 448.254 81.24 449.027 81.24C449.787 81.24 450.387 81.0333 450.827 80.62C451.267 80.1933 451.487 79.54 451.487 78.66V69.06C451.487 68.82 451.594 68.6467 451.807 68.54C452.02 68.4333 452.267 68.38 452.547 68.38C452.8 68.38 453.04 68.4333 453.267 68.54C453.494 68.6467 453.607 68.82 453.607 69.06V78.66C453.607 79.74 453.4 80.6067 452.987 81.26C452.587 81.9133 452.04 82.3867 451.347 82.68C450.654 82.9733 449.88 83.12 449.027 83.12ZM467.112 83C466.885 83 466.672 82.94 466.472 82.82C466.272 82.7 466.172 82.5267 466.172 82.3V69.06C466.172 68.82 466.278 68.6467 466.492 68.54C466.718 68.4333 466.965 68.38 467.232 68.38C467.498 68.38 467.738 68.4333 467.952 68.54C468.178 68.6467 468.292 68.82 468.292 69.06V81.12H473.492C473.705 81.12 473.865 81.22 473.972 81.42C474.078 81.6067 474.132 81.82 474.132 82.06C474.132 82.2867 474.078 82.5 473.972 82.7C473.865 82.9 473.705 83 473.492 83H467.112ZM482.691 83.12C481.838 83.12 481.071 82.9733 480.391 82.68C479.725 82.3867 479.191 81.9133 478.791 81.26C478.405 80.6067 478.211 79.74 478.211 78.66V72.84C478.211 71.76 478.405 70.8933 478.791 70.24C479.191 69.5867 479.725 69.1133 480.391 68.82C481.071 68.5267 481.838 68.38 482.691 68.38C483.531 68.38 484.291 68.5267 484.971 68.82C485.651 69.1133 486.191 69.5867 486.591 70.24C486.991 70.8933 487.191 71.76 487.191 72.84V78.66C487.191 79.74 486.991 80.6067 486.591 81.26C486.191 81.9133 485.651 82.3867 484.971 82.68C484.291 82.9733 483.531 83.12 482.691 83.12ZM482.691 81.24C483.425 81.24 484.005 81.0333 484.431 80.62C484.858 80.1933 485.071 79.54 485.071 78.66V72.84C485.071 71.96 484.858 71.3133 484.431 70.9C484.018 70.4733 483.438 70.26 482.691 70.26C481.945 70.26 481.358 70.4733 480.931 70.9C480.518 71.3133 480.311 71.96 480.311 72.84V78.66C480.311 79.54 480.518 80.1933 480.931 80.62C481.358 81.0333 481.945 81.24 482.691 81.24ZM497.019 83.12C496.166 83.12 495.399 82.9733 494.719 82.68C494.053 82.3867 493.519 81.9133 493.119 81.26C492.733 80.6067 492.539 79.74 492.539 78.66V72.84C492.539 71.76 492.733 70.8933 493.119 70.24C493.519 69.5867 494.053 69.1133 494.719 68.82C495.399 68.5267 496.166 68.38 497.019 68.38C497.859 68.38 498.619 68.5267 499.299 68.82C499.979 69.1133 500.519 69.5867 500.919 70.24C501.319 70.8933 501.519 71.76 501.519 72.84V78.66C501.519 79.74 501.319 80.6067 500.919 81.26C500.519 81.9133 499.979 82.3867 499.299 82.68C498.619 82.9733 497.859 83.12 497.019 83.12ZM497.019 81.24C497.753 81.24 498.333 81.0333 498.759 80.62C499.186 80.1933 499.399 79.54 499.399 78.66V72.84C499.399 71.96 499.186 71.3133 498.759 70.9C498.346 70.4733 497.766 70.26 497.019 70.26C496.273 70.26 495.686 70.4733 495.259 70.9C494.846 71.3133 494.639 71.96 494.639 72.84V78.66C494.639 79.54 494.846 80.1933 495.259 80.62C495.686 81.0333 496.273 81.24 497.019 81.24ZM508.068 83C507.801 83 507.554 82.94 507.328 82.82C507.114 82.7 507.007 82.5267 507.007 82.3V69.06C507.007 68.82 507.114 68.6467 507.328 68.54C507.554 68.4333 507.801 68.38 508.068 68.38C508.334 68.38 508.574 68.4333 508.788 68.54C509.014 68.6467 509.128 68.82 509.128 69.06V75.14L514.008 68.68C514.154 68.48 514.354 68.38 514.608 68.38C514.781 68.38 514.961 68.4333 515.148 68.54C515.348 68.6467 515.508 68.7867 515.628 68.96C515.761 69.12 515.828 69.2933 515.828 69.48C515.828 69.5333 515.814 69.6 515.787 69.68C515.761 69.76 515.721 69.8333 515.668 69.9L511.828 74.7L516.388 81.64C516.468 81.76 516.508 81.8867 516.508 82.02C516.508 82.1933 516.448 82.36 516.328 82.52C516.208 82.68 516.048 82.8133 515.848 82.92C515.661 83.0133 515.468 83.06 515.268 83.06C515.121 83.06 514.981 83.0333 514.848 82.98C514.714 82.9133 514.601 82.8067 514.508 82.66L510.428 76.48L509.128 78.12V82.3C509.128 82.5267 509.014 82.7 508.788 82.82C508.574 82.94 508.334 83 508.068 83Z" fill="#322016"/>
</svg>
