<svg width="532" height="103" viewBox="0 0 532 103" fill="none" xmlns="http://www.w3.org/2000/svg">
<path d="M56.2559 50.4736C56.2331 50.5648 56.0736 50.9521 55.7773 51.6357C55.4811 52.3193 54.9798 53.1624 54.2734 54.165C53.5898 55.1676 52.6784 56.2728 51.5391 57.4805C50.3997 58.6882 48.9642 59.873 47.2324 61.0352C45.5007 62.1745 43.4499 63.2227 41.0801 64.1797C38.7103 65.1139 35.9645 65.8317 32.8428 66.333C30.7464 66.6748 28.5475 66.8457 26.2461 66.8457C24.332 66.8457 22.4066 66.709 20.4697 66.4355C18.5557 66.1849 16.71 65.7747 14.9326 65.2051C13.1781 64.6582 11.5374 63.9518 10.0107 63.0859C8.48405 62.2201 7.15104 61.1947 6.01172 60.0098C4.89518 58.8249 4.00651 57.4691 3.3457 55.9424C2.70768 54.3929 2.38867 52.6725 2.38867 50.7812C2.38867 47.4316 3.31152 44.5492 5.15723 42.1338C7.02572 39.7184 9.78288 37.8385 13.4287 36.4941C12.1299 35.2865 11.1615 33.9535 10.5234 32.4951C9.88542 31.0368 9.56641 29.5215 9.56641 27.9492C9.56641 25.9896 10.0107 24.1781 10.8994 22.5146C11.8109 20.8512 13.0641 19.4157 14.6592 18.208C16.2542 17.0003 18.1455 16.0661 20.333 15.4053C22.5433 14.7217 24.9587 14.3799 27.5791 14.3799C30.2223 14.3799 32.5238 14.6305 34.4834 15.1318C36.4658 15.6331 38.152 16.2598 39.542 17.0117C40.9548 17.7637 42.1055 18.584 42.9941 19.4727C43.9056 20.3613 44.6234 21.193 45.1475 21.9678C45.6715 22.7425 46.0361 23.4033 46.2412 23.9502C46.4463 24.4743 46.5602 24.7705 46.583 24.8389C46.6058 24.93 46.6172 25.0553 46.6172 25.2148C46.6172 25.5339 46.4919 25.8301 46.2412 26.1035C46.0133 26.3542 45.7057 26.4795 45.3184 26.4795C45.0449 26.4795 44.7943 26.3997 44.5664 26.2402C44.3613 26.0579 44.2132 25.8187 44.1221 25.5225C44.1221 25.4769 44.0309 25.2376 43.8486 24.8047C43.6663 24.349 43.3473 23.8021 42.8916 23.1641C42.4359 22.526 41.8092 21.8538 41.0117 21.1475C40.237 20.4183 39.2344 19.7461 38.0039 19.1309C36.7734 18.4928 35.3037 17.9688 33.5947 17.5586C31.8857 17.1484 29.8805 16.9434 27.5791 16.9434C24.9359 16.9434 22.6344 17.2738 20.6748 17.9346C18.738 18.5954 17.1315 19.4613 15.8555 20.5322C14.6022 21.5804 13.668 22.7539 13.0527 24.0527C12.4375 25.3516 12.1299 26.6276 12.1299 27.8809C12.1299 29.362 12.4945 30.7747 13.2236 32.1191C13.9528 33.4635 15.001 34.6143 16.3682 35.5713C17.5986 35.2523 18.8063 35.0016 19.9912 34.8193C21.1761 34.637 22.2926 34.5003 23.3408 34.4092C24.389 34.2952 25.3346 34.2269 26.1777 34.2041C27.0436 34.1585 27.75 34.1357 28.2969 34.1357C29.2995 34.1357 30.2223 34.2155 31.0654 34.375C31.9085 34.5117 32.6263 34.7282 33.2188 35.0244C33.834 35.2979 34.3125 35.6624 34.6543 36.1182C34.9961 36.5511 35.167 37.0524 35.167 37.6221C35.167 38.1917 34.9961 38.7044 34.6543 39.1602C34.3125 39.6159 33.834 40.0033 33.2188 40.3223C32.6263 40.6413 31.9085 40.8919 31.0654 41.0742C30.2223 41.2337 29.2995 41.3135 28.2969 41.3135C27.2031 41.3135 26.098 41.2451 24.9814 41.1084C23.8649 40.9717 22.7712 40.778 21.7002 40.5273C20.652 40.2767 19.638 39.9691 18.6582 39.6045C17.6784 39.2171 16.7897 38.7842 15.9922 38.3057C12.3691 39.3994 9.62337 40.9831 7.75488 43.0566C5.88639 45.1074 4.95215 47.6481 4.95215 50.6787C4.95215 52.3193 5.23698 53.8005 5.80664 55.1221C6.39909 56.4209 7.20801 57.5716 8.2334 58.5742C9.25879 59.5768 10.4551 60.4427 11.8223 61.1719C13.2122 61.8783 14.6934 62.4593 16.2656 62.915C17.8379 63.3708 19.4785 63.7126 21.1875 63.9404C22.8965 64.1455 24.5941 64.248 26.2803 64.248C27.374 64.248 28.4336 64.2139 29.459 64.1455C30.4844 64.0544 31.4756 63.929 32.4326 63.7695C35.3037 63.3138 37.8216 62.653 39.9863 61.7871C42.1738 60.8984 44.0537 59.9414 45.626 58.916C47.221 57.8678 48.5426 56.8083 49.5908 55.7373C50.639 54.6436 51.4707 53.6523 52.0859 52.7637C52.724 51.8522 53.1683 51.1117 53.4189 50.542C53.6924 49.9723 53.8291 49.6761 53.8291 49.6533C53.9202 49.3799 54.0684 49.1748 54.2734 49.0381C54.5013 48.8786 54.752 48.7988 55.0254 48.7988C55.39 48.7988 55.6976 48.9242 55.9482 49.1748C56.1989 49.4255 56.3242 49.7217 56.3242 50.0635C56.3242 50.1546 56.3014 50.2913 56.2559 50.4736ZM32.5693 37.6562C32.5693 37.474 32.4212 37.3145 32.125 37.1777C31.8288 37.041 31.4414 36.9385 30.9629 36.8701C30.5072 36.779 29.9831 36.722 29.3906 36.6992C28.7982 36.6536 28.1943 36.6309 27.5791 36.6309C26.2347 36.6309 24.9587 36.6764 23.751 36.7676C22.5433 36.8359 21.1647 37.0182 19.6152 37.3145C20.8001 37.7474 22.1559 38.1006 23.6826 38.374C25.2321 38.6247 26.793 38.75 28.3652 38.75C29.8008 38.75 30.8604 38.6361 31.5439 38.4082C32.2275 38.1803 32.5693 37.9297 32.5693 37.6562ZM79.1221 55.5322C78.8714 56.0563 78.5524 56.6829 78.165 57.4121C77.8005 58.1185 77.3789 58.859 76.9004 59.6338C76.4219 60.4085 75.8864 61.1833 75.2939 61.958C74.7015 62.71 74.0521 63.3936 73.3457 64.0088C72.6621 64.6012 71.9215 65.0798 71.124 65.4443C70.3493 65.8317 69.5176 66.0254 68.6289 66.0254C67.2617 66.0254 66.0882 65.6038 65.1084 64.7607C64.1286 63.9176 63.2969 62.8125 62.6133 61.4453C61.9297 60.0781 61.3714 58.5286 60.9385 56.7969C60.5283 55.0423 60.2093 53.265 59.9814 51.4648C59.7536 49.6419 59.5941 47.876 59.5029 46.167C59.4346 44.458 59.4004 42.9427 59.4004 41.6211C59.4004 39.707 59.4574 37.7246 59.5713 35.6738C59.708 33.623 59.9131 31.6178 60.1865 29.6582C60.46 27.6986 60.8018 25.8415 61.2119 24.0869C61.6449 22.3324 62.1462 20.7943 62.7158 19.4727C63.3083 18.151 63.9805 17.1029 64.7324 16.3281C65.4844 15.5534 66.3389 15.166 67.2959 15.166C68.0479 15.166 68.7201 15.3483 69.3125 15.7129C69.9277 16.0547 70.4404 16.6243 70.8506 17.4219C71.2607 18.2194 71.5798 19.2562 71.8076 20.5322C72.0355 21.8083 72.1494 23.3691 72.1494 25.2148C72.1494 27.4935 71.9102 29.8519 71.4316 32.29C70.9531 34.7054 70.3037 37.1436 69.4834 39.6045C68.6631 42.0654 67.6947 44.5264 66.5781 46.9873C65.4616 49.4255 64.2653 51.8066 62.9893 54.1309C63.5589 57.0247 64.3223 59.3034 65.2793 60.9668C66.2363 62.6074 67.387 63.4277 68.7314 63.4277C69.6429 63.4277 70.5202 63.0745 71.3633 62.3682C72.2064 61.639 72.9811 60.7845 73.6875 59.8047C74.3939 58.8249 75.0091 57.8337 75.5332 56.8311C76.0801 55.8057 76.5016 54.9854 76.7979 54.3701C76.9118 54.1423 77.0713 53.9714 77.2764 53.8574C77.4814 53.7207 77.7093 53.6523 77.96 53.6523C78.3473 53.6523 78.6549 53.7891 78.8828 54.0625C79.1335 54.3359 79.2588 54.6436 79.2588 54.9854C79.2588 55.1221 79.2132 55.3044 79.1221 55.5322ZM61.998 41.792C61.998 43.2503 62.0322 44.6517 62.1006 45.9961C62.1689 47.3405 62.2601 48.6279 62.374 49.8584C63.3311 48.0127 64.2425 46.0531 65.1084 43.9795C65.9743 41.8831 66.7376 39.7754 67.3984 37.6562C68.0592 35.5143 68.5833 33.3952 68.9707 31.2988C69.3809 29.1797 69.5859 27.1631 69.5859 25.249C69.5859 22.5602 69.3695 20.6348 68.9365 19.4727C68.5036 18.3105 67.9225 17.7295 67.1934 17.7295C66.7148 17.7295 66.2477 18.0599 65.792 18.7207C65.359 19.3815 64.9489 20.2816 64.5615 21.4209C64.1742 22.5602 63.821 23.9046 63.502 25.4541C63.1829 27.0036 62.9095 28.667 62.6816 30.4443C62.4766 32.2217 62.3057 34.0788 62.1689 36.0156C62.055 37.9525 61.998 39.8779 61.998 41.792ZM119.898 30.7861C119.898 31.1507 119.773 31.4469 119.522 31.6748C119.272 31.8799 118.964 31.9824 118.6 31.9824H101.271V32.3584C101.271 33.7484 101.168 35.2295 100.963 36.8018C100.758 38.374 100.473 39.9463 100.108 41.5186C99.7666 43.068 99.3678 44.5833 98.9121 46.0645C98.4792 47.5456 98.0234 48.9128 97.5449 50.166C97.0892 51.4193 96.6335 52.513 96.1777 53.4473C95.722 54.3587 95.3118 55.0423 94.9473 55.498C95.2435 56.5462 95.5967 57.526 96.0068 58.4375C96.417 59.3262 96.8727 60.1123 97.374 60.7959C97.8981 61.4567 98.4564 61.9808 99.0488 62.3682C99.6413 62.7555 100.279 62.9492 100.963 62.9492C101.76 62.9492 102.547 62.6188 103.321 61.958C104.119 61.2744 104.848 60.4769 105.509 59.5654C106.192 58.6312 106.785 57.6969 107.286 56.7627C107.81 55.8057 108.186 55.0423 108.414 54.4727C108.642 53.9258 109.041 53.6523 109.61 53.6523C109.998 53.6523 110.305 53.7891 110.533 54.0625C110.784 54.3359 110.909 54.6322 110.909 54.9512C110.909 55.1107 110.875 55.2702 110.807 55.4297C110.738 55.5892 110.567 55.9538 110.294 56.5234C110.043 57.0931 109.701 57.7539 109.269 58.5059C108.858 59.2578 108.368 60.0553 107.799 60.8984C107.252 61.7188 106.625 62.4707 105.919 63.1543C105.235 63.8379 104.495 64.4076 103.697 64.8633C102.9 65.319 102.057 65.5469 101.168 65.5469C99.5957 65.5469 98.1829 65.0342 96.9297 64.0088C95.6764 62.9834 94.6055 61.5479 93.7168 59.7021C92.8509 57.8564 92.1901 55.6689 91.7344 53.1396C91.2786 50.6104 91.0508 47.8418 91.0508 44.834C91.0508 44.082 91.0622 43.2048 91.085 42.2021C91.1077 41.1768 91.1533 40.1058 91.2217 38.9893C91.29 37.8499 91.3926 36.6878 91.5293 35.5029C91.666 34.2952 91.8483 33.1217 92.0762 31.9824H79.8057C79.4411 31.9824 79.1335 31.8799 78.8828 31.6748C78.6322 31.4469 78.5068 31.1507 78.5068 30.7861C78.5068 30.4215 78.6322 30.1367 78.8828 29.9316C79.1335 29.7038 79.4411 29.5898 79.8057 29.5898H92.6572C92.8851 28.7695 93.1471 28.0176 93.4434 27.334C93.7624 26.6504 94.1156 26.0579 94.5029 25.5566C94.9131 25.0553 95.3574 24.668 95.8359 24.3945C96.3372 24.0983 96.8841 23.9502 97.4766 23.9502C98.0462 23.9502 98.5361 24.0983 98.9463 24.3945C99.3792 24.668 99.7438 25.0553 100.04 25.5566C100.336 26.0579 100.564 26.6504 100.724 27.334C100.906 28.0176 101.043 28.7695 101.134 29.5898H118.6C118.964 29.5898 119.272 29.7038 119.522 29.9316C119.773 30.1367 119.898 30.4215 119.898 30.7861ZM94.1611 52.0801C94.8447 50.5762 95.46 48.9583 96.0068 47.2266C96.5765 45.472 97.055 43.7061 97.4424 41.9287C97.8525 40.1514 98.1602 38.4082 98.3652 36.6992C98.5931 34.9902 98.707 33.418 98.707 31.9824H94.6738C94.3548 33.3952 94.0928 35.1497 93.8877 37.2461C93.7054 39.3197 93.6143 41.849 93.6143 44.834C93.6143 46.4974 93.6598 47.8988 93.751 49.0381C93.8421 50.1546 93.9788 51.1686 94.1611 52.0801ZM97.3398 26.5137C97.1348 26.5137 96.8385 26.7415 96.4512 27.1973C96.0638 27.6302 95.6764 28.4277 95.2891 29.5898H98.5703C98.4564 28.6328 98.2855 27.8809 98.0576 27.334C97.8525 26.7871 97.6133 26.5137 97.3398 26.5137ZM94.708 54.541V54.5752V54.541ZM124.308 61.2402C123.738 61.2402 123.237 61.1947 122.804 61.1035C122.462 61.7871 122.052 62.4251 121.573 63.0176C121.095 63.5872 120.536 64.0885 119.898 64.5215C119.283 64.9544 118.588 65.2962 117.813 65.5469C117.039 65.7975 116.196 65.9229 115.284 65.9229C114.213 65.9229 113.233 65.7292 112.345 65.3418C111.456 64.9772 110.681 64.4645 110.021 63.8037C109.36 63.1201 108.847 62.3112 108.482 61.377C108.118 60.4199 107.936 59.3717 107.936 58.2324C107.936 56.7741 108.198 55.5094 108.722 54.4385C109.246 53.3447 109.85 52.4447 110.533 51.7383C111.217 51.0091 111.9 50.4736 112.584 50.1318C113.268 49.7673 113.78 49.585 114.122 49.585C114.509 49.585 114.794 49.6875 114.977 49.8926C115.182 50.0977 115.284 50.3711 115.284 50.7129C115.284 51.1003 115.159 51.3965 114.908 51.6016C114.68 51.7839 114.384 51.9661 114.02 52.1484C113.655 52.3307 113.268 52.5928 112.857 52.9346C112.447 53.2536 112.06 53.6637 111.695 54.165C111.354 54.6663 111.069 55.2588 110.841 55.9424C110.613 56.626 110.499 57.3893 110.499 58.2324C110.499 58.9844 110.613 59.6908 110.841 60.3516C111.069 60.9896 111.399 61.5479 111.832 62.0264C112.265 62.4821 112.778 62.8467 113.37 63.1201C113.963 63.3708 114.623 63.4961 115.353 63.4961C116.651 63.4961 117.722 63.1999 118.565 62.6074C119.431 61.9922 120.092 61.2174 120.548 60.2832C119.203 59.5768 118.098 58.5742 117.232 57.2754C116.367 55.9766 115.934 54.5182 115.934 52.9004C115.934 51.6016 116.241 50.542 116.856 49.7217C117.494 48.9014 118.326 48.4912 119.352 48.4912C119.967 48.4912 120.548 48.6393 121.095 48.9355C121.642 49.2318 122.12 49.6989 122.53 50.3369C122.963 50.9749 123.305 51.7952 123.556 52.7979C123.806 53.8005 123.932 54.9967 123.932 56.3867C123.932 57.1159 123.84 57.8792 123.658 58.6768C123.795 58.6995 123.932 58.7109 124.068 58.7109C124.205 58.7109 124.353 58.7109 124.513 58.7109C125.287 58.7109 125.982 58.6198 126.598 58.4375C127.213 58.2552 127.771 57.9818 128.272 57.6172C128.774 57.2526 129.218 56.7855 129.605 56.2158C130.016 55.6462 130.403 54.9854 130.768 54.2334C130.836 54.0967 130.984 53.9714 131.212 53.8574C131.44 53.7207 131.668 53.6523 131.896 53.6523C132.192 53.6523 132.465 53.7777 132.716 54.0283C132.989 54.2562 133.126 54.5638 133.126 54.9512C133.126 55.1335 133.08 55.3385 132.989 55.5664C132.898 55.7715 132.807 55.9652 132.716 56.1475C132.328 56.8311 131.873 57.4919 131.349 58.1299C130.847 58.7451 130.243 59.292 129.537 59.7705C128.854 60.2262 128.079 60.5908 127.213 60.8643C126.347 61.1377 125.379 61.263 124.308 61.2402ZM118.463 52.627C118.463 53.0599 118.52 53.5156 118.634 53.9941C118.748 54.4727 118.919 54.9512 119.146 55.4297C119.397 55.8854 119.693 56.3298 120.035 56.7627C120.4 57.1729 120.821 57.526 121.3 57.8223C121.368 57.3438 121.402 56.8766 121.402 56.4209C121.402 55.8057 121.357 55.179 121.266 54.541C121.174 53.903 121.038 53.3219 120.855 52.7979C120.696 52.251 120.491 51.818 120.24 51.499C119.99 51.1572 119.693 50.9863 119.352 50.9863C119.215 50.9863 119.033 51.0889 118.805 51.2939C118.577 51.499 118.463 51.9434 118.463 52.627ZM143.072 68.4863C144.029 67.2331 144.952 65.9798 145.841 64.7266C146.729 63.4733 147.55 62.2428 148.302 61.0352C149.076 59.8275 149.771 58.6654 150.387 57.5488C151.025 56.4323 151.56 55.3955 151.993 54.4385C152.107 54.1878 152.255 54.0055 152.438 53.8916C152.643 53.7549 152.87 53.6865 153.121 53.6865C153.508 53.6865 153.827 53.8232 154.078 54.0967C154.329 54.3473 154.454 54.6436 154.454 54.9854C154.454 55.1449 154.42 55.3044 154.352 55.4639C153.85 56.5804 153.235 57.7881 152.506 59.0869C151.777 60.363 150.956 61.696 150.045 63.0859C149.156 64.4759 148.188 65.8887 147.14 67.3242C146.114 68.7598 145.043 70.1725 143.927 71.5625C144.907 72.7018 145.818 74.1146 146.661 75.8008C147.527 77.487 148.268 79.2985 148.883 81.2354C149.498 83.1722 149.977 85.1432 150.318 87.1484C150.683 89.1536 150.865 91.0335 150.865 92.7881C150.865 94.7705 150.672 96.3542 150.284 97.5391C149.897 98.724 149.43 99.6354 148.883 100.273C148.336 100.911 147.766 101.322 147.174 101.504C146.581 101.709 146.08 101.812 145.67 101.812C144.417 101.812 143.425 101.413 142.696 100.615C141.99 99.8405 141.443 98.6898 141.056 97.1631C140.691 95.6592 140.452 93.7907 140.338 91.5576C140.247 89.3245 140.201 86.7497 140.201 83.833C140.201 81.9189 140.213 79.9821 140.235 78.0225C140.281 76.0628 140.338 74.1374 140.406 72.2461C140.475 70.3548 140.554 68.5319 140.646 66.7773C140.737 65.0456 140.839 63.4391 140.953 61.958C140.224 63.0518 139.404 63.8949 138.492 64.4873C137.604 65.0798 136.612 65.376 135.519 65.376C134.698 65.376 133.946 65.2165 133.263 64.8975C132.602 64.5785 132.032 64.1455 131.554 63.5986C131.075 63.029 130.711 62.3682 130.46 61.6162C130.209 60.8643 130.084 60.0553 130.084 59.1895C130.084 57.4121 130.38 55.8512 130.973 54.5068C131.588 53.1396 132.363 52.0003 133.297 51.0889C134.231 50.1774 135.257 49.4938 136.373 49.0381C137.512 48.5824 138.606 48.3545 139.654 48.3545C140.361 48.3545 141.01 48.457 141.603 48.6621C142.195 48.8444 142.696 49.0495 143.106 49.2773C143.517 49.5052 143.836 49.7217 144.063 49.9268C144.314 50.109 144.451 50.2116 144.474 50.2344C144.724 50.4622 144.85 50.7699 144.85 51.1572C144.85 51.499 144.724 51.8066 144.474 52.0801C144.246 52.3307 143.938 52.4561 143.551 52.4561C143.346 52.4561 143.175 52.4219 143.038 52.3535C142.924 52.2852 142.799 52.194 142.662 52.0801C142.434 51.8978 142.092 51.6585 141.637 51.3623C141.204 51.0661 140.554 50.918 139.688 50.918C139.005 50.918 138.253 51.0775 137.433 51.3965C136.612 51.6927 135.849 52.1712 135.143 52.832C134.436 53.4928 133.844 54.3473 133.365 55.3955C132.887 56.4209 132.647 57.6628 132.647 59.1211C132.647 60.1693 132.875 61.0465 133.331 61.7529C133.81 62.4365 134.562 62.7783 135.587 62.7783C136.088 62.7783 136.635 62.6188 137.228 62.2998C137.843 61.958 138.424 61.4567 138.971 60.7959C139.54 60.1351 140.042 59.3148 140.475 58.335C140.93 57.3551 141.249 56.2158 141.432 54.917C141.477 54.598 141.625 54.3359 141.876 54.1309C142.127 53.903 142.411 53.7891 142.73 53.7891C143.095 53.7891 143.391 53.9258 143.619 54.1992C143.87 54.4499 143.995 54.7461 143.995 55.0879C143.995 55.1335 143.961 55.5322 143.893 56.2842C143.847 57.0133 143.779 57.9932 143.688 59.2236C143.596 60.4313 143.494 61.8327 143.38 63.4277C143.266 65.0228 143.163 66.709 143.072 68.4863ZM142.833 74.2969C142.81 75.0033 142.787 75.6868 142.765 76.3477C142.765 77.0085 142.765 77.6579 142.765 78.2959C142.765 81.2354 142.776 83.9697 142.799 86.499C142.822 89.0511 142.913 91.2614 143.072 93.1299C143.255 95.0212 143.539 96.5023 143.927 97.5732C144.337 98.667 144.907 99.2139 145.636 99.2139C146.228 99.2139 146.695 98.9518 147.037 98.4277C147.402 97.9264 147.675 97.3226 147.857 96.6162C148.04 95.9098 148.154 95.1807 148.199 94.4287C148.268 93.6995 148.302 93.1071 148.302 92.6514C148.302 91.1247 148.154 89.5068 147.857 87.7979C147.584 86.0889 147.197 84.4027 146.695 82.7393C146.217 81.0758 145.636 79.5036 144.952 78.0225C144.291 76.5641 143.585 75.3223 142.833 74.2969ZM163.375 61.1719C162.577 62.4707 161.643 63.4961 160.572 64.248C159.524 65 158.465 65.376 157.394 65.376C156.528 65.376 155.753 65.2165 155.069 64.8975C154.386 64.5785 153.793 64.1341 153.292 63.5645C152.791 62.972 152.403 62.2656 152.13 61.4453C151.879 60.625 151.754 59.7021 151.754 58.6768C151.754 57.0817 151.902 55.6689 152.198 54.4385C152.517 53.208 152.859 52.1826 153.224 51.3623C153.588 50.5192 153.93 49.8812 154.249 49.4482C154.568 49.0153 154.728 48.7988 154.728 48.7988C154.841 48.6621 154.978 48.5596 155.138 48.4912C155.32 48.4229 155.502 48.3887 155.685 48.3887C156.049 48.3887 156.345 48.5254 156.573 48.7988C156.824 49.0495 156.949 49.3457 156.949 49.6875C156.949 49.8242 156.915 49.9609 156.847 50.0977C156.801 50.2344 156.744 50.3711 156.676 50.5078C156.562 50.7129 156.38 51.0319 156.129 51.4648C155.878 51.875 155.616 52.4219 155.343 53.1055C155.069 53.7891 154.83 54.598 154.625 55.5322C154.42 56.4437 154.317 57.4919 154.317 58.6768C154.317 60.0212 154.579 61.0465 155.104 61.7529C155.65 62.4365 156.414 62.7783 157.394 62.7783C157.804 62.7783 158.271 62.653 158.795 62.4023C159.342 62.1289 159.866 61.7188 160.367 61.1719C160.891 60.625 161.347 59.93 161.734 59.0869C162.122 58.2438 162.372 57.2526 162.486 56.1133L162.999 50.2344C163.045 49.8926 163.193 49.6077 163.443 49.3799C163.694 49.152 163.99 49.0381 164.332 49.0381C164.719 49.0381 165.027 49.1862 165.255 49.4824C165.483 49.7559 165.597 50.0749 165.597 50.4395L165.152 56.1133C165.107 56.5918 165.118 57.2184 165.187 57.9932C165.278 58.7679 165.449 59.5312 165.699 60.2832C165.95 61.0352 166.326 61.6846 166.827 62.2314C167.328 62.7555 167.989 63.0176 168.81 63.0176C169.402 63.0176 169.983 62.8695 170.553 62.5732C171.122 62.2542 171.669 61.8441 172.193 61.3428C172.717 60.8415 173.196 60.2832 173.629 59.668C174.085 59.0299 174.495 58.3919 174.859 57.7539C175.247 57.1159 175.577 56.512 175.851 55.9424C176.124 55.3499 176.352 54.8486 176.534 54.4385C176.648 54.1878 176.808 53.9941 177.013 53.8574C177.218 53.7207 177.446 53.6523 177.696 53.6523C178.106 53.6523 178.425 53.7891 178.653 54.0625C178.881 54.3359 178.995 54.6322 178.995 54.9512C178.995 55.1335 178.961 55.3044 178.893 55.4639C178.801 55.6462 178.619 56.0335 178.346 56.626C178.095 57.1956 177.753 57.8564 177.32 58.6084C176.91 59.3376 176.409 60.1123 175.816 60.9326C175.224 61.7529 174.563 62.5163 173.834 63.2227C173.105 63.9062 172.307 64.4759 171.441 64.9316C170.598 65.3646 169.687 65.5811 168.707 65.5811C167.363 65.5811 166.246 65.2051 165.357 64.4531C164.469 63.6784 163.808 62.5846 163.375 61.1719ZM180.67 61.2402C181.148 61.901 181.764 62.4365 182.516 62.8467C183.268 63.234 184.19 63.4277 185.284 63.4277C186.401 63.4277 187.415 63.1657 188.326 62.6416C189.238 62.0947 190.069 61.3883 190.821 60.5225C191.573 59.6566 192.245 58.6882 192.838 57.6172C193.43 56.5462 193.966 55.4753 194.444 54.4043C194.558 54.1536 194.718 53.9714 194.923 53.8574C195.128 53.7207 195.356 53.6523 195.606 53.6523C195.994 53.6523 196.301 53.7891 196.529 54.0625C196.78 54.3359 196.905 54.6322 196.905 54.9512C196.905 55.0651 196.894 55.1676 196.871 55.2588C196.848 55.3271 196.814 55.4069 196.769 55.498C195.196 58.9616 193.476 61.5706 191.607 63.3252C189.762 65.0798 187.665 65.9798 185.318 66.0254C183.814 66.0254 182.516 65.7292 181.422 65.1367C180.328 64.5671 179.428 63.8265 178.722 62.915C178.015 61.9808 177.491 60.9326 177.149 59.7705C176.808 58.6084 176.637 57.4463 176.637 56.2842C176.637 55.1221 176.773 54.0511 177.047 53.0713C177.343 52.0915 177.753 51.237 178.277 50.5078C178.824 49.7786 179.462 49.209 180.191 48.7988C180.943 48.3887 181.764 48.1836 182.652 48.1836C183.176 48.1836 183.689 48.2975 184.19 48.5254C184.715 48.7305 185.182 49.0381 185.592 49.4482C186.002 49.8356 186.332 50.3141 186.583 50.8838C186.834 51.4535 186.959 52.1029 186.959 52.832C186.959 53.7663 186.799 54.6436 186.48 55.4639C186.161 56.2842 185.717 57.0475 185.147 57.7539C184.601 58.4603 183.94 59.1097 183.165 59.7021C182.39 60.2946 181.559 60.8073 180.67 61.2402ZM179.645 59.0186C180.351 58.7223 180.989 58.3464 181.559 57.8906C182.151 57.4349 182.652 56.9336 183.062 56.3867C183.473 55.8398 183.792 55.2702 184.02 54.6777C184.247 54.0625 184.361 53.4473 184.361 52.832C184.361 52.1484 184.19 51.6357 183.849 51.2939C183.507 50.9294 183.108 50.7471 182.652 50.7471C182.037 50.7471 181.513 50.918 181.08 51.2598C180.647 51.6016 180.294 52.0459 180.021 52.5928C179.747 53.1396 179.542 53.7549 179.405 54.4385C179.291 55.0993 179.234 55.7601 179.234 56.4209C179.234 56.8311 179.269 57.264 179.337 57.7197C179.428 58.1755 179.531 58.6084 179.645 59.0186ZM212.525 66.6748C214.212 65.9229 215.738 65.057 217.105 64.0771C218.495 63.0973 219.726 62.0719 220.797 61.001C221.891 59.9072 222.813 58.8021 223.565 57.6855C224.34 56.5462 224.955 55.4639 225.411 54.4385C225.434 54.3929 225.445 54.3587 225.445 54.3359C225.468 54.2904 225.502 54.2448 225.548 54.1992C225.639 52.2852 225.81 50.3483 226.061 48.3887C226.106 48.0697 226.243 47.7962 226.471 47.5684C226.721 47.3177 227.04 47.1924 227.428 47.1924C227.77 47.1924 228.054 47.3291 228.282 47.6025C228.51 47.8532 228.624 48.1494 228.624 48.4912C228.624 48.6279 228.59 49.0381 228.521 49.7217C228.476 50.4053 228.408 51.2256 228.316 52.1826C228.248 53.1169 228.18 54.1195 228.111 55.1904C228.066 56.2386 228.043 57.207 228.043 58.0957C228.043 59.3034 228.157 60.2832 228.385 61.0352C228.635 61.7643 228.943 62.334 229.308 62.7441C229.695 63.1543 230.094 63.4277 230.504 63.5645C230.937 63.7012 231.347 63.7695 231.734 63.7695C232.372 63.7695 233.033 63.5417 233.717 63.0859C234.4 62.6302 235.095 61.9922 235.802 61.1719C236.531 60.3516 237.26 59.3717 237.989 58.2324C238.718 57.0703 239.436 55.7829 240.143 54.3701C240.257 54.1423 240.416 53.9714 240.621 53.8574C240.826 53.7207 241.054 53.6523 241.305 53.6523C241.669 53.6523 241.965 53.7891 242.193 54.0625C242.444 54.3359 242.569 54.6322 242.569 54.9512C242.569 55.179 242.524 55.3727 242.433 55.5322C242.159 56.0563 241.817 56.6943 241.407 57.4463C240.997 58.1982 240.53 58.973 240.006 59.7705C239.482 60.568 238.901 61.3656 238.263 62.1631C237.647 62.9378 236.987 63.6442 236.28 64.2822C235.574 64.8975 234.833 65.3988 234.059 65.7861C233.284 66.1735 232.498 66.3672 231.7 66.3672C230.766 66.3672 229.934 66.1849 229.205 65.8203C228.476 65.4785 227.849 65 227.325 64.3848C226.824 63.7695 226.414 63.0404 226.095 62.1973C225.799 61.3542 225.605 60.4427 225.514 59.4629C224.329 61.1719 222.802 62.8239 220.934 64.4189C219.088 66.014 216.798 67.4495 214.063 68.7256C215.294 70.0016 216.365 71.4144 217.276 72.9639C218.188 74.5361 218.94 76.1654 219.532 77.8516C220.147 79.5378 220.603 81.2354 220.899 82.9443C221.218 84.6761 221.378 86.3281 221.378 87.9004C221.378 89.3359 221.241 90.6803 220.968 91.9336C220.717 93.2096 220.33 94.3148 219.806 95.249C219.304 96.1833 218.689 96.9124 217.96 97.4365C217.231 97.9834 216.399 98.2568 215.465 98.2568C214.098 98.2568 213.038 97.7441 212.286 96.7188C211.534 95.7161 210.976 94.3148 210.611 92.5146C210.27 90.7373 210.064 88.6296 209.996 86.1914C209.951 83.776 209.928 81.1442 209.928 78.2959C209.928 76.8831 209.928 75.2311 209.928 73.3398C209.928 71.4714 209.928 69.4548 209.928 67.29C209.951 65.1481 209.962 62.9036 209.962 60.5566C209.985 58.1868 210.007 55.8171 210.03 53.4473C210.053 51.0775 210.076 48.7533 210.099 46.4746C210.121 44.1732 210.156 41.9971 210.201 39.9463C210.27 36.027 210.406 32.5293 210.611 29.4531C210.816 26.377 211.147 23.7793 211.603 21.6602C212.058 19.541 212.674 17.9346 213.448 16.8408C214.246 15.7243 215.248 15.166 216.456 15.166C217.413 15.166 218.222 15.4395 218.883 15.9863C219.544 16.5104 220.079 17.2282 220.489 18.1396C220.899 19.0283 221.196 20.0765 221.378 21.2842C221.56 22.4919 221.651 23.7565 221.651 25.0781C221.651 27.8581 221.412 30.5469 220.934 33.1445C220.455 35.7422 219.806 38.2601 218.985 40.6982C218.165 43.1364 217.197 45.5176 216.08 47.8418C214.986 50.166 213.813 52.4561 212.56 54.7119C212.56 55.6462 212.56 56.6602 212.56 57.7539C212.56 58.8249 212.56 59.9072 212.56 61.001C212.56 62.0719 212.548 63.1087 212.525 64.1113C212.525 65.0911 212.525 65.9456 212.525 66.6748ZM212.628 49.4482C213.562 47.6937 214.417 45.848 215.191 43.9111C215.989 41.9515 216.673 39.9349 217.242 37.8613C217.812 35.7878 218.256 33.6686 218.575 31.5039C218.894 29.3392 219.054 27.1631 219.054 24.9756C219.054 23.8818 218.997 22.8906 218.883 22.002C218.792 21.1133 218.632 20.3613 218.404 19.7461C218.199 19.1081 217.926 18.6182 217.584 18.2764C217.265 17.9118 216.889 17.7295 216.456 17.7295C216 17.7295 215.602 18.0029 215.26 18.5498C214.918 19.0967 214.622 19.8258 214.371 20.7373C214.12 21.6488 213.904 22.6969 213.722 23.8818C213.562 25.0667 213.425 26.3086 213.312 27.6074C213.198 28.8835 213.106 30.1709 213.038 31.4697C212.97 32.7458 212.913 33.9535 212.867 35.0928C212.844 36.2093 212.822 37.2005 212.799 38.0664C212.799 38.9323 212.799 39.5817 212.799 40.0146C212.776 40.9261 212.753 41.735 212.73 42.4414C212.73 43.1478 212.719 43.8428 212.696 44.5264C212.674 45.21 212.651 45.9391 212.628 46.7139C212.628 47.4886 212.628 48.4001 212.628 49.4482ZM212.525 70.8789C212.525 72.3145 212.514 73.6475 212.491 74.8779C212.491 76.1312 212.491 77.2705 212.491 78.2959C212.491 80.415 212.503 82.5114 212.525 84.585C212.548 86.6585 212.651 88.5156 212.833 90.1562C213.038 91.8197 213.334 93.1527 213.722 94.1553C214.132 95.1807 214.713 95.6934 215.465 95.6934C216.148 95.6934 216.707 95.3857 217.14 94.7705C217.573 94.1553 217.903 93.4261 218.131 92.583C218.382 91.7399 218.552 90.874 218.644 89.9854C218.735 89.1195 218.78 88.4131 218.78 87.8662C218.78 86.4762 218.644 85.0179 218.37 83.4912C218.119 81.9645 217.721 80.4492 217.174 78.9453C216.65 77.4642 216 76.0286 215.226 74.6387C214.451 73.2487 213.551 71.9954 212.525 70.8789ZM230.982 38.1689C230.982 39.0348 230.675 39.7754 230.06 40.3906C229.467 40.9831 228.738 41.2793 227.872 41.2793C227.006 41.2793 226.266 40.9831 225.65 40.3906C225.058 39.7754 224.762 39.0348 224.762 38.1689C224.762 37.736 224.841 37.3372 225.001 36.9727C225.16 36.5853 225.377 36.2549 225.65 35.9814C225.947 35.6852 226.277 35.4574 226.642 35.2979C227.029 35.1383 227.439 35.0586 227.872 35.0586C228.305 35.0586 228.704 35.1383 229.068 35.2979C229.456 35.4574 229.786 35.6852 230.06 35.9814C230.356 36.2549 230.584 36.5853 230.743 36.9727C230.903 37.3372 230.982 37.736 230.982 38.1689ZM229.068 38.1689C229.068 37.8499 228.943 37.5765 228.692 37.3486C228.465 37.098 228.191 36.9727 227.872 36.9727C227.553 36.9727 227.28 37.098 227.052 37.3486C226.824 37.5765 226.71 37.8499 226.71 38.1689C226.71 38.488 226.824 38.7614 227.052 38.9893C227.28 39.2171 227.553 39.3311 227.872 39.3311C228.191 39.3311 228.465 39.2171 228.692 38.9893C228.943 38.7614 229.068 38.488 229.068 38.1689ZM247.73 61.9238C248.095 61.1719 248.517 60.3516 248.995 59.4629C249.474 58.5514 249.986 57.64 250.533 56.7285C251.08 55.7943 251.65 54.8714 252.242 53.96C252.857 53.0485 253.495 52.1826 254.156 51.3623C254.817 50.5648 255.478 49.9951 256.139 49.6533C256.822 49.2887 257.46 49.1064 258.053 49.1064C259.238 49.1064 260.115 49.5394 260.685 50.4053C261.254 51.2712 261.539 52.3421 261.539 53.6182C261.539 53.9144 261.516 54.279 261.471 54.7119C261.448 55.1221 261.414 55.5664 261.368 56.0449C261.345 56.5234 261.311 57.0133 261.266 57.5146C261.243 57.9932 261.231 58.4489 261.231 58.8818C261.231 59.4287 261.254 59.9528 261.3 60.4541C261.368 60.9554 261.482 61.3997 261.642 61.7871C261.801 62.1517 262.029 62.4479 262.325 62.6758C262.621 62.8809 263.009 62.9834 263.487 62.9834C264.353 62.9834 265.196 62.653 266.017 61.9922C266.837 61.3086 267.589 60.5111 268.272 59.5996C268.979 58.6654 269.583 57.7197 270.084 56.7627C270.608 55.8057 270.995 55.0309 271.246 54.4385C271.36 54.1878 271.52 53.9941 271.725 53.8574C271.952 53.7207 272.192 53.6523 272.442 53.6523C272.83 53.6523 273.137 53.8005 273.365 54.0967C273.616 54.3701 273.741 54.6663 273.741 54.9854C273.741 55.1449 273.707 55.3044 273.639 55.4639C273.548 55.6462 273.365 56.0221 273.092 56.5918C272.818 57.1615 272.454 57.8223 271.998 58.5742C271.565 59.3034 271.052 60.0895 270.46 60.9326C269.868 61.7529 269.207 62.5049 268.478 63.1885C267.771 63.8721 266.996 64.4417 266.153 64.8975C265.333 65.3532 264.467 65.5811 263.556 65.5811C262.53 65.5811 261.699 65.3874 261.061 65C260.423 64.5898 259.921 64.0658 259.557 63.4277C259.192 62.7669 258.941 62.0492 258.805 61.2744C258.691 60.4769 258.634 59.6794 258.634 58.8818C258.634 58.54 258.645 58.1527 258.668 57.7197C258.714 57.2868 258.759 56.8311 258.805 56.3525C258.873 55.874 258.919 55.3955 258.941 54.917C258.987 54.4385 259.01 53.9827 259.01 53.5498C259.01 52.8206 258.896 52.3307 258.668 52.0801C258.44 51.8066 258.235 51.6699 258.053 51.6699C257.688 51.6699 257.267 51.8864 256.788 52.3193C256.332 52.7295 255.842 53.2764 255.318 53.96C254.817 54.6436 254.293 55.4183 253.746 56.2842C253.222 57.1273 252.721 57.9704 252.242 58.8135C251.786 59.6566 251.354 60.4655 250.943 61.2402C250.556 61.9922 250.248 62.6188 250.021 63.1201C249.565 64.0771 249.109 64.7152 248.653 65.0342C248.198 65.376 247.73 65.5469 247.252 65.5469C246.591 65.5469 246.056 65.3532 245.646 64.9658C245.258 64.5557 245.064 63.986 245.064 63.2568C245.064 63.0973 245.087 62.7897 245.133 62.334C245.178 61.8555 245.235 61.2972 245.304 60.6592C245.372 59.9984 245.44 59.292 245.509 58.54C245.577 57.7881 245.646 57.0475 245.714 56.3184C245.782 55.5664 245.839 54.8714 245.885 54.2334C245.93 53.5954 245.953 53.0599 245.953 52.627C245.953 52.0573 245.93 51.5104 245.885 50.9863C245.839 50.4622 245.748 50.1432 245.611 50.0293C245.406 50.0977 245.042 50.5306 244.518 51.3281C243.993 52.1029 243.321 53.4814 242.501 55.4639C242.387 55.7145 242.216 55.9082 241.988 56.0449C241.76 56.1816 241.521 56.25 241.271 56.25C240.883 56.25 240.576 56.1247 240.348 55.874C240.12 55.6006 240.006 55.293 240.006 54.9512C240.006 54.7917 240.04 54.6208 240.108 54.4385C241.134 52.0003 242.091 50.2116 242.979 49.0723C243.891 47.9102 244.791 47.3291 245.68 47.3291C246.204 47.3291 246.648 47.4658 247.013 47.7393C247.377 47.9899 247.662 48.3317 247.867 48.7646C248.095 49.1976 248.255 49.6761 248.346 50.2002C248.46 50.7243 248.517 51.2598 248.517 51.8066C248.517 52.2168 248.482 52.8548 248.414 53.7207C248.368 54.5866 248.3 55.5208 248.209 56.5234C248.118 57.5033 248.027 58.4831 247.936 59.4629C247.867 60.4427 247.799 61.263 247.73 61.9238ZM297.735 55.4639C297.644 55.6462 297.451 56.0335 297.154 56.626C296.881 57.1956 296.516 57.8564 296.061 58.6084C295.628 59.3604 295.115 60.1465 294.522 60.9668C293.93 61.7871 293.269 62.5391 292.54 63.2227C291.811 63.9062 291.025 64.4759 290.182 64.9316C289.339 65.3646 288.45 65.5811 287.516 65.5811C286.194 65.5811 285.077 65.1595 284.166 64.3164C283.277 63.4733 282.628 62.4137 282.218 61.1377C281.443 62.4365 280.52 63.4733 279.449 64.248C278.378 65 277.307 65.376 276.236 65.376C275.393 65.376 274.63 65.2279 273.946 64.9316C273.263 64.6126 272.682 64.1797 272.203 63.6328C271.725 63.0632 271.349 62.4023 271.075 61.6504C270.825 60.8984 270.699 60.0781 270.699 59.1895C270.699 57.4121 270.995 55.8512 271.588 54.5068C272.203 53.1396 272.978 52.0003 273.912 51.0889C274.846 50.1774 275.872 49.4938 276.988 49.0381C278.128 48.5824 279.221 48.3545 280.27 48.3545C280.976 48.3545 281.625 48.457 282.218 48.6621C282.81 48.8444 283.312 49.0495 283.722 49.2773C284.155 49.5052 284.485 49.7217 284.713 49.9268C284.941 50.109 285.066 50.2116 285.089 50.2344C285.34 50.5306 285.465 50.8382 285.465 51.1572C285.465 51.499 285.34 51.8066 285.089 52.0801C284.838 52.3307 284.542 52.4561 284.2 52.4561C283.836 52.4561 283.528 52.3307 283.277 52.0801C283.232 52.0345 283.129 51.9548 282.97 51.8408C282.81 51.7041 282.594 51.5674 282.32 51.4307C282.047 51.2939 281.716 51.18 281.329 51.0889C280.965 50.9749 280.543 50.918 280.064 50.918C279.358 50.918 278.606 51.0775 277.809 51.3965C277.011 51.7155 276.282 52.2168 275.621 52.9004C274.96 53.5612 274.402 54.4043 273.946 55.4297C273.513 56.4323 273.297 57.6286 273.297 59.0186C273.297 59.4515 273.342 59.8958 273.434 60.3516C273.525 60.7845 273.684 61.1833 273.912 61.5479C274.14 61.9124 274.448 62.2087 274.835 62.4365C275.222 62.6644 275.701 62.7783 276.271 62.7783C276.681 62.7783 277.148 62.6416 277.672 62.3682C278.219 62.0947 278.731 61.6732 279.21 61.1035C279.711 60.5339 280.156 59.8161 280.543 58.9502C280.953 58.0843 281.238 57.0589 281.397 55.874C281.443 55.555 281.591 55.293 281.842 55.0879C282.092 54.86 282.389 54.7461 282.73 54.7461C283.049 54.7461 283.323 54.8714 283.551 55.1221C283.801 55.3727 283.938 55.6576 283.961 55.9766C283.984 56.4095 284.029 57.0247 284.098 57.8223C284.166 58.597 284.314 59.3717 284.542 60.1465C284.793 60.9212 285.157 61.5934 285.636 62.1631C286.114 62.7327 286.775 63.0176 287.618 63.0176C288.165 63.0176 288.701 62.8695 289.225 62.5732C289.771 62.277 290.296 61.8896 290.797 61.4111C291.321 60.9098 291.811 60.3516 292.267 59.7363C292.745 59.0983 293.178 58.4603 293.565 57.8223C293.953 57.1842 294.295 56.569 294.591 55.9766C294.887 55.3841 295.138 54.8714 295.343 54.4385C295.457 54.1878 295.616 53.9941 295.821 53.8574C296.049 53.7207 296.288 53.6523 296.539 53.6523C296.926 53.6523 297.234 53.8005 297.462 54.0967C297.713 54.3701 297.838 54.6663 297.838 54.9854C297.838 55.1449 297.804 55.3044 297.735 55.4639ZM314.825 55.5322C314.575 56.0563 314.256 56.6829 313.868 57.4121C313.504 58.1185 313.082 58.859 312.604 59.6338C312.125 60.4085 311.59 61.1833 310.997 61.958C310.405 62.71 309.755 63.3936 309.049 64.0088C308.365 64.6012 307.625 65.0798 306.827 65.4443C306.052 65.8317 305.221 66.0254 304.332 66.0254C302.965 66.0254 301.791 65.6038 300.812 64.7607C299.832 63.9176 299 62.8125 298.316 61.4453C297.633 60.0781 297.075 58.5286 296.642 56.7969C296.231 55.0423 295.912 53.265 295.685 51.4648C295.457 49.6419 295.297 47.876 295.206 46.167C295.138 44.458 295.104 42.9427 295.104 41.6211C295.104 39.707 295.16 37.7246 295.274 35.6738C295.411 33.623 295.616 31.6178 295.89 29.6582C296.163 27.6986 296.505 25.8415 296.915 24.0869C297.348 22.3324 297.849 20.7943 298.419 19.4727C299.011 18.151 299.684 17.1029 300.436 16.3281C301.188 15.5534 302.042 15.166 302.999 15.166C303.751 15.166 304.423 15.3483 305.016 15.7129C305.631 16.0547 306.144 16.6243 306.554 17.4219C306.964 18.2194 307.283 19.2562 307.511 20.5322C307.739 21.8083 307.853 23.3691 307.853 25.2148C307.853 27.4935 307.613 29.8519 307.135 32.29C306.656 34.7054 306.007 37.1436 305.187 39.6045C304.366 42.0654 303.398 44.5264 302.281 46.9873C301.165 49.4255 299.968 51.8066 298.692 54.1309C299.262 57.0247 300.025 59.3034 300.982 60.9668C301.939 62.6074 303.09 63.4277 304.435 63.4277C305.346 63.4277 306.223 63.0745 307.066 62.3682C307.91 61.639 308.684 60.7845 309.391 59.8047C310.097 58.8249 310.712 57.8337 311.236 56.8311C311.783 55.8057 312.205 54.9854 312.501 54.3701C312.615 54.1423 312.774 53.9714 312.979 53.8574C313.185 53.7207 313.412 53.6523 313.663 53.6523C314.05 53.6523 314.358 53.7891 314.586 54.0625C314.837 54.3359 314.962 54.6436 314.962 54.9854C314.962 55.1221 314.916 55.3044 314.825 55.5322ZM297.701 41.792C297.701 43.2503 297.735 44.6517 297.804 45.9961C297.872 47.3405 297.963 48.6279 298.077 49.8584C299.034 48.0127 299.946 46.0531 300.812 43.9795C301.677 41.8831 302.441 39.7754 303.102 37.6562C303.762 35.5143 304.286 33.3952 304.674 31.2988C305.084 29.1797 305.289 27.1631 305.289 25.249C305.289 22.5602 305.073 20.6348 304.64 19.4727C304.207 18.3105 303.626 17.7295 302.896 17.7295C302.418 17.7295 301.951 18.0599 301.495 18.7207C301.062 19.3815 300.652 20.2816 300.265 21.4209C299.877 22.5602 299.524 23.9046 299.205 25.4541C298.886 27.0036 298.613 28.667 298.385 30.4443C298.18 32.2217 298.009 34.0788 297.872 36.0156C297.758 37.9525 297.701 39.8779 297.701 41.792ZM341.178 55.0537C342.294 60.3174 343.912 62.9492 346.031 62.9492C346.852 62.9492 347.638 62.653 348.39 62.0605C349.142 61.4453 349.837 60.7048 350.475 59.8389C351.135 58.9502 351.716 58.016 352.218 57.0361C352.719 56.0563 353.129 55.2018 353.448 54.4727C353.676 53.9258 354.075 53.6523 354.645 53.6523C355.009 53.6523 355.317 53.7891 355.567 54.0625C355.818 54.3359 355.943 54.6322 355.943 54.9512C355.943 55.1335 355.909 55.293 355.841 55.4297C355.681 55.8171 355.442 56.3411 355.123 57.002C354.827 57.64 354.451 58.335 353.995 59.0869C353.562 59.8161 353.072 60.568 352.525 61.3428C351.979 62.1175 351.375 62.8125 350.714 63.4277C350.053 64.043 349.347 64.5557 348.595 64.9658C347.866 65.3532 347.091 65.5469 346.271 65.5469C344.744 65.5469 343.434 65.0228 342.34 63.9746C341.246 62.9036 340.3 61.1491 339.503 58.7109C338.409 61.0352 337.304 62.7214 336.188 63.7695C335.071 64.8177 333.863 65.3418 332.564 65.3418C331.881 65.3418 331.22 65.2279 330.582 65C329.944 64.7949 329.386 64.4417 328.907 63.9404C328.429 63.4391 328.041 62.8011 327.745 62.0264C327.449 61.2288 327.301 60.2604 327.301 59.1211C327.301 57.5488 327.574 56.1019 328.121 54.7803C328.668 53.4587 329.374 52.3307 330.24 51.3965C331.106 50.4395 332.063 49.6989 333.111 49.1748C334.182 48.6507 335.242 48.3887 336.29 48.3887C336.632 48.3887 336.928 48.514 337.179 48.7646C337.429 48.9925 337.555 49.2887 337.555 49.6533C337.555 49.9723 337.452 50.2572 337.247 50.5078C337.042 50.7585 336.769 50.9066 336.427 50.9521C335.743 51.0433 335.014 51.2598 334.239 51.6016C333.465 51.9434 332.747 52.4447 332.086 53.1055C331.448 53.7435 330.912 54.5638 330.479 55.5664C330.069 56.569 329.864 57.7653 329.864 59.1553C329.864 60.2946 330.092 61.1833 330.548 61.8213C331.026 62.4593 331.71 62.7783 332.599 62.7783C332.963 62.7783 333.351 62.6872 333.761 62.5049C334.171 62.2998 334.604 61.9124 335.06 61.3428C335.538 60.7731 336.051 59.9642 336.598 58.916C337.167 57.8678 337.794 56.4893 338.478 54.7803C338.09 52.7751 337.737 50.4622 337.418 47.8418C337.099 45.2214 336.939 42.2933 336.939 39.0576C336.939 37.6449 336.985 36.1751 337.076 34.6484C337.167 33.099 337.315 31.5951 337.521 30.1367C337.726 28.6556 337.999 27.2542 338.341 25.9326C338.683 24.611 339.093 23.4489 339.571 22.4463C340.073 21.4437 340.654 20.6576 341.314 20.0879C341.975 19.4954 342.727 19.1992 343.57 19.1992C344.322 19.1992 344.96 19.4043 345.484 19.8145C346.008 20.2246 346.43 20.7943 346.749 21.5234C347.091 22.2526 347.341 23.1299 347.501 24.1553C347.66 25.1807 347.74 26.3086 347.74 27.5391C347.74 30.1823 347.512 32.8255 347.057 35.4688C346.601 38.112 346.031 40.6413 345.348 43.0566C344.687 45.472 343.98 47.7051 343.229 49.7559C342.477 51.8066 341.793 53.5726 341.178 55.0537ZM345.177 27.5049C345.177 26.9352 345.154 26.32 345.108 25.6592C345.086 24.9984 345.006 24.3831 344.869 23.8135C344.755 23.221 344.596 22.7311 344.391 22.3438C344.186 21.9564 343.912 21.7627 343.57 21.7627C343.001 21.7627 342.465 22.264 341.964 23.2666C341.485 24.2692 341.064 25.5908 340.699 27.2314C340.335 28.8493 340.038 30.695 339.811 32.7686C339.605 34.8193 339.503 36.8929 339.503 38.9893C339.503 40.9945 339.583 42.9997 339.742 45.0049C339.902 47.0101 340.084 48.7988 340.289 50.3711C340.95 48.6165 341.576 46.8164 342.169 44.9707C342.761 43.1022 343.274 41.1995 343.707 39.2627C344.163 37.3258 344.516 35.3776 344.767 33.418C345.04 31.4355 345.177 29.4645 345.177 27.5049ZM357.584 61.2402C358.062 61.901 358.678 62.4365 359.43 62.8467C360.182 63.234 361.104 63.4277 362.198 63.4277C363.315 63.4277 364.329 63.1657 365.24 62.6416C366.152 62.0947 366.983 61.3883 367.735 60.5225C368.487 59.6566 369.16 58.6882 369.752 57.6172C370.344 56.5462 370.88 55.4753 371.358 54.4043C371.472 54.1536 371.632 53.9714 371.837 53.8574C372.042 53.7207 372.27 53.6523 372.521 53.6523C372.908 53.6523 373.215 53.7891 373.443 54.0625C373.694 54.3359 373.819 54.6322 373.819 54.9512C373.819 55.0651 373.808 55.1676 373.785 55.2588C373.762 55.3271 373.728 55.4069 373.683 55.498C372.11 58.9616 370.39 61.5706 368.521 63.3252C366.676 65.0798 364.579 65.9798 362.232 66.0254C360.729 66.0254 359.43 65.7292 358.336 65.1367C357.242 64.5671 356.342 63.8265 355.636 62.915C354.929 61.9808 354.405 60.9326 354.063 59.7705C353.722 58.6084 353.551 57.4463 353.551 56.2842C353.551 55.1221 353.688 54.0511 353.961 53.0713C354.257 52.0915 354.667 51.237 355.191 50.5078C355.738 49.7786 356.376 49.209 357.105 48.7988C357.857 48.3887 358.678 48.1836 359.566 48.1836C360.09 48.1836 360.603 48.2975 361.104 48.5254C361.629 48.7305 362.096 49.0381 362.506 49.4482C362.916 49.8356 363.246 50.3141 363.497 50.8838C363.748 51.4535 363.873 52.1029 363.873 52.832C363.873 53.7663 363.714 54.6436 363.395 55.4639C363.076 56.2842 362.631 57.0475 362.062 57.7539C361.515 58.4603 360.854 59.1097 360.079 59.7021C359.304 60.2946 358.473 60.8073 357.584 61.2402ZM356.559 59.0186C357.265 58.7223 357.903 58.3464 358.473 57.8906C359.065 57.4349 359.566 56.9336 359.977 56.3867C360.387 55.8398 360.706 55.2702 360.934 54.6777C361.161 54.0625 361.275 53.4473 361.275 52.832C361.275 52.1484 361.104 51.6357 360.763 51.2939C360.421 50.9294 360.022 50.7471 359.566 50.7471C358.951 50.7471 358.427 50.918 357.994 51.2598C357.561 51.6016 357.208 52.0459 356.935 52.5928C356.661 53.1396 356.456 53.7549 356.319 54.4385C356.205 55.0993 356.148 55.7601 356.148 56.4209C356.148 56.8311 356.183 57.264 356.251 57.7197C356.342 58.1755 356.445 58.6084 356.559 59.0186ZM414.459 30.7861C414.459 31.1507 414.334 31.4469 414.083 31.6748C413.832 31.8799 413.525 31.9824 413.16 31.9824H395.831V32.3584C395.831 33.7484 395.729 35.2295 395.523 36.8018C395.318 38.374 395.034 39.9463 394.669 41.5186C394.327 43.068 393.928 44.5833 393.473 46.0645C393.04 47.5456 392.584 48.9128 392.105 50.166C391.65 51.4193 391.194 52.513 390.738 53.4473C390.283 54.3587 389.872 55.0423 389.508 55.498C389.804 56.5462 390.157 57.526 390.567 58.4375C390.978 59.3262 391.433 60.1123 391.935 60.7959C392.459 61.4567 393.017 61.9808 393.609 62.3682C394.202 62.7555 394.84 62.9492 395.523 62.9492C396.321 62.9492 397.107 62.6188 397.882 61.958C398.679 61.2744 399.409 60.4769 400.069 59.5654C400.753 58.6312 401.345 57.6969 401.847 56.7627C402.371 55.8057 402.747 55.0423 402.975 54.4727C403.202 53.9258 403.601 53.6523 404.171 53.6523C404.558 53.6523 404.866 53.7891 405.094 54.0625C405.344 54.3359 405.47 54.6322 405.47 54.9512C405.47 55.1107 405.436 55.2702 405.367 55.4297C405.299 55.5892 405.128 55.9538 404.854 56.5234C404.604 57.0931 404.262 57.7539 403.829 58.5059C403.419 59.2578 402.929 60.0553 402.359 60.8984C401.812 61.7188 401.186 62.4707 400.479 63.1543C399.796 63.8379 399.055 64.4076 398.258 64.8633C397.46 65.319 396.617 65.5469 395.729 65.5469C394.156 65.5469 392.743 65.0342 391.49 64.0088C390.237 62.9834 389.166 61.5479 388.277 59.7021C387.411 57.8564 386.751 55.6689 386.295 53.1396C385.839 50.6104 385.611 47.8418 385.611 44.834C385.611 44.082 385.623 43.2048 385.646 42.2021C385.668 41.1768 385.714 40.1058 385.782 38.9893C385.851 37.8499 385.953 36.6878 386.09 35.5029C386.227 34.2952 386.409 33.1217 386.637 31.9824H374.366C374.002 31.9824 373.694 31.8799 373.443 31.6748C373.193 31.4469 373.067 31.1507 373.067 30.7861C373.067 30.4215 373.193 30.1367 373.443 29.9316C373.694 29.7038 374.002 29.5898 374.366 29.5898H387.218C387.446 28.7695 387.708 28.0176 388.004 27.334C388.323 26.6504 388.676 26.0579 389.063 25.5566C389.474 25.0553 389.918 24.668 390.396 24.3945C390.898 24.0983 391.445 23.9502 392.037 23.9502C392.607 23.9502 393.097 24.0983 393.507 24.3945C393.94 24.668 394.304 25.0553 394.601 25.5566C394.897 26.0579 395.125 26.6504 395.284 27.334C395.466 28.0176 395.603 28.7695 395.694 29.5898H413.16C413.525 29.5898 413.832 29.7038 414.083 29.9316C414.334 30.1367 414.459 30.4215 414.459 30.7861ZM388.722 52.0801C389.405 50.5762 390.021 48.9583 390.567 47.2266C391.137 45.472 391.616 43.7061 392.003 41.9287C392.413 40.1514 392.721 38.4082 392.926 36.6992C393.154 34.9902 393.268 33.418 393.268 31.9824H389.234C388.915 33.3952 388.653 35.1497 388.448 37.2461C388.266 39.3197 388.175 41.849 388.175 44.834C388.175 46.4974 388.22 47.8988 388.312 49.0381C388.403 50.1546 388.539 51.1686 388.722 52.0801ZM391.9 26.5137C391.695 26.5137 391.399 26.7415 391.012 27.1973C390.624 27.6302 390.237 28.4277 389.85 29.5898H393.131C393.017 28.6328 392.846 27.8809 392.618 27.334C392.413 26.7871 392.174 26.5137 391.9 26.5137ZM389.269 54.541V54.5752V54.541ZM414.459 61.1719C413.661 62.4707 412.727 63.4961 411.656 64.248C410.608 65 409.549 65.376 408.478 65.376C407.612 65.376 406.837 65.2165 406.153 64.8975C405.47 64.5785 404.877 64.1341 404.376 63.5645C403.875 62.972 403.487 62.2656 403.214 61.4453C402.963 60.625 402.838 59.7021 402.838 58.6768C402.838 57.0817 402.986 55.6689 403.282 54.4385C403.601 53.208 403.943 52.1826 404.308 51.3623C404.672 50.5192 405.014 49.8812 405.333 49.4482C405.652 49.0153 405.812 48.7988 405.812 48.7988C405.925 48.6621 406.062 48.5596 406.222 48.4912C406.404 48.4229 406.586 48.3887 406.769 48.3887C407.133 48.3887 407.429 48.5254 407.657 48.7988C407.908 49.0495 408.033 49.3457 408.033 49.6875C408.033 49.8242 407.999 49.9609 407.931 50.0977C407.885 50.2344 407.828 50.3711 407.76 50.5078C407.646 50.7129 407.464 51.0319 407.213 51.4648C406.962 51.875 406.7 52.4219 406.427 53.1055C406.153 53.7891 405.914 54.598 405.709 55.5322C405.504 56.4437 405.401 57.4919 405.401 58.6768C405.401 60.0212 405.663 61.0465 406.188 61.7529C406.734 62.4365 407.498 62.7783 408.478 62.7783C408.888 62.7783 409.355 62.653 409.879 62.4023C410.426 62.1289 410.95 61.7188 411.451 61.1719C411.975 60.625 412.431 59.93 412.818 59.0869C413.206 58.2438 413.456 57.2526 413.57 56.1133L414.083 50.2344C414.129 49.8926 414.277 49.6077 414.527 49.3799C414.778 49.152 415.074 49.0381 415.416 49.0381C415.803 49.0381 416.111 49.1862 416.339 49.4824C416.567 49.7559 416.681 50.0749 416.681 50.4395L416.236 56.1133C416.191 56.5918 416.202 57.2184 416.271 57.9932C416.362 58.7679 416.533 59.5312 416.783 60.2832C417.034 61.0352 417.41 61.6846 417.911 62.2314C418.412 62.7555 419.073 63.0176 419.894 63.0176C420.486 63.0176 421.067 62.8695 421.637 62.5732C422.206 62.2542 422.753 61.8441 423.277 61.3428C423.801 60.8415 424.28 60.2832 424.713 59.668C425.169 59.0299 425.579 58.3919 425.943 57.7539C426.331 57.1159 426.661 56.512 426.935 55.9424C427.208 55.3499 427.436 54.8486 427.618 54.4385C427.732 54.1878 427.892 53.9941 428.097 53.8574C428.302 53.7207 428.53 53.6523 428.78 53.6523C429.19 53.6523 429.509 53.7891 429.737 54.0625C429.965 54.3359 430.079 54.6322 430.079 54.9512C430.079 55.1335 430.045 55.3044 429.977 55.4639C429.885 55.6462 429.703 56.0335 429.43 56.626C429.179 57.1956 428.837 57.8564 428.404 58.6084C427.994 59.3376 427.493 60.1123 426.9 60.9326C426.308 61.7529 425.647 62.5163 424.918 63.2227C424.189 63.9062 423.391 64.4759 422.525 64.9316C421.682 65.3646 420.771 65.5811 419.791 65.5811C418.447 65.5811 417.33 65.2051 416.441 64.4531C415.553 63.6784 414.892 62.5846 414.459 61.1719ZM462.481 55.5322C462.231 56.0563 461.912 56.6829 461.524 57.4121C461.16 58.1185 460.738 58.859 460.26 59.6338C459.781 60.4085 459.246 61.1833 458.653 61.958C458.061 62.71 457.411 63.3936 456.705 64.0088C456.021 64.6012 455.281 65.0798 454.483 65.4443C453.709 65.8317 452.877 66.0254 451.988 66.0254C450.621 66.0254 449.448 65.6038 448.468 64.7607C447.488 63.9176 446.656 62.8125 445.973 61.4453C445.289 60.0781 444.731 58.5286 444.298 56.7969C443.888 55.0423 443.569 53.265 443.341 51.4648C443.113 49.6419 442.953 47.876 442.862 46.167C442.794 44.458 442.76 42.9427 442.76 41.6211C442.76 39.707 442.817 37.7246 442.931 35.6738C443.067 33.623 443.272 31.6178 443.546 29.6582C443.819 27.6986 444.161 25.8415 444.571 24.0869C445.004 22.3324 445.506 20.7943 446.075 19.4727C446.668 18.151 447.34 17.1029 448.092 16.3281C448.844 15.5534 449.698 15.166 450.655 15.166C451.407 15.166 452.079 15.3483 452.672 15.7129C453.287 16.0547 453.8 16.6243 454.21 17.4219C454.62 18.2194 454.939 19.2562 455.167 20.5322C455.395 21.8083 455.509 23.3691 455.509 25.2148C455.509 27.4935 455.27 29.8519 454.791 32.29C454.312 34.7054 453.663 37.1436 452.843 39.6045C452.022 42.0654 451.054 44.5264 449.938 46.9873C448.821 49.4255 447.625 51.8066 446.349 54.1309C446.918 57.0247 447.682 59.3034 448.639 60.9668C449.596 62.6074 450.746 63.4277 452.091 63.4277C453.002 63.4277 453.88 63.0745 454.723 62.3682C455.566 61.639 456.34 60.7845 457.047 59.8047C457.753 58.8249 458.368 57.8337 458.893 56.8311C459.439 55.8057 459.861 54.9854 460.157 54.3701C460.271 54.1423 460.431 53.9714 460.636 53.8574C460.841 53.7207 461.069 53.6523 461.319 53.6523C461.707 53.6523 462.014 53.7891 462.242 54.0625C462.493 54.3359 462.618 54.6436 462.618 54.9854C462.618 55.1221 462.573 55.3044 462.481 55.5322ZM445.357 41.792C445.357 43.2503 445.392 44.6517 445.46 45.9961C445.528 47.3405 445.619 48.6279 445.733 49.8584C446.69 48.0127 447.602 46.0531 448.468 43.9795C449.334 41.8831 450.097 39.7754 450.758 37.6562C451.419 35.5143 451.943 33.3952 452.33 31.2988C452.74 29.1797 452.945 27.1631 452.945 25.249C452.945 22.5602 452.729 20.6348 452.296 19.4727C451.863 18.3105 451.282 17.7295 450.553 17.7295C450.074 17.7295 449.607 18.0599 449.151 18.7207C448.718 19.3815 448.308 20.2816 447.921 21.4209C447.534 22.5602 447.18 23.9046 446.861 25.4541C446.542 27.0036 446.269 28.667 446.041 30.4443C445.836 32.2217 445.665 34.0788 445.528 36.0156C445.414 37.9525 445.357 39.8779 445.357 41.792ZM475.948 61.2402C475.379 61.2402 474.877 61.1947 474.444 61.1035C474.103 61.7871 473.692 62.4251 473.214 63.0176C472.735 63.5872 472.177 64.0885 471.539 64.5215C470.924 64.9544 470.229 65.2962 469.454 65.5469C468.679 65.7975 467.836 65.9229 466.925 65.9229C465.854 65.9229 464.874 65.7292 463.985 65.3418C463.097 64.9772 462.322 64.4645 461.661 63.8037C461 63.1201 460.488 62.3112 460.123 61.377C459.758 60.4199 459.576 59.3717 459.576 58.2324C459.576 56.7741 459.838 55.5094 460.362 54.4385C460.886 53.3447 461.49 52.4447 462.174 51.7383C462.857 51.0091 463.541 50.4736 464.225 50.1318C464.908 49.7673 465.421 49.585 465.763 49.585C466.15 49.585 466.435 49.6875 466.617 49.8926C466.822 50.0977 466.925 50.3711 466.925 50.7129C466.925 51.1003 466.799 51.3965 466.549 51.6016C466.321 51.7839 466.025 51.9661 465.66 52.1484C465.296 52.3307 464.908 52.5928 464.498 52.9346C464.088 53.2536 463.701 53.6637 463.336 54.165C462.994 54.6663 462.709 55.2588 462.481 55.9424C462.254 56.626 462.14 57.3893 462.14 58.2324C462.14 58.9844 462.254 59.6908 462.481 60.3516C462.709 60.9896 463.04 61.5479 463.473 62.0264C463.906 62.4821 464.418 62.8467 465.011 63.1201C465.603 63.3708 466.264 63.4961 466.993 63.4961C468.292 63.4961 469.363 63.1999 470.206 62.6074C471.072 61.9922 471.733 61.2174 472.188 60.2832C470.844 59.5768 469.739 58.5742 468.873 57.2754C468.007 55.9766 467.574 54.5182 467.574 52.9004C467.574 51.6016 467.882 50.542 468.497 49.7217C469.135 48.9014 469.967 48.4912 470.992 48.4912C471.607 48.4912 472.188 48.6393 472.735 48.9355C473.282 49.2318 473.761 49.6989 474.171 50.3369C474.604 50.9749 474.946 51.7952 475.196 52.7979C475.447 53.8005 475.572 54.9967 475.572 56.3867C475.572 57.1159 475.481 57.8792 475.299 58.6768C475.436 58.6995 475.572 58.7109 475.709 58.7109C475.846 58.7109 475.994 58.7109 476.153 58.7109C476.928 58.7109 477.623 58.6198 478.238 58.4375C478.854 58.2552 479.412 57.9818 479.913 57.6172C480.414 57.2526 480.859 56.7855 481.246 56.2158C481.656 55.6462 482.044 54.9854 482.408 54.2334C482.477 54.0967 482.625 53.9714 482.853 53.8574C483.08 53.7207 483.308 53.6523 483.536 53.6523C483.832 53.6523 484.106 53.7777 484.356 54.0283C484.63 54.2562 484.767 54.5638 484.767 54.9512C484.767 55.1335 484.721 55.3385 484.63 55.5664C484.539 55.7715 484.448 55.9652 484.356 56.1475C483.969 56.8311 483.513 57.4919 482.989 58.1299C482.488 58.7451 481.884 59.292 481.178 59.7705C480.494 60.2262 479.719 60.5908 478.854 60.8643C477.988 61.1377 477.019 61.263 475.948 61.2402ZM470.104 52.627C470.104 53.0599 470.16 53.5156 470.274 53.9941C470.388 54.4727 470.559 54.9512 470.787 55.4297C471.038 55.8854 471.334 56.3298 471.676 56.7627C472.04 57.1729 472.462 57.526 472.94 57.8223C473.009 57.3438 473.043 56.8766 473.043 56.4209C473.043 55.8057 472.997 55.179 472.906 54.541C472.815 53.903 472.678 53.3219 472.496 52.7979C472.337 52.251 472.132 51.818 471.881 51.499C471.63 51.1572 471.334 50.9863 470.992 50.9863C470.855 50.9863 470.673 51.0889 470.445 51.2939C470.217 51.499 470.104 51.9434 470.104 52.627ZM498.097 61.2402C497.527 61.2402 497.026 61.1947 496.593 61.1035C496.251 61.7871 495.841 62.4251 495.362 63.0176C494.884 63.5872 494.326 64.0885 493.688 64.5215C493.072 64.9544 492.377 65.2962 491.603 65.5469C490.828 65.7975 489.985 65.9229 489.073 65.9229C488.002 65.9229 487.022 65.7292 486.134 65.3418C485.245 64.9772 484.47 64.4645 483.81 63.8037C483.149 63.1201 482.636 62.3112 482.271 61.377C481.907 60.4199 481.725 59.3717 481.725 58.2324C481.725 56.7741 481.987 55.5094 482.511 54.4385C483.035 53.3447 483.639 52.4447 484.322 51.7383C485.006 51.0091 485.689 50.4736 486.373 50.1318C487.057 49.7673 487.569 49.585 487.911 49.585C488.299 49.585 488.583 49.6875 488.766 49.8926C488.971 50.0977 489.073 50.3711 489.073 50.7129C489.073 51.1003 488.948 51.3965 488.697 51.6016C488.469 51.7839 488.173 51.9661 487.809 52.1484C487.444 52.3307 487.057 52.5928 486.646 52.9346C486.236 53.2536 485.849 53.6637 485.484 54.165C485.143 54.6663 484.858 55.2588 484.63 55.9424C484.402 56.626 484.288 57.3893 484.288 58.2324C484.288 58.9844 484.402 59.6908 484.63 60.3516C484.858 60.9896 485.188 61.5479 485.621 62.0264C486.054 62.4821 486.567 62.8467 487.159 63.1201C487.752 63.3708 488.412 63.4961 489.142 63.4961C490.44 63.4961 491.511 63.1999 492.354 62.6074C493.22 61.9922 493.881 61.2174 494.337 60.2832C492.993 59.5768 491.887 58.5742 491.021 57.2754C490.156 55.9766 489.723 54.5182 489.723 52.9004C489.723 51.6016 490.03 50.542 490.646 49.7217C491.284 48.9014 492.115 48.4912 493.141 48.4912C493.756 48.4912 494.337 48.6393 494.884 48.9355C495.431 49.2318 495.909 49.6989 496.319 50.3369C496.752 50.9749 497.094 51.7952 497.345 52.7979C497.595 53.8005 497.721 54.9967 497.721 56.3867C497.721 57.1159 497.63 57.8792 497.447 58.6768C497.584 58.6995 497.721 58.7109 497.857 58.7109C497.994 58.7109 498.142 58.7109 498.302 58.7109C499.076 58.7109 499.771 58.6198 500.387 58.4375C501.002 58.2552 501.56 57.9818 502.062 57.6172C502.563 57.2526 503.007 56.7855 503.395 56.2158C503.805 55.6462 504.192 54.9854 504.557 54.2334C504.625 54.0967 504.773 53.9714 505.001 53.8574C505.229 53.7207 505.457 53.6523 505.685 53.6523C505.981 53.6523 506.254 53.7777 506.505 54.0283C506.778 54.2562 506.915 54.5638 506.915 54.9512C506.915 55.1335 506.869 55.3385 506.778 55.5664C506.687 55.7715 506.596 55.9652 506.505 56.1475C506.118 56.8311 505.662 57.4919 505.138 58.1299C504.636 58.7451 504.033 59.292 503.326 59.7705C502.643 60.2262 501.868 60.5908 501.002 60.8643C500.136 61.1377 499.168 61.263 498.097 61.2402ZM492.252 52.627C492.252 53.0599 492.309 53.5156 492.423 53.9941C492.537 54.4727 492.708 54.9512 492.936 55.4297C493.186 55.8854 493.482 56.3298 493.824 56.7627C494.189 57.1729 494.61 57.526 495.089 57.8223C495.157 57.3438 495.191 56.8766 495.191 56.4209C495.191 55.8057 495.146 55.179 495.055 54.541C494.964 53.903 494.827 53.3219 494.645 52.7979C494.485 52.251 494.28 51.818 494.029 51.499C493.779 51.1572 493.482 50.9863 493.141 50.9863C493.004 50.9863 492.822 51.0889 492.594 51.2939C492.366 51.499 492.252 51.9434 492.252 52.627ZM513.102 60.7959C513.489 61.6618 514.127 62.3568 515.016 62.8809C515.904 63.3822 516.907 63.6328 518.023 63.6328C518.365 63.6328 518.924 63.5872 519.698 63.4961C520.473 63.3822 521.362 63.0404 522.364 62.4707C523.39 61.8783 524.472 60.9554 525.611 59.7021C526.751 58.4489 527.856 56.6829 528.927 54.4043C529.041 54.1536 529.2 53.9714 529.405 53.8574C529.61 53.7207 529.838 53.6523 530.089 53.6523C530.476 53.6523 530.784 53.7891 531.012 54.0625C531.262 54.3359 531.388 54.6322 531.388 54.9512C531.388 55.0879 531.342 55.2702 531.251 55.498C530.453 57.1615 529.565 58.654 528.585 59.9756C527.605 61.2744 526.546 62.391 525.406 63.3252C524.267 64.2367 523.071 64.9316 521.817 65.4102C520.587 65.9115 519.322 66.1621 518.023 66.1621C516.998 66.1621 516.03 66.0026 515.118 65.6836C514.229 65.3646 513.455 64.943 512.794 64.4189C512.156 63.8721 511.643 63.2682 511.256 62.6074C510.891 61.9238 510.709 61.2288 510.709 60.5225C510.709 60.4313 510.72 60.306 510.743 60.1465C510.766 59.987 510.823 59.8161 510.914 59.6338C511.028 59.4287 511.176 59.2464 511.358 59.0869C511.563 58.9046 511.837 58.7565 512.179 58.6426C513.113 58.3691 513.967 58.0387 514.742 57.6514C515.54 57.2412 516.223 56.7855 516.793 56.2842C517.363 55.7829 517.807 55.236 518.126 54.6436C518.445 54.0283 518.604 53.3675 518.604 52.6611C518.604 52.0459 518.399 51.5446 517.989 51.1572C517.579 50.7699 517.078 50.5762 516.485 50.5762C515.87 50.5762 515.266 50.7926 514.674 51.2256C514.081 51.6357 513.5 52.194 512.931 52.9004C512.384 53.584 511.86 54.3815 511.358 55.293C510.857 56.1816 510.39 57.1159 509.957 58.0957C509.547 59.0755 509.182 60.0553 508.863 61.0352C508.544 61.9922 508.282 62.8809 508.077 63.7012C508.009 63.9518 507.929 64.2253 507.838 64.5215C507.77 64.8177 507.656 65.0911 507.496 65.3418C507.337 65.6152 507.143 65.8317 506.915 65.9912C506.687 66.1735 506.391 66.2646 506.026 66.2646C505.685 66.2646 505.354 66.1165 505.035 65.8203C504.716 65.5469 504.557 65.0684 504.557 64.3848C504.557 64.248 504.557 63.724 504.557 62.8125C504.579 61.901 504.602 60.7161 504.625 59.2578C504.648 57.7767 504.671 56.0905 504.693 54.1992C504.739 52.2852 504.773 50.2686 504.796 48.1494C504.819 46.0075 504.853 43.8086 504.898 41.5527C504.944 39.2969 504.978 37.098 505.001 34.9561C505.024 32.8141 505.047 30.7861 505.069 28.8721C505.115 26.9352 505.149 25.2262 505.172 23.7451C505.195 22.2412 505.206 21.0221 505.206 20.0879C505.229 19.1309 505.24 18.5612 505.24 18.3789C505.24 18.0143 505.377 17.7181 505.65 17.4902C505.924 17.2396 506.22 17.1143 506.539 17.1143C506.904 17.1143 507.211 17.2396 507.462 17.4902C507.713 17.7181 507.838 18.0257 507.838 18.4131C507.838 18.4587 507.826 18.9144 507.804 19.7803C507.804 20.6234 507.792 21.7627 507.77 23.1982C507.747 24.6338 507.713 26.3086 507.667 28.2227C507.644 30.1367 507.61 32.1761 507.564 34.3408C507.542 36.4827 507.507 38.693 507.462 40.9717C507.439 43.2503 507.405 45.472 507.359 47.6367C507.337 49.8014 507.314 51.8636 507.291 53.8232C507.268 55.7829 507.245 57.5146 507.223 59.0186C507.587 57.8564 508.054 56.6374 508.624 55.3613C509.194 54.0625 509.866 52.8662 510.641 51.7725C511.415 50.6787 512.281 49.7786 513.238 49.0723C514.218 48.3659 515.3 48.0127 516.485 48.0127C517.146 48.0127 517.761 48.138 518.331 48.3887C518.901 48.6165 519.391 48.9469 519.801 49.3799C520.234 49.79 520.564 50.2799 520.792 50.8496C521.043 51.4193 521.168 52.0345 521.168 52.6953C521.168 53.7207 520.94 54.6663 520.484 55.5322C520.029 56.3753 519.425 57.1387 518.673 57.8223C517.921 58.4831 517.055 59.0641 516.075 59.5654C515.118 60.0667 514.127 60.4769 513.102 60.7959Z" fill="#322016"/>
<path d="M244.26 98C244.033 98 243.82 97.94 243.62 97.82C243.42 97.7 243.32 97.5267 243.32 97.3V84.08C243.32 83.8533 243.42 83.68 243.62 83.56C243.82 83.44 244.033 83.38 244.26 83.38H251.38C251.633 83.38 251.813 83.48 251.92 83.68C252.027 83.88 252.08 84.0867 252.08 84.3C252.08 84.5533 252.02 84.78 251.9 84.98C251.78 85.1667 251.607 85.26 251.38 85.26H245.44V89.84H248.52C248.747 89.84 248.92 89.9267 249.04 90.1C249.16 90.2733 249.22 90.4733 249.22 90.7C249.22 90.8867 249.167 91.0733 249.06 91.26C248.953 91.4333 248.773 91.52 248.52 91.52H245.44V96.12H251.38C251.607 96.12 251.78 96.2133 251.9 96.4C252.02 96.5867 252.08 96.8133 252.08 97.08C252.08 97.2933 252.027 97.5 251.92 97.7C251.813 97.9 251.633 98 251.38 98H244.26ZM260.449 98.16C259.583 98.16 258.816 98.0333 258.149 97.78C257.483 97.5267 256.963 97.22 256.589 96.86C256.216 96.4867 256.029 96.1333 256.029 95.8C256.029 95.64 256.069 95.4733 256.149 95.3C256.243 95.1267 256.356 94.98 256.489 94.86C256.636 94.7267 256.789 94.66 256.949 94.66C257.136 94.66 257.309 94.74 257.469 94.9C257.643 95.0467 257.849 95.2267 258.089 95.44C258.329 95.6533 258.629 95.84 258.989 96C259.349 96.16 259.809 96.24 260.369 96.24C260.849 96.24 261.276 96.1667 261.649 96.02C262.036 95.86 262.336 95.6267 262.549 95.32C262.776 95 262.889 94.6 262.889 94.12C262.889 93.6133 262.769 93.1933 262.529 92.86C262.303 92.5267 261.989 92.2467 261.589 92.02C261.203 91.7933 260.783 91.5867 260.329 91.4C259.876 91.2133 259.416 91.0133 258.949 90.8C258.483 90.5867 258.056 90.3333 257.669 90.04C257.283 89.7333 256.969 89.3533 256.729 88.9C256.503 88.4333 256.389 87.8533 256.389 87.16C256.389 86.4267 256.523 85.8133 256.789 85.32C257.069 84.8267 257.436 84.4333 257.889 84.14C258.343 83.8467 258.843 83.64 259.389 83.52C259.936 83.3867 260.476 83.32 261.009 83.32C261.343 83.32 261.709 83.3467 262.109 83.4C262.523 83.44 262.923 83.52 263.309 83.64C263.696 83.7467 264.016 83.8933 264.269 84.08C264.523 84.2667 264.649 84.4933 264.649 84.76C264.649 84.8933 264.616 85.0533 264.549 85.24C264.483 85.4133 264.383 85.5667 264.249 85.7C264.129 85.8333 263.969 85.9 263.769 85.9C263.596 85.9 263.403 85.84 263.189 85.72C262.976 85.5867 262.696 85.46 262.349 85.34C262.016 85.2067 261.569 85.14 261.009 85.14C260.529 85.14 260.096 85.2067 259.709 85.34C259.336 85.4733 259.043 85.6733 258.829 85.94C258.616 86.1933 258.509 86.5333 258.509 86.96C258.509 87.3867 258.623 87.74 258.849 88.02C259.089 88.2867 259.403 88.52 259.789 88.72C260.176 88.9067 260.596 89.0867 261.049 89.26C261.516 89.4333 261.976 89.64 262.429 89.88C262.896 90.1067 263.323 90.3867 263.709 90.72C264.109 91.0533 264.423 91.48 264.649 92C264.889 92.5067 265.009 93.14 265.009 93.9C265.009 94.86 264.809 95.66 264.409 96.3C264.023 96.9267 263.483 97.3933 262.789 97.7C262.109 98.0067 261.329 98.16 260.449 98.16ZM273.685 98C273.418 98 273.172 97.94 272.945 97.82C272.732 97.7 272.625 97.5267 272.625 97.3V85.32H269.525C269.312 85.32 269.145 85.22 269.025 85.02C268.905 84.82 268.845 84.5933 268.845 84.34C268.845 84.1 268.898 83.88 269.005 83.68C269.112 83.48 269.285 83.38 269.525 83.38H277.825C278.078 83.38 278.258 83.48 278.365 83.68C278.472 83.88 278.525 84.0933 278.525 84.32C278.525 84.5867 278.465 84.82 278.345 85.02C278.238 85.22 278.065 85.32 277.825 85.32H274.745V97.3C274.745 97.5267 274.632 97.7 274.405 97.82C274.192 97.94 273.952 98 273.685 98ZM284.002 98C283.776 98 283.562 97.94 283.362 97.82C283.162 97.7 283.062 97.5267 283.062 97.3V84.08C283.062 83.8533 283.162 83.68 283.362 83.56C283.562 83.44 283.776 83.38 284.002 83.38H291.122C291.376 83.38 291.556 83.48 291.662 83.68C291.769 83.88 291.822 84.0867 291.822 84.3C291.822 84.5533 291.762 84.78 291.642 84.98C291.522 85.1667 291.349 85.26 291.122 85.26H285.182V89.84H288.262C288.489 89.84 288.662 89.9267 288.782 90.1C288.902 90.2733 288.962 90.4733 288.962 90.7C288.962 90.8867 288.909 91.0733 288.802 91.26C288.696 91.4333 288.516 91.52 288.262 91.52H285.182V96.12H291.122C291.349 96.12 291.522 96.2133 291.642 96.4C291.762 96.5867 291.822 96.8133 291.822 97.08C291.822 97.2933 291.769 97.5 291.662 97.7C291.556 97.9 291.376 98 291.122 98H284.002ZM307.795 98.12C307.502 98.12 307.222 98.06 306.955 97.94C306.702 97.82 306.535 97.64 306.455 97.4L302.475 84.44C302.449 84.36 302.435 84.3 302.435 84.26C302.435 84.0867 302.502 83.94 302.635 83.82C302.782 83.6867 302.955 83.58 303.155 83.5C303.369 83.42 303.569 83.38 303.755 83.38C303.942 83.38 304.102 83.4133 304.235 83.48C304.369 83.5467 304.455 83.66 304.495 83.82L307.795 95.22L311.075 83.82C311.129 83.66 311.222 83.5467 311.355 83.48C311.489 83.4133 311.642 83.38 311.815 83.38C312.015 83.38 312.215 83.42 312.415 83.5C312.615 83.58 312.782 83.6867 312.915 83.82C313.062 83.94 313.135 84.0867 313.135 84.26C313.135 84.2867 313.129 84.3133 313.115 84.34C313.115 84.3667 313.115 84.4 313.115 84.44L309.155 97.4C309.075 97.64 308.902 97.82 308.635 97.94C308.382 98.06 308.102 98.12 307.795 98.12ZM318.647 98C318.42 98 318.207 97.94 318.007 97.82C317.807 97.7 317.707 97.5267 317.707 97.3V84.08C317.707 83.8533 317.807 83.68 318.007 83.56C318.207 83.44 318.42 83.38 318.647 83.38H325.767C326.02 83.38 326.2 83.48 326.307 83.68C326.413 83.88 326.467 84.0867 326.467 84.3C326.467 84.5533 326.407 84.78 326.287 84.98C326.167 85.1667 325.993 85.26 325.767 85.26H319.827V89.84H322.907C323.133 89.84 323.307 89.9267 323.427 90.1C323.547 90.2733 323.607 90.4733 323.607 90.7C323.607 90.8867 323.553 91.0733 323.447 91.26C323.34 91.4333 323.16 91.52 322.907 91.52H319.827V96.12H325.767C325.993 96.12 326.167 96.2133 326.287 96.4C326.407 96.5867 326.467 96.8133 326.467 97.08C326.467 97.2933 326.413 97.5 326.307 97.7C326.2 97.9 326.02 98 325.767 98H318.647ZM339.036 98.06C338.863 98.06 338.703 98 338.556 97.88C338.423 97.76 338.309 97.6133 338.216 97.44L335.276 91.72H333.276V97.3C333.276 97.5267 333.163 97.7 332.936 97.82C332.723 97.94 332.483 98 332.216 98C331.949 98 331.703 97.94 331.476 97.82C331.263 97.7 331.156 97.5267 331.156 97.3V84.06C331.156 83.8733 331.216 83.7133 331.336 83.58C331.469 83.4467 331.649 83.38 331.876 83.38H335.676C336.516 83.38 337.283 83.5067 337.976 83.76C338.669 84 339.223 84.42 339.636 85.02C340.049 85.6067 340.256 86.42 340.256 87.46C340.256 88.26 340.129 88.9267 339.876 89.46C339.636 89.9933 339.303 90.42 338.876 90.74C338.463 91.0467 337.989 91.2733 337.456 91.42L340.256 96.68C340.283 96.72 340.303 96.7733 340.316 96.84C340.329 96.8933 340.336 96.94 340.336 96.98C340.336 97.1533 340.269 97.3267 340.136 97.5C340.003 97.66 339.836 97.7933 339.636 97.9C339.449 98.0067 339.249 98.06 339.036 98.06ZM333.276 90.02H335.676C336.423 90.02 337.016 89.84 337.456 89.48C337.909 89.12 338.136 88.5067 338.136 87.64C338.136 86.7733 337.909 86.16 337.456 85.8C337.016 85.44 336.423 85.26 335.676 85.26H333.276V90.02ZM345.471 98C345.284 98 345.084 97.96 344.871 97.88C344.657 97.8 344.484 97.7 344.351 97.58C344.217 97.4467 344.151 97.2933 344.151 97.12C344.151 97.08 344.157 97.02 344.171 96.94L348.151 83.98C348.231 83.74 348.397 83.56 348.651 83.44C348.917 83.32 349.197 83.26 349.491 83.26C349.797 83.26 350.077 83.32 350.331 83.44C350.597 83.56 350.771 83.74 350.851 83.98L354.811 96.94C354.837 97.02 354.851 97.08 354.851 97.12C354.851 97.28 354.777 97.4267 354.631 97.56C354.497 97.6933 354.324 97.8 354.111 97.88C353.911 97.96 353.711 98 353.511 98C353.337 98 353.184 97.9667 353.051 97.9C352.931 97.8333 352.844 97.72 352.791 97.56L351.971 94.72H347.011L346.211 97.56C346.171 97.72 346.077 97.8333 345.931 97.9C345.797 97.9667 345.644 98 345.471 98ZM347.491 93.02H351.491L349.491 86.16L347.491 93.02ZM360.482 98C360.215 98 359.968 97.94 359.742 97.82C359.528 97.7 359.422 97.5267 359.422 97.3V84.08C359.422 83.8267 359.528 83.6467 359.742 83.54C359.968 83.4333 360.215 83.38 360.482 83.38C360.735 83.38 360.948 83.42 361.122 83.5C361.308 83.5667 361.475 83.6867 361.622 83.86C361.768 84.0333 361.922 84.2733 362.082 84.58L366.522 93.24V84.06C366.522 83.82 366.628 83.6467 366.842 83.54C367.068 83.4333 367.315 83.38 367.582 83.38C367.848 83.38 368.088 83.4333 368.302 83.54C368.528 83.6467 368.642 83.82 368.642 84.06V97.3C368.642 97.5267 368.528 97.7 368.302 97.82C368.088 97.94 367.848 98 367.582 98C367.315 98 367.075 97.9333 366.862 97.8C366.648 97.6667 366.468 97.4733 366.322 97.22L361.542 88.12V97.3C361.542 97.5267 361.428 97.7 361.202 97.82C360.988 97.94 360.748 98 360.482 98ZM378.617 98.12C377.764 98.12 376.997 97.9733 376.317 97.68C375.65 97.3867 375.117 96.9133 374.717 96.26C374.33 95.6067 374.137 94.74 374.137 93.66V87.84C374.137 86.76 374.33 85.8933 374.717 85.24C375.117 84.5867 375.65 84.1133 376.317 83.82C376.997 83.5267 377.764 83.38 378.617 83.38C379.457 83.38 380.217 83.5267 380.897 83.82C381.577 84.1133 382.117 84.5867 382.517 85.24C382.917 85.8933 383.117 86.76 383.117 87.84V93.66C383.117 94.74 382.917 95.6067 382.517 96.26C382.117 96.9133 381.577 97.3867 380.897 97.68C380.217 97.9733 379.457 98.12 378.617 98.12ZM378.617 96.24C379.35 96.24 379.93 96.0333 380.357 95.62C380.784 95.1933 380.997 94.54 380.997 93.66V87.84C380.997 86.96 380.784 86.3133 380.357 85.9C379.944 85.4733 379.364 85.26 378.617 85.26C377.87 85.26 377.284 85.4733 376.857 85.9C376.444 86.3133 376.237 86.96 376.237 87.84V93.66C376.237 94.54 376.444 95.1933 376.857 95.62C377.284 96.0333 377.87 96.24 378.617 96.24Z" fill="#322016"/>
</svg>
